<svg width="26" height="26" viewBox="0 0 26 26" fill="none" xmlns="http://www.w3.org/2000/svg">
<g clip-path="url(#clip0_17_28)">
<path d="M13.6584 0.5L19.772 9.15035C16.7803 10.6214 13.9976 12.4665 12.0952 14.9597C10.2395 17.3914 9.28341 20.4595 9.70754 24.2249L7.98374 23.0482C7.68642 20.1191 8.04694 17.5952 9.00089 15.3837C10.2131 12.5733 12.3955 10.2481 15.4678 8.24922C15.6387 8.13584 15.6611 7.85807 15.5107 7.71921L10.1572 2.84281C11.2705 1.98183 12.4738 1.1954 13.6584 0.5ZM7.02012 0.902839L14.7291 7.94185C11.7754 9.93796 9.59192 12.284 8.36918 15.1187C7.17929 17.8773 6.92398 21.1054 7.58758 24.8609L0.478232 19.9527C-0.268697 15.5691 -0.154225 11.9412 0.917215 8.8429C1.97287 5.79027 3.97268 3.23049 7.02012 0.902839ZM23.4873 4.2421L25.7143 14.6416C21.545 14.1666 17.5373 15.9174 14.5899 18.1611C12.8665 19.6224 11.2358 21.0761 10.2536 22.9422C10.1541 19.8905 11.0748 17.4258 12.6412 15.3731C14.5223 12.908 17.3411 11.045 20.4144 9.57436C20.6003 9.49295 20.6726 9.2287 20.5536 9.06552L18.0054 5.47181C20.1796 4.78443 22.1346 4.36063 23.4873 4.2421ZM7.53405 5.64146L6.9987 6.55309C6.47662 6.32454 5.93838 6.20695 5.4248 6.25628C4.76856 6.31931 4.15366 6.68218 3.76524 7.34818C3.46375 7.96424 3.66416 8.46936 3.97937 8.97011C4.61582 9.88746 5.61999 10.4481 6.29205 11.3447C6.53569 11.6566 6.53949 11.9358 6.45265 12.2352C6.15833 12.7399 5.79019 12.9542 5.32844 12.9985C4.86668 13.0429 4.30106 12.884 3.73312 12.5638C3.22398 12.2768 2.81546 11.7277 2.69455 11.2175C2.57365 10.7074 2.67709 10.3019 3.18707 10.0302C3.34835 9.96966 3.44399 9.77517 3.3927 9.61209C3.27585 9.38032 3.09394 9.36167 2.85516 9.42596C2.08536 9.83603 1.8604 10.6579 2.03073 11.3765C2.18535 12.0289 2.61539 12.6422 3.20848 13.0409L2.69455 13.9419L3.28343 14.2812L3.81875 13.3695C4.34084 13.5981 4.87908 13.7157 5.39266 13.6663C6.0489 13.6033 6.66382 13.2405 7.05222 12.5744C7.35372 11.9583 7.15329 11.4532 6.83809 10.9525C6.19848 10.0407 5.20626 9.4732 4.53612 8.5779C4.28597 8.26493 4.27663 7.99142 4.3648 7.68741C4.65915 7.1827 5.02726 6.96849 5.48903 6.92413C5.95078 6.87977 6.51642 7.0386 7.08435 7.35877C7.59347 7.64583 8.00201 8.195 8.12291 8.70509C8.24381 9.21518 8.14033 9.62076 7.6304 9.89238C7.47057 9.97842 7.40421 10.2006 7.49112 10.3588C7.57803 10.5171 7.80253 10.5827 7.96231 10.4966C8.73209 10.0866 8.95705 9.26474 8.78673 8.54606C8.63212 7.8937 8.20208 7.28044 7.60898 6.88173L8.13361 5.98069L7.53405 5.64146Z" fill="white"/>
</g>
<defs>
<clipPath id="clip0_17_28">
<rect width="26" height="25" fill="white" transform="translate(0 0.5)"/>
</clipPath>
</defs>
</svg>
