<svg width="24" height="19" viewBox="0 0 24 19" fill="none" xmlns="http://www.w3.org/2000/svg">
<g clip-path="url(#clip0_17_17)">
<path d="M19.1999 8.4999C20.7463 8.4999 21.9999 7.2463 21.9999 5.6999C21.9999 4.15351 20.7463 2.8999 19.1999 2.8999C17.6535 2.8999 16.3999 4.15351 16.3999 5.6999C16.3999 7.2463 17.6535 8.4999 19.1999 8.4999Z" fill="white"/>
<path d="M22.8719 8.12402C22.506 8.67964 22.0198 9.14577 21.4492 9.48784C20.8786 9.82991 20.2384 10.0391 19.5759 10.1C19.8544 10.8696 19.9979 11.6816 19.9999 12.5V14.9H21.5999C22.2364 14.9 22.8469 14.6472 23.2969 14.1971C23.747 13.747 23.9999 13.1365 23.9999 12.5V10.9C23.9978 9.86349 23.5934 8.86825 22.8719 8.12402Z" fill="white"/>
<path d="M4.8 8.4999C6.3464 8.4999 7.6 7.2463 7.6 5.6999C7.6 4.15351 6.3464 2.8999 4.8 2.8999C3.2536 2.8999 2 4.15351 2 5.6999C2 7.2463 3.2536 8.4999 4.8 8.4999Z" fill="white"/>
<path d="M1.128 8.12402C0.406525 8.86825 0.00211998 9.86349 0 10.9V12.5C0 13.1365 0.252856 13.747 0.702944 14.1971C1.15303 14.6472 1.76348 14.9 2.4 14.9H4V12.5C4.00203 11.6816 4.14547 10.8696 4.424 10.1C3.76153 10.0391 3.12127 9.82991 2.55069 9.48784C1.98011 9.14577 1.49386 8.67964 1.128 8.12402Z" fill="white"/>
<path d="M16.2721 8.11597C15.7464 8.73622 15.0919 9.23456 14.3542 9.57635C13.6165 9.91814 12.8131 10.0952 12.0001 10.0952C11.187 10.0952 10.3837 9.91814 9.64599 9.57635C8.90825 9.23456 8.2538 8.73622 7.7281 8.11597C7.066 8.63916 6.53071 9.30521 6.16222 10.0644C5.79373 10.8235 5.60157 11.6561 5.6001 12.5V15.7C5.6001 16.3365 5.85295 16.9469 6.30304 17.397C6.75313 17.8471 7.36358 18.1 8.0001 18.1H16.0001C16.6366 18.1 17.247 17.8471 17.6971 17.397C18.1472 16.9469 18.4001 16.3365 18.4001 15.7V12.5C18.3986 11.6561 18.2064 10.8235 17.8379 10.0644C17.4695 9.30521 16.9342 8.63916 16.2721 8.11597Z" fill="white"/>
<path d="M12 8.5C14.2091 8.5 16 6.70914 16 4.5C16 2.29086 14.2091 0.5 12 0.5C9.79086 0.5 8 2.29086 8 4.5C8 6.70914 9.79086 8.5 12 8.5Z" fill="white"/>
</g>
<defs>
<clipPath id="clip0_17_17">
<rect width="24" height="18" fill="white" transform="translate(0 0.5)"/>
</clipPath>
</defs>
</svg>
