<svg width="24" height="19" viewBox="0 0 24 19" fill="none" xmlns="http://www.w3.org/2000/svg">
<g clip-path="url(#clip0_17_30)">
<path d="M14.1168 13.7545C14.1168 10.6755 16.6215 8.17085 19.7013 8.17085C20.6827 8.17085 21.6051 8.42714 22.4074 8.87373V3.70583C22.4074 1.94862 20.9673 0.5 19.2015 0.5H3.20583C1.44862 0.5 0 1.94862 0 3.70583V12.4919C0 14.2576 1.43148 15.6891 3.19726 15.6891H14.4691C14.2454 15.0857 14.1168 14.4351 14.1168 13.7545ZM18.1455 2.9378H19.2127C19.6387 2.9378 19.9841 3.28324 19.9841 3.70926C19.9841 4.13527 19.6387 4.48071 19.2127 4.48071H18.1455C17.7195 4.48071 17.3741 4.13527 17.3741 3.70926C17.3741 3.28324 17.7195 2.9378 18.1455 2.9378ZM4.27472 13.265H3.20754C2.78153 13.265 2.43609 12.9196 2.43609 12.4936C2.43609 12.0676 2.78153 11.7221 3.20754 11.7221H4.27472C4.70074 11.7221 5.04618 12.0676 5.04618 12.4936C5.04618 12.9196 4.70074 13.265 4.27472 13.265ZM13.6693 8.99288C13.6693 10.3506 12.5687 11.4521 11.2101 11.4521C9.8515 11.4521 8.75089 10.3515 8.75089 8.99288V7.2091C8.75089 5.85133 9.8515 4.74987 11.2101 4.74987C12.5687 4.74987 13.6693 5.85048 13.6693 7.2091V8.99288Z" fill="white"/>
<path d="M19.6971 9.45752C17.3227 9.45752 15.4026 11.3776 15.4026 13.752C15.4026 16.1263 17.3227 18.055 19.6971 18.055C22.0714 18.055 24.0001 16.1263 24.0001 13.752C24.0001 11.3776 22.0714 9.45752 19.6971 9.45752ZM21.1714 14.526H18.2279C17.8019 14.526 17.4564 14.1805 17.4564 13.7545C17.4564 13.3285 17.8019 12.9831 18.2279 12.9831H21.1714C21.5974 12.9831 21.9429 13.3285 21.9429 13.7545C21.9429 14.1805 21.5974 14.526 21.1714 14.526Z" fill="white"/>
</g>
<defs>
<clipPath id="clip0_17_30">
<rect width="24" height="18" fill="white" transform="translate(0 0.5)"/>
</clipPath>
</defs>
</svg>
