<svg width="22" height="23" viewBox="0 0 22 23" fill="none" xmlns="http://www.w3.org/2000/svg">
<g clip-path="url(#clip0_17_7)">
<path d="M16.3565 1.09741C16.0826 0.954474 15.7744 0.890536 15.4662 0.912745C15.1581 0.934954 14.8622 1.04243 14.6116 1.22317C14.4042 1.38701 14.1447 1.47072 13.8807 1.45897C13.5681 1.46242 13.2664 1.34402 13.0396 1.12885C12.537 0.721988 11.91 0.5 11.2633 0.5C10.6166 0.5 9.98958 0.721988 9.48696 1.12885C9.25675 1.34107 8.95512 1.4589 8.64201 1.4589C8.32891 1.4589 8.02728 1.34107 7.79707 1.12885C7.29594 0.722055 6.67012 0.500024 6.02466 0.500024C5.3792 0.500024 4.75338 0.722055 4.25224 1.12885C4.02324 1.3455 3.71857 1.46398 3.40337 1.45897C3.14405 1.47113 2.88936 1.38717 2.68811 1.22317C2.43612 1.0418 2.13836 0.934621 1.82858 0.913783C1.5188 0.892946 1.20937 0.95928 0.935349 1.10527C0.652479 1.25075 0.415381 1.47166 0.2503 1.74356C0.0852198 2.01546 -0.0014041 2.32773 1.72132e-05 2.64582V19.2067C-1.62594e-06 19.6626 0.18002 20.1001 0.500914 20.4239C0.821807 20.7477 1.2576 20.9317 1.71348 20.9359H12.1986C11.4189 19.9191 10.9987 18.6723 11.0039 17.3911C11.0039 15.8276 11.625 14.3282 12.7305 13.2227C13.836 12.1172 15.3354 11.4961 16.8989 11.4961C17.0302 11.4961 17.1615 11.504 17.2919 11.5197V2.63796C17.2927 2.32 17.2058 2.00798 17.0408 1.73619C16.8758 1.46441 16.639 1.24338 16.3565 1.09741ZM4.40158 15.7405C4.21503 15.7405 4.03268 15.6852 3.87757 15.5815C3.72246 15.4779 3.60157 15.3306 3.53018 15.1582C3.4588 14.9859 3.44012 14.7962 3.47651 14.6133C3.5129 14.4303 3.60274 14.2622 3.73464 14.1303C3.86655 13.9984 4.03461 13.9086 4.21757 13.8722C4.40053 13.8358 4.59018 13.8545 4.76252 13.9259C4.93487 13.9973 5.08218 14.1182 5.18582 14.2733C5.28945 14.4284 5.34477 14.6107 5.34477 14.7973C5.34477 15.0474 5.2454 15.2873 5.06852 15.4642C4.89163 15.6411 4.65173 15.7405 4.40158 15.7405ZM4.40158 11.8105C4.21503 11.8105 4.03268 11.7552 3.87757 11.6515C3.72246 11.5479 3.60157 11.4006 3.53018 11.2283C3.4588 11.0559 3.44012 10.8663 3.47651 10.6833C3.5129 10.5003 3.60274 10.3323 3.73464 10.2004C3.86655 10.0685 4.03461 9.97863 4.21757 9.94224C4.40053 9.90585 4.59018 9.92453 4.76252 9.99591C4.93487 10.0673 5.08218 10.1882 5.18582 10.3433C5.28945 10.4984 5.34477 10.6808 5.34477 10.8673C5.34477 11.1175 5.2454 11.3574 5.06852 11.5342C4.89163 11.7111 4.65173 11.8105 4.40158 11.8105ZM4.40158 7.72334C4.2147 7.72333 4.03204 7.66781 3.87676 7.56382C3.72149 7.45983 3.60061 7.31205 3.52946 7.13925C3.45831 6.96644 3.44009 6.7764 3.47713 6.59323C3.51416 6.41005 3.60478 6.24201 3.73747 6.11042C3.87017 5.97883 4.03896 5.88963 4.22244 5.85413C4.40591 5.81863 4.5958 5.83843 4.768 5.91102C4.94021 5.98362 5.08696 6.10573 5.18965 6.26187C5.29234 6.41801 5.34633 6.60113 5.34477 6.788C5.34426 6.91135 5.31945 7.03339 5.27177 7.14715C5.22409 7.26091 5.15448 7.36416 5.06689 7.45101C4.97931 7.53787 4.87547 7.60662 4.76132 7.65335C4.64717 7.70007 4.52493 7.72385 4.40158 7.72334ZM9.43194 15.5833H7.23116C7.0227 15.5833 6.82278 15.5005 6.67538 15.3531C6.52797 15.2057 6.44516 15.0057 6.44516 14.7973C6.44516 14.5888 6.52797 14.3889 6.67538 14.2415C6.82278 14.0941 7.0227 14.0113 7.23116 14.0113H9.43194C9.6404 14.0113 9.84032 14.0941 9.98772 14.2415C10.1351 14.3889 10.2179 14.5888 10.2179 14.7973C10.2179 15.0057 10.1351 15.2057 9.98772 15.3531C9.84032 15.5005 9.6404 15.5833 9.43194 15.5833ZM13.0475 11.6533H7.23116C7.0227 11.6533 6.82278 11.5705 6.67538 11.4231C6.52797 11.2757 6.44516 11.0758 6.44516 10.8673C6.44516 10.6589 6.52797 10.4589 6.67538 10.3115C6.82278 10.1641 7.0227 10.0813 7.23116 10.0813H13.0475C13.256 10.0813 13.4559 10.1641 13.6033 10.3115C13.7507 10.4589 13.8335 10.6589 13.8335 10.8673C13.8335 11.0758 13.7507 11.2757 13.6033 11.4231C13.4559 11.5705 13.256 11.6533 13.0475 11.6533ZM13.0475 7.574H7.23116C7.0227 7.574 6.82278 7.49119 6.67538 7.34378C6.52797 7.19638 6.44516 6.99646 6.44516 6.788C6.44516 6.57955 6.52797 6.37963 6.67538 6.23222C6.82278 6.08482 7.0227 6.00201 7.23116 6.00201H13.0475C13.256 6.00201 13.4559 6.08482 13.6033 6.23222C13.7507 6.37963 13.8335 6.57955 13.8335 6.788C13.8335 6.99646 13.7507 7.19638 13.6033 7.34378C13.4559 7.49119 13.256 7.574 13.0475 7.574Z" fill="white"/>
<path d="M16.899 12.282C15.8885 12.282 14.9008 12.5816 14.0606 13.143C13.2204 13.7044 12.5656 14.5023 12.1789 15.4358C11.7922 16.3694 11.6911 17.3966 11.8882 18.3876C12.0853 19.3787 12.5719 20.289 13.2864 21.0035C14.0009 21.718 14.9112 22.2046 15.9023 22.4017C16.8933 22.5989 17.9205 22.4977 18.8541 22.111C19.7876 21.7243 20.5855 21.0695 21.1469 20.2293C21.7083 19.3892 22.0079 18.4014 22.0079 17.3909C22.0063 16.0365 21.4675 14.738 20.5097 13.7802C19.552 12.8224 18.2534 12.2836 16.899 12.282ZM18.471 18.1769H15.327C15.1185 18.1769 14.9186 18.0941 14.7712 17.9467C14.6238 17.7993 14.541 17.5994 14.541 17.3909C14.541 17.1825 14.6238 16.9826 14.7712 16.8352C14.9186 16.6878 15.1185 16.6049 15.327 16.6049H18.471C18.6794 16.6049 18.8793 16.6878 19.0267 16.8352C19.1741 16.9826 19.257 17.1825 19.257 17.3909C19.257 17.5994 19.1741 17.7993 19.0267 17.9467C18.8793 18.0941 18.6794 18.1769 18.471 18.1769Z" fill="white"/>
</g>
<defs>
<clipPath id="clip0_17_7">
<rect width="22" height="22" fill="white" transform="translate(0 0.5)"/>
</clipPath>
</defs>
</svg>
