<svg width="18" height="25" viewBox="0 0 18 25" fill="none" xmlns="http://www.w3.org/2000/svg">
<g clip-path="url(#clip0_17_2)">
<path d="M14.925 0.5H2.675C1.19766 0.5 0 1.69761 0 3.175V24.5L3.32573 21.3524L6.16001 24.5L8.8 21.3524L11.44 24.5L14.2743 21.3524L17.6 24.5V3.175C17.6 1.69761 16.4023 0.5 14.925 0.5ZM3.4125 5.33125H12.3469C12.7891 5.33125 13.1469 5.68945 13.1469 6.13125C13.1469 6.57305 12.7891 6.93125 12.3469 6.93125H3.4125C2.97031 6.93125 2.6125 6.57305 2.6125 6.13125C2.6125 5.68945 2.97031 5.33125 3.4125 5.33125ZM3.4125 8.14375H7.87969C8.32188 8.14375 8.67969 8.50195 8.67969 8.94375C8.67969 9.38555 8.32188 9.74375 7.87969 9.74375H3.4125C2.97031 9.74375 2.6125 9.38555 2.6125 8.94375C2.6125 8.50195 2.97031 8.14375 3.4125 8.14375ZM14.1875 18.6875H3.4125C2.97031 18.6875 2.6125 18.3293 2.6125 17.8875C2.6125 17.4457 2.97031 17.0875 3.4125 17.0875H14.1875C14.6297 17.0875 14.9875 17.4457 14.9875 17.8875C14.9875 18.3293 14.6297 18.6875 14.1875 18.6875ZM14.1875 16.175H3.4125C2.97031 16.175 2.6125 15.8168 2.6125 15.375C2.6125 14.9332 2.97031 14.575 3.4125 14.575H14.1875C14.6297 14.575 14.9875 14.9332 14.9875 15.375C14.9875 15.8168 14.6297 16.175 14.1875 16.175ZM14.1875 13.3H3.4125C2.97031 13.3 2.6125 12.9418 2.6125 12.5C2.6125 12.0582 2.97031 11.7 3.4125 11.7H14.1875C14.6297 11.7 14.9875 12.0582 14.9875 12.5C14.9875 12.9418 14.6297 13.3 14.1875 13.3Z" fill="white"/>
</g>
<defs>
<clipPath id="clip0_17_2">
<rect width="18" height="24" fill="white" transform="translate(0 0.5)"/>
</clipPath>
</defs>
</svg>
