<svg width="240" height="225" viewBox="0 0 240 225" fill="none" xmlns="http://www.w3.org/2000/svg">
<g clip-path="url(#clip0_1347_294)">
<path d="M57.0515 117.188L47.734 119.084L57.3156 113.974C57.6731 104.91 55.0906 95.3311 55.0906 95.3311C55.0906 95.3311 35.0079 99.8349 29.2211 109.415C23.4344 118.996 27.1092 125.781 34.1348 130.024C41.1603 134.268 48.8762 134.363 54.663 124.783C55.9694 122.441 56.7823 119.856 57.0515 117.188Z" fill="#DDF5FF"/>
<path d="M46.0139 118.452L45.7287 118.924C42.3851 124.396 38.8724 128.12 35.2344 130.039C35.1818 130.068 35.1284 130.093 35.0758 130.122L34.9473 129.875L34.8267 129.636C38.8088 127.597 42.3022 123.424 45.2199 118.652C45.3154 118.499 45.4124 118.344 45.5046 118.186C46.7219 116.155 47.8364 114.03 48.8408 111.918C48.9199 111.755 48.9982 111.589 49.0764 111.422C50.3877 108.628 51.5069 105.877 52.4176 103.45C52.4827 103.279 52.5455 103.106 52.6069 102.936C54.1315 98.8221 55.0278 95.7165 55.2214 95.0262C55.2465 94.9424 55.2588 94.8956 55.2621 94.8849L55.5223 94.9559L55.5261 94.955L55.7887 95.0274C55.7853 95.0382 55.7446 95.1954 55.6604 95.4828C55.3513 96.5596 54.4833 99.4653 53.1191 103.166C53.0568 103.332 52.994 103.505 52.9289 103.676C52.1919 105.646 51.3222 107.82 50.3255 110.052C50.076 110.613 49.8238 111.162 49.5688 111.701C49.4929 111.868 49.4147 112.035 49.3355 112.198C48.25 114.481 47.1429 116.566 46.0139 118.452Z" fill="white"/>
<path d="M53.1192 103.166C52.9498 103.093 52.7782 103.018 52.607 102.937C52.1417 102.717 51.6879 102.474 51.2475 102.208C49.3693 101.077 47.7687 99.5387 46.5638 97.7069C46.3908 97.7715 46.2178 97.8361 46.041 97.9016C47.2972 99.8473 48.9815 101.48 50.9651 102.675C51.4353 102.959 51.9201 103.218 52.4176 103.451C52.5865 103.53 52.7582 103.605 52.9289 103.677C54.3338 104.272 55.8211 104.651 57.3397 104.8C57.3169 104.61 57.2949 104.425 57.2739 104.243C55.8435 104.091 54.4435 103.728 53.1192 103.166Z" fill="white"/>
<path d="M49.5689 111.701C49.4019 111.613 49.2378 111.52 49.0765 111.423C49.026 111.395 48.9746 111.364 48.9255 111.335C46.8919 110.106 45.1855 108.404 43.9517 106.374C42.718 104.344 41.9935 102.045 41.8399 99.6746C41.6631 99.756 41.4863 99.8375 41.3104 99.9227C41.5011 102.343 42.2657 104.683 43.5409 106.749C44.816 108.814 46.565 110.547 48.643 111.802C48.7085 111.842 48.7739 111.881 48.8408 111.918C49.0059 112.015 49.17 112.108 49.3355 112.198C51.9088 113.578 54.8251 114.187 57.7356 113.954C57.7441 113.77 57.7526 113.587 57.7588 113.403C54.9213 113.645 52.0751 113.053 49.5689 111.701Z" fill="white"/>
<path d="M46.014 118.452C45.8419 118.367 45.6726 118.278 45.5047 118.186C45.3251 118.087 45.147 117.986 44.9716 117.88C42.241 116.226 40.1194 113.733 38.9246 110.772C37.7298 107.812 37.526 104.544 38.3438 101.458C38.1242 101.584 37.906 101.708 37.6911 101.836C36.9742 104.975 37.2645 108.259 38.5208 111.223C39.777 114.187 41.9354 116.68 44.6892 118.348C44.8646 118.453 45.0413 118.557 45.22 118.652C45.3888 118.748 45.5581 118.837 45.7288 118.924C49.1903 120.662 53.183 121.02 56.8983 119.925C56.9537 119.722 57.0007 119.517 57.0491 119.311C53.399 120.47 49.4408 120.162 46.014 118.452Z" fill="white"/>
<path d="M214.119 19.3931L213.36 30.0984L217.678 18.6273C227.769 16.9014 238.868 18.3903 238.868 18.3903C238.868 18.3903 236.765 41.5254 226.89 49.4033C217.014 57.2813 208.883 54.161 203.105 46.9188C197.328 39.6768 196.093 31.0552 205.969 23.1773C208.167 21.4238 211.017 20.2148 214.119 19.3931Z" fill="#DDF5FF"/>
<path d="M214.319 31.9312L213.832 32.3195C208.197 36.8621 204.544 41.3381 202.929 45.6903C202.904 45.7534 202.884 45.8169 202.859 45.8799L203.154 45.9877L203.439 46.0878C205.139 41.3327 209.297 36.8125 214.212 32.8491C214.369 32.7198 214.528 32.5886 214.692 32.4622C216.787 30.8027 219.002 29.2445 221.219 27.8115C221.389 27.6991 221.564 27.5872 221.739 27.4753C224.675 25.5989 227.589 23.944 230.172 22.5697C230.354 22.4717 230.538 22.3762 230.72 22.2826C235.101 19.9745 238.446 18.517 239.19 18.1994C239.28 18.159 239.331 18.1384 239.342 18.1331L239.225 17.8523V17.848L239.106 17.5647C239.094 17.57 238.924 17.6386 238.615 17.7749C237.455 18.2783 234.33 19.6749 230.388 21.7429C230.211 21.837 230.027 21.9326 229.845 22.0305C227.748 23.1436 225.442 24.4349 223.09 25.8769C222.499 26.2381 221.921 26.6007 221.356 26.9649C221.179 27.0744 221.004 27.1863 220.833 27.2988C218.437 28.8476 216.266 30.3917 214.319 31.9312Z" fill="white"/>
<path d="M228.575 17.2506C228.368 17.2537 228.158 17.2563 227.942 17.2584C228.331 18.9362 228.973 20.5453 229.845 22.0306C229.949 22.2112 230.058 22.3924 230.172 22.5697C230.505 23.0925 230.866 23.5973 231.252 24.082C232.88 26.1272 234.954 27.7733 237.315 28.8946C237.363 28.6872 237.41 28.484 237.457 28.281C235.231 27.2004 233.275 25.6341 231.734 23.6975C231.372 23.2435 231.034 22.7712 230.72 22.2826C230.604 22.1029 230.495 21.9217 230.388 21.7429C229.566 20.3429 228.955 18.8292 228.575 17.2506Z" fill="white"/>
<path d="M218.252 18.0479C218.047 18.0817 217.843 18.118 217.639 18.1543C217.804 21.4459 218.912 24.6206 220.833 27.2987C220.958 27.4708 221.086 27.6409 221.218 27.8115C221.27 27.8809 221.324 27.9484 221.377 28.0159C223.086 30.1579 225.281 31.8619 227.779 32.9869C230.278 34.1118 233.009 34.6252 235.745 34.4846C235.815 34.2753 235.88 34.0655 235.946 33.8557C233.27 34.0307 230.591 33.5561 228.139 32.4723C225.686 31.3885 223.532 29.7276 221.859 27.6314C221.819 27.5808 221.777 27.5277 221.739 27.4752C221.606 27.3089 221.478 27.1388 221.355 26.9649C219.475 24.3578 218.397 21.2588 218.252 18.0479Z" fill="white"/>
<path d="M211.744 19.7067C211.52 19.7911 211.298 19.8736 211.079 19.9652C210.397 24.2835 211.381 28.6997 213.832 32.3196C213.955 32.4979 214.08 32.6743 214.212 32.8493C214.344 33.0353 214.486 33.2179 214.63 33.3987C216.899 36.2368 220.005 38.2877 223.506 39.2602C227.007 40.2326 230.725 40.077 234.133 38.8155C234.245 38.5561 234.352 38.2939 234.46 38.0298C231.126 39.3964 227.439 39.6463 223.952 38.7422C220.464 37.838 217.362 35.8284 215.112 33.0142C214.968 32.8335 214.829 32.6489 214.692 32.4624C214.564 32.2879 214.439 32.1115 214.319 31.9313C211.904 28.3463 210.98 23.9614 211.744 19.7067Z" fill="white"/>
<path d="M100.852 214.85C99.8359 214.85 98.8096 214.834 97.8022 214.803L97.8251 214.071C99.2716 214.116 100.748 214.129 102.201 214.109L102.211 214.841C101.759 214.847 101.306 214.85 100.852 214.85ZM106.618 214.68L106.575 213.949C108.023 213.864 109.491 213.744 110.936 213.593L111.012 214.321C109.556 214.473 108.078 214.595 106.618 214.68ZM93.3997 214.566C91.9389 214.454 90.4627 214.308 89.0119 214.13L89.1013 213.403C90.541 213.579 92.0058 213.725 93.4555 213.836L93.3997 214.566ZM115.385 213.761L115.276 213.037C116.715 212.819 118.165 212.565 119.585 212.283L119.728 213.001C118.297 213.285 116.836 213.541 115.385 213.761ZM84.6493 213.493C83.2062 213.249 81.7494 212.967 80.3197 212.657L80.4751 211.941C81.8939 212.249 83.3394 212.528 84.7716 212.771L84.6493 213.493ZM124.032 212.042L123.856 211.331C125.269 210.982 126.69 210.596 128.079 210.184L128.287 210.886C126.887 211.301 125.456 211.69 124.032 212.042ZM76.0336 211.623C74.6181 211.246 73.1935 210.832 71.7996 210.391L72.0202 209.693C73.4036 210.13 74.8172 210.541 76.2217 210.914L76.0336 211.623ZM132.485 209.535L132.244 208.843C133.615 208.367 134.994 207.851 136.344 207.311L136.615 207.991C135.256 208.535 133.866 209.055 132.485 209.535ZM67.616 208.961C66.2411 208.456 64.8577 207.911 63.5045 207.341L63.7889 206.665C65.1317 207.231 66.5043 207.772 67.8688 208.274L67.616 208.961ZM140.661 206.263L140.358 205.597C141.675 204.998 142.998 204.36 144.292 203.698L144.625 204.351C143.322 205.017 141.988 205.66 140.661 206.263ZM148.497 202.258L148.135 201.622C149.397 200.901 150.658 200.144 151.881 199.37L152.272 199.989C151.04 200.768 149.77 201.532 148.497 202.258ZM155.939 197.549L155.52 196.949C156.709 196.118 157.896 195.248 159.047 194.364L159.493 194.944C158.334 195.836 157.138 196.712 155.939 197.549ZM44.3156 196.518C43.1335 195.659 41.9527 194.76 40.8057 193.844L41.2627 193.272C42.4009 194.181 43.5728 195.073 44.7458 195.925L44.3156 196.518ZM162.925 192.18L162.453 191.62C163.561 190.685 164.664 189.711 165.732 188.724L166.229 189.261C165.153 190.256 164.042 191.238 162.925 192.18ZM37.422 191.014C36.3211 190.05 35.2274 189.047 34.1713 188.033L34.6784 187.504C35.7266 188.511 36.8119 189.506 37.9044 190.463L37.422 191.014ZM169.397 186.194L168.875 185.68C169.897 184.645 170.908 183.573 171.879 182.496L172.423 182.986C171.444 184.072 170.426 185.151 169.397 186.194ZM31.0605 184.908C30.0505 183.846 29.0529 182.748 28.0956 181.645L28.6488 181.166C29.5988 182.26 30.5887 183.349 31.5912 184.403L31.0605 184.908ZM175.3 179.643L174.734 179.178C175.657 178.054 176.566 176.895 177.436 175.732L178.022 176.171C177.146 177.343 176.23 178.511 175.3 179.643ZM25.2828 178.252C24.3758 177.106 23.4827 175.923 22.6282 174.735L23.2225 174.307C24.0705 175.486 24.9569 176.66 25.8571 177.798L25.2828 178.252ZM180.583 172.577L179.978 172.166C180.794 170.963 181.594 169.726 182.355 168.487L182.979 168.87C182.212 170.118 181.406 171.366 180.583 172.577ZM20.1374 171.102C19.3394 169.878 18.5584 168.62 17.8158 167.359L18.4467 166.988C19.1837 168.238 19.9588 169.488 20.7507 170.701L20.1374 171.102ZM185.203 165.056L184.562 164.702C185.265 163.429 185.948 162.123 186.593 160.818L187.25 161.142C186.6 162.457 185.911 163.774 185.203 165.056ZM189.114 157.138L188.443 156.844C189.027 155.512 189.587 154.147 190.109 152.788L190.793 153.05C190.267 154.42 189.702 155.795 189.114 157.138ZM11.9144 155.558C11.353 154.211 10.8153 152.832 10.3165 151.46L11.0049 151.21C11.4998 152.571 12.0333 153.939 12.5903 155.276L11.9144 155.558ZM192.281 148.888L191.586 148.657C192.043 147.28 192.474 145.873 192.868 144.473L193.573 144.671C193.176 146.081 192.741 147.5 192.281 148.888ZM8.90572 147.283C8.46997 145.887 8.06051 144.461 7.68878 143.044L8.3972 142.858C8.76607 144.264 9.17249 145.68 9.60484 147.065L8.90572 147.283ZM194.668 140.4L193.955 140.234C194.283 138.823 194.582 137.381 194.846 135.95L195.566 136.083C195.301 137.525 194.999 138.977 194.668 140.4ZM6.66891 138.754C6.36351 137.324 6.08709 135.867 5.84749 134.422L6.56986 134.302C6.80785 135.736 7.08213 137.182 7.3852 138.601L6.66891 138.754ZM196.264 131.73L195.538 131.63C195.735 130.196 195.902 128.733 196.033 127.283L196.762 127.349C196.63 128.811 196.462 130.284 196.264 131.73ZM5.22562 130.058C5.0529 128.608 4.91111 127.131 4.80401 125.669L5.53458 125.615C5.64061 127.067 5.78151 128.532 5.95298 129.971L5.22562 130.058ZM197.061 122.95L196.329 122.917C196.394 121.466 196.427 119.994 196.427 118.543H197.16C197.16 120.005 197.126 121.488 197.061 122.95ZM4.58211 121.265C4.55708 120.367 4.54439 119.451 4.54419 118.543C4.54419 117.979 4.54902 117.416 4.55868 116.855L5.29106 116.868C5.2814 117.425 5.27657 117.983 5.27657 118.543C5.27675 119.444 5.28944 120.353 5.31412 121.245L4.58211 121.265ZM5.46487 112.496L4.73393 112.45C4.8253 110.987 4.95153 109.509 5.1087 108.057L5.83679 108.136C5.68067 109.577 5.5557 111.043 5.46487 112.496ZM195.954 108.028C195.808 106.584 195.607 105.88 195.395 104.442L196.119 104.335C196.333 105.784 196.516 106.889 196.664 108.344L195.954 108.028ZM6.40699 103.798L5.68319 103.686C5.90759 102.237 6.16829 100.776 6.45813 99.3448L7.17586 99.49C6.88831 100.911 6.62959 102.36 6.40699 103.798ZM194.655 100.13C194.376 98.7013 194.061 97.2632 193.718 95.8557L194.43 95.6826C194.775 97.1008 195.093 98.55 195.374 99.9894L194.655 100.13ZM8.14171 95.2225L7.43132 95.0444C7.78697 93.626 8.18087 92.1957 8.60213 90.7932L9.30339 91.0038C8.88551 92.3956 8.49468 93.815 8.14171 95.2225ZM192.585 91.6289C192.177 90.2345 191.731 88.8317 191.259 87.4592L191.951 87.2211C192.427 88.6041 192.877 90.0179 193.288 91.423L192.585 91.6289ZM10.6628 86.8318L9.97191 86.589C10.4586 85.2045 10.9841 83.8134 11.5338 82.4544L12.2128 82.729C11.6673 84.0775 11.1457 85.4581 10.6628 86.8318ZM189.741 83.355C189.207 82.0072 188.635 80.6545 188.041 79.3344L188.709 79.0337C189.308 80.364 189.884 81.727 190.422 83.085L189.741 83.355ZM13.9499 78.7034L13.2844 78.3977C13.8961 77.0656 14.5471 75.7297 15.2194 74.4273L15.8703 74.7631C15.203 76.0557 14.557 77.3814 13.9499 78.7034ZM186.157 75.3947C185.502 74.1017 184.807 72.8061 184.093 71.5443L184.73 71.1835C185.45 72.4551 186.15 73.7606 186.81 75.0635L186.157 75.3947ZM17.9696 70.9164L17.3349 70.5509C18.0654 69.2823 18.8359 68.0124 19.625 66.7769L20.2422 67.171C19.4592 68.3972 18.6945 69.6574 17.9696 70.9164ZM181.854 67.7909C181.081 66.5589 180.27 65.3316 179.446 64.1429L180.047 63.7256C180.878 64.9234 181.695 66.16 182.474 67.4015L181.854 67.7909ZM22.6836 63.5345L22.0849 63.1125C22.9293 61.9151 23.812 60.7215 24.7092 59.565L25.2879 60.0138C24.3976 61.1618 23.5213 62.3461 22.6836 63.5345ZM176.873 60.6078C175.99 59.4519 175.071 58.3027 174.14 57.1923L174.702 56.7219C175.639 57.8408 176.565 58.9986 177.455 60.1633L176.873 60.6078ZM28.0495 56.6168L27.492 56.1419C28.4394 55.029 29.427 53.9213 30.427 52.8495L30.9623 53.3491C29.97 54.4128 28.99 55.5123 28.0495 56.6168ZM171.255 53.9039C170.271 52.8331 169.251 51.7717 168.222 50.7497L168.738 50.2301C169.775 51.2602 170.803 52.3294 171.794 53.4083L171.255 53.9039ZM34.02 50.2186L33.5079 49.6951C34.5552 48.6705 35.6389 47.6576 36.7287 46.6846L37.2165 47.231C36.1349 48.1965 35.0594 49.2018 34.02 50.2186ZM165.049 47.7359C163.971 46.7581 162.858 45.7936 161.74 44.8694L162.207 44.3051C163.333 45.2363 164.455 46.2081 165.541 47.1935L165.049 47.7359ZM40.5449 44.392L40.0825 43.8241C41.2153 42.9016 42.3859 41.9919 43.5621 41.12L43.9983 41.7083C42.8309 42.5737 41.6691 43.4765 40.5449 44.392ZM47.5692 39.1858L47.1604 38.5782C48.3727 37.7625 49.6208 36.9638 50.8701 36.2037L51.2506 36.8295C50.011 37.5837 48.7724 38.3765 47.5692 39.1858ZM55.0349 34.6445L54.6834 34.0019C55.966 33.3001 57.2811 32.6192 58.592 31.9779L58.9139 32.6359C57.6129 33.2722 56.3078 33.9479 55.0349 34.6445ZM143.422 32.9477C142.119 32.2985 140.784 31.6712 139.454 31.0835L139.75 30.4137C141.09 31.0059 142.436 31.638 143.749 32.2922L143.422 32.9477ZM62.8794 30.8076L62.5883 30.1357C63.9287 29.5547 65.2997 28.9976 66.6633 28.4796L66.9233 29.1644C65.5701 29.6783 64.2095 30.2311 62.8794 30.8076ZM135.404 29.4034C134.048 28.8776 132.66 28.3759 131.278 27.9124L131.512 27.2179C132.903 27.6851 134.302 28.1906 135.668 28.7208L135.404 29.4034ZM71.0486 27.7055L70.8205 27.0096C72.2123 26.5533 73.6323 26.1236 75.0409 25.733L75.2367 26.4385C73.8388 26.8263 72.4297 27.2526 71.0486 27.7055ZM127.099 26.6166C125.702 26.2184 124.277 25.8476 122.864 25.5145L123.032 24.8018C124.456 25.1374 125.892 25.5111 127.3 25.9121L127.099 26.6166ZM79.479 25.3659L79.3159 24.6519C80.7428 24.326 82.1963 24.029 83.6358 23.7694L83.766 24.4899C82.3372 24.7478 80.8949 25.0424 79.479 25.3659ZM118.583 24.609C117.157 24.3413 115.705 24.1032 114.266 23.9011L114.367 23.1759C115.817 23.3796 117.281 23.6195 118.719 23.8892L118.583 24.609ZM88.0889 23.8121L87.992 23.0861C89.4417 22.8927 90.9161 22.73 92.3741 22.603L92.4378 23.3325C90.9909 23.4588 89.5279 23.6201 88.0889 23.8121ZM109.92 23.3919C108.477 23.256 107.009 23.1512 105.555 23.081L105.591 22.3493C107.055 22.4203 108.535 22.5258 109.988 22.6628L109.92 23.3919ZM96.8048 23.0516L96.7741 22.32C98.1201 22.2638 99.4919 22.2352 100.852 22.2349L101.183 22.2354L101.181 22.9678L100.852 22.9672C99.5023 22.9676 98.1405 22.996 96.8048 23.0516Z" fill="#5546AF"/>
<path d="M209.352 5.49338V66.9408C209.35 68.3973 208.771 69.7936 207.741 70.8234C206.711 71.8533 205.315 72.4326 203.859 72.4342H114.746C113.289 72.4326 111.893 71.8533 110.863 70.8234C109.834 69.7936 109.254 68.3973 109.253 66.9408V5.49338C109.254 4.03696 109.834 2.64065 110.863 1.6108C111.893 0.580957 113.289 0.00166777 114.746 2.31442e-05L203.859 0C205.315 0.00164464 206.711 0.580936 207.741 1.61079C208.771 2.64064 209.35 4.03695 209.352 5.49338Z" fill="#F0F2F4"/>
<path d="M205.847 5.38528V67.0491C205.847 67.498 205.668 67.9284 205.35 68.2459C205.033 68.5634 204.603 68.7419 204.154 68.7425H114.451C114.002 68.7419 113.571 68.5634 113.254 68.2459C112.937 67.9284 112.758 67.498 112.757 67.0491V5.38528C112.758 4.93633 112.937 4.50591 113.254 4.18845C113.571 3.87098 114.002 3.69241 114.451 3.69189H204.154C204.603 3.69241 205.033 3.87098 205.35 4.18845C205.668 4.50591 205.847 4.93633 205.847 5.38528Z" fill="white"/>
<path d="M195.966 13.4773H122.638V14.9908H195.966V13.4773Z" fill="#00AAF0"/>
<path d="M195.966 18.2701H122.638V19.7837H195.966V18.2701Z" fill="#00AAF0"/>
<path d="M195.966 23.0632H122.638V24.5768H195.966V23.0632Z" fill="#00AAF0"/>
<path d="M195.966 30.6674H122.638V32.1809H195.966V30.6674Z" fill="#F0F2F4"/>
<path d="M195.966 35.4603H122.638V36.9739H195.966V35.4603Z" fill="#F0F2F4"/>
<path d="M195.966 40.2533H122.638V41.7668H195.966V40.2533Z" fill="#F0F2F4"/>
<path d="M195.966 47.8577H122.638V49.3712H195.966V47.8577Z" fill="#F0F2F4"/>
<path d="M195.966 52.6506H122.638V54.1642H195.966V52.6506Z" fill="#F0F2F4"/>
<path d="M195.966 57.4432H122.638V58.9568H195.966V57.4432Z" fill="#F0F2F4"/>
<path d="M68.2951 224.301H6.8476C5.39118 224.3 3.99488 223.72 2.96504 222.691C1.93519 221.661 1.35589 220.264 1.35425 218.808V129.695C1.35589 128.239 1.93519 126.843 2.96504 125.813C3.99488 124.783 5.39118 124.204 6.8476 124.202H68.2951C69.7515 124.204 71.1478 124.783 72.1777 125.813C73.2075 126.843 73.7868 128.239 73.7884 129.695V218.808C73.7868 220.264 73.2075 221.661 72.1777 222.691C71.1478 223.72 69.7515 224.3 68.2951 224.301Z" fill="#F0F2F4"/>
<path d="M68.4034 220.797H6.73965C6.2907 220.796 5.86028 220.617 5.54282 220.3C5.22536 219.982 5.04678 219.552 5.04626 219.103V129.4C5.04678 128.951 5.22535 128.521 5.54282 128.203C5.86028 127.886 6.2907 127.707 6.73965 127.707H68.4034C68.8524 127.707 69.2828 127.886 69.6003 128.203C69.9177 128.521 70.0963 128.951 70.0968 129.4V219.103C70.0963 219.552 69.9177 219.982 69.6003 220.3C69.2828 220.617 68.8524 220.796 68.4034 220.797Z" fill="white"/>
<path d="M57.9377 175.159H17.2053V176.672H57.9377V175.159Z" fill="#F0F2F4"/>
<path d="M57.9377 179.951H17.2053V181.465H57.9377V179.951Z" fill="#F0F2F4"/>
<path d="M57.9377 184.744H17.2053V186.258H57.9377V184.744Z" fill="#F0F2F4"/>
<path d="M57.9377 195.246H17.2053V196.759H57.9377V195.246Z" fill="#F0F2F4"/>
<path d="M57.9377 200.039H17.2053V201.552H57.9377V200.039Z" fill="#F0F2F4"/>
<path d="M57.9377 204.831H17.2053V206.345H57.9377V204.831Z" fill="#F0F2F4"/>
<path d="M44.5889 140.496L28.6329 146.667L34.5903 162.071L50.5463 155.9L44.5889 140.496Z" fill="#00AAF0"/>
<path d="M30.7222 161.509L24.2683 144.822L41.5372 138.143L47.991 154.83L30.7222 161.509ZM24.9244 145.112L31.0123 160.853L47.3349 154.54L41.2471 138.799L24.9244 145.112Z" fill="#00AAF0"/>
<path d="M100.852 137.381C111.256 137.381 119.69 128.947 119.69 118.543C119.69 108.139 111.256 99.7047 100.852 99.7047C90.4481 99.7047 82.014 108.139 82.014 118.543C82.014 128.947 90.4481 137.381 100.852 137.381Z" fill="#00AAF0"/>
<path d="M90.8516 116.865C90.4082 116.867 89.9837 117.045 89.671 117.36C89.3583 117.674 89.1827 118.099 89.1827 118.543C89.1827 118.986 89.3583 119.411 89.671 119.726C89.9837 120.04 90.4082 120.218 90.8516 120.22H97.1309C97.6727 120.221 98.1922 120.436 98.5753 120.819C98.9584 121.203 99.1739 121.722 99.1745 122.264V128.543C99.1753 128.988 99.3524 129.413 99.6669 129.727C99.9814 130.041 100.408 130.218 100.852 130.218C101.296 130.218 101.723 130.041 102.037 129.727C102.352 129.413 102.529 128.988 102.529 128.543V122.264C102.53 121.722 102.746 121.203 103.129 120.819C103.512 120.436 104.031 120.221 104.573 120.22H110.852C111.296 120.218 111.72 120.04 112.033 119.726C112.346 119.411 112.521 118.986 112.521 118.543C112.521 118.099 112.346 117.674 112.033 117.36C111.72 117.045 111.296 116.867 110.852 116.865H104.573C104.031 116.865 103.512 116.649 103.129 116.266C102.746 115.883 102.53 115.363 102.529 114.822V108.542C102.529 108.098 102.352 107.672 102.037 107.358C101.723 107.044 101.296 106.868 100.852 106.868C100.408 106.868 99.9814 107.044 99.6669 107.358C99.3524 107.672 99.1753 108.098 99.1745 108.542V114.822C99.1739 115.363 98.9584 115.883 98.5753 116.266C98.1922 116.649 97.6727 116.865 97.1309 116.865H90.8516Z" fill="white"/>
</g>
<defs>
<clipPath id="clip0_1347_294">
<rect width="239" height="225" fill="white" transform="translate(0.5)"/>
</clipPath>
</defs>
</svg>
