<svg width="21" height="25" viewBox="0 0 21 25" fill="none" xmlns="http://www.w3.org/2000/svg">
<g clip-path="url(#clip0_17_24)">
<path d="M10.6722 6.49368H15.806L9.78711 0.5V5.63382C9.78711 6.11433 10.1917 6.49368 10.6722 6.49368Z" fill="white"/>
<path d="M15.7808 15.0923C13.176 15.0923 11.0769 17.1913 11.0769 19.7962C11.0769 22.401 13.176 24.5001 15.7808 24.5001C18.3857 24.5001 20.4847 22.401 20.4847 19.7962C20.51 17.2166 18.3857 15.0923 15.7808 15.0923ZM18.0569 19.2145L15.6291 21.6423C15.5026 21.7688 15.3003 21.8447 15.1233 21.8447C14.9462 21.8447 14.7692 21.7688 14.6175 21.6423L13.4036 20.4284C13.1254 20.1502 13.1254 19.695 13.4036 19.4168C13.6818 19.1386 14.137 19.1386 14.4152 19.4168L15.1233 20.125L17.0453 18.2029C17.3235 17.9247 17.7787 17.9247 18.0569 18.2029C18.3351 18.4811 18.3351 18.9363 18.0569 19.2145Z" fill="white"/>
<path d="M15.7808 13.9036V7.6823H10.6723C9.53425 7.6823 8.62381 6.77186 8.62381 5.63382V0.5H1.21391C0.531085 0.5 0 1.05637 0 1.71391V19.9226C0 20.6054 0.556375 21.1365 1.21391 21.1365H10.0653C9.96417 20.7065 9.91359 20.2513 9.91359 19.7961C9.8883 16.559 12.5437 13.9036 15.7808 13.9036ZM3.81876 3.48419V2.82666C3.81876 2.75079 3.89463 2.67492 3.9705 2.67492H4.7039C4.77977 2.67492 4.85564 2.75079 4.85564 2.82666V3.48419C5.63962 3.56006 6.27186 4.16702 6.34773 4.92571C6.34773 5.02687 6.29715 5.10274 6.196 5.10274H5.4373C5.36143 5.10274 5.31085 5.05216 5.28556 4.97629C5.23498 4.6981 4.98209 4.49578 4.7039 4.49578H3.94521C3.64173 4.49578 3.36354 4.72339 3.31296 5.02687C3.28767 5.38093 3.56586 5.6844 3.89463 5.6844H4.67861C5.51317 5.6844 6.27186 6.29136 6.37302 7.12592C6.49947 8.08693 5.79136 8.89621 4.88093 8.94679V9.60432C4.88093 9.68019 4.80506 9.75606 4.72919 9.75606H3.99578C3.91992 9.75606 3.84405 9.68019 3.84405 9.60432V8.97208C3.06006 8.89621 2.42782 8.28925 2.35195 7.53056C2.35195 7.4294 2.40253 7.35353 2.50369 7.35353H3.26238C3.33825 7.35353 3.38883 7.40411 3.41412 7.47998C3.4647 7.75817 3.7176 7.96048 3.99578 7.96048H4.77977C5.13382 7.96048 5.41201 7.65701 5.36143 7.30295C5.33614 6.99947 5.05796 6.77186 4.72919 6.77186H4.04636C3.2118 6.77186 2.45311 6.16491 2.35195 5.33035C2.20021 4.36934 2.90832 3.56006 3.81876 3.48419ZM2.83246 11.7034H12.9231C13.2013 11.7034 13.4289 11.931 13.4289 12.2092C13.4289 12.4874 13.2013 12.715 12.9231 12.715H2.83246C2.55427 12.715 2.32666 12.4874 2.32666 12.2092C2.32666 11.931 2.55427 11.7034 2.83246 11.7034ZM7.89041 18.481H2.83246C2.55427 18.481 2.32666 18.2534 2.32666 17.9752C2.32666 17.697 2.55427 17.4694 2.83246 17.4694H7.89041C8.1686 17.4694 8.39621 17.697 8.39621 17.9752C8.39621 18.2534 8.1686 18.481 7.89041 18.481ZM8.97787 15.598H2.83246C2.55427 15.598 2.32666 15.3704 2.32666 15.0922C2.32666 14.814 2.55427 14.5864 2.83246 14.5864H8.97787C9.25606 14.5864 9.48367 14.814 9.48367 15.0922C9.48367 15.3704 9.25606 15.598 8.97787 15.598Z" fill="white"/>
</g>
<defs>
<clipPath id="clip0_17_24">
<rect width="21" height="24" fill="white" transform="translate(0 0.5)"/>
</clipPath>
</defs>
</svg>
