<svg width="25" height="26" viewBox="0 0 25 26" fill="none" xmlns="http://www.w3.org/2000/svg">
<g clip-path="url(#clip0_17_4)">
<path d="M12.473 0.5C10.1201 0.503039 7.86451 1.43903 6.20079 3.10272C4.53706 4.76641 3.60103 7.02199 3.59794 9.37483C3.59568 10.1326 3.69318 10.8874 3.88792 11.6198C4.97979 11.3495 6.1037 11.2308 7.22795 11.2673C10.2405 11.3623 13.0555 12.5473 14.9554 14.5147C15.2914 14.8648 15.599 15.241 15.8754 15.6397L20.103 13.8997C20.9209 12.5324 21.3513 10.9682 21.348 9.37483C21.3453 7.02186 20.4094 4.76603 18.7456 3.10225C17.0818 1.43847 14.8259 0.502613 12.473 0.5ZM11.668 10.9123L8.67794 7.92235L9.73794 6.86238L11.668 8.79233L15.233 5.2274L16.293 6.28738L11.668 10.9123Z" fill="white"/>
<path d="M24.8525 18.0577C24.7425 18.4038 24.5592 18.7221 24.315 18.9909C24.0708 19.2597 23.7715 19.4726 23.4375 19.6152L9.675 25.5001L9.37 25.3551C3.1725 22.4126 2.3425 21.9677 2.155 21.8227L3.2325 20.7252C4.0775 21.1652 7.4225 22.7701 9.7075 23.8551L22.85 18.2352C22.9858 18.1773 23.1076 18.0907 23.2069 17.9814C23.3061 17.8721 23.3806 17.7426 23.4253 17.6019C23.4699 17.4611 23.4836 17.3124 23.4654 17.1658C23.4473 17.0193 23.3977 16.8784 23.32 16.7528C23.1926 16.5449 22.9951 16.3894 22.7632 16.3142C22.5313 16.2391 22.2801 16.2492 22.055 16.3428L12.0475 20.4602L7.265 18.0227L7.945 16.6878L12.115 18.8127L13.8475 18.0977C13.5755 17.5468 13.2206 17.0409 12.795 16.5978C9.9475 13.6428 4.58 13.4328 1.41752 16.1178L0 15.4178C0.0750033 15.3059 0.166933 15.2064 0.2725 15.1228C3.975 11.8053 10.4575 12.0128 13.875 15.5553C14.4316 16.1348 14.8917 16.7999 15.2375 17.5252L21.4825 14.9553C21.9273 14.7719 22.4153 14.7194 22.889 14.8039C23.3627 14.8884 23.8024 15.1064 24.1564 15.4323C24.5104 15.7582 24.764 16.1784 24.8873 16.6435C25.0106 17.1086 24.9986 17.5993 24.8525 18.0577Z" fill="white"/>
</g>
<defs>
<clipPath id="clip0_17_4">
<rect width="25" height="25" fill="white" transform="translate(0 0.5)"/>
</clipPath>
</defs>
</svg>
