<svg width="24" height="25" viewBox="0 0 24 25" fill="none" xmlns="http://www.w3.org/2000/svg">
<g clip-path="url(#clip0_17_10)">
<path d="M10.7797 13.1101H8.42034V18.805C8.42034 19.0084 8.29831 19.2118 8.09492 19.3338C8.05424 19.3745 7.9322 19.4152 7.85085 19.4152C7.76949 19.4152 7.64746 19.3745 7.5661 19.3338L5.73559 18.2762L3.86441 19.3338C3.66102 19.4559 3.45763 19.4559 3.25424 19.3338C3.05085 19.2118 2.96949 19.0084 2.96949 18.805V13.1101H0.61017C0.284746 13.1101 0 13.3949 0 13.7203V23.8898C0 24.2152 0.284746 24.4999 0.61017 24.4999H10.7797C11.1051 24.4999 11.3898 24.2152 11.3898 23.8898V13.7203C11.3898 13.3949 11.1051 13.1101 10.7797 13.1101Z" fill="white"/>
<path d="M5.97968 17.0559L7.20002 17.7474V13.1101H4.14917V17.7474L5.36951 17.0559C5.5729 16.9338 5.81697 16.9338 5.97968 17.0559Z" fill="white"/>
<path d="M23.3897 13.1101H21.0304V18.805C21.0304 19.0084 20.9084 19.2118 20.705 19.3338C20.6643 19.3745 20.5423 19.4152 20.4609 19.4152C20.3796 19.4152 20.2575 19.3745 20.1762 19.3338L18.3457 18.2762L16.4745 19.3338C16.2711 19.4559 16.0677 19.4559 15.8643 19.3338C15.6609 19.2118 15.5389 19.0084 15.5389 18.805V13.1101H13.2202C12.8948 13.1101 12.6101 13.3949 12.6101 13.7203V23.8898C12.6101 24.2152 12.8948 24.4999 13.2202 24.4999H23.3897C23.7152 24.4999 23.9999 24.2152 23.9999 23.8898V13.7203C23.9999 13.3949 23.7152 13.1101 23.3897 13.1101Z" fill="white"/>
<path d="M16.8 17.7474L18.0203 17.0559C18.2237 16.9338 18.4272 16.9338 18.6306 17.0559L19.8508 17.7474V13.1101H16.8V17.7474Z" fill="white"/>
<path d="M6.91535 11.8898H17.0849C17.4103 11.8898 17.695 11.6051 17.695 11.2797V1.11017C17.695 0.784746 17.4103 0.5 17.0849 0.5H14.7256V6.19492C14.7256 6.39831 14.6035 6.6017 14.4001 6.72373C14.3188 6.76441 14.1967 6.80509 14.0747 6.80509C13.9527 6.80509 13.8713 6.76441 13.79 6.72373L12.0001 5.6661L10.1696 6.72373C9.9662 6.84576 9.76281 6.84576 9.55942 6.72373C9.35603 6.6017 9.234 6.39831 9.234 6.19492V0.5H6.87468C6.58993 0.5 6.30518 0.784746 6.30518 1.11017V11.2797C6.30518 11.6051 6.58993 11.8898 6.91535 11.8898Z" fill="white"/>
<path d="M12.2846 4.44576L13.505 5.13729V0.5H10.4541V5.13729L11.6745 4.44576C11.8779 4.32373 12.1219 4.32373 12.2846 4.44576Z" fill="white"/>
</g>
<defs>
<clipPath id="clip0_17_10">
<rect width="24" height="24" fill="white" transform="translate(0 0.5)"/>
</clipPath>
</defs>
</svg>
