<?xml version="1.0" encoding="UTF-8"?>
<svg id="Layer_1" data-name="Layer 1" xmlns="http://www.w3.org/2000/svg" viewBox="0 0 100 100">
  <defs>
    <style>
      .cls-1 {
        fill: #fff;
      }

      .cls-2 {
        fill: #00a9f1;
      }
    </style>
  </defs>
  <circle class="cls-2" cx="50" cy="50" r="50"/>
  <g>
    <path class="cls-1" d="m50,22.04c-15.4,0-27.96,12.56-27.96,27.96,0,4.53,1.11,9.01,3.15,13,.35.67,1.15.93,1.82.58s.93-1.15.58-1.82c-1.91-3.59-2.88-7.68-2.88-11.76,0-13.93,11.36-25.29,25.29-25.29s25.29,11.36,25.29,25.29-11.36,25.29-25.29,25.29c-6.66,0-12.82-2.53-17.57-7.1,4.75-4.57,10.92-7.1,17.57-7.1,4.88,0,9.67,1.42,13.71,4.08.62.4,1.46.22,1.86-.4.4-.62.22-1.46-.4-1.86-4.53-2.93-9.76-4.48-15.18-4.48-7.68,0-15.13,3.24-20.41,8.88-.04,0-.04.04-.09.09-.4.53-.35,1.24.09,1.73,5.28,5.59,12.69,8.83,20.41,8.83,15.4,0,27.96-12.56,27.96-27.96s-12.56-27.96-27.96-27.96Z"/>
    <circle class="cls-1" cx="50" cy="43.34" r="10.65"/>
  </g>
</svg>