<svg width="128" height="128" viewBox="0 0 128 128" fill="none" xmlns="http://www.w3.org/2000/svg">
<path d="M63.7288 6.02671e-07C51.1254 -0.00173242 38.8046 3.73412 28.3246 10.7351C17.8445 17.7361 9.676 27.6877 4.8521 39.3314C0.0281993 50.975 -1.23441 63.7877 1.22396 76.149C3.68233 88.5103 9.75125 99.8649 18.6632 108.777C27.5751 117.689 38.9297 123.758 51.291 126.216C63.6523 128.674 76.465 127.412 88.1087 122.588C99.7523 117.764 109.704 109.596 116.705 99.1155C123.706 88.6354 127.442 76.3146 127.44 63.7112C127.419 46.8204 120.7 30.6273 108.756 18.6836C96.8127 6.73999 80.6197 0.0208693 63.7288 6.02671e-07ZM8.77117 63.7463C8.75716 53.07 11.8551 42.621 17.6861 33.6777C23.5171 24.7343 31.8283 17.6843 41.6029 13.3902C51.3776 9.09596 62.1919 7.74376 72.723 9.49895C83.254 11.2541 93.0452 16.0406 100.899 23.2729L23.2554 100.881C13.9356 90.7608 8.76495 77.5042 8.77117 63.7463ZM63.7288 118.704C51.3666 118.711 39.3667 114.529 29.687 106.84L106.796 29.7307C113.204 37.8247 117.2 47.5611 118.327 57.8229C119.454 68.0847 117.665 78.4562 113.166 87.7478C108.667 97.0394 101.64 104.875 92.8913 110.355C84.1424 115.835 74.026 118.737 63.7025 118.73L63.7288 118.704Z" fill="#D34A42"/>
</svg>
