<svg width="40" height="38" viewBox="0 0 40 38" fill="none" xmlns="http://www.w3.org/2000/svg">
<path d="M31.6066 17.9831H21.0174V7.3989C21.0174 6.83717 20.562 6.38201 20 6.38201C19.438 6.38201 18.9826 6.83717 18.9826 7.3989V17.9831H8.39337C7.83137 17.9831 7.376 18.4383 7.376 19C7.376 19.5617 7.83137 20.0169 8.39337 20.0169H18.9826V30.6011C18.9826 31.1628 19.438 31.618 20 31.618C20.562 31.618 21.0174 31.1628 21.0174 30.6011V20.0169H31.6066C32.1686 20.0169 32.624 19.5617 32.624 19C32.624 18.4383 32.1682 17.9831 31.6066 17.9831ZM33.4412 5.56524C29.851 1.97602 25.0775 0 20 0C14.9225 0 10.149 1.97602 6.55884 5.56524C-0.852947 12.9731 -0.852947 25.0273 6.55884 32.4352C10.149 36.024 14.9225 38 20 38C25.0775 38 29.851 36.024 33.4412 32.4348C40.8529 25.0269 40.8529 12.9731 33.4412 5.56524ZM32.0026 30.9969C28.7962 34.2013 24.5342 35.9662 20 35.9662C15.4658 35.9662 11.2038 34.2013 7.99741 30.9969C1.37918 24.3814 1.37918 13.6182 7.99741 7.00313C11.2038 3.7987 15.4658 2.03378 20 2.03378C24.5342 2.03378 28.7962 3.7987 32.0026 7.00313C38.6208 13.6186 38.6208 24.3814 32.0026 30.9969Z" fill="#00AAF0"/>
</svg>
