<svg width="22" height="21" viewBox="0 0 22 21" fill="none" xmlns="http://www.w3.org/2000/svg">
<g clip-path="url(#clip0_1347_249)">
<path d="M3.11475 14.5214V4.05867C3.11475 3.62509 3.28699 3.20927 3.59357 2.90268C3.90016 2.5961 4.31598 2.42386 4.74955 2.42386H9.00004V5.36651C9.00004 5.90823 9.4392 6.34739 9.98092 6.34739C10.5226 6.34739 10.9618 5.90823 10.9618 5.36651V2.42386H15.2123C15.6459 2.42386 16.0617 2.5961 16.3683 2.90268C16.6749 3.20927 16.8471 3.62509 16.8471 4.05867V9.617C16.8471 10.1587 17.2863 10.5979 17.828 10.5979C18.3697 10.5979 18.8089 10.1587 18.8089 9.617V4.05867C18.8089 3.1048 18.4299 2.18999 17.7555 1.51551C17.081 0.84102 16.1662 0.462097 15.2123 0.462097H4.74955C3.79568 0.462097 2.88088 0.84102 2.20639 1.51551C1.53191 2.18999 1.15298 3.1048 1.15298 4.05867V14.5214C1.15298 15.4753 1.53191 16.3901 2.20639 17.0646C2.88088 17.7391 3.79568 18.118 4.74955 18.118H10.3079C10.8496 18.118 11.2888 17.6788 11.2888 17.1371C11.2888 16.5954 10.8496 16.1562 10.3079 16.1562H4.74955C4.31598 16.1562 3.90016 15.984 3.59357 15.6774C3.28699 15.3708 3.11475 14.955 3.11475 14.5214Z" fill="#00AAF0"/>
<path d="M18.482 13.8675C18.482 13.3257 18.0428 12.8866 17.5011 12.8866C16.9594 12.8866 16.5202 13.3257 16.5202 13.8675V15.8292H14.5584C14.0167 15.8292 13.5776 16.2684 13.5776 16.8101C13.5776 17.3518 14.0167 17.791 14.5584 17.791H16.5202V19.7528C16.5202 20.2945 16.9594 20.7336 17.5011 20.7336C18.0428 20.7336 18.482 20.2945 18.482 19.7527V17.791H20.4437C20.9855 17.791 21.4246 17.3518 21.4246 16.8101C21.4246 16.2684 20.9855 15.8292 20.4437 15.8292H18.482V13.8675Z" fill="#00AAF0"/>
</g>
<defs>
<clipPath id="clip0_1347_249">
<rect width="21" height="21" fill="white" transform="translate(0.5)"/>
</clipPath>
</defs>
</svg>
