<svg width="21" height="20" viewBox="0 0 21 20" fill="none" xmlns="http://www.w3.org/2000/svg">
<g clip-path="url(#clip0_1347_28)">
<path d="M20.5 1.03448C20.5 0.463448 20.0665 0 19.5323 0H1.46774C0.93355 0 0.5 0.463448 0.5 1.03448C0.5 1.60552 0.93355 2.06897 1.46774 2.06897H19.5323C20.0665 2.06897 20.5 1.60552 20.5 1.03448ZM13.0806 16.5517H19.5323C20.0665 16.5517 20.5 17.0152 20.5 17.5862C20.5 18.1572 20.0665 18.6207 19.5323 18.6207H13.0806C12.5465 18.6207 12.1129 18.1572 12.1129 17.5862C12.1129 17.0152 12.5465 16.5517 13.0806 16.5517ZM1.46774 5.51724H19.5323C20.0665 5.51724 20.5 5.98069 20.5 6.55172C20.5 7.12276 20.0665 7.58621 19.5323 7.58621H1.46774C0.93355 7.58621 0.5 7.12276 0.5 6.55172C0.5 5.98069 0.93355 5.51724 1.46774 5.51724ZM13.0806 11.0345H19.5323C20.0665 11.0345 20.5 11.4979 20.5 12.069C20.5 12.64 20.0665 13.1034 19.5323 13.1034H13.0806C12.5465 13.1034 12.1129 12.64 12.1129 12.069C12.1129 11.4979 12.5465 11.0345 13.0806 11.0345ZM1.46774 13.7931H4.37097V10.6897C4.37097 10.1186 4.80452 9.65517 5.33871 9.65517C5.8729 9.65517 6.30645 10.1186 6.30645 10.6897V13.7931H9.20968C9.74387 13.7931 10.1774 14.2566 10.1774 14.8276C10.1774 15.3986 9.74387 15.8621 9.20968 15.8621H6.30645V18.9655C6.30645 19.5366 5.8729 20 5.33871 20C4.80452 20 4.37097 19.5366 4.37097 18.9655V15.8621H1.46774C0.93355 15.8621 0.5 15.3986 0.5 14.8276C0.5 14.2566 0.93355 13.7931 1.46774 13.7931Z" fill="#00AAF0"/>
</g>
<defs>
<clipPath id="clip0_1347_28">
<rect width="20" height="20" fill="white" transform="translate(0.5)"/>
</clipPath>
</defs>
</svg>
