<svg width="21" height="20" viewBox="0 0 21 20" fill="none" xmlns="http://www.w3.org/2000/svg">
<g clip-path="url(#clip0_1347_30)">
<mask id="mask0_1347_30" style="mask-type:luminance" maskUnits="userSpaceOnUse" x="0" y="0" width="21" height="20">
<path d="M20.5 0H0.5V20H20.5V0Z" fill="white"/>
</mask>
<g mask="url(#mask0_1347_30)">
<path d="M20.1264 8.21794C20.0484 7.81394 19.7024 7.53394 19.2904 7.54394C18.7404 7.55594 18.4104 8.01194 18.5144 8.63994C18.6664 9.55194 18.6604 10.4619 18.5104 11.3739C17.7924 15.7619 13.4684 18.8159 9.09435 18.0239C4.48035 17.1879 1.54635 12.8519 2.49635 8.27794C3.17635 5.01194 5.94835 2.39994 9.25235 1.95594C9.92235 1.86594 10.6064 1.87794 11.2844 1.85594C11.7524 1.83994 12.1244 1.51394 12.1304 1.08394C12.1344 0.887935 12.0444 0.703935 12.0284 0.677935C11.9044 0.461935 11.7124 0.373935 11.5824 0.315935C11.3244 0.197935 11.0824 0.197935 10.9404 0.209935C10.8224 0.215935 10.7044 0.219935 10.5864 0.225935C9.98835 0.289935 9.38435 0.321935 8.79235 0.423935C3.43635 1.34994 -0.147647 6.52394 0.874352 11.8399C1.90035 17.1839 7.03235 20.6499 12.3864 19.6179C17.6424 18.6039 21.1364 13.4559 20.1264 8.21794Z" fill="#00AAF0"/>
<path d="M11.3116 5.12198C11.3016 4.64798 10.9456 4.28998 10.4916 4.29398C10.0376 4.29598 9.68963 4.65198 9.68163 5.13198C9.67763 5.41998 9.68163 5.70598 9.68163 5.95998C9.26963 6.10798 8.88763 6.20798 8.54163 6.37798C7.21563 7.03398 6.84163 8.53398 7.70763 9.66598C8.02963 10.088 8.45363 10.376 8.95163 10.558C9.47763 10.75 10.0236 10.806 10.5776 10.81C10.9896 10.814 11.3916 10.876 11.7436 11.114C12.2476 11.456 12.2396 11.93 11.6896 12.188C10.9056 12.554 10.0936 12.538 9.29963 12.188C9.05763 12.082 8.89563 11.886 8.86363 11.604C8.80163 11.076 8.40763 10.746 7.93563 10.814C7.45963 10.882 7.16563 11.312 7.24963 11.83C7.41363 12.834 8.03763 13.45 8.94563 13.818C9.18163 13.914 9.53963 13.91 9.64563 14.078C9.76963 14.272 9.67363 14.602 9.67963 14.874C9.69163 15.334 10.0396 15.688 10.4836 15.694C10.9376 15.7 11.2976 15.344 11.3096 14.872C11.3156 14.66 11.3216 14.448 11.3096 14.236C11.2976 14.062 11.3476 13.994 11.5316 13.95C11.8496 13.874 12.1716 13.772 12.4636 13.626C13.4336 13.142 13.9476 12.112 13.6956 11.164C13.4816 10.356 12.9476 9.81198 12.1856 9.48598C11.6456 9.25598 11.0756 9.20598 10.4956 9.16998C10.1036 9.14598 9.70763 9.06598 9.33163 8.95198C9.07563 8.87598 8.87363 8.66198 8.87363 8.36798C8.87363 8.07198 9.07763 7.87798 9.32763 7.77598C10.0996 7.45598 10.8836 7.45598 11.6556 7.77198C11.9456 7.88998 12.1196 8.11998 12.1376 8.45998C12.1536 8.72998 12.3076 8.93598 12.5436 9.06998C12.8276 9.22998 13.1156 9.22198 13.3876 9.04198C13.7076 8.82998 13.8056 8.51798 13.7456 8.15398C13.5956 7.24798 13.0596 6.63998 12.2356 6.28198C11.9456 6.15598 11.6296 6.08198 11.3116 5.98198C11.3116 5.69998 11.3156 5.41198 11.3116 5.12398V5.12198Z" fill="#00AAF0"/>
<path d="M13.542 4.3819C14.226 4.3819 14.908 4.3819 15.592 4.3819C15.736 4.3819 15.772 4.4179 15.772 4.5619C15.772 5.2159 15.772 5.8679 15.772 6.5219C15.772 6.5939 15.776 6.6639 15.782 6.7359C15.802 6.9659 15.976 7.1839 16.192 7.2539C16.452 7.3379 16.68 7.2839 16.87 7.0879C16.998 6.9559 17.042 6.7919 17.042 6.6119C17.042 5.9319 17.042 5.2499 17.042 4.5699C17.042 4.4159 17.076 4.3819 17.228 4.3819C17.91 4.3819 18.59 4.3819 19.272 4.3819C19.5 4.3819 19.698 4.3119 19.828 4.1179C19.888 4.0299 19.914 3.9179 19.956 3.8159V3.6779C19.914 3.5759 19.888 3.4659 19.83 3.3759C19.7 3.1819 19.502 3.1119 19.274 3.1119C18.594 3.1119 17.912 3.1119 17.232 3.1119C17.08 3.1119 17.046 3.0779 17.046 2.9259C17.046 2.2459 17.046 1.5639 17.046 0.883904C17.046 0.719904 17.01 0.567904 16.904 0.439904C16.8 0.313904 16.668 0.235904 16.506 0.211904C16.498 0.211904 16.49 0.205904 16.482 0.201904H16.344C16.344 0.201904 16.328 0.209904 16.32 0.211904C16.158 0.235904 16.026 0.313904 15.922 0.439904C15.816 0.569904 15.78 0.721904 15.78 0.883904C15.78 1.5679 15.78 2.2499 15.78 2.9339C15.78 3.0759 15.744 3.1119 15.6 3.1119C14.946 3.1119 14.294 3.1119 13.64 3.1119C13.568 3.1119 13.498 3.1159 13.426 3.1219C13.198 3.1399 12.978 3.3159 12.908 3.5339C12.824 3.7939 12.88 4.0219 13.074 4.2099C13.206 4.3379 13.37 4.3799 13.55 4.3799L13.542 4.3819Z" fill="#00AAF0"/>
</g>
</g>
<defs>
<clipPath id="clip0_1347_30">
<rect width="20" height="20" fill="white" transform="translate(0.5)"/>
</clipPath>
</defs>
</svg>
