<svg width="20" height="20" viewBox="0 0 20 20" fill="none" xmlns="http://www.w3.org/2000/svg">
<path fill-rule="evenodd" clip-rule="evenodd" d="M19.9978 8.35446V19.5141C19.9984 19.5777 19.9865 19.6407 19.9626 19.6997C19.9387 19.7586 19.9033 19.8122 19.8586 19.8574C19.8139 19.9026 19.7606 19.9384 19.7019 19.9629C19.6432 19.9874 19.5803 20 19.5167 20H0.481123C0.353521 20 0.231146 19.9493 0.140918 19.8591C0.0506904 19.7689 5.66841e-07 19.6465 5.66841e-07 19.5189V8.35686C-0.000102414 8.28977 0.0138276 8.2234 0.0408965 8.16201L0.05533 8.13555C0.0657743 8.11382 0.0778365 8.09292 0.0914142 8.073L0.11547 8.04413L0.161177 7.99843L0.17561 7.98399L2.74239 5.85984V2.78307C2.74239 2.65547 2.79308 2.53309 2.88331 2.44287C2.97354 2.35264 3.09591 2.30195 3.22351 2.30195H7.04121L9.69941 0.110441C9.78568 0.0390572 9.89415 0 10.0061 0C10.1181 0 10.2266 0.0390572 10.3128 0.110441L12.959 2.30195H16.7767C16.9043 2.30195 17.0267 2.35264 17.1169 2.44287C17.2071 2.53309 17.2578 2.65547 17.2578 2.78307V5.85984L19.8222 7.98159L19.8366 7.99602L19.8823 8.04173L19.9064 8.07059C19.92 8.09051 19.932 8.11142 19.9425 8.13314L19.9569 8.1596C19.984 8.22099 19.9979 8.28736 19.9978 8.35446ZM17.2578 9.43938L18.7397 8.33521L17.2578 7.11316V9.43938ZM11.4435 2.30195L10.0001 1.09915L8.55675 2.30195H11.4435ZM16.2956 10.1563V3.26419H3.70464V10.1563L10.0001 14.8496L16.2956 10.1563ZM2.74239 9.4442V7.11316L1.26054 8.34002L2.74239 9.4442ZM0.962244 9.31189V19.0378L19.0356 19.0329V9.31189L17.1544 10.7144C17.1004 10.7848 17.0279 10.8389 16.9451 10.8707L10.2864 15.8359C10.2033 15.8978 10.1025 15.9312 9.99891 15.9312C9.89532 15.9312 9.7945 15.8978 9.71144 15.8359L3.05512 10.8779C2.97227 10.8461 2.89984 10.792 2.84583 10.7216L0.962244 9.31189ZM10.4812 10.8419H9.51899V9.09779H7.77492V8.13554H9.51899V6.39148H10.4812V8.13554H12.2253V9.09779H10.4812V10.8419Z" fill="#1F2A37"/>
</svg>
