<svg width="21" height="20" viewBox="0 0 21 20" fill="none" xmlns="http://www.w3.org/2000/svg">
<g clip-path="url(#clip0_1716_13)">
<path d="M11.5275 13.0793C11.2325 12.8897 10.9253 12.7177 10.6169 12.5492C10.4375 12.4512 10.2463 12.3752 10.0511 12.2851C10.0766 12.2518 10.0899 12.2299 10.1076 12.2122C10.7952 11.5418 11.2019 10.7335 11.3132 9.77703C11.3207 9.71277 11.3591 9.63793 11.4072 9.59444C12.9581 8.18818 14.7621 7.72229 16.8019 8.16114C17.5233 8.3163 18.1733 8.64034 18.7896 9.04197C19.1858 9.29979 19.6509 9.20222 19.8903 8.83743C20.136 8.46324 20.0337 7.99696 19.6305 7.73405C19.3476 7.5495 19.0522 7.38258 18.756 7.22036C18.5608 7.1134 18.3535 7.02876 18.1459 6.9312C19.9248 5.23968 19.7379 2.66421 18.2901 1.18467C16.8803 -0.256076 14.6093 -0.409281 12.9687 0.867682C12.2109 1.45738 11.7262 2.23907 11.5452 3.18103C11.2662 4.63235 11.696 5.87758 12.7187 6.89867C12.1564 7.2043 11.6047 7.50444 11.0546 7.8034C10.0488 5.36742 7.08814 4.67663 5.12156 6.03548C4.18079 6.68552 3.59579 7.57771 3.42182 8.71126C3.20906 10.0972 3.65026 11.2746 4.64902 12.2714C4.56752 12.3051 4.50209 12.3317 4.43744 12.3588C2.97279 12.972 1.79065 13.928 0.920792 15.2614C0.49135 15.9201 0.176322 16.6289 0 17.3973V17.9447C0.0877691 18.2084 0.139882 18.4916 0.27036 18.7326C0.697843 19.5229 1.34279 19.9822 2.27769 19.9798C4.57849 19.9743 6.87891 19.9778 9.17971 19.9778C9.70319 19.9778 10.0492 19.5065 9.89558 19.0034C9.78783 18.6503 9.49435 18.4521 9.06922 18.4521C6.85971 18.4513 4.6502 18.4529 2.44108 18.4509C1.77145 18.4505 1.42155 17.9447 1.6441 17.315C1.93562 16.491 2.37878 15.7587 3.00766 15.1533C4.60788 13.6118 6.50667 13.059 8.68288 13.5053C9.4105 13.6545 10.0688 13.9829 10.6902 14.3904C11.0938 14.6549 11.564 14.5546 11.803 14.1796C12.0432 13.8027 11.9358 13.3415 11.5275 13.079V13.0793ZM15.4556 1.55965C16.7882 1.56357 17.8751 2.65794 17.8708 3.99132C17.8665 5.32432 16.7725 6.41124 15.4391 6.40693C14.1054 6.40262 13.0192 5.30864 13.0235 3.97487C13.0278 2.64187 14.1218 1.55534 15.4556 1.55965ZM7.35458 11.7612C6.02472 11.7624 4.92957 10.6673 4.92957 9.33623C4.92957 8.00206 6.01767 6.91435 7.35302 6.91396C8.68915 6.91396 9.77646 7.99932 9.77686 9.33427C9.77725 10.6669 8.6864 11.7601 7.35498 11.7612H7.35458Z" fill="#1F2A37"/>
<path d="M19.1685 15.5199C18.5498 15.5175 17.9308 15.5195 17.3121 15.5195H17.0891V15.2848C17.0891 14.6723 17.0907 14.0603 17.0887 13.4479C17.0872 12.9365 16.7647 12.5863 16.3031 12.5886C15.8439 12.591 15.5269 12.9432 15.5253 13.4569C15.5238 14.0497 15.5253 14.6426 15.5253 15.235V15.5195C15.4337 15.5195 15.3639 15.5195 15.2938 15.5195C14.6555 15.5195 14.0168 15.5132 13.3789 15.5222C12.8292 15.53 12.4671 16.0429 12.6376 16.5523C12.7465 16.8775 13.04 17.0805 13.4228 17.0825C14.1132 17.086 14.8036 17.0832 15.5253 17.0832C15.5253 17.1734 15.5253 17.2435 15.5253 17.3136C15.5253 17.9519 15.521 18.5902 15.5281 19.2285C15.5316 19.5565 15.6809 19.8256 15.9904 19.9342C16.2671 20.031 16.568 20.0415 16.818 19.8213C17.0115 19.6509 17.0911 19.4326 17.0903 19.178C17.0883 18.5526 17.0895 17.9272 17.0895 17.3019V17.0829C17.7983 17.0829 18.4813 17.0848 19.1642 17.0821C19.672 17.0801 20.0255 16.7518 20.0212 16.2921C20.0168 15.84 19.6673 15.5206 19.1689 15.5191L19.1685 15.5199Z" fill="#1F2A37"/>
</g>
<defs>
<clipPath id="clip0_1716_13">
<rect width="20.0231" height="20" fill="white"/>
</clipPath>
</defs>
</svg>
