<svg width="19" height="16" viewBox="0 0 19 16" fill="none" xmlns="http://www.w3.org/2000/svg">
<path d="M14.3356 9.65986C14.9074 9.65986 15.4254 9.89228 15.8006 10.267C16.1764 10.6418 16.4088 11.1603 16.4088 11.7326C16.4088 12.3043 16.1764 12.8224 15.8016 13.1976C15.4254 13.5733 14.9074 13.8057 14.3356 13.8057C13.7634 13.8057 13.2448 13.5733 12.864 13.1917C12.4902 12.8109 12.2629 12.298 12.2629 11.7326C12.2629 11.1603 12.4953 10.6418 12.8701 10.267C13.2448 9.89228 13.7634 9.65986 14.3356 9.65986ZM10.9824 14.9988L10.4527 14.469C10.3758 14.3921 10.3723 14.2691 10.4422 14.1878L11.0557 13.3758C11.0166 13.2979 10.98 13.2179 10.9461 13.1363C10.9131 13.0567 10.8826 12.9745 10.8545 12.8902L9.8333 12.7484C9.73003 12.734 9.65533 12.6454 9.65533 12.5441L9.65484 10.9215C9.65484 10.8124 9.7398 10.7228 9.84722 10.7152L10.8545 10.5751C10.8826 10.4909 10.9133 10.4084 10.9485 10.3237C10.9837 10.2402 11.0186 10.1635 11.0557 10.0895L10.4344 9.26681C10.3716 9.1838 10.3816 9.06833 10.4532 8.99655L11.1729 8.2766C10.6394 7.98486 10.0696 7.75245 9.47272 7.58961C8.8116 7.40944 8.11314 7.31277 7.38953 7.31277C5.8178 7.31277 4.35324 7.77198 3.12403 8.56273C1.8543 9.37984 0.833821 10.5512 0.202736 11.9364C0.0455145 12.2816 -0.0199131 12.6398 0.00523261 12.9906C0.0303783 13.3407 0.14683 13.6859 0.35239 14.0057C0.558194 14.3255 0.824055 14.5747 1.13166 14.7425C1.43878 14.9099 1.79204 14.9988 2.17362 14.9988H10.9824ZM15.5824 8.72385C15.4779 8.68064 15.3705 8.64231 15.2616 8.61009C15.1803 8.59178 15.1149 8.52464 15.1027 8.43724L14.9677 7.46535H13.7045L13.5693 8.43724C13.558 8.51512 13.5026 8.58348 13.4223 8.60667C13.3124 8.63865 13.204 8.67698 13.0937 8.72215C12.9816 8.76902 12.8752 8.82004 12.7719 8.87668C12.7028 8.91452 12.6152 8.91111 12.5483 8.86057L11.7651 8.26904L10.8723 9.16183L11.4609 9.94135C11.5107 10.0043 11.521 10.0939 11.48 10.1689C11.4241 10.2709 11.3738 10.3742 11.3291 10.4819C11.2837 10.5922 11.2451 10.6994 11.2136 10.8066C11.1953 10.8881 11.1282 10.9535 11.0405 10.9657L10.0684 11.101V12.3646L11.0405 12.4996C11.1184 12.5108 11.1868 12.5663 11.21 12.6466C11.2422 12.7579 11.2817 12.869 11.3269 12.9781C11.3716 13.086 11.4231 13.1927 11.48 13.2965C11.5178 13.3656 11.5144 13.4532 11.4639 13.5201L10.8721 14.3035L11.7651 15.1968L12.5442 14.608C12.6074 14.5579 12.697 14.5477 12.7719 14.5887C12.8742 14.6446 12.9775 14.6949 13.0856 14.7398C13.1957 14.7852 13.3029 14.8238 13.4101 14.8553C13.4916 14.8736 13.5571 14.9407 13.5693 15.0283L13.7045 16H14.9677L15.1029 15.0279C15.1141 14.95 15.1696 14.8816 15.2499 14.8584C15.3624 14.826 15.4738 14.7864 15.5814 14.742C15.6876 14.6983 15.7943 14.6463 15.8998 14.5887C15.9689 14.5508 16.0565 14.5542 16.1234 14.6048L16.9071 15.1968L17.8001 14.3035L17.2112 13.5242C17.1612 13.461 17.1509 13.3714 17.192 13.2965C17.2488 13.1927 17.3004 13.086 17.3453 12.9776C17.3882 12.8741 17.4266 12.7672 17.4583 12.659C17.4766 12.5775 17.5438 12.5118 17.6314 12.4996L18.6031 12.3646V11.101L17.6314 10.966C17.5535 10.9547 17.4852 10.8993 17.462 10.819C17.4297 10.7079 17.3904 10.5971 17.3453 10.488C17.3004 10.3798 17.2486 10.2729 17.1917 10.1689C17.1539 10.0998 17.1573 10.0121 17.2078 9.94525L17.8001 9.16134L16.9071 8.26855L16.1275 8.85764C16.0643 8.90744 15.9747 8.9177 15.8998 8.87668C15.7965 8.82004 15.6898 8.76877 15.5824 8.72385ZM9.72832 0.967988C9.12995 0.370106 8.30283 0 7.38953 0C6.4816 0 5.65936 0.365467 5.05708 0.962861C4.45358 1.56685 4.08323 2.39373 4.08323 3.30678C4.08323 4.21984 4.45358 5.04672 5.05171 5.64485C5.64935 6.24371 6.47623 6.61357 7.38953 6.61357C8.30259 6.61357 9.12947 6.24322 9.72784 5.64485C10.326 5.04672 10.6963 4.21984 10.6963 3.30678C10.6963 2.39348 10.3262 1.56636 9.72832 0.967988Z" fill="#4E4AEB"/>
</svg>
