<svg width="27" height="25" viewBox="0 0 27 25" fill="none" xmlns="http://www.w3.org/2000/svg">
<g clip-path="url(#clip0_1347_252)">
<path d="M14.1584 0L20.272 8.65035C17.2803 10.1214 14.4976 11.9665 12.5952 14.4597C10.7395 16.8914 9.78341 19.9595 10.2075 23.7249L8.48374 22.5482C8.18642 19.6191 8.54694 17.0952 9.50089 14.8837C10.7131 12.0733 12.8955 9.74814 15.9678 7.74922C16.1387 7.63584 16.1611 7.35807 16.0107 7.21921L10.6572 2.34281C11.7705 1.48183 12.9738 0.695402 14.1584 0ZM7.52012 0.402839L15.2291 7.44185C12.2754 9.43796 10.0919 11.784 8.86918 14.6187C7.67929 17.3773 7.42398 20.6054 8.08758 24.3609L0.978232 19.4527C0.231303 15.0691 0.345775 11.4412 1.41721 8.3429C2.47287 5.29027 4.47268 2.73049 7.52012 0.402839ZM23.9873 3.7421L26.2143 14.1416C22.045 13.6666 18.0373 15.4174 15.0899 17.6611C13.3665 19.1224 11.7358 20.5761 10.7536 22.4422C10.6541 19.3905 11.5748 16.9258 13.1412 14.8731C15.0223 12.408 17.8411 10.545 20.9144 9.07436C21.1003 8.99295 21.1726 8.7287 21.0536 8.56552L18.5054 4.97181C20.6796 4.28443 22.6346 3.86063 23.9873 3.7421ZM8.03405 5.14146L7.4987 6.05309C6.97662 5.82454 6.43838 5.70695 5.9248 5.75628C5.26856 5.81931 4.65366 6.18218 4.26524 6.84818C3.96375 7.46424 4.16416 7.96936 4.47937 8.47011C5.11582 9.38746 6.11999 9.94813 6.79205 10.8447C7.03569 11.1566 7.03949 11.4358 6.95265 11.7352C6.65833 12.2399 6.29019 12.4542 5.82844 12.4985C5.36668 12.5429 4.80106 12.384 4.23312 12.0638C3.72398 11.7768 3.31546 11.2277 3.19455 10.7175C3.07365 10.2074 3.17709 9.80188 3.68707 9.53023C3.84835 9.46966 3.94399 9.27517 3.8927 9.11209C3.77585 8.88032 3.59394 8.86167 3.35516 8.92596C2.58536 9.33603 2.3604 10.1579 2.53073 10.8765C2.68535 11.5289 3.11539 12.1422 3.70848 12.5409L3.19455 13.4419L3.78343 13.7812L4.31875 12.8695C4.84084 13.0981 5.37908 13.2157 5.89266 13.1663C6.5489 13.1033 7.16382 12.7405 7.55222 12.0744C7.85372 11.4583 7.65329 10.9532 7.33809 10.4525C6.69848 9.54074 5.70626 8.9732 5.03612 8.0779C4.78597 7.76493 4.77663 7.49142 4.8648 7.18741C5.15915 6.6827 5.52726 6.46849 5.98903 6.42413C6.45078 6.37977 7.01642 6.5386 7.58435 6.85877C8.09347 7.14583 8.50201 7.695 8.62291 8.20509C8.74381 8.71518 8.64033 9.12076 8.1304 9.39238C7.97057 9.47842 7.90421 9.70063 7.99112 9.85885C8.07803 10.0171 8.30253 10.0827 8.46231 9.99663C9.23209 9.58662 9.45705 8.76474 9.28673 8.04606C9.13212 7.3937 8.70208 6.78044 8.10898 6.38173L8.63361 5.48069L8.03405 5.14146Z" fill="#00AAF0"/>
</g>
<defs>
<clipPath id="clip0_1347_252">
<rect width="26" height="25" fill="white" transform="translate(0.5)"/>
</clipPath>
</defs>
</svg>
