<svg width="19" height="18" viewBox="0 0 19 18" fill="none" xmlns="http://www.w3.org/2000/svg">
<g clip-path="url(#clip0_1347_38)">
<path d="M16.7005 18H6.22774C5.75035 18 5.29251 17.8104 4.95495 17.4728C4.61738 17.1352 4.42774 16.6774 4.42774 16.2V15.9055C3.31098 15.6467 2.31479 15.0173 1.60153 14.1199C0.888272 13.2225 0.5 12.11 0.5 10.9636C0.5 9.8173 0.888272 8.70476 1.60153 7.80735C2.31479 6.90993 3.31098 6.28057 4.42774 6.02182V1.8C4.42774 1.32261 4.61738 0.864776 4.95495 0.527211C5.29251 0.189645 5.75035 3.0813e-06 6.22774 3.0813e-06H13.539C13.7763 -0.000436671 14.0112 0.0461977 14.2303 0.137205C14.4494 0.228213 14.6483 0.361785 14.8154 0.530185L17.9703 3.68509C18.1427 3.85605 18.2785 4.06023 18.3697 4.28525C18.4608 4.51027 18.5053 4.75146 18.5005 4.99418V16.2C18.5005 16.6774 18.3108 17.1352 17.9733 17.4728C17.6357 17.8104 17.1779 18 16.7005 18ZM5.40956 16.0364V16.2C5.40956 16.417 5.49576 16.6251 5.6492 16.7785C5.80264 16.932 6.01074 17.0182 6.22774 17.0182H16.7005C16.9175 17.0182 17.1256 16.932 17.279 16.7785C17.4324 16.6251 17.5186 16.417 17.5186 16.2V5.56364H14.7368C14.2594 5.56364 13.8016 5.374 13.464 5.03643C13.1265 4.69887 12.9368 4.24103 12.9368 3.76364V0.981821H6.22774C6.01074 0.981821 5.80264 1.06802 5.6492 1.22146C5.49576 1.3749 5.40956 1.58301 5.40956 1.8V5.89091H5.57319C6.91856 5.89091 8.20883 6.42536 9.16015 7.37668C10.1115 8.328 10.6459 9.61827 10.6459 10.9636C10.6459 12.309 10.1115 13.5993 9.16015 14.5506C8.20883 15.5019 6.91856 16.0364 5.57319 16.0364H5.40956ZM5.57319 6.87273C4.76409 6.87273 3.97315 7.11266 3.30041 7.56217C2.62766 8.01169 2.10332 8.6506 1.79369 9.39812C1.48406 10.1456 1.40304 10.9682 1.56089 11.7617C1.71874 12.5553 2.10836 13.2842 2.68049 13.8563C3.25261 14.4285 3.98154 14.8181 4.7751 14.9759C5.56866 15.1338 6.3912 15.0528 7.13872 14.7431C7.88623 14.4335 8.52515 13.9092 8.97466 13.2364C9.42418 12.5637 9.6641 11.7727 9.6641 10.9636C9.6641 9.87866 9.2331 8.83812 8.4659 8.07093C7.69871 7.30373 6.65817 6.87273 5.57319 6.87273ZM13.9186 1.07346V3.76364C13.9186 3.98063 14.0048 4.18874 14.1583 4.34218C14.3117 4.49562 14.5198 4.58182 14.7368 4.58182H17.427C17.3865 4.50751 17.3358 4.43922 17.2765 4.37891L14.1216 1.224C14.0613 1.16463 13.993 1.11396 13.9186 1.07346ZM15.3914 13.4182H12.1186C11.9885 13.4182 11.8636 13.3665 11.7715 13.2744C11.6795 13.1823 11.6277 13.0575 11.6277 12.9273C11.6277 12.7971 11.6795 12.6722 11.7715 12.5801C11.8636 12.4881 11.9885 12.4364 12.1186 12.4364H15.3914C15.5216 12.4364 15.6464 12.4881 15.7385 12.5801C15.8306 12.6722 15.8823 12.7971 15.8823 12.9273C15.8823 13.0575 15.8306 13.1823 15.7385 13.2744C15.6464 13.3665 15.5216 13.4182 15.3914 13.4182ZM5.16738 12.4756C5.10183 12.4764 5.03679 12.4641 4.97608 12.4394C4.91538 12.4147 4.86024 12.378 4.81392 12.3316L3.60956 11.1076C3.51763 11.0156 3.46599 10.8908 3.46599 10.7607C3.46599 10.6306 3.51763 10.5059 3.60956 10.4138C3.65469 10.3675 3.70863 10.3307 3.76821 10.3056C3.82779 10.2804 3.8918 10.2675 3.95647 10.2675C4.02113 10.2675 4.08514 10.2804 4.14472 10.3056C4.2043 10.3307 4.25825 10.3675 4.30338 10.4138L5.16738 11.2909L6.88228 9.59564C6.92741 9.54932 6.98136 9.51252 7.04094 9.48738C7.10052 9.46225 7.16453 9.4493 7.22919 9.4493C7.29386 9.4493 7.35787 9.46225 7.41745 9.48738C7.47703 9.51252 7.53098 9.54932 7.5761 9.59564C7.62221 9.64414 7.65791 9.70156 7.68102 9.76436C7.70412 9.82716 7.71414 9.89402 7.71046 9.96084C7.70679 10.0277 7.68949 10.093 7.65963 10.1529C7.62977 10.2128 7.58798 10.2659 7.53683 10.3091L5.51429 12.3316C5.46896 12.3775 5.41493 12.4139 5.35536 12.4386C5.29579 12.4634 5.23188 12.4759 5.16738 12.4756ZM15.3914 10.8H12.7732C12.643 10.8 12.5181 10.7483 12.4261 10.6562C12.334 10.5642 12.2823 10.4393 12.2823 10.3091C12.2823 10.1789 12.334 10.054 12.4261 9.96197C12.5181 9.8699 12.643 9.81818 12.7732 9.81818H15.3914C15.5216 9.81818 15.6464 9.8699 15.7385 9.96197C15.8306 10.054 15.8823 10.1789 15.8823 10.3091C15.8823 10.4393 15.8306 10.5642 15.7385 10.6562C15.6464 10.7483 15.5216 10.8 15.3914 10.8ZM15.3914 8.18182H12.1186C11.9885 8.18182 11.8636 8.1301 11.7715 8.03804C11.6795 7.94597 11.6277 7.82111 11.6277 7.69091C11.6277 7.56071 11.6795 7.43585 11.7715 7.34379C11.8636 7.25172 11.9885 7.2 12.1186 7.2H15.3914C15.5216 7.2 15.6464 7.25172 15.7385 7.34379C15.8306 7.43585 15.8823 7.56071 15.8823 7.69091C15.8823 7.82111 15.8306 7.94597 15.7385 8.03804C15.6464 8.1301 15.5216 8.18182 15.3914 8.18182ZM10.8096 5.56364H8.84592C8.71572 5.56364 8.59086 5.51192 8.4988 5.41985C8.40673 5.32779 8.35501 5.20293 8.35501 5.07273C8.35501 4.94253 8.40673 4.81767 8.4988 4.72561C8.59086 4.63354 8.71572 4.58182 8.84592 4.58182H10.8096C10.9398 4.58182 11.0646 4.63354 11.1567 4.72561C11.2487 4.81767 11.3005 4.94253 11.3005 5.07273C11.3005 5.20293 11.2487 5.32779 11.1567 5.41985C11.0646 5.51192 10.9398 5.56364 10.8096 5.56364Z" fill="#00AAF0"/>
</g>
<defs>
<clipPath id="clip0_1347_38">
<rect width="18" height="18" fill="white" transform="translate(0.5)"/>
</clipPath>
</defs>
</svg>
