<svg width="25" height="24" viewBox="0 0 25 24" fill="none" xmlns="http://www.w3.org/2000/svg">
<path d="M21.242 13.045C20.5643 13.225 19.8662 13.3161 19.165 13.316C17.03 13.316 15.025 12.486 13.519 10.98C12.5301 9.98536 11.8191 8.74887 11.4569 7.39381C11.0948 6.03874 11.0941 4.61242 11.455 3.25701C11.5001 3.08755 11.4998 2.90921 11.4542 2.73988C11.4086 2.57056 11.3192 2.41621 11.1951 2.29232C11.071 2.16842 10.9165 2.07934 10.7471 2.034C10.5777 1.98866 10.3994 1.98867 10.23 2.03401C8.53316 2.4862 6.98507 3.37664 5.741 4.61601C1.843 8.51401 1.843 14.859 5.741 18.759C6.66753 19.6907 7.76964 20.4294 8.98354 20.9323C10.1975 21.4353 11.499 21.6924 12.813 21.689C14.1266 21.6927 15.4279 21.4357 16.6415 20.9329C17.8551 20.4302 18.9569 19.6916 19.883 18.76C21.1233 17.5157 22.0142 15.9668 22.466 14.269C22.5109 14.0996 22.5105 13.9214 22.4649 13.7522C22.4193 13.583 22.3301 13.4287 22.2062 13.3048C22.0823 13.1809 21.928 13.0917 21.7588 13.0461C21.5896 13.0005 21.4114 13.0001 21.242 13.045ZM18.47 17.346C17.729 18.0911 16.8475 18.6818 15.8767 19.084C14.9058 19.4862 13.8649 19.6918 12.814 19.689C11.7628 19.6916 10.7215 19.4858 9.75033 19.0835C8.77916 18.6811 7.89739 18.0903 7.156 17.345C4.038 14.226 4.038 9.15001 7.156 6.03101C7.75851 5.42918 8.4541 4.92843 9.216 4.54801C9.10448 5.98707 9.30496 7.43325 9.80373 8.7877C10.3025 10.1422 11.0878 11.373 12.106 12.396C13.1268 13.4174 14.3573 14.2049 15.7123 14.704C17.0673 15.2032 18.5146 15.4021 19.954 15.287C19.5715 16.0476 19.0706 16.7426 18.47 17.346Z" fill="#00AAF0"/>
</svg>
