<svg width="18" height="18" viewBox="0 0 18 18" fill="none" xmlns="http://www.w3.org/2000/svg">
<g clip-path="url(#clip0_1347_40)">
<path d="M3.76923 16.9231C3.47184 16.9231 3.23076 17.1642 3.23076 17.4615C3.23076 17.7589 3.47184 18 3.76923 18H14.2308C15.8876 18 17.2308 16.6569 17.2308 15V4.53845C17.2308 2.8816 15.8876 1.53845 14.2308 1.53845H3.76923C2.11237 1.53845 0.769226 2.8816 0.769226 4.53845V13.1538C0.769226 13.4512 1.0103 13.6923 1.30769 13.6923C1.60507 13.6923 1.84615 13.4512 1.84615 13.1538V4.53845C1.84615 3.47637 2.70714 2.61537 3.76923 2.61537H14.2308C15.2929 2.61537 16.1538 3.47637 16.1538 4.53845V15C16.1538 16.0621 15.2929 16.9231 14.2308 16.9231H3.76923Z" fill="#00AAF0"/>
<path d="M11.8673 0.538462C11.8673 0.241077 12.1084 0 12.4058 0C12.7032 0 12.9443 0.241077 12.9443 0.538462V3.92308C12.9443 4.22046 12.7032 4.46154 12.4058 4.46154C12.1084 4.46154 11.8673 4.22046 11.8673 3.92308V0.538462Z" fill="#00AAF0"/>
<path d="M5.09808 0.538462C5.09808 0.241077 5.33916 0 5.63654 0C5.93393 0 6.17501 0.241077 6.17501 0.538462V3.92308C6.17501 4.22046 5.93393 4.46154 5.63654 4.46154C5.33916 4.46154 5.09808 4.22046 5.09808 3.92308V0.538462Z" fill="#00AAF0"/>
<path d="M4.07691 8.00002C3.77952 8.00002 3.53845 7.75894 3.53845 7.46156C3.53845 7.16417 3.77952 6.9231 4.07691 6.9231H13.9231C14.2205 6.9231 14.4615 7.16417 14.4615 7.46156C14.4615 7.75894 14.2205 8.00002 13.9231 8.00002H4.07691Z" fill="#00AAF0"/>
<path d="M5.15383 11C5.4937 11 5.76922 10.7245 5.76922 10.3846C5.76922 10.0447 5.4937 9.76923 5.15383 9.76923C4.81396 9.76923 4.53845 10.0447 4.53845 10.3846C4.53845 10.7245 4.81396 11 5.15383 11Z" fill="#00AAF0"/>
<path d="M5.15383 14.0769C5.4937 14.0769 5.76922 13.8014 5.76922 13.4615C5.76922 13.1217 5.4937 12.8462 5.15383 12.8462C4.81396 12.8462 4.53845 13.1217 4.53845 13.4615C4.53845 13.8014 4.81396 14.0769 5.15383 14.0769Z" fill="#00AAF0"/>
<path d="M8.84616 11C9.18603 11 9.46154 10.7245 9.46154 10.3846C9.46154 10.0447 9.18603 9.76923 8.84616 9.76923C8.50629 9.76923 8.23077 10.0447 8.23077 10.3846C8.23077 10.7245 8.50629 11 8.84616 11Z" fill="#00AAF0"/>
<path d="M8.84616 14.0769C9.18603 14.0769 9.46154 13.8014 9.46154 13.4615C9.46154 13.1217 9.18603 12.8462 8.84616 12.8462C8.50629 12.8462 8.23077 13.1217 8.23077 13.4615C8.23077 13.8014 8.50629 14.0769 8.84616 14.0769Z" fill="#00AAF0"/>
<path d="M12.5385 11C12.8783 11 13.1538 10.7245 13.1538 10.3846C13.1538 10.0447 12.8783 9.76923 12.5385 9.76923C12.1986 9.76923 11.9231 10.0447 11.9231 10.3846C11.9231 10.7245 12.1986 11 12.5385 11Z" fill="#00AAF0"/>
<path d="M12.5385 14.0769C12.8783 14.0769 13.1538 13.8014 13.1538 13.4615C13.1538 13.1217 12.8783 12.8462 12.5385 12.8462C12.1986 12.8462 11.9231 13.1217 11.9231 13.4615C11.9231 13.8014 12.1986 14.0769 12.5385 14.0769Z" fill="#00AAF0"/>
</g>
<defs>
<clipPath id="clip0_1347_40">
<rect width="17" height="18" fill="white" transform="translate(0.5)"/>
</clipPath>
</defs>
</svg>
