<svg width="61" height="71" viewBox="0 0 61 71" fill="none" xmlns="http://www.w3.org/2000/svg">
<g clip-path="url(#clip0_1347_56)">
<path d="M13.0158 45.3278H2.77573C2.24682 45.3272 1.73973 45.1168 1.36573 44.7428C0.991732 44.3688 0.781357 43.8618 0.780762 43.3328V2.37729C0.781357 1.84838 0.991732 1.3413 1.36573 0.967296C1.73973 0.593295 2.24682 0.38292 2.77573 0.382324H30.5505L35.634 4.92126V13.1736H35.3993V5.02635L30.4609 0.617027H2.77573C2.30904 0.617555 1.86162 0.80318 1.53162 1.13318C1.20162 1.46318 1.01599 1.9106 1.01546 2.37729V43.3328C1.01599 43.7995 1.20162 44.247 1.53162 44.577C1.86162 44.907 2.30904 45.0926 2.77573 45.0931H13.0158V45.3278Z" fill="#CCCCCC"/>
<path d="M35.5167 5.07637H32.3482C31.8193 5.07577 31.3122 4.8654 30.9382 4.4914C30.5642 4.1174 30.3539 3.61032 30.3533 3.0814V0.499675C30.3533 0.468552 30.3656 0.438703 30.3876 0.416695C30.4096 0.394688 30.4395 0.382324 30.4706 0.382324C30.5017 0.382324 30.5316 0.394688 30.5536 0.416695C30.5756 0.438703 30.588 0.468552 30.588 0.499675V3.0814C30.5885 3.54809 30.7741 3.99551 31.1041 4.32551C31.4341 4.65551 31.8816 4.84114 32.3482 4.84167H35.5167C35.5478 4.84167 35.5777 4.85403 35.5997 4.87604C35.6217 4.89805 35.6341 4.9279 35.6341 4.95902C35.6341 4.99014 35.6217 5.01999 35.5997 5.042C35.5777 5.06401 35.5478 5.07637 35.5167 5.07637Z" fill="#CCCCCC"/>
<path d="M31.5901 11.0024H4.83407C4.58509 11.0024 4.34629 11.1014 4.17023 11.2774C3.99417 11.4535 3.89526 11.6923 3.89526 11.9413C3.89526 12.1902 3.99417 12.429 4.17023 12.6051C4.34629 12.7811 4.58509 12.8801 4.83407 12.8801H31.5901C31.8391 12.8801 32.0779 12.7811 32.254 12.6051C32.43 12.429 32.5289 12.1902 32.5289 11.9413C32.5289 11.6923 32.43 11.4535 32.254 11.2774C32.0779 11.1014 31.8391 11.0024 31.5901 11.0024Z" fill="#E6E6E6"/>
<path d="M18.0948 7.0127H4.83407C4.58509 7.0127 4.34629 7.1116 4.17023 7.28767C3.99417 7.46373 3.89526 7.70252 3.89526 7.9515C3.89526 8.20049 3.99417 8.43928 4.17023 8.61534C4.34629 8.7914 4.58509 8.89031 4.83407 8.89031H18.0948C18.3437 8.89031 18.5825 8.7914 18.7586 8.61534C18.9347 8.43928 19.0336 8.20049 19.0336 7.9515C19.0336 7.70252 18.9347 7.46373 18.7586 7.28767C18.5825 7.1116 18.3437 7.0127 18.0948 7.0127Z" fill="#E6E6E6"/>
<path d="M4.83407 18.8652C4.58509 18.8652 4.34629 18.9641 4.17023 19.1402C3.99417 19.3163 3.89526 19.5551 3.89526 19.804C3.89526 20.053 3.99417 20.2918 4.17023 20.4679C4.34629 20.6439 4.58509 20.7429 4.83407 20.7429H13.22V18.8652H4.83407Z" fill="#E6E6E6"/>
<path d="M4.83407 14.8752C4.71079 14.8752 4.58871 14.8995 4.47481 14.9467C4.36091 14.9939 4.25741 15.063 4.17023 15.1502C4.08306 15.2374 4.01391 15.3409 3.96673 15.4548C3.91955 15.5687 3.89526 15.6908 3.89526 15.8141C3.89526 15.9373 3.91955 16.0594 3.96673 16.1733C4.01391 16.2872 4.08306 16.3907 4.17023 16.4779C4.25741 16.5651 4.36091 16.6342 4.47481 16.6814C4.58871 16.7286 4.71079 16.7529 4.83407 16.7529H13.22V14.8752H4.83407Z" fill="#E6E6E6"/>
<path d="M13.2786 38.7562H5.76344C5.25008 38.7556 4.75792 38.5514 4.39492 38.1884C4.03192 37.8254 3.82773 37.3333 3.82715 36.8199V26.9624C3.82773 26.4491 4.03192 25.9569 4.39492 25.5939C4.75792 25.2309 5.25008 25.0267 5.76344 25.0261H13.2786V38.7562Z" fill="#E6E6E6"/>
<path d="M25.3963 57.943H15.1562C14.6273 57.9425 14.1202 57.7321 13.7462 57.3581C13.3722 56.9841 13.1619 56.477 13.1613 55.9481V14.9925C13.1619 14.4636 13.3722 13.9565 13.7462 13.5825C14.1202 13.2085 14.6273 12.9982 15.1562 12.9976H42.931L48.0145 17.5365V25.3194H47.7798V17.6416L42.8414 13.2323H15.1562C14.6895 13.2328 14.2421 13.4184 13.9121 13.7484C13.5821 14.0784 13.3965 14.5258 13.396 14.9925V55.9481C13.3965 56.4148 13.5821 56.8622 13.9121 57.1922C14.2421 57.5222 14.6895 57.7078 15.1562 57.7083H25.3963V57.943Z" fill="#CCCCCC"/>
<path d="M47.8972 17.6916H44.7287C44.1998 17.691 43.6927 17.4806 43.3187 17.1066C42.9447 16.7326 42.7344 16.2256 42.7338 15.6966V13.1149C42.7338 13.0838 42.7461 13.0539 42.7681 13.0319C42.7901 13.0099 42.82 12.9976 42.8511 12.9976C42.8822 12.9976 42.9121 13.0099 42.9341 13.0319C42.9561 13.0539 42.9685 13.0838 42.9685 13.1149V15.6966C42.969 16.1633 43.1546 16.6107 43.4846 16.9407C43.8146 17.2707 44.262 17.4564 44.7287 17.4569H47.8972C47.9283 17.4569 47.9582 17.4693 47.9802 17.4913C48.0022 17.5133 48.0146 17.5431 48.0146 17.5743C48.0146 17.6054 48.0022 17.6352 47.9802 17.6572C47.9582 17.6792 47.9283 17.6916 47.8972 17.6916Z" fill="#CCCCCC"/>
<path d="M43.9706 23.6177H17.2146C16.9656 23.6177 16.7268 23.7166 16.5507 23.8926C16.3747 24.0687 16.2758 24.3075 16.2758 24.5565C16.2758 24.8055 16.3747 25.0443 16.5507 25.2203C16.7268 25.3964 16.9656 25.4953 17.2146 25.4953H43.9706C44.2196 25.4953 44.4584 25.3964 44.6345 25.2203C44.8105 25.0443 44.9094 24.8055 44.9094 24.5565C44.9094 24.3075 44.8105 24.0687 44.6345 23.8926C44.4584 23.7166 44.2196 23.6177 43.9706 23.6177Z" fill="#E6E6E6"/>
<path d="M30.4752 19.6279H17.2146C16.9656 19.6279 16.7268 19.7268 16.5507 19.9029C16.3747 20.079 16.2758 20.3178 16.2758 20.5667C16.2758 20.8157 16.3747 21.0545 16.5507 21.2306C16.7268 21.4066 16.9656 21.5055 17.2146 21.5055H30.4752C30.7242 21.5055 30.963 21.4066 31.1391 21.2306C31.3151 21.0545 31.4141 20.8157 31.4141 20.5667C31.4141 20.3178 31.3151 20.079 31.1391 19.9029C30.963 19.7268 30.7242 19.6279 30.4752 19.6279Z" fill="#E6E6E6"/>
<path d="M43.9706 23.6177H17.2146C16.9656 23.6177 16.7268 23.7166 16.5507 23.8926C16.3747 24.0687 16.2758 24.3075 16.2758 24.5565C16.2758 24.8055 16.3747 25.0443 16.5507 25.2203C16.7268 25.3964 16.9656 25.4953 17.2146 25.4953H43.9706C44.2196 25.4953 44.4584 25.3964 44.6345 25.2203C44.8105 25.0443 44.9094 24.8055 44.9094 24.5565C44.9094 24.3075 44.8105 24.0687 44.6345 23.8926C44.4584 23.7166 44.2196 23.6177 43.9706 23.6177Z" fill="#E6E6E6"/>
<path d="M30.4752 19.6279H17.2146C16.9656 19.6279 16.7268 19.7268 16.5507 19.9029C16.3747 20.079 16.2758 20.3178 16.2758 20.5667C16.2758 20.8157 16.3747 21.0545 16.5507 21.2306C16.7268 21.4066 16.9656 21.5055 17.2146 21.5055H30.4752C30.7242 21.5055 30.963 21.4066 31.1391 21.2306C31.3151 21.0545 31.4141 20.8157 31.4141 20.5667C31.4141 20.3178 31.3151 20.079 31.1391 19.9029C30.963 19.7268 30.7242 19.6279 30.4752 19.6279Z" fill="#E6E6E6"/>
<path d="M17.2146 31.4802C16.9656 31.4802 16.7268 31.5791 16.5507 31.7552C16.3747 31.9313 16.2758 32.17 16.2758 32.419C16.2758 32.668 16.3747 32.9068 16.5507 33.0829C16.7268 33.2589 16.9656 33.3578 17.2146 33.3578H25.6005V31.4802H17.2146Z" fill="#E6E6E6"/>
<path d="M17.2146 27.4902C16.9656 27.4902 16.7268 27.5891 16.5507 27.7652C16.3747 27.9413 16.2758 28.1801 16.2758 28.429C16.2758 28.678 16.3747 28.9168 16.5507 29.0929C16.7268 29.2689 16.9656 29.3679 17.2146 29.3679H25.6005V27.4902H17.2146Z" fill="#E6E6E6"/>
<path d="M17.2146 31.4802C16.9656 31.4802 16.7268 31.5791 16.5507 31.7552C16.3747 31.9313 16.2758 32.17 16.2758 32.419C16.2758 32.668 16.3747 32.9068 16.5507 33.0829C16.7268 33.2589 16.9656 33.3578 17.2146 33.3578H25.6005V31.4802H17.2146Z" fill="#E6E6E6"/>
<path d="M17.2146 27.4902C16.9656 27.4902 16.7268 27.5891 16.5507 27.7652C16.3747 27.9413 16.2758 28.1801 16.2758 28.429C16.2758 28.678 16.3747 28.9168 16.5507 29.0929C16.7268 29.2689 16.9656 29.3679 17.2146 29.3679H25.6005V27.4902H17.2146Z" fill="#E6E6E6"/>
<path d="M25.6592 51.3714H18.1441C17.6307 51.3709 17.1385 51.1667 16.7755 50.8037C16.4125 50.4407 16.2083 49.9485 16.2078 49.4351V39.5777C16.2083 39.0643 16.4125 38.5721 16.7755 38.2091C17.1385 37.8461 17.6307 37.6419 18.1441 37.6414H25.6592V51.3714Z" fill="#E6E6E6"/>
<path d="M26.3211 25.7301C26.0294 25.9082 25.7884 26.1582 25.6211 26.4561C25.4539 26.7541 25.366 27.09 25.3658 27.4317V27.7251H25.6006V27.4317C25.601 27.0437 25.7295 26.6666 25.9661 26.3589C26.2026 26.0513 26.5341 25.8303 26.909 25.7301H26.3211ZM55.1355 25.4368H27.3608C26.8319 25.4374 26.3248 25.6478 25.9508 26.0218C25.5768 26.3958 25.3665 26.9028 25.3658 27.4317V68.3873C25.3666 68.9162 25.577 69.4231 25.951 69.7971C26.325 70.1711 26.8319 70.3815 27.3608 70.3823H58.2242C58.753 70.3815 59.26 70.1711 59.634 69.7971C60.008 69.4231 60.2184 68.9162 60.2191 68.3873V29.9759L55.1355 25.4368ZM59.9844 68.3873C59.9839 68.854 59.7982 69.3014 59.4682 69.6314C59.1382 69.9613 58.6908 70.147 58.2242 70.1476H27.3608C26.8941 70.147 26.4467 69.9613 26.1167 69.6314C25.7868 69.3014 25.6011 68.854 25.6005 68.3873L25.6006 27.4317C25.601 27.0437 25.7295 26.6666 25.9661 26.3589C26.2026 26.0513 26.5341 25.8303 26.909 25.7301C27.0564 25.6909 27.2083 25.6711 27.3608 25.6715H55.0463L59.9844 30.0804V68.3873ZM26.3211 25.7301C26.0294 25.9082 25.7884 26.1582 25.6211 26.4561C25.4539 26.7541 25.366 27.09 25.3658 27.4317V27.7251H25.6006V27.4317C25.601 27.0437 25.7295 26.6666 25.9661 26.3589C26.2026 26.0513 26.5341 25.8303 26.909 25.7301H26.3211Z" fill="#1F2A37"/>
<path d="M60.1018 30.1308H56.9333C56.4044 30.1302 55.8973 29.9198 55.5233 29.5458C55.1493 29.1718 54.9389 28.6648 54.9384 28.1358V25.5541C54.9384 25.523 54.9507 25.4931 54.9727 25.4711C54.9947 25.4491 55.0246 25.4368 55.0557 25.4368C55.0868 25.4368 55.1167 25.4491 55.1387 25.4711C55.1607 25.4931 55.1731 25.523 55.1731 25.5541V28.1358C55.1736 28.6025 55.3592 29.05 55.6892 29.38C56.0192 29.71 56.4666 29.8956 56.9333 29.8961H60.1018C60.1329 29.8961 60.1628 29.9085 60.1848 29.9305C60.2068 29.9525 60.2192 29.9823 60.2192 30.0135C60.2192 30.0446 60.2068 30.0744 60.1848 30.0964C60.1628 30.1185 60.1329 30.1308 60.1018 30.1308Z" fill="#1F2A37"/>
<path d="M56.1753 37.9347H29.4193C29.1703 37.9347 28.9315 37.8358 28.7554 37.6598C28.5794 37.4837 28.4805 37.2449 28.4805 36.9959C28.4805 36.747 28.5794 36.5082 28.7554 36.3321C28.9315 36.156 29.1703 36.0571 29.4193 36.0571H56.1753C56.4243 36.0571 56.6631 36.156 56.8392 36.3321C57.0152 36.5082 57.1141 36.747 57.1141 36.9959C57.1141 37.2449 57.0152 37.4837 56.8392 37.6598C56.6631 37.8358 56.4243 37.9347 56.1753 37.9347Z" fill="#CCCCCC"/>
<path d="M42.68 33.9448H29.4193C29.1703 33.9448 28.9315 33.8458 28.7554 33.6698C28.5794 33.4937 28.4805 33.2549 28.4805 33.0059C28.4805 32.757 28.5794 32.5182 28.7554 32.3421C28.9315 32.1661 29.1703 32.0671 29.4193 32.0671H42.68C42.9289 32.0671 43.1677 32.1661 43.3438 32.3421C43.5199 32.5182 43.6188 32.757 43.6188 33.0059C43.6188 33.2549 43.5199 33.4937 43.3438 33.6698C43.1677 33.8458 42.9289 33.9448 42.68 33.9448Z" fill="#CCCCCC"/>
<path d="M56.1753 45.7973H29.4193C29.1703 45.7973 28.9315 45.6984 28.7554 45.5223C28.5794 45.3463 28.4805 45.1075 28.4805 44.8585C28.4805 44.6095 28.5794 44.3707 28.7554 44.1947C28.9315 44.0186 29.1703 43.9197 29.4193 43.9197H56.1753C56.4243 43.9197 56.6631 44.0186 56.8392 44.1947C57.0152 44.3707 57.1141 44.6095 57.1141 44.8585C57.1141 45.1075 57.0152 45.3463 56.8392 45.5223C56.6631 45.6984 56.4243 45.7973 56.1753 45.7973Z" fill="#CCCCCC"/>
<path d="M42.68 41.8073H29.4193C29.1703 41.8073 28.9315 41.7084 28.7554 41.5323C28.5794 41.3563 28.4805 41.1175 28.4805 40.8685C28.4805 40.6195 28.5794 40.3807 28.7554 40.2047C28.9315 40.0286 29.1703 39.9297 29.4193 39.9297H42.68C42.9289 39.9297 43.1677 40.0286 43.3438 40.2047C43.5199 40.3807 43.6188 40.6195 43.6188 40.8685C43.6188 41.1175 43.5199 41.3563 43.3438 41.5323C43.1677 41.7084 42.9289 41.8073 42.68 41.8073Z" fill="#CCCCCC"/>
<path d="M55.2268 63.8106H30.3484C29.835 63.8101 29.3429 63.6059 28.9799 63.2429C28.6169 62.8799 28.4127 62.3877 28.4121 61.8744V52.0169C28.4127 51.5035 28.6169 51.0113 28.9799 50.6483C29.3429 50.2853 29.835 50.0811 30.3484 50.0806H55.2268C55.7402 50.0811 56.2324 50.2853 56.5954 50.6483C56.9584 51.0113 57.1626 51.5035 57.1631 52.0169V61.8744C57.1626 62.3877 56.9584 62.8799 56.5954 63.2429C56.2324 63.6059 55.7402 63.8101 55.2268 63.8106Z" fill="#00AAF0"/>
</g>
<defs>
<clipPath id="clip0_1347_56">
<rect width="60" height="71" fill="white" transform="translate(0.5)"/>
</clipPath>
</defs>
</svg>
