<svg width="18" height="18" viewBox="0 0 18 18" fill="none" xmlns="http://www.w3.org/2000/svg">
<g clip-path="url(#clip0_1347_51)">
<path d="M11.0207 18H2.91054C1.58133 18 0.5 16.9187 0.5 15.5895V5.95875C0.5 4.62955 1.58133 3.54822 2.91054 3.54822H7.76939C8.00706 3.54822 8.23053 3.64078 8.39855 3.80889L13.1705 8.58079C13.3387 8.74899 13.4311 8.97237 13.4311 9.20995V15.5895C13.4311 16.9187 12.3498 18 11.0207 18ZM2.91054 4.31417C2.00368 4.31417 1.26596 5.05189 1.26596 5.95875V15.5895C1.26596 16.4963 2.00368 17.234 2.91054 17.234H11.0207C11.9274 17.234 12.6652 16.4963 12.6652 15.5895V9.20995C12.6652 9.17732 12.6519 9.14534 12.6288 9.12225L7.857 4.35045C7.8339 4.32745 7.80202 4.31417 7.76939 4.31417H2.91054Z" fill="#00AAF0"/>
<path d="M13.0029 9.38295H10.0061C8.67785 9.38295 7.59717 8.30143 7.59717 6.97213V3.97722C7.59717 3.76572 7.76865 3.59424 7.98015 3.59424C8.19164 3.59424 8.36312 3.76572 8.36312 3.97722V6.97213C8.36312 7.87909 9.10019 8.61699 10.0061 8.61699H13.0029C13.2144 8.61699 13.3859 8.78847 13.3859 8.99997C13.3859 9.21147 13.2144 9.38295 13.0029 9.38295Z" fill="#00AAF0"/>
<path d="M15.0757 14.4518H13.0481C12.8366 14.4518 12.6652 14.2803 12.6652 14.0688C12.6652 13.8573 12.8366 13.6859 13.0481 13.6859H15.0757C15.9826 13.6859 16.7203 12.9481 16.7203 12.0413V5.66174C16.7203 5.62911 16.707 5.59722 16.684 5.57413L11.9121 0.802234C11.889 0.779233 11.8571 0.765956 11.8245 0.765956H6.96555C6.05878 0.765956 5.32106 1.50368 5.32106 2.41054V3.93114C5.32106 4.14263 5.14958 4.31411 4.93808 4.31411C4.72659 4.31411 4.55511 4.14263 4.55511 3.93114V2.41054C4.55511 1.08133 5.63644 0 6.96555 0H11.8245C12.0622 0 12.2856 0.0925655 12.4537 0.260679L17.2255 5.03257C17.3912 5.19816 17.4862 5.42752 17.4862 5.66174V12.0413C17.4862 13.3705 16.4049 14.4518 15.0757 14.4518Z" fill="#00AAF0"/>
<path d="M17.0567 5.83467H14.0619C12.7325 5.83467 11.651 4.75315 11.651 3.42376V0.428938C11.651 0.21744 11.8224 0.0459595 12.0339 0.0459595C12.2454 0.0459595 12.4169 0.21744 12.4169 0.428938V3.42376C12.4169 4.33081 13.1548 5.06871 14.0619 5.06871H17.0567C17.2682 5.06871 17.4397 5.24019 17.4397 5.45169C17.4397 5.66319 17.2682 5.83467 17.0567 5.83467Z" fill="#00AAF0"/>
</g>
<defs>
<clipPath id="clip0_1347_51">
<rect width="17" height="18" fill="white" transform="translate(0.5)"/>
</clipPath>
</defs>
</svg>
