<svg width="19" height="18" viewBox="0 0 19 18" fill="none" xmlns="http://www.w3.org/2000/svg">
<g clip-path="url(#clip0_1347_82)">
<path d="M17.2237 4.80065H11.0739V1.14598C11.0739 0.606188 10.6348 0.16687 10.0948 0.16687H1.51564C0.975847 0.16687 0.53653 0.605965 0.53653 1.14598V12.2205C0.53653 12.7603 0.975624 13.1996 1.51564 13.1996H7.66542V16.8543C7.66542 17.394 8.10451 17.8334 8.64452 17.8334H15.4292C15.4306 17.8334 15.4319 17.8331 15.4333 17.8331C15.441 17.8331 15.4488 17.8327 15.4564 17.832C15.4609 17.8316 15.4651 17.8307 15.4696 17.83C15.4742 17.8294 15.4789 17.8289 15.4834 17.828C15.4878 17.8271 15.4923 17.8258 15.4967 17.8247C15.501 17.8236 15.5054 17.8227 15.5097 17.8213C15.5139 17.82 15.5177 17.8184 15.5217 17.8171C15.5262 17.8155 15.5308 17.814 15.5353 17.8122C15.5388 17.8106 15.5422 17.8089 15.5458 17.8073C15.5504 17.8051 15.5553 17.8031 15.56 17.8006C15.5634 17.7988 15.5665 17.7968 15.5696 17.7948C15.5743 17.7922 15.5789 17.7895 15.5834 17.7866C15.587 17.7841 15.5903 17.7815 15.5939 17.7788C15.5977 17.7759 15.6017 17.7732 15.6055 17.7703C15.6126 17.7645 15.6195 17.7583 15.626 17.7518L18.1211 15.2567C18.1271 15.2507 18.1324 15.2445 18.1378 15.2382C18.1393 15.2364 18.1407 15.2344 18.1422 15.2327C18.146 15.2278 18.1498 15.2229 18.1534 15.2177C18.1547 15.2157 18.156 15.2139 18.1574 15.2119C18.1618 15.2053 18.1658 15.1983 18.1696 15.1914C18.1694 15.1916 18.1696 15.1912 18.1696 15.1914C18.1736 15.184 18.1774 15.1758 18.1808 15.1683C18.1817 15.1663 18.1823 15.1643 18.1832 15.1623C18.1854 15.1565 18.1877 15.1504 18.1895 15.1447C18.1901 15.1424 18.1908 15.1402 18.1915 15.138C18.1937 15.1302 18.1957 15.1226 18.1973 15.1146C18.1973 15.1149 18.1973 15.1144 18.1973 15.1146C18.1988 15.1066 18.1999 15.0979 18.2008 15.0896C18.201 15.0874 18.2013 15.0852 18.2015 15.0829C18.2019 15.0765 18.2024 15.0702 18.2024 15.0638C18.2024 15.0625 18.2026 15.0611 18.2026 15.0598V12.5644H17.6457V14.7811H16.1297C15.5899 14.7811 15.1505 15.2202 15.1505 15.7602V17.2762H8.64452C8.41172 17.2762 8.22237 17.0868 8.22237 16.854V13.1994H8.30034C8.30168 13.1994 8.30301 13.1991 8.30435 13.1991C8.31215 13.1991 8.31995 13.1987 8.32752 13.198C8.33198 13.1976 8.33621 13.1967 8.34044 13.196C8.34512 13.1954 8.3498 13.1949 8.35448 13.194C8.35893 13.1931 8.36316 13.1918 8.36762 13.1907C8.37208 13.1896 8.37653 13.1887 8.38099 13.1873C8.385 13.1862 8.38878 13.1847 8.39257 13.1833C8.39725 13.1818 8.40193 13.1802 8.40661 13.1782C8.40995 13.1769 8.41284 13.1753 8.41619 13.1737C8.42131 13.1715 8.42643 13.1693 8.43133 13.1666C8.43423 13.1651 8.4369 13.1633 8.43958 13.1617C8.4447 13.1588 8.44983 13.1559 8.45473 13.1526C8.45785 13.1506 8.46052 13.1481 8.46364 13.1461C8.46809 13.143 8.47255 13.1399 8.47678 13.1363C8.48391 13.1305 8.49082 13.1243 8.49728 13.1178L10.9924 10.6227C10.9984 10.6167 11.004 10.6105 11.0091 10.6042C11.0107 10.6024 11.012 10.6007 11.0133 10.5989C11.0174 10.594 11.0209 10.5889 11.0245 10.5837C11.0258 10.5819 11.0272 10.5799 11.0283 10.5782C11.0327 10.5713 11.037 10.5643 11.0407 10.5572C11.0447 10.5498 11.0483 10.5421 11.0517 10.5345C11.0525 10.5325 11.0532 10.5305 11.0539 10.5287C11.0561 10.5229 11.0583 10.5169 11.0603 10.5109C11.061 10.5087 11.0617 10.5064 11.0624 10.5044C11.0646 10.4966 11.0666 10.4888 11.0681 10.481C11.0681 10.4812 11.0681 10.4808 11.0681 10.481C11.0697 10.473 11.0708 10.4643 11.0717 10.4561C11.0719 10.4538 11.0722 10.4516 11.0724 10.4494C11.0728 10.4429 11.0733 10.4367 11.0733 10.4302C11.0733 10.4289 11.0735 10.4276 11.0735 10.4262V7.93068H10.5165V10.1473H9.00052C8.46073 10.1473 8.02142 10.5864 8.02142 11.1264V12.6424H1.51564C1.28284 12.6424 1.09347 12.4531 1.09347 12.2203V1.14598C1.09347 0.913175 1.28284 0.723814 1.51564 0.723814H10.095C10.3278 0.723814 10.5172 0.913175 10.5172 1.14598V6.86134H11.0742V5.35759H17.2239C17.4567 5.35759 17.6461 5.54695 17.6461 5.77976V11.4951H18.203V5.77976C18.2028 5.23974 17.7637 4.80065 17.2237 4.80065Z" fill="#00AAF0"/>
<path d="M15.7857 7.29578H12.3103V7.85272H15.7857V7.29578Z" fill="#00AAF0"/>
<path d="M15.7857 11.0384H12.3103V11.5954H15.7857V11.0384Z" fill="#00AAF0"/>
<path d="M13.647 14.7811H10.0826V15.338H13.647V14.7811Z" fill="#00AAF0"/>
<path d="M4.023 3.10754H2.95367V3.66448H4.023V3.10754Z" fill="#00AAF0"/>
<path d="M8.65676 3.10754H4.73587V3.66448H8.65676V3.10754Z" fill="#00AAF0"/>
<path d="M4.73589 6.40466H2.95367V6.9616H4.73589V6.40466Z" fill="#00AAF0"/>
<path d="M8.6568 6.40466H5.44879V6.9616H8.6568V6.40466Z" fill="#00AAF0"/>
<path d="M6.51811 9.70172H2.95367V10.2587H6.51811V9.70172Z" fill="#00AAF0"/>
<path d="M16.053 1.16023V2.57754L15.3878 1.91232L14.7576 2.54256L16.1833 3.96834C16.2704 4.05545 16.3843 4.09889 16.4983 4.09889C16.6124 4.09889 16.7265 4.05545 16.8134 3.96834L18.2391 2.54256L17.6089 1.91232L16.9441 2.57776V1.16045C16.9441 0.520409 16.4235 0 15.7837 0H12.2212V0.891111H15.7837C15.932 0.890888 16.053 1.01186 16.053 1.16023Z" fill="#00AAF0"/>
<path d="M2.68634 16.8398V15.4225L3.35156 16.0877L3.98179 15.4574L2.55602 14.0317C2.38203 13.8577 2.09999 13.8577 1.92578 14.0317L0.5 15.4574L1.13024 16.0877L1.79523 15.4222V16.8396C1.79523 17.4796 2.31586 18 2.95568 18H6.51812V17.1089H2.95568C2.80731 17.1091 2.68634 16.9881 2.68634 16.8398Z" fill="#00AAF0"/>
</g>
<defs>
<clipPath id="clip0_1347_82">
<rect width="18" height="18" fill="white" transform="translate(0.5)"/>
</clipPath>
</defs>
</svg>
