<svg width="22" height="19" viewBox="0 0 22 19" fill="none" xmlns="http://www.w3.org/2000/svg">
<g clip-path="url(#clip0_1347_261)">
<path fill-rule="evenodd" clip-rule="evenodd" d="M16.3862 15.1793H13.489C13.1452 15.1793 12.8665 14.9006 12.8665 14.5568C12.8665 14.213 13.1452 13.9343 13.489 13.9343H16.3862V11.0371C16.3862 10.6933 16.6649 10.4146 17.0087 10.4146C17.3525 10.4146 17.6312 10.6933 17.6312 11.0371V13.9343H20.5284C20.8722 13.9343 21.1509 14.213 21.1509 14.5568C21.1509 14.9006 20.8722 15.1793 20.5284 15.1793H17.6312V18.0765C17.6312 18.4203 17.3525 18.699 17.0087 18.699C16.6649 18.699 16.3862 18.4203 16.3862 18.0765V15.1793ZM17.9182 5.44269V7.17383C17.9182 7.51763 17.6395 7.79634 17.2957 7.79634C16.9519 7.79634 16.6732 7.51763 16.6732 7.17383V1.67239H3.46004C2.87426 1.67239 2.39804 2.14923 2.39804 2.73502V14.4936L3.1575 14.0884C3.50673 13.9022 3.92381 13.9022 4.27242 14.089L5.68365 14.8404L7.03885 14.0884C7.38746 13.9029 7.80454 13.9029 8.15253 14.0884L9.56314 14.8404L10.0929 15.9385C9.74366 16.1252 9.32658 16.1252 8.97797 15.9391L7.56674 15.1871L6.21216 15.9391C6.03723 16.0318 5.84675 16.0785 5.65501 16.0785C5.46328 16.0785 5.27217 16.0318 5.09724 15.9385L3.68663 15.1871L2.89355 15.6397C2.52316 15.8376 2.08678 15.8264 1.72759 15.6104C1.36778 15.3944 1.15302 15.0147 1.15302 14.5951V2.73502C1.15302 1.4626 2.18763 0.427368 3.46004 0.427368H17.2953C18.0355 0.427368 18.683 0.698534 19.1661 1.21086C20.3364 2.45215 20.2144 4.75917 20.2088 4.85691L20.1745 5.44269H17.9182ZM17.9182 4.19767V1.80774C18.0435 1.87053 18.1565 1.95547 18.2585 2.06308C18.7471 2.58038 18.9152 3.52598 18.9588 4.19767H17.9182ZM4.93141 5.0243C4.93141 5.3681 5.21011 5.64681 5.55392 5.64681H13.5164C13.8602 5.64681 14.1389 5.3681 14.1389 5.0243C14.1389 4.6805 13.8602 4.40179 13.5164 4.40179H5.55392C5.21011 4.40179 4.93141 4.6805 4.93141 5.0243ZM4.93141 7.79634C4.93141 8.14014 5.21011 8.41885 5.55392 8.41885H13.5164C13.8602 8.41885 14.1389 8.14014 14.1389 7.79634C14.1389 7.45254 13.8602 7.17383 13.5164 7.17383H5.55392C5.21011 7.17383 4.93141 7.45254 4.93141 7.79634ZM4.93141 10.5678C4.93141 10.9116 5.21011 11.1903 5.55392 11.1903H10.8041C11.1479 11.1903 11.4267 10.9116 11.4267 10.5678C11.4267 10.224 11.1479 9.94525 10.8041 9.94525H5.55392C5.21011 9.94525 4.93141 10.224 4.93141 10.5678Z" fill="#00AAF0"/>
</g>
<defs>
<clipPath id="clip0_1347_261">
<rect width="21" height="19" fill="white" transform="translate(0.5)"/>
</clipPath>
</defs>
</svg>
