<svg width="21" height="19" viewBox="0 0 21 19" fill="none" xmlns="http://www.w3.org/2000/svg">
<path d="M8.80043 6.8468H5.12876C4.79084 6.8468 4.51691 7.12073 4.51691 7.45864C4.51691 7.79655 4.79084 8.07049 5.12876 8.07049H8.80043C9.13834 8.07049 9.41228 7.79655 9.41228 7.45864C9.41228 7.12073 9.13834 6.8468 8.80043 6.8468Z" fill="#00AAF0"/>
<path d="M13.4866 13.7827C13.8245 13.7827 14.0984 13.5087 14.0984 13.1708C14.0984 12.8329 13.8245 12.559 13.4866 12.559C13.1487 12.559 12.8747 12.8329 12.8747 13.1708C12.8747 13.5087 13.1487 13.7827 13.4866 13.7827Z" fill="#00AAF0"/>
<path d="M15.8379 13.7827C16.1758 13.7827 16.4498 13.5087 16.4498 13.1708C16.4498 12.8329 16.1758 12.559 15.8379 12.559C15.5 12.559 15.2261 12.8329 15.2261 13.1708C15.2261 13.5087 15.5 13.7827 15.8379 13.7827Z" fill="#00AAF0"/>
<path d="M13.4866 16.2655C13.8245 16.2655 14.0984 15.9916 14.0984 15.6537C14.0984 15.3158 13.8245 15.0419 13.4866 15.0419C13.1487 15.0419 12.8747 15.3158 12.8747 15.6537C12.8747 15.9916 13.1487 16.2655 13.4866 16.2655Z" fill="#00AAF0"/>
<path d="M15.8379 16.2655C16.1758 16.2655 16.4498 15.9916 16.4498 15.6537C16.4498 15.3158 16.1758 15.0419 15.8379 15.0419C15.5 15.0419 15.2261 15.3158 15.2261 15.6537C15.2261 15.9916 15.5 16.2655 15.8379 16.2655Z" fill="#00AAF0"/>
<path d="M16.9374 18.8182H12.3871C10.9426 18.8182 9.76721 17.6428 9.76721 16.1988V10.4243C9.76721 8.98032 10.9426 7.80496 12.3871 7.80496H16.9374C18.3813 7.80496 19.5567 8.98032 19.5567 10.4243V16.1988C19.5567 17.6428 18.3813 18.8182 16.9374 18.8182ZM12.3871 9.02865C11.6168 9.02865 10.9909 9.65457 10.9909 10.4243V16.1988C10.9909 16.9685 11.6168 17.5945 12.3871 17.5945H16.9374C17.7071 17.5945 18.333 16.9685 18.333 16.1988V10.4243C18.333 9.65457 17.7071 9.02865 16.9374 9.02865H12.3871Z" fill="#00AAF0"/>
<path d="M15.934 10.0333H13.4866C13.1487 10.0333 12.8747 10.3072 12.8747 10.6451C12.8747 10.9831 13.1487 11.257 13.4866 11.257H15.934C16.2719 11.257 16.5458 10.9831 16.5458 10.6451C16.5458 10.3072 16.2719 10.0333 15.934 10.0333Z" fill="#00AAF0"/>
<path d="M7.87351 18.8175H4.13514C2.48806 18.8175 1.15302 17.4825 1.15302 15.8354V3.44373C1.15363 1.79726 2.48867 0.462219 4.13514 0.462219H14.0794C15.7265 0.462219 17.0615 1.79726 17.0615 3.44435V5.82809C17.0615 6.16583 16.7874 6.43993 16.4497 6.43993C16.112 6.43993 15.8379 6.16583 15.8379 5.82809V3.44435C15.8379 2.47335 15.0504 1.68591 14.0794 1.68591H4.13514C3.16415 1.68591 2.3767 2.47335 2.3767 3.44435V15.8354C2.3767 16.8064 3.16415 17.5938 4.13514 17.5938H7.8729C8.21064 17.5938 8.48474 17.868 8.48474 18.2057C8.48474 18.5434 8.21125 18.8175 7.87351 18.8175Z" fill="#00AAF0"/>
<path d="M13.0858 3.78577H5.12876C4.79084 3.78577 4.51691 4.0597 4.51691 4.39761C4.51691 4.73553 4.79084 5.00946 5.12876 5.00946H13.0858C13.4237 5.00946 13.6976 4.73553 13.6976 4.39761C13.6976 4.0597 13.4237 3.78577 13.0858 3.78577Z" fill="#00AAF0"/>
<path d="M5.12876 14.8271C5.46667 14.8271 5.7406 14.5532 5.7406 14.2152C5.7406 13.8773 5.46667 13.6034 5.12876 13.6034C4.79084 13.6034 4.51691 13.8773 4.51691 14.2152C4.51691 14.5532 4.79084 14.8271 5.12876 14.8271Z" fill="#00AAF0"/>
<path d="M7.57613 9.90787H5.12876C4.79084 9.90787 4.51691 10.1818 4.51691 10.5197C4.51691 10.8576 4.79084 11.1315 5.12876 11.1315H7.57613C7.91404 11.1315 8.18798 10.8576 8.18798 10.5197C8.18798 10.1818 7.91404 9.90787 7.57613 9.90787Z" fill="#00AAF0"/>
</svg>
