<svg width="38" height="38" viewBox="0 0 38 38" fill="none" xmlns="http://www.w3.org/2000/svg">
<path d="M30.0136 15.7563C31.3816 16.377 32.5723 17.156 33.6046 18.163C36.0176 20.538 37.2653 23.426 37.3666 26.808C37.4109 28.2203 36.7649 29.2843 35.6883 30.114C34.5989 30.9563 33.3323 31.425 32.0086 31.729C31.6793 31.805 31.5336 31.9253 31.4893 32.2863C31.3436 33.5023 30.6469 34.3953 29.6969 35.111C28.3669 36.1116 26.8279 36.6626 25.2256 36.992C20.4439 37.9736 15.6812 37.98 10.9882 36.479C9.62658 36.042 8.37891 35.3896 7.41625 34.2876C6.88425 33.6733 6.54858 32.964 6.47891 32.1533C6.45991 31.9 6.35225 31.843 6.14325 31.7923C4.93991 31.4883 3.78091 31.083 2.72958 30.399C1.26025 29.4426 0.500247 28.1443 0.65858 26.3456C1.07658 21.5893 3.38191 18.106 7.64425 15.9336C7.74558 15.883 7.84691 15.8323 8.03058 15.7373C7.88491 15.6296 7.76458 15.5536 7.66958 15.4586C4.65491 12.4313 5.47191 7.3393 9.28458 5.4203C12.0079 4.04596 15.3266 4.84396 17.1379 7.3203C17.3026 7.5483 17.4419 7.61163 17.7269 7.5483C18.5946 7.3583 19.4749 7.36463 20.3426 7.55463C20.5832 7.6053 20.6973 7.56096 20.8429 7.37096C22.4453 5.2683 24.5796 4.3753 27.1573 4.89463C29.7729 5.4203 31.4386 7.0923 32.0276 9.70163C32.5216 11.8866 31.9136 13.8183 30.3683 15.4396C30.2733 15.541 30.1656 15.6296 30.0136 15.7626V15.7563ZM18.9936 35.225C21.1913 35.1996 23.3699 35.016 25.4916 34.408C26.5366 34.1103 27.5563 33.743 28.4049 33.0273C28.8799 32.6283 29.1269 32.1343 29.0953 31.4883C28.9433 28.4926 27.8096 25.934 25.6373 23.882C23.1166 21.5006 20.1526 20.5 16.7136 21.374C12.6792 22.4 9.36692 26.2823 8.92358 30.817C8.82225 31.8303 8.95525 32.7296 9.92425 33.2616C10.6146 33.6416 11.3239 34.0026 12.0649 34.256C14.3069 35.016 16.6439 35.1996 18.9999 35.2313L18.9936 35.225ZM14.5032 19.455C14.0092 18.7963 13.5342 18.144 13.0402 17.5043C12.9769 17.422 12.8186 17.3713 12.7109 17.3776C11.9889 17.4156 11.2479 17.3776 10.5512 17.5296C6.34591 18.4226 3.13491 22.457 3.09691 26.827C3.09691 27.2513 3.22358 27.606 3.52125 27.891C4.40158 28.7333 5.50991 29.069 6.65625 29.3793C7.64425 24.718 10.2789 21.4183 14.5096 19.455H14.5032ZM23.5093 19.455C27.7399 21.412 30.3746 24.7243 31.3563 29.354C32.2176 29.2653 33.7693 28.5686 34.3709 28.0176C34.7509 27.6693 34.9473 27.264 34.9156 26.732C34.7193 23.3183 33.2246 20.633 30.3936 18.7266C28.8609 17.6943 27.1509 17.213 25.2889 17.3903C25.1749 17.403 25.0229 17.4346 24.9659 17.517C24.4719 18.1566 23.9906 18.809 23.5093 19.455ZM18.9936 18.562C21.4763 18.562 23.3826 16.5796 23.3699 14.0273C23.3509 11.7726 21.3623 9.8663 19.0253 9.8663C16.6123 9.8663 14.6552 11.8043 14.6616 14.2046C14.6616 16.6303 16.5869 18.5683 18.9936 18.562ZM25.7829 14.857C27.5753 14.9773 29.2726 13.6346 29.6336 11.855C30.0199 9.9613 28.9749 8.0993 27.1699 7.4533C25.6373 6.90863 23.5916 7.50396 22.9772 8.68196C24.9849 10.24 25.9286 12.292 25.7829 14.857ZM12.2042 14.857C12.0712 12.2666 13.0212 10.1956 15.0542 8.63763C13.9776 7.26963 12.0142 6.85163 10.4309 7.63063C8.82225 8.4223 7.97358 10.24 8.41058 11.9563C8.84758 13.698 10.4246 14.9203 12.2042 14.857Z" fill="#7A7A7A"/>
</svg>
