<svg width="23" height="18" viewBox="0 0 23 18" fill="none" xmlns="http://www.w3.org/2000/svg">
<g clip-path="url(#clip0_1347_282)">
<path d="M21.4209 0H13.1942C12.9427 0.000737074 12.7017 0.100982 12.5238 0.278838C12.346 0.456694 12.2457 0.697707 12.245 0.949233V16.7698C12.2457 17.0213 12.346 17.2623 12.5238 17.4402C12.7017 17.618 12.9427 17.7183 13.1942 17.719H21.4209C21.6724 17.7183 21.9134 17.618 22.0913 17.4402C22.2692 17.2623 22.3694 17.0213 22.3701 16.7698V0.949233C22.3694 0.697706 22.2692 0.456691 22.0913 0.278834C21.9135 0.100978 21.6724 0.000733752 21.4209 0ZM15.0927 14.2385H17.9404C18.0243 14.2385 18.1048 14.2718 18.1641 14.3312C18.2235 14.3905 18.2568 14.471 18.2568 14.5549C18.2568 14.6388 18.2235 14.7193 18.1641 14.7786C18.1048 14.838 18.0243 14.8713 17.9404 14.8713H15.0927C15.0088 14.8713 14.9283 14.838 14.869 14.7786C14.8096 14.7193 14.7763 14.6388 14.7763 14.5549C14.7763 14.471 14.8096 14.3905 14.869 14.3312C14.9283 14.2718 15.0088 14.2385 15.0927 14.2385ZM14.7763 12.0236C14.7765 11.9398 14.8099 11.8594 14.8692 11.8002C14.9285 11.7409 15.0089 11.7075 15.0927 11.7072H17.9404C18.0243 11.7072 18.1048 11.7405 18.1641 11.7999C18.2235 11.8592 18.2568 11.9397 18.2568 12.0236C18.2568 12.1075 18.2235 12.188 18.1641 12.2473C18.1048 12.3067 18.0243 12.34 17.9404 12.34H15.0927C15.0089 12.3398 14.9285 12.3064 14.8692 12.2471C14.8099 12.1878 14.7765 12.1075 14.7763 12.0236ZM15.7255 13.6057C15.6416 13.6057 15.5611 13.5723 15.5018 13.513C15.4424 13.4537 15.4091 13.3732 15.4091 13.2893C15.4091 13.2053 15.4424 13.1249 15.5018 13.0655C15.5611 13.0062 15.6416 12.9728 15.7255 12.9728H18.5732C18.6571 12.9728 18.7376 13.0062 18.7969 13.0655C18.8563 13.1249 18.8896 13.2053 18.8896 13.2893C18.8896 13.3732 18.8563 13.4537 18.7969 13.513C18.7376 13.5723 18.6571 13.6057 18.5732 13.6057H15.7255ZM14.1435 11.0744C14.0595 11.0744 13.9791 11.041 13.9197 10.9817C13.8604 10.9224 13.827 10.8419 13.827 10.758C13.827 10.6741 13.8604 10.5936 13.9197 10.5342C13.9791 10.4749 14.0595 10.4416 14.1435 10.4416H20.1553C20.2392 10.4416 20.3197 10.4749 20.379 10.5342C20.4383 10.5936 20.4717 10.6741 20.4717 10.758C20.4717 10.8419 20.4383 10.9224 20.379 10.9817C20.3197 11.041 20.2392 11.0744 20.1553 11.0744H14.1435ZM14.1435 15.5041H20.1553C20.2392 15.5041 20.3197 15.5375 20.379 15.5968C20.4383 15.6561 20.4717 15.7366 20.4717 15.8205C20.4717 15.9045 20.4383 15.9849 20.379 16.0443C20.3197 16.1036 20.2392 16.137 20.1553 16.137H14.1435C14.0595 16.137 13.9791 16.1036 13.9197 16.0443C13.8604 15.9849 13.827 15.9045 13.827 15.8205C13.827 15.7366 13.8604 15.6561 13.9197 15.5968C13.9791 15.5375 14.0595 15.5041 14.1435 15.5041ZM17.3076 9.17592C16.5566 9.17592 15.8225 8.95323 15.1981 8.53602C14.5737 8.1188 14.087 7.52581 13.7997 6.83201C13.5123 6.13821 13.4371 5.37477 13.5836 4.63824C13.7301 3.90171 14.0917 3.22516 14.6227 2.69415C15.1537 2.16314 15.8303 1.80152 16.5668 1.65501C17.3034 1.50851 18.0668 1.5837 18.7606 1.87108C19.4544 2.15846 20.0474 2.64512 20.4646 3.26952C20.8818 3.89393 21.1045 4.62802 21.1045 5.37898C21.1037 6.38575 20.7034 7.35105 19.9915 8.06294C19.2796 8.77483 18.3143 9.17512 17.3076 9.17592Z" fill="#00AAF0"/>
<path d="M10.6629 0H2.43623C2.18471 0.000737074 1.94369 0.100982 1.76584 0.278838C1.58798 0.456694 1.48774 0.697707 1.487 0.949233V7.59386C1.48774 7.84539 1.58799 8.0864 1.76584 8.26425C1.9437 8.44211 2.18471 8.54235 2.43623 8.54309H10.6629C10.9144 8.54236 11.1555 8.44211 11.3333 8.26426C11.5112 8.0864 11.6114 7.84539 11.6121 7.59386V0.949233C11.6114 0.697706 11.5112 0.456691 11.3333 0.278834C11.1555 0.100978 10.9144 0.000733752 10.6629 0ZM3.06905 6.96104V5.06257C3.0693 4.97873 3.10272 4.8984 3.16201 4.83911C3.22129 4.77983 3.30162 4.74641 3.38546 4.74616H4.65111C4.73495 4.74641 4.81528 4.77983 4.87457 4.83911C4.93385 4.8984 4.96727 4.97873 4.96752 5.06257V6.96104C4.96727 7.04488 4.93385 7.12521 4.87457 7.1845C4.81528 7.24378 4.73495 7.2772 4.65111 7.27745H3.38546C3.30162 7.2772 3.22129 7.24378 3.16201 7.1845C3.10272 7.12521 3.0693 7.04488 3.06905 6.96104ZM5.60034 6.96104V3.48052C5.60059 3.39668 5.63401 3.31634 5.69329 3.25706C5.75258 3.19778 5.83291 3.16436 5.91675 3.16411H7.1824C7.26624 3.16436 7.34657 3.19778 7.40586 3.25706C7.46514 3.31634 7.49856 3.39668 7.49881 3.48052V6.96104C7.49856 7.04488 7.46514 7.12521 7.40586 7.1845C7.34657 7.24378 7.26624 7.2772 7.1824 7.27745H5.91675C5.83291 7.2772 5.75258 7.24378 5.69329 7.1845C5.63401 7.12521 5.60059 7.04488 5.60034 6.96104ZM10.0301 6.96104C10.0298 7.04488 9.99643 7.12521 9.93714 7.1845C9.87786 7.24378 9.79752 7.2772 9.71368 7.27745H8.44804C8.3642 7.2772 8.28386 7.24378 8.22458 7.1845C8.1653 7.12521 8.13188 7.04488 8.13163 6.96104V1.58205C8.13188 1.49821 8.1653 1.41788 8.22458 1.35859C8.28386 1.29931 8.3642 1.26589 8.44804 1.26564H9.71368C9.79752 1.26589 9.87786 1.29931 9.93714 1.35859C9.99643 1.41788 10.0298 1.49821 10.0301 1.58205V6.96104Z" fill="#00AAF0"/>
<path d="M10.6629 9.17603H2.43623C2.18471 9.17676 1.94369 9.277 1.76584 9.45485C1.58798 9.63271 1.48774 9.87373 1.487 10.1253V16.7699C1.48774 17.0214 1.58799 17.2624 1.76584 17.4403C1.9437 17.6181 2.18471 17.7184 2.43623 17.7191H10.6629C10.9144 17.7184 11.1555 17.6181 11.3333 17.4403C11.5112 17.2624 11.6114 17.0214 11.6121 16.7699V10.1253C11.6114 9.87373 11.5112 9.63271 11.3333 9.45485C11.1555 9.27699 10.9144 9.17676 10.6629 9.17603ZM10.2547 11.6156L7.53678 14.3304C7.3566 14.5039 7.11616 14.6009 6.86598 14.6009C6.61581 14.6009 6.37537 14.5039 6.19519 14.3304L5.82499 13.9602C5.76452 13.9023 5.68405 13.87 5.60034 13.87C5.51664 13.87 5.43616 13.9023 5.37569 13.9602L3.29371 16.0453C3.23373 16.1041 3.15307 16.1371 3.06905 16.1371C2.98504 16.1371 2.90438 16.1041 2.8444 16.0453C2.78511 15.9856 2.75184 15.9048 2.75184 15.8207C2.75184 15.7365 2.78511 15.6557 2.8444 15.596L4.92955 13.514C5.10973 13.3405 5.35017 13.2435 5.60034 13.2435C5.85051 13.2435 6.09095 13.3405 6.27113 13.514L6.64133 13.8842C6.7018 13.9421 6.78228 13.9744 6.86598 13.9744C6.94969 13.9744 7.03017 13.9421 7.09064 13.8842L9.80544 11.1663C9.86502 11.1067 9.94583 11.0732 10.0301 11.0732C10.1144 11.0732 10.1952 11.1067 10.2547 11.1663C10.3143 11.2258 10.3478 11.3066 10.3478 11.3909C10.3478 11.4752 10.3143 11.556 10.2547 11.6156Z" fill="#00AAF0"/>
<path d="M17.624 2.23071V5.06259H20.4558C20.3822 4.33662 20.0602 3.65835 19.5442 3.14237C19.0282 2.6264 18.3499 2.30438 17.624 2.23071Z" fill="#00AAF0"/>
<path d="M16.9912 5.379V2.23071C16.3953 2.2906 15.8287 2.51834 15.3572 2.88747C14.8856 3.2566 14.5285 3.75196 14.3274 4.31599C14.1262 4.88003 14.0892 5.48957 14.2207 6.07379C14.3522 6.65801 14.6468 7.19292 15.0702 7.61636C15.4937 8.0398 16.0286 8.33439 16.6128 8.46588C17.197 8.59738 17.8065 8.56039 18.3706 8.35921C18.9346 8.15804 19.43 7.80093 19.7991 7.32939C20.1682 6.85785 20.396 6.29125 20.4559 5.69541H17.3076C17.2237 5.69516 17.1434 5.66174 17.0841 5.60246C17.0248 5.54318 16.9914 5.46284 16.9912 5.379Z" fill="#00AAF0"/>
</g>
<defs>
<clipPath id="clip0_1347_282">
<rect width="22" height="18" fill="white" transform="translate(0.5)"/>
</clipPath>
</defs>
</svg>
