<svg width="19" height="20" viewBox="0 0 19 20" fill="none" xmlns="http://www.w3.org/2000/svg">
<g clip-path="url(#clip0_1347_94)">
<path d="M11.5 20H5.51563C4.02196 20 2.5 18.526 2.5 17.0788V8.5C2.5 8.22362 2.72363 8 3 8C3.27638 8 3.5 8.22362 3.5 8.5V17.0788C3.5 17.9583 4.59279 19 5.51563 19H11.5C11.7764 19 12 19.2236 12 19.5C12 19.7764 11.7764 20 11.5 20Z" fill="#00AAF0"/>
<path d="M14.0156 20H13C12.7236 20 12.5 19.7764 12.5 19.5C12.5 19.2236 12.7236 19 13 19H14.0156C14.8906 19 15.5 17.9873 15.5 17.0788V4.5C15.5 4.22363 15.7236 4 16 4C16.2764 4 16.5 4.22363 16.5 4.5V17.0788C16.5 18.4893 15.502 20 14.0156 20Z" fill="#00AAF0"/>
<path d="M18 3.5H1C0.723625 3.5 0.5 3.27637 0.5 3C0.5 2.72362 0.723625 2.5 1 2.5H18C18.2764 2.5 18.5 2.72362 18.5 3C18.5 3.27637 18.2764 3.5 18 3.5Z" fill="#00AAF0"/>
<path d="M11.5 3.5C11.2236 3.5 11 3.27638 11 3V1.33592C11 1.13375 11 0.999958 10.5625 0.999958H8.43747C7.99997 0.999958 7.99997 1.13375 7.99997 1.33592V3C7.99997 3.27638 7.77635 3.5 7.49997 3.5C7.2236 3.5 6.99997 3.27638 6.99997 3V1.33592C6.99997 0.499334 7.53756 0 8.43747 0H10.5625C11.4624 0 12 0.499333 12 1.33596V3C12 3.27638 11.7764 3.5 11.5 3.5Z" fill="#00AAF0"/>
<path d="M7.49997 17C7.2236 17 6.99997 16.7764 6.99997 16.5V6C6.99997 5.72362 7.2236 5.5 7.49997 5.5C7.77635 5.5 7.99997 5.72362 7.99997 6V16.5C7.99997 16.7764 7.77635 17 7.49997 17Z" fill="#00AAF0"/>
<path d="M11.5 17C11.2236 17 11 16.7764 11 16.5V6C11 5.72362 11.2236 5.5 11.5 5.5C11.7763 5.5 12 5.72362 12 6V16.5C12 16.7764 11.7763 17 11.5 17Z" fill="#00AAF0"/>
<path d="M3 5C2.72363 5 2.5 4.77637 2.5 4.5V3C2.5 2.72362 2.72363 2.5 3 2.5C3.27638 2.5 3.5 2.72362 3.5 3V4.5C3.5 4.77637 3.27638 5 3 5Z" fill="#00AAF0"/>
<path d="M3 7.5C2.72363 7.5 2.5 7.27637 2.5 7V6.5C2.5 6.22362 2.72363 6 3 6C3.27638 6 3.5 6.22362 3.5 6.5V7C3.5 7.27637 3.27638 7.5 3 7.5Z" fill="#00AAF0"/>
</g>
<defs>
<clipPath id="clip0_1347_94">
<rect width="18" height="20" fill="white" transform="translate(0.5)"/>
</clipPath>
</defs>
</svg>
