<svg width="57" height="71" viewBox="0 0 57 71" fill="none" xmlns="http://www.w3.org/2000/svg">
<g clip-path="url(#clip0_1347_118)">
<path d="M18.3808 16.9008L15.4543 16.4827C14.6478 16.3674 14.6523 15.2013 15.4598 15.0924L18.3771 14.6989C18.529 14.6784 18.67 14.6087 18.7785 14.5006C18.8871 14.3924 18.9573 14.2517 18.9784 14.0999L19.3834 11.1842C19.4954 10.3771 20.6616 10.3771 20.7737 11.1842L21.1804 14.1122C21.2013 14.2631 21.2708 14.4031 21.3783 14.511C21.4858 14.6189 21.6255 14.6889 21.7763 14.7104L24.7027 15.1286C25.5092 15.2438 25.5047 16.4099 24.6973 16.5189L21.78 16.9124C21.6281 16.9329 21.4871 17.0025 21.3785 17.1107C21.2699 17.2188 21.1997 17.3595 21.1786 17.5113L20.7737 20.4271C20.6616 21.2341 19.4954 21.2341 19.3834 20.4271L18.9767 17.499C18.9557 17.3481 18.8863 17.2082 18.7788 17.1003C18.6713 16.9924 18.5316 16.9224 18.3808 16.9008Z" fill="#00AAF0"/>
<path d="M26.0073 11.135L24.5215 10.9227C24.112 10.8644 24.1143 10.2721 24.5243 10.2168L26.0054 10.017C26.0825 10.0066 26.1541 9.97125 26.2092 9.91634C26.2643 9.86143 26.3 9.78998 26.3107 9.71291L26.5163 8.23261C26.5732 7.82285 27.1652 7.82285 27.2221 8.23261L27.4286 9.71928C27.4392 9.79587 27.4745 9.86692 27.5291 9.92171C27.5837 9.9765 27.6546 10.012 27.7311 10.023L29.2169 10.2353C29.6264 10.2936 29.6241 10.8858 29.2142 10.9412L27.733 11.1409C27.6559 11.1513 27.5843 11.1867 27.5292 11.2416C27.4741 11.2965 27.4384 11.368 27.4277 11.445L27.2221 12.9254C27.1652 13.3351 26.5732 13.3351 26.5163 12.9254L26.3098 11.4387C26.2992 11.3621 26.2639 11.291 26.2093 11.2363C26.1548 11.1815 26.0838 11.1459 26.0073 11.135Z" fill="#00AAF0"/>
<path d="M14.0976 3.19135L12.7973 3.00557C12.4389 2.95436 12.4409 2.43621 12.7997 2.38782L14.0959 2.21292C14.1634 2.20381 14.226 2.17287 14.2743 2.12481C14.3225 2.07675 14.3537 2.01423 14.3631 1.94678L14.5428 0.651236C14.5926 0.292687 15.1108 0.292687 15.1606 0.651236L15.3413 1.95227C15.3506 2.0193 15.3815 2.08148 15.4292 2.12943C15.477 2.17738 15.5391 2.20849 15.6061 2.21807L16.9064 2.40386C17.2647 2.45507 17.2627 2.97316 16.9039 3.02155L15.6077 3.19646C15.5402 3.20555 15.4776 3.23648 15.4293 3.28453C15.3811 3.33258 15.3499 3.3951 15.3405 3.46255L15.1607 4.75809C15.1109 5.11664 14.5928 5.11664 14.543 4.75809L14.3623 3.45706C14.353 3.39004 14.3221 3.32787 14.2744 3.27994C14.2266 3.23201 14.1646 3.20092 14.0976 3.19135Z" fill="#00AAF0"/>
<path d="M39.1099 33.5759H2.92168C2.44618 33.5754 1.99029 33.3862 1.65406 33.05C1.31782 32.7138 1.1287 32.2579 1.12817 31.7824V31.0289C1.1287 30.5534 1.31782 30.0975 1.65406 29.7612C1.99029 29.425 2.44618 29.2359 2.92168 29.2354H39.1099C39.5854 29.2359 40.0413 29.425 40.3775 29.7612C40.7138 30.0975 40.9029 30.5534 40.9034 31.0289V31.7824C40.9029 32.2579 40.7138 32.7138 40.3775 33.05C40.0413 33.3862 39.5854 33.5754 39.1099 33.5759ZM2.92168 29.5967C2.54198 29.5971 2.17794 29.7481 1.90944 30.0166C1.64095 30.2851 1.48994 30.6492 1.48954 31.0289V31.7824C1.48994 32.1621 1.64095 32.5261 1.90944 32.7946C2.17794 33.0631 2.54198 33.2141 2.92168 33.2145H39.1099C39.4896 33.2141 39.8537 33.0631 40.1222 32.7946C40.3907 32.5261 40.5417 32.1621 40.5421 31.7824V31.0289C40.5417 30.6492 40.3907 30.2851 40.1222 30.0166C39.8537 29.7481 39.4896 29.5971 39.1099 29.5967H2.92168Z" fill="#00AAF0"/>
<path d="M40.6399 30.0702C40.3484 30.0699 40.0614 29.9982 39.804 29.8615L39.1378 29.5094C38.7177 29.2867 38.403 28.9064 38.2629 28.452C38.1227 27.9977 38.1685 27.5062 38.3903 27.0856L51.9969 1.34237C52.107 1.13414 52.257 0.949622 52.4383 0.799361C52.6197 0.6491 52.8289 0.536036 53.0539 0.466622C53.279 0.397207 53.5155 0.372804 53.75 0.394805C53.9845 0.416805 54.2124 0.484779 54.4206 0.594845L55.0868 0.94694C55.295 1.057 55.4795 1.207 55.6298 1.38837C55.7801 1.56974 55.8931 1.77893 55.9626 2.004C56.032 2.22907 56.0564 2.46561 56.0344 2.70011C56.0124 2.93461 55.9444 3.16248 55.8343 3.37072L42.2277 29.1139C42.1182 29.3225 41.9684 29.5073 41.7869 29.6577C41.6055 29.808 41.396 29.9208 41.1707 29.9897C40.9988 30.0429 40.8198 30.07 40.6399 30.0702ZM53.5843 0.747657C53.3235 0.747846 53.0678 0.81902 52.8444 0.953539C52.621 1.08806 52.4385 1.28085 52.3164 1.51123L38.7097 27.2544C38.5327 27.5903 38.4961 27.9828 38.608 28.3456C38.7199 28.7084 38.9712 29.0121 39.3067 29.1899L39.9728 29.542C40.3086 29.7195 40.7012 29.7563 41.0642 29.6443C41.4271 29.5324 41.7308 29.2809 41.9083 28.9451L55.5149 3.20182C55.6924 2.866 55.7292 2.47344 55.6172 2.11048C55.5053 1.74752 55.2537 1.4439 54.9179 1.26641L54.2518 0.914307C54.0462 0.805086 53.817 0.747869 53.5843 0.747657Z" fill="#00AAF0"/>
<path d="M45.7898 26.3379C45.601 26.3379 45.4152 26.2917 45.2484 26.2034L44.8428 25.989C44.8218 25.9779 44.8033 25.9628 44.7881 25.9445C44.773 25.9262 44.7616 25.9052 44.7546 25.8825C44.7476 25.8598 44.7452 25.836 44.7474 25.8124C44.7496 25.7888 44.7564 25.7658 44.7675 25.7448C44.7786 25.7238 44.7937 25.7053 44.812 25.6901C44.8303 25.675 44.8513 25.6636 44.874 25.6566C44.8967 25.6496 44.9205 25.6472 44.9441 25.6494C44.9678 25.6516 44.9907 25.6584 45.0117 25.6695L45.4173 25.8838C45.6052 25.9829 45.8248 26.0034 46.0278 25.9408C46.2308 25.8782 46.4007 25.7376 46.5001 25.5499L54.7843 9.8766C54.8833 9.68867 54.9038 9.46913 54.8412 9.26613C54.7786 9.06314 54.638 8.89326 54.4503 8.79378C54.4293 8.78269 54.4107 8.76758 54.3956 8.74931C54.3805 8.73104 54.3691 8.70996 54.3621 8.68729C54.3551 8.66462 54.3526 8.64079 54.3549 8.61717C54.3571 8.59354 54.3639 8.57059 54.375 8.54961C54.3861 8.52863 54.4012 8.51005 54.4195 8.49491C54.4377 8.47977 54.4588 8.46839 54.4815 8.46139C54.5042 8.4544 54.528 8.45194 54.5516 8.45416C54.5752 8.45638 54.5982 8.46322 54.6192 8.47431C54.8915 8.61866 55.0955 8.86514 55.1863 9.15968C55.2772 9.45423 55.2475 9.77279 55.1037 10.0455L46.8196 25.7188C46.7205 25.9059 46.5722 26.0624 46.3908 26.1715C46.2093 26.2806 46.0015 26.3382 45.7898 26.3379Z" fill="#00AAF0"/>
<path d="M35.4552 70.3664H7.75191C7.70657 70.3664 7.66289 70.3493 7.62954 70.3186C7.59618 70.2879 7.57559 70.2458 7.57185 70.2006L4.52405 33.4102C4.52199 33.3853 4.52512 33.3602 4.53324 33.3366C4.54135 33.313 4.55428 33.2913 4.5712 33.2729C4.58812 33.2545 4.60867 33.2399 4.63154 33.2298C4.65442 33.2198 4.67913 33.2146 4.70411 33.2146H37.3275C37.352 33.2146 37.3762 33.2196 37.3987 33.2293C37.4212 33.2389 37.4416 33.2531 37.4584 33.2708C37.4753 33.2886 37.4884 33.3096 37.4969 33.3326C37.5054 33.3555 37.5092 33.38 37.5079 33.4045L35.6356 70.1949C35.6333 70.2412 35.6132 70.2848 35.5797 70.3167C35.5461 70.3486 35.5015 70.3664 35.4552 70.3664ZM7.91825 70.005H35.2834L37.1374 33.576H4.9004L7.91825 70.005Z" fill="#00AAF0"/>
<path d="M42.8806 70.3663H23.7509C23.7269 70.3666 23.7032 70.3622 23.6809 70.3532C23.6587 70.3443 23.6385 70.3311 23.6215 70.3142C23.6044 70.2974 23.5909 70.2774 23.5816 70.2553C23.5724 70.2332 23.5676 70.2095 23.5676 70.1856C23.5676 70.1616 23.5724 70.1379 23.5816 70.1158C23.5909 70.0938 23.6044 70.0737 23.6215 70.0569C23.6385 70.0401 23.6587 70.0268 23.6809 70.0179C23.7032 70.009 23.7269 70.0046 23.7509 70.0049H42.8806C42.9046 70.0046 42.9283 70.009 42.9506 70.0179C42.9728 70.0268 42.993 70.0401 43.01 70.0569C43.0271 70.0737 43.0406 70.0938 43.0499 70.1158C43.0591 70.1379 43.0639 70.1616 43.0639 70.1856C43.0639 70.2095 43.0591 70.2332 43.0499 70.2553C43.0406 70.2774 43.0271 70.2974 43.01 70.3142C42.993 70.3311 42.9728 70.3443 42.9506 70.3532C42.9283 70.3622 42.9046 70.3666 42.8806 70.3663Z" fill="#00AAF0"/>
<path d="M20.2705 70.3663H1.14076C1.11682 70.3666 1.09304 70.3622 1.07083 70.3532C1.04861 70.3443 1.02839 70.3311 1.01134 70.3142C0.994295 70.2974 0.98076 70.2774 0.97152 70.2553C0.962279 70.2332 0.95752 70.2095 0.95752 70.1856C0.95752 70.1616 0.962279 70.1379 0.97152 70.1158C0.98076 70.0938 0.994295 70.0737 1.01134 70.0569C1.02839 70.0401 1.04861 70.0268 1.07083 70.0179C1.09304 70.009 1.11682 70.0046 1.14076 70.0049H20.2705C20.2945 70.0046 20.3182 70.009 20.3405 70.0179C20.3627 70.0268 20.3829 70.0401 20.3999 70.0569C20.417 70.0737 20.4305 70.0938 20.4398 70.1158C20.449 70.1379 20.4538 70.1616 20.4538 70.1856C20.4538 70.2095 20.449 70.2332 20.4398 70.2553C20.4305 70.2774 20.417 70.2974 20.3999 70.3142C20.3829 70.3311 20.3627 70.3443 20.3405 70.3532C20.3182 70.3622 20.2945 70.3666 20.2705 70.3663Z" fill="#00AAF0"/>
<path d="M12.173 70.3664C12.1251 70.3664 12.0792 70.3474 12.0453 70.3135C12.0114 70.2796 11.9924 70.2336 11.9924 70.1857V42.6516C11.9924 42.2384 11.8283 41.8422 11.5361 41.55C11.244 41.2579 10.8477 41.0938 10.4346 41.0938C10.0214 41.0938 9.62514 41.2579 9.33299 41.55C9.04084 41.8422 8.87672 42.2384 8.87672 42.6516V70.1857C8.87672 70.2336 8.85768 70.2796 8.8238 70.3135C8.78992 70.3474 8.74396 70.3664 8.69604 70.3664C8.64813 70.3664 8.60218 70.3474 8.5683 70.3135C8.53442 70.2796 8.51538 70.2336 8.51538 70.1857V42.6516C8.51538 42.1426 8.71758 41.6544 9.07749 41.2945C9.43741 40.9346 9.92555 40.7324 10.4346 40.7324C10.9435 40.7324 11.4317 40.9346 11.7916 41.2945C12.1515 41.6544 12.3537 42.1426 12.3537 42.6516V70.1857C12.3537 70.2336 12.3347 70.2796 12.3008 70.3135C12.2669 70.3474 12.221 70.3664 12.173 70.3664Z" fill="#00AAF0"/>
<path d="M19.2966 70.3664C19.2487 70.3664 19.2027 70.3474 19.1688 70.3135C19.1349 70.2796 19.1159 70.2337 19.1159 70.1857V42.6516C19.1159 42.2384 18.9518 41.8422 18.6596 41.5501C18.3675 41.2579 17.9713 41.0938 17.5581 41.0938C17.1449 41.0938 16.7487 41.2579 16.4566 41.5501C16.1644 41.8422 16.0003 42.2384 16.0003 42.6516V70.1857C16.0003 70.2337 15.9812 70.2796 15.9474 70.3135C15.9135 70.3474 15.8675 70.3664 15.8196 70.3664C15.7717 70.3664 15.7257 70.3474 15.6918 70.3135C15.658 70.2796 15.6389 70.2337 15.6389 70.1857V42.6516C15.6389 42.1426 15.8411 41.6545 16.201 41.2945C16.5609 40.9346 17.0491 40.7324 17.5581 40.7324C18.0671 40.7324 18.5553 40.9346 18.9152 41.2945C19.2751 41.6545 19.4773 42.1426 19.4773 42.6516V70.1857C19.4773 70.2095 19.4726 70.233 19.4635 70.2549C19.4544 70.2768 19.4411 70.2967 19.4244 70.3135C19.4076 70.3303 19.3877 70.3436 19.3657 70.3527C19.3438 70.3617 19.3203 70.3664 19.2966 70.3664Z" fill="#00AAF0"/>
<path d="M26.4202 70.3796C26.3723 70.3796 26.3263 70.3606 26.2925 70.3267C26.2586 70.2928 26.2395 70.2469 26.2395 70.1989V42.6516C26.2395 42.2384 26.0754 41.8422 25.7833 41.55C25.4911 41.2579 25.0949 41.0938 24.6817 41.0938C24.2685 41.0938 23.8723 41.2579 23.5801 41.55C23.288 41.8422 23.1238 42.2384 23.1238 42.6516V70.1857C23.1232 70.2332 23.1038 70.2785 23.07 70.3119C23.0362 70.3452 22.9906 70.3639 22.9432 70.3639C22.8957 70.3639 22.8501 70.3452 22.8163 70.3119C22.7825 70.2785 22.7631 70.2332 22.7625 70.1857V42.6516C22.7614 42.3989 22.8102 42.1484 22.9062 41.9146C23.0021 41.6808 23.1433 41.4683 23.3217 41.2892C23.5 41.1101 23.7119 40.968 23.9453 40.871C24.1787 40.774 24.4289 40.7241 24.6817 40.7241C24.9344 40.7241 25.1846 40.774 25.418 40.871C25.6514 40.968 25.8634 41.1101 26.0417 41.2892C26.22 41.4683 26.3612 41.6808 26.4572 41.9146C26.5531 42.1484 26.602 42.3989 26.6009 42.6516V70.1991C26.6008 70.247 26.5818 70.2929 26.5479 70.3268C26.514 70.3606 26.4681 70.3796 26.4202 70.3796Z" fill="#00AAF0"/>
<path d="M33.3352 70.3797C33.2873 70.3796 33.2414 70.3606 33.2075 70.3267C33.1736 70.2928 33.1546 70.2469 33.1546 70.199V42.6516C33.1546 42.2385 32.9905 41.8422 32.6983 41.5501C32.4061 41.2579 32.0099 41.0938 31.5967 41.0938C31.1836 41.0938 30.7873 41.2579 30.4952 41.5501C30.203 41.8422 30.0389 42.2385 30.0389 42.6516V70.1991C30.0392 70.2231 30.0348 70.2468 30.0259 70.2691C30.0169 70.2913 30.0037 70.3115 29.9869 70.3285C29.97 70.3456 29.95 70.3591 29.9279 70.3684C29.9058 70.3776 29.8821 70.3824 29.8582 70.3824C29.8342 70.3824 29.8105 70.3776 29.7885 70.3684C29.7664 70.3591 29.7463 70.3456 29.7295 70.3285C29.7127 70.3115 29.6995 70.2913 29.6905 70.2691C29.6816 70.2468 29.6772 70.2231 29.6775 70.1991V42.6516C29.6775 42.1426 29.8797 41.6545 30.2396 41.2945C30.5996 40.9346 31.0877 40.7324 31.5967 40.7324C32.1057 40.7324 32.5939 40.9346 32.9538 41.2945C33.3137 41.6545 33.5159 42.1426 33.5159 42.6516V70.1991C33.5159 70.247 33.4968 70.2929 33.4629 70.3268C33.4291 70.3606 33.3831 70.3796 33.3352 70.3797Z" fill="#00AAF0"/>
<path d="M37.1615 36.8335H7.14308C7.09516 36.8335 7.0492 36.8145 7.01532 36.7806C6.98144 36.7467 6.9624 36.7007 6.9624 36.6528C6.9624 36.6049 6.98144 36.559 7.01532 36.5251C7.0492 36.4912 7.09516 36.4722 7.14308 36.4722H37.1615C37.2094 36.4722 37.2553 36.4912 37.2892 36.5251C37.3231 36.559 37.3421 36.6049 37.3421 36.6528C37.3421 36.7007 37.3231 36.7467 37.2892 36.7806C37.2553 36.8145 37.2094 36.8335 37.1615 36.8335Z" fill="#00AAF0"/>
</g>
<defs>
<clipPath id="clip0_1347_118">
<rect width="56" height="71" fill="white" transform="translate(0.5)"/>
</clipPath>
</defs>
</svg>
