<svg width="119" height="130" viewBox="0 0 119 130" fill="none" xmlns="http://www.w3.org/2000/svg">
<path d="M80.9218 0H16.5852C15.2794 0.00168622 14.0275 0.521164 13.1042 1.44452C12.1808 2.36787 11.6614 3.61973 11.6597 4.92555V37.1619H21.561C22.2851 37.1599 22.9978 37.3428 23.6316 37.6932C24.2653 38.0436 24.7991 38.55 25.1825 39.1644L28.6143 44.6272L31.8957 49.8465L32.5117 50.828L36.2659 56.7996L36.3089 56.8676H85.8474V4.92552C85.8457 3.61971 85.3262 2.36787 84.4028 1.44452C83.4795 0.521169 82.2276 0.0016881 80.9218 0Z" fill="#BBE4F4"/>
<path d="M55.4201 9.85468H23.5419C22.6968 9.85468 21.8863 10.1904 21.2887 10.7879C20.6912 11.3855 20.3555 12.196 20.3555 13.0411C20.3555 13.8861 20.6912 14.6966 21.2887 15.2942C21.8863 15.8917 22.6968 16.2274 23.5419 16.2274H55.4201C56.2651 16.2274 57.0756 15.8917 57.6732 15.2942C58.2707 14.6966 58.6065 13.8861 58.6065 13.0411C58.6065 12.196 58.2707 11.3855 57.6732 10.7879C57.0756 10.1904 56.2651 9.85468 55.4201 9.85468Z" fill="white"/>
<path d="M73.098 25.5018H23.8318C22.9093 25.5018 22.0246 25.8683 21.3723 26.5206C20.72 27.1729 20.3535 28.0576 20.3535 28.9802C20.3535 29.9027 20.72 30.7874 21.3723 31.4397C22.0246 32.092 22.9093 32.4585 23.8318 32.4585H73.098C74.0205 32.4585 74.9052 32.092 75.5575 31.4397C76.2098 30.7874 76.5763 29.9027 76.5763 28.9802C76.5763 28.0576 76.2098 27.1729 75.5575 26.5206C74.9052 25.8683 74.0205 25.5018 73.098 25.5018Z" fill="white"/>
<path d="M76.2439 39.6766C75.9639 39.0786 75.5195 38.5726 74.9624 38.218C74.4054 37.8634 73.7589 37.6747 73.0986 37.6741H23.8325C23.7573 37.6741 23.6856 37.6777 23.6104 37.6813C24.2531 38.0325 24.7947 38.5432 25.183 39.1643L28.6148 44.6272H73.0986C73.6836 44.6274 74.2592 44.4798 74.7719 44.1982C75.2847 43.9166 75.718 43.51 76.0317 43.0162C76.3454 42.5225 76.5293 41.9575 76.5664 41.3736C76.6035 40.7898 76.4926 40.2061 76.2439 39.6766Z" fill="white"/>
<path d="M76.5416 52.8556C76.4282 52.0227 76.0171 51.259 75.3842 50.7058C74.7513 50.1526 73.9395 49.8474 73.099 49.8465H31.8965L32.5125 50.828L36.2667 56.7996H73.099C73.8227 56.8011 74.5286 56.5742 75.1159 56.1512C75.5669 55.8298 75.9345 55.4053 76.1881 54.9131C76.4417 54.4208 76.5739 53.875 76.5738 53.3212C76.574 53.1654 76.5633 53.0098 76.5416 52.8556Z" fill="white"/>
<path d="M115.866 27.7621L110.851 25.8027L85.8474 16.0447L55.9322 4.37025C54.7145 3.89771 53.3592 3.92724 52.1633 4.45234C50.9674 4.97745 50.0284 5.9553 49.5523 7.17155L48.5063 9.85462L46.0167 16.2274L42.3987 25.5017L39.6833 32.4584L37.6486 37.6741L34.9332 44.6272L32.895 49.8465L32.8378 49.9969L32.5117 50.828L36.2659 56.7996L36.3089 56.8676H105.843C106.482 56.867 107.112 57.0096 107.688 57.2849C108.264 57.5601 108.771 57.961 109.171 58.4581L109.465 57.713L113.054 48.521L118.664 34.1456C119.138 32.928 119.109 31.5722 118.585 30.3756C118.06 29.179 117.083 28.2391 115.866 27.7621Z" fill="#00AAF0"/>
<path d="M88.5271 27.669L85.8476 26.6229L58.8306 16.0805C58.0428 15.7756 57.1663 15.7947 56.3925 16.1336C55.6187 16.4725 55.0103 17.1037 54.7002 17.8895C54.3949 18.6777 54.4142 19.5548 54.7539 20.3288C55.0935 21.1029 55.726 21.7109 56.5128 22.0198L65.4362 25.5017L76.473 29.8075L85.8476 33.4686L86.2094 33.6083C86.9966 33.9139 87.8729 33.8947 88.646 33.5548C89.4191 33.2149 90.0257 32.5822 90.3327 31.7955C90.6397 31.0088 90.622 30.1324 90.2835 29.3587C89.945 28.5851 89.3133 27.9773 88.5271 27.669Z" fill="white"/>
<path d="M99.3023 48.6752L85.8475 43.4236L76.2436 39.6766L71.1137 37.6742L57.7521 32.4585L53.4104 30.7641C52.6006 30.4479 51.7016 30.4464 50.8907 30.76C50.0798 31.0737 49.4158 31.6796 49.0294 32.4585C48.9866 32.548 48.9435 32.6412 48.9077 32.7379C48.7416 33.1632 48.6609 33.617 48.6702 34.0734C48.6795 34.5299 48.7786 34.98 48.9619 35.3982C49.1452 35.8163 49.4091 36.1943 49.7384 36.5104C50.0678 36.8266 50.4563 37.0747 50.8816 37.2407L51.9919 37.6742L69.8028 44.6273L85.8475 50.889L96.7732 55.1554C97.1751 55.3124 97.6028 55.3926 98.0342 55.3918C98.8455 55.3933 99.6317 55.111 100.257 54.5938C100.882 54.0766 101.306 53.3572 101.457 52.56C101.607 51.7628 101.474 50.9381 101.081 50.2286C100.687 49.5192 100.058 48.9696 99.3023 48.6752Z" fill="white"/>
<path d="M85.8473 56.4879L84.984 56.1512L76.5408 52.8555L68.8281 49.8465L55.4522 44.6272L48.9827 42.1018C48.5571 41.9352 48.1028 41.8542 47.6458 41.8634C47.1889 41.8726 46.7382 41.9718 46.3196 42.1553C45.901 42.3388 45.5227 42.603 45.2063 42.9329C44.8899 43.2627 44.6416 43.6516 44.4756 44.0775C44.3097 44.5034 44.2293 44.9578 44.2391 45.4147C44.2489 45.8717 44.3486 46.3222 44.5327 46.7406C44.7167 47.1589 44.9815 47.5369 45.3117 47.8528C45.642 48.1688 46.0312 48.4166 46.4573 48.582L49.6956 49.8465L65.8513 56.1512L67.5135 56.7996L67.6854 56.8676H86.8181L85.8473 56.4879Z" fill="white"/>
<path d="M53.1672 56.7996L51.505 56.1513L44.559 53.4395C44.0738 53.2494 43.552 53.171 43.0323 53.2101C42.5126 53.2491 42.0083 53.4046 41.5569 53.6651C41.1055 53.9255 40.7185 54.2843 40.4246 54.7146C40.1307 55.145 39.9374 55.636 39.8591 56.1513C39.8247 56.3656 39.8115 56.5827 39.8198 56.7996C39.8191 56.8224 39.8203 56.8452 39.8234 56.8677H53.3426L53.1672 56.7996Z" fill="white"/>
<path d="M67.5139 56.7996L65.8517 56.1513H39.8591C39.8247 56.3656 39.8115 56.5827 39.8198 56.7996H36.2663L36.3093 56.8677H67.6858L67.5139 56.7996ZM67.5139 56.7996H36.2663L36.3093 56.8677H67.6858L67.5139 56.7996ZM67.5139 56.7996H36.2663L36.3093 56.8677H67.6858L67.5139 56.7996ZM67.6858 56.8677L67.5139 56.7996H36.2663L36.3093 56.8677H67.6858ZM4.99359 128.602C3.85975 128.6 2.77285 128.149 1.9711 127.347C1.16936 126.545 0.718169 125.458 0.716443 124.324V41.4427C0.717422 40.3083 1.16825 39.2206 1.97005 38.4181C2.77186 37.6156 3.85919 37.1639 4.99359 37.1619H11.66V36.4455H4.99359C3.66934 36.448 2.40011 36.9754 1.46406 37.9121C0.52802 38.8488 0.00153087 40.1184 0 41.4427V124.324C0.00113092 125.282 0.277603 126.22 0.796477 127.025C1.31535 127.83 2.05476 128.47 2.92664 128.867H66.038C65.9808 128.781 65.9234 128.691 65.8661 128.602H4.99359ZM109.465 57.7131C109 57.2195 108.439 56.8263 107.816 56.5577C107.193 56.2891 106.522 56.1508 105.844 56.1513H36.7069L32.8381 49.997L32.7449 49.8465L29.4637 44.6273L25.7883 38.7811C25.3378 38.0669 24.7141 37.4783 23.975 37.07C23.236 36.6616 22.4057 36.4468 21.5613 36.4455H4.99359C3.66934 36.448 2.40011 36.9754 1.46406 37.9121C0.52802 38.8488 0.00153087 40.1184 0 41.4427V124.324C0.00113092 125.282 0.277603 126.22 0.796477 127.025C1.31535 127.83 2.05476 128.47 2.92664 128.867C3.57479 129.165 4.28005 129.319 4.99359 129.318H105.844C106.558 129.319 107.265 129.165 107.914 128.867C108.786 128.47 109.525 127.83 110.044 127.025C110.563 126.22 110.84 125.282 110.841 124.324V61.1485C110.842 59.8689 110.349 58.6384 109.465 57.7131ZM110.124 124.324C110.122 125.459 109.671 126.546 108.868 127.348C108.066 128.15 106.978 128.601 105.844 128.602H4.99359C3.85975 128.6 2.77285 128.149 1.9711 127.347C1.16936 126.545 0.718169 125.458 0.716443 124.324V41.4427C0.717422 40.3083 1.16825 39.2206 1.97005 38.4181C2.77186 37.6156 3.85919 37.1639 4.99359 37.1619H21.5613C22.2855 37.16 22.9982 37.3429 23.6319 37.6933C24.2657 38.0437 24.7995 38.55 25.1829 39.1644L28.6147 44.6273L31.8961 49.8465L32.5121 50.8281L36.2663 56.7996L36.3093 56.8677L105.844 56.8677C106.979 56.8687 108.067 57.32 108.87 58.1226C109.672 58.9251 110.123 60.0134 110.124 61.1484V124.324ZM67.5139 56.7996H36.2663L36.3093 56.8677H67.6858L67.5139 56.7996ZM67.5139 56.7996H36.2663L36.3093 56.8677H67.6858L67.5139 56.7996ZM67.5139 56.7996H36.2663L36.3093 56.8677H67.6858L67.5139 56.7996ZM67.5139 56.7996L65.8517 56.1513H36.7069L32.8381 49.997L32.5121 50.8281L36.2663 56.7996L36.3093 56.8677H67.6858L67.5139 56.7996Z" fill="#CCCCCC"/>
<path d="M24.7323 94.6708C25.083 88.4689 27.6246 82.5931 31.904 78.0911C36.1834 73.5891 41.9224 70.7534 48.0977 70.0897C54.2731 69.426 60.4834 70.9774 65.6215 74.4673C70.7595 77.9572 74.4913 83.1588 76.1515 89.1446C76.469 89.1332 76.7862 89.1204 77.1065 89.1204C78.1991 89.1308 79.2831 89.3153 80.3178 89.6668C93.3538 93.9481 89.9211 113.414 76.2002 113.414H42.4795C40.0946 113.421 37.7328 112.946 35.5356 112.018C33.3384 111.091 31.351 109.729 29.6923 108.015C28.0336 106.302 26.7377 104.271 25.8822 102.044C25.0268 99.8175 24.6294 97.4412 24.7137 95.0574C24.719 94.9287 24.7252 94.7999 24.7323 94.6708Z" fill="#00AAF0"/>
<path d="M55.4678 94.2626V83.5343H49.6919V94.2626H45.0806L48.83 100.759L52.5801 107.254L56.3296 100.759L60.079 94.2626H55.4678Z" fill="white"/>
</svg>
