<svg width="19" height="18" viewBox="0 0 19 18" fill="none" xmlns="http://www.w3.org/2000/svg">
<g clip-path="url(#clip0_1347_133)">
<path d="M9.07926 11.106C9.07926 11.106 9.08601 11.1128 9.09051 11.1172C9.10626 11.1353 9.12426 11.1487 9.14226 11.1645C9.15351 11.1735 9.16476 11.1848 9.17601 11.1915C9.19626 11.205 9.21876 11.2185 9.24126 11.2297C9.25251 11.2365 9.26151 11.2432 9.27276 11.2478C9.29976 11.259 9.32901 11.268 9.35826 11.2747C9.36726 11.2747 9.37401 11.2815 9.38301 11.2815C9.42126 11.2905 9.45951 11.295 9.50001 11.295C9.54051 11.295 9.57876 11.2905 9.61701 11.2815C9.62601 11.2815 9.63276 11.277 9.64176 11.2747C9.67101 11.268 9.70026 11.259 9.72726 11.2478C9.73851 11.2432 9.74976 11.2365 9.75876 11.2297C9.78126 11.2185 9.80376 11.205 9.82401 11.1915C9.83526 11.1825 9.84651 11.1735 9.85776 11.1645C9.87576 11.1487 9.89376 11.1353 9.90951 11.1172C9.91401 11.1128 9.91851 11.1105 9.92076 11.106L11.9075 8.8695C12.1145 8.63775 12.092 8.28225 11.8603 8.07525C11.6285 7.86825 11.273 7.89075 11.066 8.1225L10.0625 9.252V5.625C10.0625 5.3145 9.81051 5.0625 9.50001 5.0625C9.18951 5.0625 8.93751 5.3145 8.93751 5.625V9.252L7.93401 8.1225C7.72701 7.89075 7.37151 7.86825 7.13976 8.07525C6.90801 8.28225 6.88551 8.63775 7.09251 8.8695L9.07926 11.106Z" fill="#00AAF0"/>
<path d="M11.4867 11.8125H7.51323C7.20273 11.8125 6.95073 12.0645 6.95073 12.375C6.95073 12.6855 7.20273 12.9375 7.51323 12.9375H11.4867C11.7972 12.9375 12.0492 12.6855 12.0492 12.375C12.0492 12.0645 11.7972 11.8125 11.4867 11.8125Z" fill="#00AAF0"/>
<path d="M17.7957 3.9735L14.4657 0.6435C14.4657 0.6435 14.4613 0.6435 14.459 0.639C14.0697 0.24525 13.5275 0 12.929 0H4.325C2.21675 0 0.5 1.71675 0.5 3.825V14.175C0.5 16.2832 2.21675 18 4.325 18H14.675C16.7832 18 18.5 16.2832 18.5 14.175V5.5665C18.5 4.94325 18.2323 4.383 17.8092 3.98925C17.8025 3.98475 17.8003 3.978 17.7957 3.9735ZM17.6 14.175C17.6 15.7882 16.2882 17.1 14.675 17.1H4.325C2.71175 17.1 1.4 15.7882 1.4 14.175V3.825C1.4 2.21175 2.71175 0.9 4.325 0.9H12.929C13.622 0.9 14.1845 1.4625 14.1845 2.1555V2.268C14.1845 3.39525 15.1025 4.311 16.2275 4.311H16.3445C17.0352 4.311 17.6 4.87575 17.6 5.5665V14.175Z" fill="#00AAF0"/>
</g>
<defs>
<clipPath id="clip0_1347_133">
<rect width="18" height="18" fill="white" transform="translate(0.5)"/>
</clipPath>
</defs>
</svg>
