<svg width="25" height="18" viewBox="0 0 25 18" fill="none" xmlns="http://www.w3.org/2000/svg">
<g clip-path="url(#clip0_1347_291)">
<path d="M14.6168 13.2545C14.6168 10.1755 17.1215 7.67085 20.2013 7.67085C21.1827 7.67085 22.1051 7.92714 22.9074 8.37373V3.20583C22.9074 1.44862 21.4673 0 19.7015 0H3.70583C1.94862 0 0.5 1.44862 0.5 3.20583V11.9919C0.5 13.7576 1.93148 15.1891 3.69726 15.1891H14.9691C14.7454 14.5857 14.6168 13.9351 14.6168 13.2545ZM18.6455 2.4378H19.7127C20.1387 2.4378 20.4841 2.78324 20.4841 3.20926C20.4841 3.63527 20.1387 3.98071 19.7127 3.98071H18.6455C18.2195 3.98071 17.8741 3.63527 17.8741 3.20926C17.8741 2.78324 18.2195 2.4378 18.6455 2.4378ZM4.77472 12.765H3.70754C3.28153 12.765 2.93609 12.4196 2.93609 11.9936C2.93609 11.5676 3.28153 11.2221 3.70754 11.2221H4.77472C5.20074 11.2221 5.54618 11.5676 5.54618 11.9936C5.54618 12.4196 5.20074 12.765 4.77472 12.765ZM14.1693 8.49288C14.1693 9.85064 13.0687 10.9521 11.7101 10.9521C10.3515 10.9521 9.25089 9.8515 9.25089 8.49288V6.7091C9.25089 5.35133 10.3515 4.24987 11.7101 4.24987C13.0687 4.24987 14.1693 5.35048 14.1693 6.7091V8.49288Z" fill="#00AAF0"/>
<path d="M20.197 8.95746C17.8226 8.95746 15.9025 10.8775 15.9025 13.2519C15.9025 15.6263 17.8226 17.5549 20.197 17.5549C22.5713 17.5549 24.5 15.6263 24.5 13.2519C24.5 10.8775 22.5713 8.95746 20.197 8.95746ZM21.6713 14.0259H18.7278C18.3018 14.0259 17.9563 13.6805 17.9563 13.2545C17.9563 12.8285 18.3018 12.483 18.7278 12.483H21.6713C22.0973 12.483 22.4428 12.8285 22.4428 13.2545C22.4428 13.6805 22.0973 14.0259 21.6713 14.0259Z" fill="#00AAF0"/>
</g>
<defs>
<clipPath id="clip0_1347_291">
<rect width="24" height="18" fill="white" transform="translate(0.5)"/>
</clipPath>
</defs>
</svg>
