<svg width="23" height="22" viewBox="0 0 23 22" fill="none" xmlns="http://www.w3.org/2000/svg">
<g clip-path="url(#clip0_1347_288)">
<path d="M16.8565 0.597411C16.5826 0.454474 16.2744 0.390536 15.9662 0.412745C15.6581 0.434954 15.3622 0.542434 15.1116 0.72317C14.9042 0.887014 14.6447 0.970716 14.3807 0.958968C14.0681 0.962422 13.7664 0.844018 13.5396 0.628851C13.037 0.221988 12.41 0 11.7633 0C11.1166 0 10.4896 0.221988 9.98696 0.628851C9.75675 0.841073 9.45512 0.958896 9.14201 0.958896C8.82891 0.958896 8.52728 0.841073 8.29707 0.628851C7.79594 0.222055 7.17012 2.43614e-05 6.52466 2.43614e-05C5.8792 2.43614e-05 5.25338 0.222055 4.75224 0.628851C4.52324 0.845498 4.21857 0.963978 3.90337 0.958968C3.64405 0.971135 3.38936 0.887172 3.18811 0.72317C2.93612 0.541797 2.63836 0.434621 2.32858 0.413783C2.0188 0.392946 1.70937 0.45928 1.43535 0.605271C1.15248 0.75075 0.915381 0.971665 0.7503 1.24356C0.58522 1.51546 0.498596 1.82773 0.500017 2.14582V18.7067C0.499998 19.1626 0.68002 19.6001 1.00091 19.9239C1.32181 20.2477 1.7576 20.4317 2.21348 20.4359H12.6986C11.9189 19.4191 11.4987 18.1723 11.5039 16.8911C11.5039 15.3276 12.125 13.8282 13.2305 12.7227C14.336 11.6172 15.8354 10.9961 17.3989 10.9961C17.5302 10.9961 17.6615 11.004 17.7919 11.0197V2.13796C17.7927 1.82 17.7058 1.50798 17.5408 1.23619C17.3758 0.964409 17.139 0.743382 16.8565 0.597411ZM4.90158 15.2405C4.71503 15.2405 4.53268 15.1852 4.37757 15.0815C4.22246 14.9779 4.10157 14.8306 4.03018 14.6582C3.9588 14.4859 3.94012 14.2962 3.97651 14.1133C4.0129 13.9303 4.10274 13.7622 4.23464 13.6303C4.36655 13.4984 4.53461 13.4086 4.71757 13.3722C4.90053 13.3358 5.09018 13.3545 5.26252 13.4259C5.43487 13.4973 5.58218 13.6182 5.68582 13.7733C5.78945 13.9284 5.84477 14.1107 5.84477 14.2973C5.84477 14.5474 5.7454 14.7873 5.56852 14.9642C5.39163 15.1411 5.15173 15.2405 4.90158 15.2405ZM4.90158 11.3105C4.71503 11.3105 4.53268 11.2552 4.37757 11.1515C4.22246 11.0479 4.10157 10.9006 4.03018 10.7283C3.9588 10.5559 3.94012 10.3663 3.97651 10.1833C4.0129 10.0003 4.10274 9.83228 4.23464 9.70037C4.36655 9.56846 4.53461 9.47863 4.71757 9.44224C4.90053 9.40585 5.09018 9.42453 5.26252 9.49591C5.43487 9.5673 5.58218 9.68819 5.68582 9.8433C5.78945 9.99841 5.84477 10.1808 5.84477 10.3673C5.84477 10.6175 5.7454 10.8574 5.56852 11.0342C5.39163 11.2111 5.15173 11.3105 4.90158 11.3105ZM4.90158 7.22334C4.7147 7.22333 4.53204 7.16781 4.37676 7.06382C4.22149 6.95983 4.10061 6.81205 4.02946 6.63925C3.95831 6.46644 3.94009 6.2764 3.97713 6.09323C4.01416 5.91005 4.10478 5.74201 4.23747 5.61042C4.37017 5.47883 4.53896 5.38963 4.72244 5.35413C4.90591 5.31863 5.0958 5.33843 5.268 5.41102C5.44021 5.48362 5.58696 5.60573 5.68965 5.76187C5.79234 5.91801 5.84633 6.10113 5.84477 6.288C5.84426 6.41135 5.81945 6.53339 5.77177 6.64715C5.72409 6.76091 5.65448 6.86416 5.56689 6.95101C5.47931 7.03787 5.37547 7.10662 5.26132 7.15335C5.14717 7.20007 5.02493 7.22385 4.90158 7.22334ZM9.93194 15.0833H7.73116C7.5227 15.0833 7.32278 15.0005 7.17538 14.8531C7.02797 14.7057 6.94516 14.5057 6.94516 14.2973C6.94516 14.0888 7.02797 13.8889 7.17538 13.7415C7.32278 13.5941 7.5227 13.5113 7.73116 13.5113H9.93194C10.1404 13.5113 10.3403 13.5941 10.4877 13.7415C10.6351 13.8889 10.7179 14.0888 10.7179 14.2973C10.7179 14.5057 10.6351 14.7057 10.4877 14.8531C10.3403 15.0005 10.1404 15.0833 9.93194 15.0833ZM13.5475 11.1533H7.73116C7.5227 11.1533 7.32278 11.0705 7.17538 10.9231C7.02797 10.7757 6.94516 10.5758 6.94516 10.3673C6.94516 10.1589 7.02797 9.95893 7.17538 9.81153C7.32278 9.66413 7.5227 9.58132 7.73116 9.58132H13.5475C13.756 9.58132 13.9559 9.66413 14.1033 9.81153C14.2507 9.95893 14.3335 10.1589 14.3335 10.3673C14.3335 10.5758 14.2507 10.7757 14.1033 10.9231C13.9559 11.0705 13.756 11.1533 13.5475 11.1533ZM13.5475 7.074H7.73116C7.5227 7.074 7.32278 6.99119 7.17538 6.84378C7.02797 6.69638 6.94516 6.49646 6.94516 6.288C6.94516 6.07955 7.02797 5.87963 7.17538 5.73222C7.32278 5.58482 7.5227 5.50201 7.73116 5.50201H13.5475C13.756 5.50201 13.9559 5.58482 14.1033 5.73222C14.2507 5.87963 14.3335 6.07955 14.3335 6.288C14.3335 6.49646 14.2507 6.69638 14.1033 6.84378C13.9559 6.99119 13.756 7.074 13.5475 7.074Z" fill="#00AAF0"/>
<path d="M17.3989 11.7821C16.3884 11.7821 15.4007 12.0817 14.5605 12.6431C13.7203 13.2045 13.0655 14.0024 12.6788 14.9359C12.2921 15.8695 12.191 16.8967 12.3881 17.8877C12.5852 18.8788 13.0718 19.7891 13.7863 20.5036C14.5008 21.2181 15.4111 21.7047 16.4022 21.9018C17.3932 22.0989 18.4204 21.9978 19.354 21.6111C20.2875 21.2244 21.0854 20.5696 21.6468 19.7294C22.2082 18.8892 22.5078 17.9015 22.5078 16.891C22.5062 15.5366 21.9674 14.238 21.0096 13.2803C20.0519 12.3225 18.7533 11.7837 17.3989 11.7821ZM18.9709 17.677H15.8269C15.6184 17.677 15.4185 17.5942 15.2711 17.4468C15.1237 17.2994 15.0409 17.0995 15.0409 16.891C15.0409 16.6826 15.1237 16.4826 15.2711 16.3352C15.4185 16.1878 15.6184 16.105 15.8269 16.105H18.9709C19.1793 16.105 19.3792 16.1878 19.5266 16.3352C19.674 16.4826 19.7569 16.6826 19.7569 16.891C19.7569 17.0995 19.674 17.2994 19.5266 17.4468C19.3792 17.5942 19.1793 17.677 18.9709 17.677Z" fill="#00AAF0"/>
</g>
<defs>
<clipPath id="clip0_1347_288">
<rect width="22" height="22" fill="white" transform="translate(0.5)"/>
</clipPath>
</defs>
</svg>
