<svg width="19" height="18" viewBox="0 0 19 18" fill="none" xmlns="http://www.w3.org/2000/svg">
<g clip-path="url(#clip0_1347_141)">
<path d="M3.66575 17.2328C4.16075 17.7278 4.81775 18 5.51975 18H13.856C15.3005 18 16.4772 16.8255 16.4772 15.3788V7.28103C16.4772 7.01328 16.259 6.79503 15.9912 6.79503C15.7235 6.79503 15.5052 7.01328 15.5052 7.28103V15.3788C15.5052 16.2878 14.7672 17.0258 13.8582 17.0258H5.522C5.387 17.0258 5.25425 17.0078 5.12375 16.9763V14.8455C5.12375 14.0378 4.46675 13.3808 3.659 13.3808H1.52825C1.49675 13.2525 1.47875 13.1198 1.47875 12.9825V4.64628C1.47875 3.73728 2.21675 2.99928 3.12575 2.99928H11.2235C11.4912 2.99928 11.7095 2.78103 11.7095 2.51328C11.7095 2.24553 11.4912 2.02728 11.2235 2.02728H3.12125C1.67675 2.02728 0.5 3.20178 0.5 4.64853V12.9848C0.5 13.6845 0.77225 14.3438 1.26725 14.8388L3.6635 17.235L3.66575 17.2328Z" fill="#00AAF0"/>
<path d="M16.5695 0C16.0543 0 15.5683 0.20025 15.2038 0.56475L8.21299 7.5555C7.89124 7.87725 7.65049 8.27775 7.51774 8.71425L6.79099 11.1015C6.73924 11.2725 6.78649 11.4592 6.91249 11.5875C7.00474 11.6797 7.12849 11.7292 7.25674 11.7292C7.30399 11.7292 7.35124 11.7225 7.39849 11.709L9.78574 10.9822C10.2222 10.8495 10.6228 10.6087 10.9445 10.287L17.9353 3.29625C18.2998 2.93175 18.5 2.44575 18.5 1.9305C18.5 1.41525 18.2998 0.92925 17.9353 0.56475C17.5708 0.20025 17.0847 0 16.5695 0ZM10.256 9.5985C10.0467 9.80775 9.78574 9.96525 9.50224 10.0507L7.98799 10.512L8.44924 8.99775C8.53474 8.71425 8.69224 8.45325 8.90149 8.244L14.5895 2.556L15.944 3.9105L10.256 9.5985ZM17.2467 2.60775L16.6325 3.222L15.278 1.8675L15.8923 1.25325C16.2545 0.891 16.8845 0.891 17.2467 1.25325C17.4268 1.43325 17.528 1.674 17.528 1.9305C17.528 2.187 17.429 2.42775 17.2467 2.60775Z" fill="#00AAF0"/>
</g>
<defs>
<clipPath id="clip0_1347_141">
<rect width="18" height="18" fill="white" transform="translate(0.5)"/>
</clipPath>
</defs>
</svg>
