<svg width="17" height="18" viewBox="0 0 17 18" fill="none" xmlns="http://www.w3.org/2000/svg">
<g clip-path="url(#clip0_1347_400)">
<path d="M15.3724 7.72611C15.278 7.66447 15.1803 7.60804 15.0797 7.55708V3.66325C15.0797 2.95255 14.7974 2.27096 14.2949 1.76841C13.7923 1.26587 13.1107 0.983543 12.4 0.983543H4.59999C3.88929 0.983543 3.20769 1.26587 2.70515 1.76841C2.20261 2.27096 1.92028 2.95255 1.92028 3.66325V7.55708C1.81947 7.61139 1.72175 7.67126 1.62757 7.73641C1.27739 7.98272 0.991955 8.31006 0.795622 8.69052C0.599289 9.07098 0.497877 9.49328 0.500034 9.92141V14.3367C0.500034 15.0475 0.78236 15.729 1.2849 16.2316C1.78745 16.7341 2.46904 17.0165 3.17974 17.0165H13.8203C14.531 17.0165 15.2126 16.7341 15.7151 16.2316C16.2176 15.729 16.5 15.0475 16.5 14.3367V9.9111C16.5021 9.48297 16.4007 9.06068 16.2044 8.68021C16.008 8.29975 15.7226 7.97241 15.3724 7.72611ZM4.59999 2.22033H12.4C12.7827 2.22033 13.1497 2.37235 13.4203 2.64295C13.6909 2.91355 13.8429 3.28057 13.8429 3.66325V7.23139C13.535 7.22883 13.229 7.27903 12.938 7.37981L8.9741 8.76089C8.66706 8.8677 8.33294 8.8677 8.0259 8.76089L4.06199 7.37981C3.77104 7.27903 3.46497 7.22883 3.15707 7.23139V3.66325C3.15707 3.28057 3.30909 2.91355 3.57969 2.64295C3.85029 2.37235 4.2173 2.22033 4.59999 2.22033ZM15.2632 14.3367C15.2632 14.7194 15.1112 15.0864 14.8406 15.357C14.57 15.6276 14.2029 15.7797 13.8203 15.7797H3.17974C2.79706 15.7797 2.43005 15.6276 2.15945 15.357C1.88884 15.0864 1.73682 14.7194 1.73682 14.3367V9.9111C1.73687 9.6809 1.79199 9.45405 1.89758 9.2495C2.00318 9.04495 2.15618 8.86863 2.34382 8.73527C2.53145 8.6019 2.74827 8.51537 2.97617 8.48289C3.20407 8.45042 3.43643 8.47294 3.65385 8.54857L7.61982 9.92965C8.19063 10.1276 8.81144 10.1276 9.38224 9.92965L13.3462 8.54857C13.5636 8.47294 13.7959 8.45042 14.0238 8.48289C14.2517 8.51537 14.4685 8.6019 14.6562 8.73527C14.8438 8.86863 14.9968 9.04495 15.1024 9.2495C15.208 9.45405 15.2631 9.6809 15.2632 9.9111V14.3367Z" fill="#00AAF0"/>
<path d="M6.13157 4.65269H10.8726C11.0366 4.65269 11.1939 4.58753 11.3099 4.47156C11.4258 4.35559 11.491 4.1983 11.491 4.03429C11.491 3.87028 11.4258 3.71299 11.3099 3.59702C11.1939 3.48105 11.0366 3.4159 10.8726 3.4159H6.13157C5.96757 3.4159 5.81027 3.48105 5.6943 3.59702C5.57833 3.71299 5.51318 3.87028 5.51318 4.03429C5.51318 4.1983 5.57833 4.35559 5.6943 4.47156C5.81027 4.58753 5.96757 4.65269 6.13157 4.65269Z" fill="#00AAF0"/>
<path d="M9.94295 5.73075H7.05711C6.8931 5.73075 6.73581 5.79591 6.61984 5.91188C6.50387 6.02785 6.43872 6.18514 6.43872 6.34915C6.43872 6.51316 6.50387 6.67045 6.61984 6.78642C6.73581 6.90239 6.8931 6.96754 7.05711 6.96754H9.94295C10.107 6.96754 10.2643 6.90239 10.3802 6.78642C10.4962 6.67045 10.5613 6.51316 10.5613 6.34915C10.5613 6.18514 10.4962 6.02785 10.3802 5.91188C10.2643 5.79591 10.107 5.73075 9.94295 5.73075Z" fill="#00AAF0"/>
</g>
<defs>
<clipPath id="clip0_1347_400">
<rect width="16" height="18" fill="white" transform="translate(0.5)"/>
</clipPath>
</defs>
</svg>
