<svg width="20" height="18" viewBox="0 0 20 18" fill="none" xmlns="http://www.w3.org/2000/svg">
<g clip-path="url(#clip0_1347_329)">
<path d="M15.1631 17.9942C14.3283 17.9942 13.5481 17.7548 12.888 17.341C11.7193 17.6332 10.2189 17.8025 8.42434 17.8441C6.08286 17.8986 2.94171 17.6081 1.26704 15.9177C1.17847 15.8282 1.12877 15.7076 1.12877 15.5817V13.6536C0.96067 11.0425 2.86423 8.79986 5.56317 8.43326C5.68559 8.4176 5.80903 8.44799 5.90851 8.52053C6.64059 9.05401 7.50664 9.33595 8.41325 9.33595C9.31753 9.33595 10.1811 9.05532 10.9106 8.52425C11.012 8.4506 11.1383 8.41965 11.262 8.43811C12.2196 8.58113 13.1129 8.98353 13.8562 9.60503C14.2684 9.47301 14.7077 9.40177 15.1631 9.40177C17.5321 9.40177 19.4593 11.3291 19.4593 13.698C19.4593 16.0669 17.5321 17.9942 15.1631 17.9942ZM15.1631 10.3565C13.3206 10.3565 11.8216 11.8555 11.8216 13.698C11.8216 15.5405 13.3206 17.0395 15.1631 17.0395C17.0056 17.0395 18.5046 15.5405 18.5046 13.698C18.5046 11.8555 17.0056 10.3565 15.1631 10.3565ZM2.08349 15.3772C3.24761 16.4216 5.47852 16.9565 8.40215 16.8898C9.78584 16.8575 10.9799 16.7484 11.9657 16.5646C11.2828 15.8036 10.8669 14.7985 10.8669 13.698C10.8669 12.1688 11.6701 10.8236 12.8766 10.0621C12.4012 9.74338 11.868 9.52298 11.3042 9.41371C10.4472 9.98822 9.45197 10.2907 8.41325 10.2907C7.37052 10.2907 6.37142 9.98598 5.51106 9.40756C3.40695 9.77863 1.94354 11.5534 2.08237 13.6057C2.08312 13.6165 2.08349 13.6271 2.08349 13.638V15.3772ZM15.1631 15.7029C14.8995 15.7029 14.6858 15.4892 14.6858 15.2256V14.1754H13.4446C13.181 14.1754 12.9673 13.9617 12.9673 13.698C12.9673 13.4343 13.181 13.2206 13.4446 13.2206H14.6858V11.9795C14.6858 11.7158 14.8995 11.5022 15.1631 11.5022C15.4268 11.5022 15.6405 11.7158 15.6405 11.9795V13.2206H16.6907C16.9543 13.2206 17.168 13.4343 17.168 13.698C17.168 13.9617 16.9543 14.1754 16.6907 14.1754H15.6405V15.2256C15.6405 15.4892 15.4268 15.7029 15.1631 15.7029ZM8.57557 8.44706C6.36452 8.44706 4.56575 6.6482 4.56575 4.43724C4.56575 2.22629 6.36452 0.427429 8.57557 0.427429C10.7866 0.427429 12.5854 2.22629 12.5854 4.43724C12.5854 6.6482 10.7866 8.44706 8.57557 8.44706ZM8.57557 1.38215C6.89101 1.38215 5.52047 2.75269 5.52047 4.43724C5.52047 6.1218 6.89101 7.49234 8.57557 7.49234C10.2601 7.49234 11.6307 6.1218 11.6307 4.43724C11.6307 2.75269 10.2601 1.38215 8.57557 1.38215Z" fill="#00AAF0"/>
</g>
<defs>
<clipPath id="clip0_1347_329">
<rect width="19" height="18" fill="white" transform="translate(0.5)"/>
</clipPath>
</defs>
</svg>
