<svg width="87" height="81" viewBox="0 0 87 81" fill="none" xmlns="http://www.w3.org/2000/svg">
<g clip-path="url(#clip0_1347_144)">
<path d="M63.97 61.0923L20.9554 72.169C19.4963 72.543 17.9485 72.3229 16.6514 71.5571C15.3544 70.7912 14.414 69.5422 14.0368 68.0839L1.02803 17.5668C0.654049 16.1077 0.874115 14.5598 1.63995 13.2628C2.40578 11.9657 3.65484 11.0254 5.1131 10.6481L45.1312 0.343018L55.3739 4.92836L68.0551 54.1736C68.4291 55.6327 68.209 57.1806 67.4432 58.4776C66.6774 59.7747 65.4283 60.715 63.97 61.0923Z" fill="#F2F2F2"/>
<path d="M5.52095 12.232C4.4825 12.5007 3.59301 13.1703 3.04765 14.094C2.50228 15.0176 2.34557 16.1199 2.61189 17.1589L15.6206 67.6761C15.8893 68.7146 16.5589 69.604 17.4826 70.1494C18.4062 70.6948 19.5085 70.8515 20.5476 70.5852L63.5622 59.5084C64.6006 59.2397 65.4901 58.5701 66.0355 57.6465C66.5808 56.7228 66.7375 55.6205 66.4712 54.5815L53.9865 6.09929L44.985 2.06958L5.52095 12.232Z" fill="white"/>
<path d="M55.2646 5.18888L48.6075 6.90316C48.1215 7.02831 47.6057 6.95527 47.1736 6.70012C46.7414 6.44497 46.4283 6.0286 46.3032 5.54261L45.0371 0.62578C45.0315 0.604254 45.0322 0.581601 45.0389 0.56042C45.0456 0.539239 45.0582 0.520387 45.0752 0.506026C45.0921 0.491664 45.1128 0.482374 45.1348 0.479223C45.1568 0.476071 45.1793 0.479183 45.1996 0.488204L55.2831 4.96627C55.3055 4.97624 55.3243 4.99294 55.3368 5.01407C55.3493 5.03519 55.355 5.05968 55.3529 5.08415C55.3509 5.10862 55.3413 5.13185 55.3255 5.15062C55.3096 5.16938 55.2884 5.18276 55.2646 5.18888Z" fill="#F2F2F2"/>
<path d="M51.7623 48.3296L32.1784 53.3727C32.0581 53.4037 31.9328 53.4107 31.8098 53.3932C31.6868 53.3758 31.5684 53.3343 31.4614 53.2712C31.3544 53.208 31.2609 53.1244 31.1863 53.0251C31.1116 52.9258 31.0572 52.8127 31.0262 52.6924C30.9952 52.5721 30.9883 52.4469 31.0057 52.3238C31.0231 52.2008 31.0646 52.0824 31.1277 51.9755C31.1909 51.8685 31.2745 51.775 31.3738 51.7003C31.4731 51.6256 31.5862 51.5713 31.7065 51.5403L51.2904 46.4972C51.4108 46.4662 51.536 46.4592 51.659 46.4766C51.782 46.494 51.9004 46.5355 52.0074 46.5987C52.1144 46.6619 52.2079 46.7455 52.2826 46.8448C52.3572 46.9441 52.4116 47.0571 52.4426 47.1774C52.4736 47.2978 52.4806 47.423 52.4631 47.546C52.4457 47.669 52.4042 47.7874 52.3411 47.8944C52.2779 48.0014 52.1943 48.0949 52.095 48.1696C51.9957 48.2442 51.8826 48.2986 51.7623 48.3296Z" fill="#CCCCCC"/>
<path d="M56.3379 50.4485L32.9746 56.4648C32.7316 56.5274 32.4737 56.4909 32.2577 56.3633C32.0416 56.2358 31.8851 56.0276 31.8225 55.7846C31.7599 55.5416 31.7964 55.2837 31.924 55.0676C32.0516 54.8515 32.2598 54.695 32.5028 54.6324L55.8661 48.6161C56.109 48.5538 56.3667 48.5905 56.5826 48.7181C56.7985 48.8457 56.9549 49.0537 57.0174 49.2966C57.0799 49.5394 57.0435 49.7972 56.9161 50.0132C56.7887 50.2292 56.5807 50.3858 56.3379 50.4485Z" fill="#CCCCCC"/>
<path d="M24.1854 59.4464C26.0322 59.4464 27.5293 57.9493 27.5293 56.1025C27.5293 54.2557 26.0322 52.7585 24.1854 52.7585C22.3386 52.7585 20.8414 54.2557 20.8414 56.1025C20.8414 57.9493 22.3386 59.4464 24.1854 59.4464Z" fill="#E6E6E6"/>
<path d="M49.68 39.5783L23.6706 46.2736C22.9189 46.4661 22.1216 46.3527 21.4534 45.9581C20.7853 45.5635 20.3009 44.92 20.1066 44.1688L14.656 22.9945C14.4634 22.2428 14.5769 21.4454 14.9715 20.7773C15.366 20.1091 16.0095 19.6248 16.7608 19.4305L42.7702 12.7352C43.5219 12.5427 44.3193 12.6561 44.9874 13.0507C45.6556 13.4453 46.1399 14.0888 46.3342 14.84L51.7848 36.0143C51.9774 36.766 51.8639 37.5634 51.4694 38.2315C51.0748 38.8997 50.4313 39.384 49.68 39.5783Z" fill="white"/>
<path d="M49.68 39.5783L23.6706 46.2736C22.9189 46.4661 22.1216 46.3527 21.4534 45.9581C20.7853 45.5635 20.3009 44.92 20.1066 44.1688L14.656 22.9945C14.4634 22.2428 14.5769 21.4454 14.9715 20.7773C15.366 20.1091 16.0095 19.6248 16.7608 19.4305L42.7702 12.7352C43.5219 12.5427 44.3193 12.6561 44.9874 13.0507C45.6556 13.4453 46.1399 14.0888 46.3342 14.84L51.7848 36.0143C51.9774 36.766 51.8639 37.5634 51.4694 38.2315C51.0748 38.8997 50.4313 39.384 49.68 39.5783ZM16.8466 19.7639C16.1838 19.9354 15.616 20.3627 15.2678 20.9523C14.9196 21.5418 14.8196 22.2454 14.9895 22.9086L20.4401 44.083C20.6115 44.7458 21.0389 45.3136 21.6284 45.6618C22.218 46.0099 22.9215 46.11 23.5848 45.9401L49.5942 39.2449C50.2571 39.0734 50.8249 38.6461 51.173 38.0565C51.5212 37.467 51.6213 36.7634 51.4514 36.1002L46.0007 14.9258C45.8293 14.263 45.4019 13.6952 44.8124 13.347C44.2229 12.9989 43.5193 12.8988 42.856 13.0687L16.8466 19.7639Z" fill="#E6E6E6"/>
<path d="M41.4506 19.8547L28.324 23.2337C28.2092 23.2658 28.0866 23.253 27.9809 23.1981C27.8751 23.1432 27.7942 23.0502 27.7544 22.9378C27.7359 22.8792 27.7295 22.8173 27.7357 22.7561C27.7419 22.6949 27.7604 22.6356 27.7903 22.5818C27.8201 22.528 27.8606 22.4809 27.9093 22.4432C27.958 22.4056 28.0138 22.3783 28.0734 22.363L41.4355 18.9233C41.9752 19.1968 41.8334 19.7562 41.4506 19.8547Z" fill="#F2F2F2"/>
<path d="M42.0434 22.1572L28.9168 25.5362C28.802 25.5682 28.6794 25.5555 28.5736 25.5006C28.4679 25.4457 28.3869 25.3526 28.3472 25.2403C28.3286 25.1817 28.3223 25.1198 28.3285 25.0586C28.3346 24.9974 28.3532 24.9381 28.383 24.8843C28.4129 24.8305 28.4534 24.7834 28.5021 24.7457C28.5507 24.7081 28.6066 24.6808 28.6662 24.6654L42.0283 21.2258C42.568 21.4993 42.4261 22.0587 42.0434 22.1572Z" fill="#F2F2F2"/>
<path d="M26.4165 27.5778L22.4104 28.6091C22.2796 28.6426 22.1408 28.6229 22.0245 28.5542C21.9082 28.4855 21.8239 28.3735 21.79 28.2427L20.5731 23.5152C20.5396 23.3843 20.5593 23.2455 20.628 23.1292C20.6967 23.0129 20.8087 22.9286 20.9395 22.8948L24.9456 21.8636C25.0764 21.8301 25.2152 21.8499 25.3315 21.9185C25.4478 21.9872 25.5321 22.0992 25.5659 22.2299L26.7829 26.9575C26.8164 27.0883 26.7967 27.2271 26.728 27.3434C26.6593 27.4597 26.5473 27.544 26.4165 27.5778Z" fill="#E6E6E6"/>
<path d="M43.2187 26.8816L23.1851 32.0386C23.0703 32.0706 22.9477 32.0579 22.8419 32.003C22.7362 31.9481 22.6553 31.855 22.6155 31.7427C22.597 31.6841 22.5906 31.6222 22.5968 31.561C22.6029 31.4998 22.6215 31.4405 22.6514 31.3867C22.6812 31.3329 22.7217 31.2857 22.7704 31.2481C22.8191 31.2105 22.8749 31.1832 22.9345 31.1678L43.2037 25.9502C43.7435 26.2237 43.6014 26.7831 43.2187 26.8816Z" fill="#F2F2F2"/>
<path d="M43.8116 29.1846L23.778 34.3416C23.6632 34.3736 23.5406 34.3609 23.4348 34.3059C23.3291 34.251 23.2482 34.158 23.2084 34.0457C23.1899 33.987 23.1835 33.9252 23.1897 33.864C23.1958 33.8028 23.2144 33.7435 23.2443 33.6897C23.2741 33.6359 23.3146 33.5887 23.3633 33.5511C23.412 33.5135 23.4678 33.4861 23.5274 33.4708L43.7966 28.2532C44.3364 28.5267 44.1944 29.0861 43.8116 29.1846Z" fill="#F2F2F2"/>
<path d="M44.4041 31.4864L24.3705 36.6433C24.2557 36.6754 24.1331 36.6626 24.0274 36.6077C23.9216 36.5528 23.8407 36.4598 23.8009 36.3475C23.7824 36.2888 23.776 36.227 23.7822 36.1657C23.7884 36.1045 23.8069 36.0452 23.8368 35.9914C23.8666 35.9376 23.9071 35.8905 23.9558 35.8528C24.0045 35.8152 24.0603 35.7879 24.1199 35.7726L44.3892 30.5549C44.9289 30.8284 44.7869 31.3878 44.4041 31.4864Z" fill="#F2F2F2"/>
<path d="M44.9969 33.7893L24.9633 38.9463C24.8485 38.9783 24.7259 38.9656 24.6201 38.9107C24.5144 38.8558 24.4335 38.7627 24.3937 38.6504C24.3752 38.5918 24.3688 38.5299 24.375 38.4687C24.3811 38.4075 24.3997 38.3482 24.4296 38.2944C24.4594 38.2406 24.4999 38.1934 24.5486 38.1558C24.5973 38.1182 24.6531 38.0909 24.7127 38.0755L44.9819 32.8579C45.5217 33.1314 45.3797 33.6908 44.9969 33.7893Z" fill="#F2F2F2"/>
<path d="M45.5894 36.0911L25.5558 41.2481C25.441 41.2801 25.3184 41.2674 25.2127 41.2124C25.1069 41.1575 25.026 41.0645 24.9862 40.9522C24.9677 40.8935 24.9613 40.8317 24.9675 40.7705C24.9737 40.7093 24.9922 40.65 25.0221 40.5962C25.0519 40.5424 25.0924 40.4952 25.1411 40.4576C25.1898 40.4199 25.2456 40.3926 25.3052 40.3773L45.5745 35.1597C46.1142 35.4332 45.9722 35.9926 45.5894 36.0911Z" fill="#F2F2F2"/>
<path d="M24.4321 57.2747C24.3592 57.2936 24.2823 57.2883 24.2127 57.2596L24.2084 57.2578L23.2975 56.8716C23.2552 56.8537 23.2168 56.8276 23.1846 56.7949C23.1524 56.7622 23.127 56.7234 23.1098 56.6809C23.0926 56.6383 23.084 56.5928 23.0844 56.5469C23.0848 56.501 23.0942 56.4556 23.1122 56.4133C23.1302 56.3711 23.1563 56.3328 23.1891 56.3006C23.2218 56.2685 23.2606 56.2431 23.3032 56.226C23.3458 56.2089 23.3914 56.2003 23.4373 56.2008C23.4832 56.2012 23.5285 56.2108 23.5708 56.2288L24.161 56.4799L24.9345 54.6603C24.9525 54.6181 24.9786 54.5798 25.0113 54.5477C25.044 54.5156 25.0827 54.4902 25.1252 54.4731C25.1677 54.4559 25.2132 54.4473 25.2591 54.4478C25.3049 54.4482 25.3502 54.4577 25.3924 54.4756C25.4776 54.5119 25.5451 54.5805 25.5797 54.6664C25.6143 54.7523 25.6135 54.8483 25.5773 54.9336L24.6673 57.073C24.6462 57.1224 24.614 57.1662 24.5733 57.2011C24.5325 57.236 24.4841 57.2615 24.4321 57.2747Z" fill="white"/>
<path d="M80.4688 80.3431H36.0509C34.5446 80.3414 33.1005 79.7423 32.0354 78.6772C30.9703 77.6121 30.3712 76.168 30.3695 74.6618V22.4965C30.3712 20.9903 30.9703 19.5462 32.0354 18.4811C33.1005 17.416 34.5446 16.8169 36.0509 16.8152H77.3745L86.1501 23.81V74.6618C86.1484 76.168 85.5493 77.6121 84.4842 78.6772C83.4191 79.7423 81.975 80.3414 80.4688 80.3431Z" fill="#E6E6E6"/>
<path d="M36.0508 18.4507C34.9782 18.4519 33.9498 18.8785 33.1913 19.637C32.4329 20.3955 32.0062 21.4239 32.005 22.4965V74.6617C32.0062 75.7344 32.4329 76.7627 33.1913 77.5212C33.9498 78.2797 34.9782 78.7063 36.0508 78.7075H80.4687C81.5414 78.7063 82.5697 78.2797 83.3282 77.5212C84.0867 76.7627 84.5133 75.7344 84.5145 74.6617V24.5978L76.8023 18.4507H36.0508Z" fill="white"/>
<path d="M71.8295 33.6188H51.6066C51.3557 33.6188 51.1151 33.5191 50.9376 33.3417C50.7602 33.1642 50.6605 32.9236 50.6605 32.6727C50.6605 32.4217 50.7602 32.1811 50.9376 32.0037C51.1151 31.8262 51.3557 31.7266 51.6066 31.7266H71.8295C72.0804 31.7266 72.321 31.8262 72.4985 32.0037C72.6759 32.1811 72.7756 32.4217 72.7756 32.6727C72.7756 32.9236 72.6759 33.1642 72.4985 33.3417C72.321 33.5191 72.0804 33.6188 71.8295 33.6188Z" fill="#00AAF0"/>
<path d="M75.7321 36.8119H51.6066C51.3559 36.8115 51.1155 36.7117 50.9384 36.5343C50.7612 36.3569 50.6617 36.1165 50.6617 35.8658C50.6617 35.6151 50.7612 35.3746 50.9384 35.1972C51.1155 35.0198 51.3559 34.92 51.6066 34.9197H75.7321C75.8564 34.9195 75.9796 34.9439 76.0945 34.9913C76.2095 35.0388 76.3139 35.1085 76.4019 35.1963C76.4899 35.2842 76.5597 35.3886 76.6073 35.5034C76.6549 35.6183 76.6794 35.7414 76.6794 35.8658C76.6794 35.9901 76.6549 36.1133 76.6073 36.2281C76.5597 36.343 76.4899 36.4473 76.4019 36.5352C76.3139 36.6231 76.2095 36.6928 76.0945 36.7402C75.9796 36.7877 75.8564 36.812 75.7321 36.8119Z" fill="#00AAF0"/>
<path d="M71.8296 46.0359H51.6074C51.3565 46.0359 51.1159 46.1356 50.9385 46.313C50.761 46.4904 50.6614 46.731 50.6614 46.9819C50.6614 47.2328 50.761 47.4735 50.9385 47.6509C51.1159 47.8283 51.3565 47.928 51.6074 47.928H71.8296C72.0805 47.928 72.3211 47.8283 72.4986 47.6509C72.676 47.4735 72.7756 47.2328 72.7756 46.9819C72.7756 46.731 72.676 46.4904 72.4986 46.313C72.3211 46.1356 72.0805 46.0359 71.8296 46.0359Z" fill="#CCCCCC"/>
<path d="M75.7325 49.2295H51.6074C51.3565 49.2295 51.1159 49.3292 50.9385 49.5066C50.761 49.684 50.6614 49.9246 50.6614 50.1755C50.6614 50.4264 50.761 50.6671 50.9385 50.8445C51.1159 51.0219 51.3565 51.1216 51.6074 51.1216H75.7325C75.9834 51.1216 76.224 51.0219 76.4015 50.8445C76.5789 50.6671 76.6785 50.4264 76.6785 50.1755C76.6785 49.9246 76.5789 49.684 76.4015 49.5066C76.224 49.3292 75.9834 49.2295 75.7325 49.2295Z" fill="#CCCCCC"/>
<path d="M71.8295 62.2384H51.6066C51.3557 62.2384 51.1151 62.1387 50.9376 61.9613C50.7602 61.7839 50.6605 61.5432 50.6605 61.2923C50.6605 61.0414 50.7602 60.8007 50.9376 60.6233C51.1151 60.4459 51.3557 60.3462 51.6066 60.3462H71.8295C72.0804 60.3462 72.321 60.4459 72.4985 60.6233C72.6759 60.8007 72.7756 61.0414 72.7756 61.2923C72.7756 61.5432 72.6759 61.7839 72.4985 61.9613C72.321 62.1387 72.0804 62.2384 71.8295 62.2384Z" fill="#CCCCCC"/>
<path d="M75.7321 65.4315H51.6066C51.3559 65.4312 51.1155 65.3313 50.9384 65.154C50.7612 64.9766 50.6617 64.7361 50.6617 64.4854C50.6617 64.2347 50.7612 63.9943 50.9384 63.8169C51.1155 63.6395 51.3559 63.5396 51.6066 63.5393H75.7321C75.8564 63.5391 75.9796 63.5635 76.0945 63.611C76.2095 63.6584 76.3139 63.7281 76.4019 63.816C76.4899 63.9038 76.5597 64.0082 76.6073 64.1231C76.6549 64.2379 76.6794 64.3611 76.6794 64.4854C76.6794 64.6098 76.6549 64.7329 76.6073 64.8478C76.5597 64.9626 76.4899 65.067 76.4019 65.1549C76.3139 65.2427 76.2095 65.3124 76.0945 65.3599C75.9796 65.4073 75.8564 65.4317 75.7321 65.4315Z" fill="#CCCCCC"/>
<path d="M43.1852 37.6132C45.032 37.6132 46.5292 36.116 46.5292 34.2692C46.5292 32.4224 45.032 30.9253 43.1852 30.9253C41.3384 30.9253 39.8413 32.4224 39.8413 34.2692C39.8413 36.116 41.3384 37.6132 43.1852 37.6132Z" fill="#00AAF0"/>
<path d="M42.8539 35.5449C42.7786 35.5451 42.7054 35.5207 42.6452 35.4756L42.6415 35.4728L41.8556 34.8716C41.8191 34.8438 41.7885 34.809 41.7654 34.7692C41.7424 34.7295 41.7274 34.6856 41.7213 34.6401C41.7153 34.5946 41.7182 34.5483 41.7301 34.5039C41.7419 34.4596 41.7624 34.418 41.7903 34.3815C41.8183 34.3451 41.8531 34.3145 41.8929 34.2915C41.9327 34.2686 41.9766 34.2537 42.0221 34.2477C42.0677 34.2418 42.1139 34.2448 42.1583 34.2568C42.2026 34.2687 42.2442 34.2893 42.2806 34.3173L42.7896 34.7077L43.9924 33.1384C44.0203 33.102 44.0551 33.0715 44.0948 33.0485C44.1345 33.0256 44.1783 33.0107 44.2238 33.0047C44.2692 32.9987 44.3154 33.0017 44.3597 33.0136C44.404 33.0254 44.4455 33.0459 44.4819 33.0738C44.5553 33.1302 44.6036 33.2135 44.6157 33.3052C44.6278 33.397 44.603 33.4899 44.5468 33.5634L43.132 35.4083C43.0992 35.4508 43.0571 35.4852 43.009 35.5089C42.9608 35.5325 42.9075 35.5451 42.8539 35.5449Z" fill="white"/>
<path d="M46.8729 48.5788C46.8731 49.018 46.7867 49.4529 46.6188 49.8588C46.4508 50.2646 46.2046 50.6333 45.8941 50.944C45.5837 51.2546 45.215 51.501 44.8093 51.6692C44.4036 51.8373 43.9687 51.9239 43.5295 51.924C43.5008 51.9245 43.472 51.9234 43.4434 51.9205C42.7859 51.9036 42.148 51.6932 41.6095 51.3156C41.071 50.938 40.6558 50.41 40.4158 49.7976C40.1759 49.1852 40.1219 48.5156 40.2606 47.8727C40.3993 47.2298 40.7246 46.642 41.1956 46.183C41.6667 45.724 42.2627 45.4141 42.909 45.2921C43.5553 45.1702 44.2232 45.2415 44.8292 45.4972C45.4352 45.7529 45.9523 46.1817 46.3158 46.7298C46.6793 47.2779 46.8731 47.9211 46.8729 48.5788Z" fill="#CCCCCC"/>
<path d="M43.1852 66.2328C45.032 66.2328 46.5292 64.7357 46.5292 62.8889C46.5292 61.0421 45.032 59.5449 43.1852 59.5449C41.3384 59.5449 39.8413 61.0421 39.8413 62.8889C39.8413 64.7357 41.3384 66.2328 43.1852 66.2328Z" fill="#CCCCCC"/>
<path d="M85.9792 24.035H79.105C78.6031 24.035 78.1218 23.8356 77.767 23.4808C77.4121 23.1259 77.2128 22.6446 77.2128 22.1428V17.0655C77.2128 17.0433 77.219 17.0215 77.2308 17.0027C77.2427 16.9839 77.2595 16.9687 77.2795 16.9591C77.2996 16.9494 77.3219 16.9455 77.344 16.948C77.3661 16.9504 77.387 16.959 77.4045 16.9728L86.0527 23.824C86.0719 23.8393 86.0859 23.8601 86.0928 23.8837C86.0997 23.9073 86.099 23.9324 86.0909 23.9556C86.0829 23.9788 86.0678 23.9989 86.0478 24.0131C86.0277 24.0273 86.0038 24.035 85.9792 24.035Z" fill="#CCCCCC"/>
</g>
<defs>
<clipPath id="clip0_1347_144">
<rect width="86" height="81" fill="white" transform="translate(0.5)"/>
</clipPath>
</defs>
</svg>
