<svg width="23" height="22" viewBox="0 0 23 22" fill="none" xmlns="http://www.w3.org/2000/svg">
<path d="M2.42983 0.526825C2.17968 0.526975 1.93983 0.626477 1.76302 0.803442C1.58621 0.980408 1.48693 1.22033 1.487 1.47049V18.1405C1.48717 18.3905 1.58657 18.6301 1.76335 18.8069C1.94013 18.9837 2.17984 19.083 2.42983 19.0832H11.4122V9.55562C11.4122 9.33407 11.4558 9.11468 11.5406 8.90998C11.6254 8.70529 11.7497 8.51933 11.9063 8.36266C12.063 8.20599 12.249 8.0817 12.4537 7.99692C12.6584 7.91214 12.8778 7.86853 13.0993 7.86855H16.4875V1.47049C16.4876 1.22036 16.3883 0.980458 16.2116 0.803497C16.0348 0.626537 15.795 0.527023 15.5449 0.526825H5.95506H2.42983ZM5.48329 0.997726H12.4885V1.12292C12.4885 1.32209 12.4493 1.5193 12.3731 1.70331C12.2969 1.88732 12.1852 2.05452 12.0443 2.19534C11.9035 2.33617 11.7363 2.44787 11.5523 2.52408C11.3682 2.60028 11.171 2.6395 10.9719 2.63948H6.99979C6.80063 2.63948 6.60343 2.60024 6.41943 2.52402C6.23544 2.44781 6.06826 2.33612 5.92744 2.19529C5.78661 2.05446 5.67491 1.88731 5.5987 1.70331C5.5225 1.51931 5.48328 1.32208 5.48329 1.12292V0.997726ZM6.69771 5.54366H7.52071V8.31531H8.50158V6.3872H9.32566V8.31531H10.1867V9.13848H4.03154V8.31531H4.89366V6.95357H5.71684V8.31531H6.69771V5.54366ZM6.60801 11.0342C6.97046 11.0243 7.33121 11.0872 7.66892 11.2192C8.00662 11.3512 8.3144 11.5496 8.57405 11.8027C8.83369 12.0558 9.03991 12.3584 9.18051 12.6926C9.32111 13.0268 9.39322 13.3858 9.39257 13.7484C9.39451 14.1055 9.32583 14.4596 9.19048 14.7902C9.05513 15.1207 8.85579 15.4212 8.60391 15.6745C8.35202 15.9277 8.05257 16.1287 7.72276 16.2658C7.39295 16.403 7.03929 16.4736 6.6821 16.4736C6.32491 16.4736 5.97125 16.403 5.64144 16.2658C5.31163 16.1287 5.01217 15.9277 4.76029 15.6745C4.50841 15.4212 4.30906 15.1207 4.17372 14.7902C4.03837 14.4596 3.96969 14.1055 3.97163 13.7484C3.97037 13.0415 4.24531 12.3622 4.73781 11.8551C5.23031 11.3481 5.90142 11.0535 6.60801 11.0342Z" fill="#00AAF0"/>
<path d="M13.0992 8.37003C12.9435 8.37002 12.7894 8.40067 12.6455 8.46025C12.5017 8.51983 12.371 8.60717 12.2609 8.71727C12.1508 8.82736 12.0635 8.95804 12.0039 9.10189C11.9443 9.24574 11.9137 9.39991 11.9137 9.5556V20.2243C11.9137 20.38 11.9443 20.5342 12.0039 20.678C12.0635 20.8219 12.1508 20.9526 12.2609 21.0627C12.371 21.1728 12.5017 21.2601 12.6455 21.3197C12.7894 21.3793 12.9435 21.4099 13.0992 21.4099H20.5458C20.7015 21.4099 20.8556 21.3793 20.9995 21.3197C21.1433 21.2601 21.274 21.1728 21.3841 21.0627C21.4942 20.9526 21.5815 20.8219 21.6411 20.678C21.7007 20.5342 21.7313 20.38 21.7313 20.2243V9.5556C21.7313 9.39991 21.7007 9.24574 21.6411 9.10189C21.5815 8.95804 21.4942 8.82736 21.3841 8.71727C21.274 8.60717 21.1433 8.51983 20.9995 8.46025C20.8556 8.40067 20.7015 8.37002 20.5458 8.37003H13.0992ZM13.51 9.76511H20.1138C20.1587 9.76509 20.2032 9.77393 20.2447 9.79111C20.2862 9.80829 20.324 9.83352 20.3557 9.86529C20.3875 9.89705 20.4127 9.93474 20.4299 9.97625C20.4471 10.0178 20.4559 10.0623 20.4559 10.1072V12.2587C20.4559 12.3037 20.4471 12.3481 20.4299 12.3896C20.4127 12.4311 20.3875 12.4689 20.3557 12.5006C20.324 12.5324 20.2862 12.5576 20.2447 12.5748C20.2032 12.5919 20.1587 12.6008 20.1138 12.6008H13.51C13.4651 12.6008 13.4206 12.5919 13.3791 12.5748C13.3376 12.5576 13.2999 12.5324 13.2681 12.5006C13.2363 12.4689 13.2111 12.4311 13.1939 12.3896C13.1768 12.3481 13.1679 12.3037 13.1679 12.2587V10.1072C13.1679 10.0623 13.1768 10.0178 13.194 9.97625C13.2111 9.93474 13.2363 9.89705 13.2681 9.86529C13.2999 9.83352 13.3376 9.80829 13.3791 9.79111C13.4206 9.77393 13.4651 9.76509 13.51 9.76511ZM13.528 13.9051H14.2184C14.2963 13.905 14.3734 13.9202 14.4453 13.95C14.5173 13.9797 14.5827 14.0233 14.6378 14.0783C14.6929 14.1333 14.7367 14.1986 14.7665 14.2705C14.7964 14.3425 14.8118 14.4195 14.8118 14.4974V14.7347C14.8119 14.8126 14.7966 14.8898 14.7668 14.9618C14.737 15.0339 14.6933 15.0993 14.6382 15.1544C14.583 15.2095 14.5176 15.2532 14.4456 15.283C14.3735 15.3128 14.2963 15.328 14.2184 15.328H13.528C13.4501 15.3279 13.373 15.3126 13.3011 15.2827C13.2292 15.2529 13.1638 15.2092 13.1088 15.1541C13.0538 15.099 13.0101 15.0336 12.9804 14.9616C12.9507 14.8897 12.9354 14.8126 12.9355 14.7347V14.4974C12.9356 14.3403 12.998 14.1897 13.1091 14.0786C13.2202 13.9675 13.3709 13.9051 13.528 13.9051ZM16.4831 13.9051H17.1737C17.2516 13.905 17.3287 13.9203 17.4006 13.95C17.4726 13.9798 17.5379 14.0233 17.593 14.0783C17.6481 14.1333 17.6918 14.1987 17.7217 14.2706C17.7515 14.3425 17.7669 14.4195 17.767 14.4974V14.7347C17.767 14.8126 17.7517 14.8898 17.7219 14.9618C17.6922 15.0338 17.6485 15.0993 17.5934 15.1544C17.5383 15.2095 17.4728 15.2532 17.4008 15.283C17.3288 15.3128 17.2517 15.328 17.1737 15.328H16.4831C16.4053 15.3279 16.3282 15.3125 16.2563 15.2827C16.1844 15.2528 16.1191 15.2091 16.0641 15.154C16.0091 15.0989 15.9654 15.0336 15.9357 14.9616C15.906 14.8897 15.8907 14.8126 15.8908 14.7347V14.4974C15.8909 14.3403 15.9533 14.1897 16.0644 14.0787C16.1754 13.9676 16.326 13.9052 16.4831 13.9051ZM19.4384 13.9051H20.1291C20.2861 13.9052 20.4367 13.9676 20.5478 14.0787C20.6588 14.1897 20.7213 14.3403 20.7214 14.4974V14.7347C20.7215 14.8126 20.7062 14.8897 20.6765 14.9616C20.6467 15.0336 20.6031 15.0989 20.5481 15.154C20.4931 15.2091 20.4278 15.2528 20.3559 15.2827C20.284 15.3125 20.2069 15.3279 20.1291 15.328H19.4384C19.3605 15.328 19.2833 15.3128 19.2113 15.283C19.1393 15.2532 19.0738 15.2095 19.0187 15.1544C18.9636 15.0993 18.9199 15.0339 18.8901 14.9618C18.8603 14.8898 18.845 14.8126 18.845 14.7347V14.4974C18.8451 14.4195 18.8605 14.3425 18.8903 14.2705C18.9202 14.1986 18.9639 14.1333 19.019 14.0783C19.0741 14.0233 19.1395 13.9797 19.2115 13.95C19.2835 13.9202 19.3606 13.905 19.4384 13.9051ZM13.528 16.3235H14.2184C14.2963 16.3234 14.3735 16.3387 14.4456 16.3685C14.5176 16.3983 14.583 16.442 14.6382 16.4971C14.6933 16.5522 14.737 16.6176 14.7668 16.6896C14.7966 16.7617 14.8119 16.8389 14.8118 16.9168V17.1541C14.8118 17.232 14.7964 17.3091 14.7665 17.381C14.7367 17.4529 14.6929 17.5182 14.6378 17.5733C14.5827 17.6283 14.5173 17.6718 14.4454 17.7016C14.3734 17.7313 14.2963 17.7465 14.2184 17.7465H13.528C13.3709 17.7464 13.2202 17.684 13.1091 17.5729C12.998 17.4619 12.9356 17.3112 12.9355 17.1541V16.9168C12.9354 16.839 12.9507 16.7618 12.9804 16.6899C13.0101 16.6179 13.0538 16.5525 13.1088 16.4974C13.1638 16.4423 13.2292 16.3986 13.3011 16.3688C13.373 16.339 13.4501 16.3235 13.528 16.3235ZM16.4831 16.3235H17.1737C17.2517 16.3235 17.3288 16.3388 17.4008 16.3686C17.4728 16.3984 17.5383 16.4421 17.5934 16.4972C17.6485 16.5523 17.6922 16.6177 17.7219 16.6897C17.7517 16.7617 17.767 16.8389 17.767 16.9168V17.1541C17.7669 17.232 17.7515 17.309 17.7217 17.3809C17.6918 17.4528 17.6481 17.5182 17.593 17.5732C17.538 17.6282 17.4726 17.6718 17.4006 17.7015C17.3287 17.7313 17.2516 17.7465 17.1737 17.7465H16.4831C16.326 17.7464 16.1754 17.6839 16.0644 17.5729C15.9533 17.4618 15.8909 17.3112 15.8908 17.1541V16.9168C15.8907 16.839 15.906 16.7619 15.9357 16.6899C15.9654 16.618 16.0091 16.5526 16.0641 16.4975C16.1191 16.4424 16.1844 16.3987 16.2563 16.3688C16.3282 16.339 16.4053 16.3236 16.4831 16.3235ZM19.4384 16.3235H20.1291C20.2069 16.3236 20.284 16.339 20.3559 16.3688C20.4278 16.3987 20.4931 16.4424 20.5481 16.4975C20.6031 16.5526 20.6467 16.618 20.6765 16.6899C20.7062 16.7619 20.7215 16.839 20.7214 16.9168V19.5726C20.7213 19.7297 20.6588 19.8803 20.5478 19.9914C20.4367 20.1024 20.2861 20.1649 20.1291 20.165H19.4384C19.3606 20.1651 19.2835 20.1498 19.2115 20.1201C19.1395 20.0903 19.0741 20.0468 19.019 19.9918C18.9639 19.9367 18.9202 19.8714 18.8903 19.7995C18.8605 19.7276 18.8451 19.6505 18.845 19.5726V16.9168C18.845 16.8389 18.8603 16.7617 18.8901 16.6896C18.9199 16.6176 18.9636 16.5522 19.0187 16.4971C19.0738 16.442 19.1393 16.3983 19.2113 16.3685C19.2833 16.3387 19.3605 16.3234 19.4384 16.3235ZM13.528 18.743H14.2184C14.2963 18.7429 14.3734 18.7582 14.4453 18.7879C14.5173 18.8176 14.5827 18.8612 14.6378 18.9162C14.6929 18.9712 14.7367 19.0366 14.7665 19.1085C14.7964 19.1804 14.8118 19.2575 14.8118 19.3353V19.5726C14.8118 19.6505 14.7964 19.7276 14.7665 19.7995C14.7367 19.8714 14.6929 19.9367 14.6378 19.9918C14.5827 20.0468 14.5173 20.0903 14.4453 20.1201C14.3734 20.1498 14.2963 20.1651 14.2184 20.165H13.528C13.3709 20.1649 13.2202 20.1025 13.1091 19.9914C12.998 19.8804 12.9356 19.7297 12.9355 19.5726V19.3353C12.9356 19.1782 12.998 19.0276 13.1091 18.9165C13.2202 18.8055 13.3709 18.7431 13.528 18.743ZM16.4831 18.743H17.1737C17.2516 18.7429 17.3287 18.7582 17.4006 18.788C17.4726 18.8177 17.5379 18.8613 17.593 18.9163C17.6481 18.9713 17.6918 19.0366 17.7217 19.1085C17.7515 19.1804 17.7669 19.2575 17.767 19.3353V19.5726C17.7669 19.6505 17.7515 19.7275 17.7217 19.7994C17.6918 19.8713 17.6481 19.9367 17.593 19.9917C17.5379 20.0467 17.4726 20.0903 17.4006 20.12C17.3287 20.1498 17.2516 20.165 17.1737 20.165H16.4831C16.326 20.1649 16.1754 20.1024 16.0644 19.9914C15.9533 19.8803 15.8909 19.7297 15.8908 19.5726V19.3353C15.8909 19.1783 15.9533 19.0277 16.0644 18.9166C16.1754 18.8055 16.326 18.7431 16.4831 18.743Z" fill="#00AAF0"/>
<path d="M6.68305 11.9277C6.32302 11.9277 5.97107 12.0344 5.6717 12.2344C5.37234 12.4344 5.139 12.7187 5.00121 13.0513C4.86342 13.3839 4.82735 13.7499 4.89757 14.103C4.9678 14.4561 5.14115 14.7805 5.39573 15.0351C5.6503 15.2897 5.97465 15.4631 6.32776 15.5333C6.68087 15.6036 7.04688 15.5675 7.3795 15.4297C7.71213 15.292 7.99643 15.0587 8.19646 14.7593C8.39648 14.46 8.50325 14.108 8.50325 13.748H6.68305V11.9277Z" fill="#00AAF0"/>
</svg>
