<svg width="23" height="22" viewBox="0 0 23 22" fill="none" xmlns="http://www.w3.org/2000/svg">
<g clip-path="url(#clip0_1347_335)">
<path d="M20.9527 9.54688C20.6275 9.54731 20.3124 9.65934 20.0599 9.86424C19.8074 10.0691 19.633 10.3545 19.5656 10.6726H19.0182C18.9475 8.98423 18.2743 7.37701 17.1207 6.14217L17.5098 5.75312C17.8021 5.95273 18.1585 6.03569 18.5088 5.98566C18.8592 5.93562 19.1782 5.75623 19.4029 5.48279C19.6276 5.20936 19.7418 4.8617 19.723 4.50827C19.7042 4.15484 19.5538 3.82125 19.3013 3.5732C19.0489 3.32514 18.7127 3.18058 18.359 3.168C18.0053 3.15541 17.6597 3.2757 17.3902 3.50518C17.1208 3.73467 16.947 4.05672 16.9031 4.40792C16.8593 4.75911 16.9485 5.11401 17.1532 5.40273L16.7675 5.78845C15.4979 4.59909 13.8345 3.91955 12.0953 3.87982V3.34746C12.4469 3.30577 12.7702 3.13395 13.0015 2.86583C13.2328 2.59771 13.3553 2.25273 13.345 1.89879C13.3346 1.54485 13.1921 1.2076 12.9456 0.95345C12.6991 0.699296 12.3663 0.546648 12.0128 0.525558C11.6594 0.504469 11.3108 0.616465 11.0358 0.839499C10.7608 1.06253 10.5792 1.38044 10.5269 1.73064C10.4745 2.08084 10.5551 2.43795 10.7529 2.73167C10.9507 3.02538 11.2512 3.23443 11.5954 3.31764V3.88578C9.92305 3.9634 8.33252 4.63199 7.10698 5.77253L6.71776 5.38336C6.91796 5.09105 7.00146 4.73438 6.95182 4.38358C6.90218 4.03278 6.72299 3.71328 6.44954 3.48799C6.1761 3.26271 5.82821 3.14797 5.4744 3.16638C5.12058 3.18478 4.78648 3.33499 4.53788 3.58743C4.28928 3.83986 4.14421 4.17623 4.13123 4.53029C4.11825 4.88434 4.2383 5.23043 4.46775 5.50039C4.69719 5.77035 5.0194 5.94462 5.37092 5.98889C5.72244 6.03315 6.07779 5.94419 6.367 5.73954L6.75255 6.12509C5.57956 7.37245 4.89912 9.00313 4.83759 10.7143H4.29948C4.23702 10.3656 4.0463 10.053 3.76486 9.838C3.48342 9.62296 3.13167 9.52109 2.77888 9.55245C2.42609 9.5838 2.09782 9.74611 1.85871 10.0074C1.61961 10.2687 1.487 10.61 1.487 10.9642C1.487 11.3184 1.61961 11.6598 1.85871 11.9211C2.09782 12.1824 2.42609 12.3447 2.77888 12.376C3.13167 12.4074 3.48342 12.3055 3.76486 12.0905C4.0463 11.8754 4.23702 11.5628 4.29948 11.2142H4.83688C4.89417 12.9418 5.58234 14.5886 6.77134 15.8434L6.40091 16.2138C6.1184 16.0012 5.76655 15.9021 5.41463 15.936C5.06271 15.9699 4.73623 16.1343 4.49945 16.3968C4.26266 16.6594 4.13274 17.001 4.13526 17.3546C4.13778 17.7081 4.27256 18.0479 4.51306 18.307C4.75356 18.5662 5.08235 18.7259 5.43472 18.7547C5.78708 18.7836 6.13748 18.6795 6.41694 18.4629C6.69639 18.2464 6.88465 17.933 6.94465 17.5846C7.00465 17.2362 6.93205 16.8779 6.74113 16.5804L7.12718 16.1943C8.36073 17.3334 9.95944 17.9961 11.6371 18.0639V18.6013C11.2904 18.6742 10.9836 18.8741 10.777 19.1619C10.5704 19.4496 10.479 19.8043 10.5209 20.1561C10.5627 20.5078 10.7347 20.8311 11.0031 21.0624C11.2714 21.2936 11.6166 21.4161 11.9707 21.4055C12.3247 21.395 12.662 21.2523 12.9161 21.0055C13.1702 20.7587 13.3227 20.4257 13.3436 20.0721C13.3645 19.7185 13.2522 19.3699 13.0288 19.0949C12.8055 18.8199 12.4873 18.6385 12.137 18.5865V18.067C13.8807 18.0169 15.5444 17.324 16.8082 16.1216L17.1781 16.4914C16.9646 16.7742 16.8647 17.1267 16.8981 17.4794C16.9314 17.8322 17.0957 18.1596 17.3584 18.3973C17.6212 18.635 17.9634 18.7658 18.3178 18.7637C18.6721 18.7617 19.0128 18.6271 19.2728 18.3864C19.5329 18.1458 19.6934 17.8164 19.7227 17.4633C19.7521 17.1102 19.6482 16.7589 19.4315 16.4786C19.2148 16.1983 18.901 16.0093 18.5519 15.9487C18.2027 15.8882 17.8436 15.9606 17.5452 16.1516L17.1586 15.765C18.3136 14.5093 18.9755 12.8781 19.0221 11.1725H19.5508C19.5907 11.441 19.7068 11.6924 19.8854 11.8968C20.064 12.1012 20.2975 12.25 20.5582 12.3256C20.8189 12.4011 21.0958 12.4002 21.356 12.323C21.6162 12.2458 21.8488 12.0954 22.0261 11.8899C22.2033 11.6843 22.3178 11.4322 22.356 11.1635C22.3942 10.8947 22.3543 10.6207 22.2413 10.3739C22.1282 10.1271 21.9467 9.91803 21.7183 9.77142C21.4899 9.62481 21.2241 9.54688 20.9527 9.54688ZM11.9287 16.1239C10.9101 16.1239 9.91446 15.8219 9.06757 15.256C8.22069 14.6901 7.56062 13.8858 7.17084 12.9448C6.78106 12.0038 6.67908 10.9683 6.87779 9.96938C7.07649 8.97041 7.56697 8.0528 8.28719 7.33258C9.0074 6.61237 9.92501 6.12189 10.924 5.92318C11.923 5.72448 12.9584 5.82646 13.8994 6.21624C14.8404 6.60602 15.6447 7.26608 16.2106 8.11297C16.7765 8.95986 17.0785 9.95552 17.0785 10.9741C17.077 12.3394 16.5339 13.6484 15.5684 14.6138C14.603 15.5793 13.294 16.1223 11.9287 16.1239Z" fill="#00AAF0"/>
<path d="M11.9287 6.32416C11.0091 6.32416 10.11 6.59687 9.34538 7.10781C8.5807 7.61875 7.98471 8.34497 7.63277 9.19463C7.28082 10.0443 7.18874 10.9792 7.36816 11.8812C7.54758 12.7832 7.99044 13.6118 8.64074 14.2621C9.29105 14.9124 10.1196 15.3552 11.0216 15.5347C11.9236 15.7141 12.8585 15.622 13.7082 15.27C14.5579 14.9181 15.2841 14.3221 15.795 13.5574C16.306 12.7928 16.5787 11.8937 16.5787 10.9741C16.5773 9.74127 16.0869 8.55935 15.2152 7.68762C14.3435 6.81589 13.1615 6.32555 11.9287 6.32416ZM11.9287 10.5836C12.2811 10.5836 12.6204 10.7167 12.8786 10.9564C13.1369 11.196 13.2951 11.5244 13.3214 11.8757C13.3478 12.2271 13.2404 12.5754 13.0207 12.8508C12.8011 13.1263 12.4854 13.3086 12.137 13.3612V13.8387C12.137 13.905 12.1107 13.9686 12.0638 14.0154C12.0169 14.0623 11.9534 14.0886 11.8871 14.0886C11.8208 14.0886 11.7572 14.0623 11.7103 14.0154C11.6635 13.9686 11.6371 13.905 11.6371 13.8387V13.3459C11.3246 13.2787 11.0445 13.1066 10.8435 12.8581C10.6425 12.6096 10.5326 12.2998 10.5321 11.9801C10.5321 11.9138 10.5585 11.8503 10.6053 11.8034C10.6522 11.7565 10.7158 11.7302 10.7821 11.7302C10.8484 11.7302 10.912 11.7565 10.9588 11.8034C11.0057 11.8503 11.032 11.9138 11.032 11.9801C11.032 12.1575 11.0846 12.3309 11.1831 12.4783C11.2817 12.6258 11.4217 12.7407 11.5856 12.8086C11.7494 12.8765 11.9297 12.8942 12.1037 12.8596C12.2776 12.8251 12.4374 12.7397 12.5628 12.6142C12.6882 12.4888 12.7736 12.3291 12.8082 12.1551C12.8428 11.9812 12.8251 11.8009 12.7572 11.637C12.6893 11.4732 12.5744 11.3331 12.4269 11.2346C12.2795 11.1361 12.1061 11.0835 11.9287 11.0835C11.5837 11.0835 11.2509 10.9558 10.9945 10.725C10.7381 10.4942 10.5761 10.1766 10.5399 9.83353C10.5037 9.49043 10.5957 9.14607 10.7983 8.86682C11.0009 8.58756 11.2997 8.39318 11.6371 8.32114V7.7982C11.6371 7.73191 11.6635 7.66834 11.7103 7.62146C11.7572 7.57459 11.8208 7.54825 11.8871 7.54825C11.9534 7.54825 12.0169 7.57459 12.0638 7.62146C12.1107 7.66834 12.137 7.73191 12.137 7.7982V8.30585C12.4674 8.35614 12.7689 8.52305 12.9869 8.77637C13.2048 9.02969 13.3249 9.35268 13.3253 9.68688C13.3253 9.75317 13.299 9.81674 13.2521 9.86362C13.2053 9.91049 13.1417 9.93683 13.0754 9.93683C13.0091 9.93683 12.9455 9.91049 12.8986 9.86362C12.8518 9.81674 12.8254 9.75317 12.8254 9.68688C12.8254 9.50953 12.7728 9.33616 12.6743 9.1887C12.5758 9.04124 12.4357 8.9263 12.2719 8.85843C12.108 8.79056 11.9277 8.77281 11.7538 8.80741C11.5799 8.84201 11.4201 8.92741 11.2947 9.05281C11.1693 9.17822 11.0839 9.338 11.0493 9.51194C11.0147 9.68588 11.0324 9.86618 11.1003 10.03C11.1682 10.1939 11.2831 10.3339 11.4306 10.4324C11.578 10.531 11.7514 10.5836 11.9287 10.5836Z" fill="#00AAF0"/>
</g>
<defs>
<clipPath id="clip0_1347_335">
<rect width="22" height="22" fill="white" transform="translate(0.5)"/>
</clipPath>
</defs>
</svg>
