<svg width="22" height="20" viewBox="0 0 22 20" fill="none" xmlns="http://www.w3.org/2000/svg">
<g clip-path="url(#clip0_1347_338)">
<path fill-rule="evenodd" clip-rule="evenodd" d="M3.90001 16C4.20934 14.4791 5.55511 13.3333 7.16667 13.3333C8.77822 13.3333 10.124 14.4791 10.4333 16H20.7222C21.0902 16 21.3889 16.2987 21.3889 16.6667C21.3889 17.0347 21.0902 17.3333 20.7222 17.3333H10.4333C10.124 18.8542 8.77822 20 7.16667 20C5.55511 20 4.20934 18.8542 3.90001 17.3333H1.16667C0.798667 17.3333 0.5 17.0347 0.5 16.6667C0.5 16.2987 0.798667 16 1.16667 16H3.90001ZM7.16667 18.6667C6.064 18.6667 5.16667 17.7693 5.16667 16.6667C5.16667 15.564 6.064 14.6667 7.16667 14.6667C8.26933 14.6667 9.16667 15.564 9.16667 16.6667C9.16667 17.7693 8.26933 18.6667 7.16667 18.6667ZM11.4556 9.33333C11.7649 7.81244 13.1107 6.66667 14.7222 6.66667C16.3338 6.66667 17.6795 7.81244 17.9889 9.33333H20.7222C21.0902 9.33333 21.3889 9.632 21.3889 10C21.3889 10.368 21.0902 10.6667 20.7222 10.6667H17.9889C17.6795 12.1876 16.3338 13.3333 14.7222 13.3333C13.1107 13.3333 11.7649 12.1876 11.4556 10.6667H1.16667C0.798667 10.6667 0.5 10.368 0.5 10C0.5 9.632 0.798667 9.33333 1.16667 9.33333H11.4556ZM14.7222 12C13.6196 12 12.7222 11.1027 12.7222 10C12.7222 8.89733 13.6196 8 14.7222 8C15.8249 8 16.7222 8.89733 16.7222 10C16.7222 11.1027 15.8249 12 14.7222 12ZM3.90001 2.66667C4.20934 1.14578 5.55511 0 7.16667 0C8.77822 0 10.124 1.14578 10.4333 2.66667H20.7222C21.0902 2.66667 21.3889 2.96533 21.3889 3.33333C21.3889 3.70133 21.0902 4 20.7222 4H10.4333C10.124 5.52089 8.77822 6.66667 7.16667 6.66667C5.55511 6.66667 4.20934 5.52089 3.90001 4H1.16667C0.798667 4 0.5 3.70133 0.5 3.33333C0.5 2.96533 0.798667 2.66667 1.16667 2.66667H3.90001ZM7.16667 5.33333C6.064 5.33333 5.16667 4.436 5.16667 3.33333C5.16667 2.23067 6.064 1.33333 7.16667 1.33333C8.26933 1.33333 9.16667 2.23067 9.16667 3.33333C9.16667 4.436 8.26933 5.33333 7.16667 5.33333Z" fill="#00AAF0"/>
</g>
<defs>
<clipPath id="clip0_1347_338">
<rect width="21" height="20" fill="white" transform="translate(0.5)"/>
</clipPath>
</defs>
</svg>
