<svg width="25" height="24" viewBox="0 0 25 24" fill="none" xmlns="http://www.w3.org/2000/svg">
<g clip-path="url(#clip0_1347_404)">
<path d="M24.0799 10.464C24.0639 8.84397 23.4159 7.47597 22.1519 6.46797C20.0719 4.80397 17.9559 3.18797 15.8439 1.55997C13.8319 0.00797105 11.1439 0.0159712 9.13192 1.56797C7.08792 3.14797 5.04392 4.72797 3.00792 6.31997C1.61592 7.41197 0.907926 8.85597 0.903926 10.628C0.899926 13.148 0.891926 15.668 0.911926 18.188C0.911926 18.656 0.971926 19.14 1.08793 19.596C1.69592 21.932 3.80792 23.576 6.22792 23.592C8.31192 23.608 10.3959 23.592 12.4839 23.592C14.4879 23.592 16.4919 23.592 18.4959 23.592C18.7759 23.592 19.0599 23.576 19.3399 23.548C21.9439 23.284 24.0599 21 24.0839 18.384C24.1079 15.744 24.1079 13.1 24.0839 10.46L24.0799 10.464ZM22.5439 18.172C22.5439 20.352 20.8559 22.04 18.6719 22.048C16.6119 22.056 14.5519 22.048 12.4919 22.048C10.4079 22.048 8.32392 22.056 6.23992 22.044C4.52392 22.032 3.01992 20.86 2.58792 19.204C2.50392 18.88 2.45992 18.536 2.45992 18.204C2.44792 15.668 2.45192 13.132 2.45592 10.596C2.45592 9.34797 2.95192 8.32797 3.93192 7.55997C5.97192 5.96397 8.01992 4.37597 10.0759 2.79597C11.5479 1.65997 13.4279 1.64797 14.9039 2.77597C16.9759 4.35997 19.0319 5.95997 21.0839 7.56797C22.0719 8.33997 22.5479 9.37597 22.5479 10.632C22.5479 13.144 22.5479 15.656 22.5479 18.168L22.5439 18.172Z" fill="#00AAF0"/>
<path d="M16.684 16.64C14.212 16.64 11.744 16.64 9.27201 16.64C8.92401 16.64 8.58001 16.632 8.23201 16.64C7.89201 16.648 7.65201 16.82 7.52401 17.132C7.31601 17.652 7.70001 18.18 8.29201 18.18C9.68401 18.18 11.076 18.18 12.468 18.18C13.868 18.18 15.268 18.18 16.668 18.18C17.052 18.18 17.332 18.004 17.46 17.696C17.672 17.172 17.284 16.636 16.68 16.636L16.684 16.64Z" fill="#00AAF0"/>
</g>
<defs>
<clipPath id="clip0_1347_404">
<rect width="24" height="24" fill="white" transform="translate(0.5)"/>
</clipPath>
</defs>
</svg>
