<svg width="209" height="209" viewBox="0 0 209 209" fill="none" xmlns="http://www.w3.org/2000/svg">
<path d="M104.39 208.78C162.043 208.78 208.78 162.043 208.78 104.39C208.78 46.737 162.043 0 104.39 0C46.737 0 0 46.737 0 104.39C0 162.043 46.737 208.78 104.39 208.78Z" fill="#00AAF0"/>
<path d="M122.44 35.67H84.75C82.27 35.67 80.01 36.57 78.43 38.15L50 66.13C47.97 68.16 46.84 71.09 46.84 73.8V134.28C46.84 147.19 57.4 157.75 70.31 157.75H122.67C135.58 157.75 146.14 147.19 146.14 134.28V59.36C146.14 46.27 135.53 35.66 122.44 35.66V35.67ZM138.24 134.29C138.24 142.85 131.23 149.86 122.67 149.86H70.31C61.75 149.86 54.74 142.85 54.74 134.29V73.81C54.74 73.36 54.74 73.13 54.97 72.68L65.8 72.45C66.48 72.45 67.38 72.45 68.06 72.22C74.38 71.54 80.02 67.26 82.5 61.61C83.18 60.03 83.63 58.45 83.85 56.65V44.24L84.08 44.01C84.31 43.78 84.53 43.78 84.76 43.78H122.67C131.23 43.78 138.24 50.79 138.24 59.35V134.27V134.29ZM153.59 55.76C153.59 55.76 154.04 76.75 154.04 78.33V138.36C154.04 153.25 141.85 165.44 126.96 165.44H63.1C68.06 170.18 74.83 173.11 82.28 173.11H126.96C146.2 173.11 161.94 157.37 161.94 138.13V78.33C161.94 69.75 158.78 61.86 153.59 55.76ZM92.66 60.72H127.19C128.69 60.72 129.9 61.93 129.9 63.43C129.9 64.93 128.69 66.14 127.19 66.14H92.66C91.16 66.14 89.95 64.93 89.95 63.43C89.95 61.93 91.16 60.72 92.66 60.72ZM92.66 73.13H127.19C128.69 73.13 129.9 74.34 129.9 75.84C129.9 77.34 128.69 78.55 127.19 78.55H92.66C91.16 78.55 89.95 77.34 89.95 75.84C89.95 74.34 91.16 73.13 92.66 73.13ZM92.66 94.57H127.19C128.69 94.57 129.9 95.78 129.9 97.28C129.9 98.78 128.69 99.99 127.19 99.99H92.66C91.16 99.99 89.95 98.78 89.95 97.28C89.95 95.78 91.16 94.57 92.66 94.57ZM92.66 110.14H127.19C128.69 110.14 129.9 111.35 129.9 112.85C129.9 114.35 128.69 115.56 127.19 115.56H92.66C91.16 115.56 89.95 114.35 89.95 112.85C89.95 111.35 91.16 110.14 92.66 110.14ZM92.66 125.71H127.19C128.69 125.71 129.9 126.92 129.9 128.42C129.9 129.92 128.69 131.13 127.19 131.13H92.66C91.16 131.13 89.95 129.92 89.95 128.42C89.95 126.92 91.16 125.71 92.66 125.71ZM74.42 125.84V128.43C74.42 129.75 73.35 130.82 72.03 130.82C70.71 130.82 69.64 129.75 69.64 128.43V126.18C67.58 126.09 65.56 125.71 63.88 125.17C62.41 124.7 61.56 123.16 61.95 121.67C62.36 120.05 64.06 119.08 65.65 119.62C67.24 120.16 69.01 120.52 70.91 120.52C73.7 120.52 75.6 119.44 75.6 117.49C75.6 115.54 74.04 114.46 70.42 113.24C65.19 111.48 61.62 109.04 61.62 104.3C61.62 100 64.65 96.63 69.88 95.6V93.35C69.88 92.03 70.95 90.96 72.27 90.96C73.59 90.96 74.66 92.03 74.66 93.35V95.26C76.44 95.34 77.9 95.58 79.12 95.9C80.61 96.3 81.5 97.83 81.11 99.33C80.72 100.86 79.14 101.8 77.62 101.35C76.46 101.01 75.03 100.73 73.29 100.73C70.12 100.73 69.09 102.1 69.09 103.47C69.09 105.08 70.8 106.11 74.95 107.67C80.77 109.72 83.11 112.41 83.11 116.81C83.11 121.21 80.03 124.87 74.42 125.85V125.84Z" fill="white"/>
</svg>
