<svg width="116" height="138" viewBox="0 0 116 138" fill="none" xmlns="http://www.w3.org/2000/svg">
<path d="M76.44 0.0100021H38.75C36.27 0.0100021 34.01 0.910002 32.43 2.49L4.00003 30.47C1.97003 32.5 0.840027 35.43 0.840027 38.14V98.62C0.840027 111.53 11.4 122.09 24.31 122.09H76.67C89.58 122.09 100.14 111.53 100.14 98.62V23.7C100.14 10.61 89.53 0 76.44 0V0.0100021ZM92.24 98.63C92.24 107.19 85.23 114.2 76.67 114.2H24.31C15.75 114.2 8.74002 107.19 8.74002 98.63V38.15C8.74002 37.7 8.74003 37.47 8.97003 37.02L19.8 36.79C20.48 36.79 21.38 36.79 22.06 36.56C28.38 35.88 34.02 31.6 36.5 25.95C37.18 24.37 37.63 22.79 37.85 20.99V8.58L38.08 8.35C38.31 8.12 38.53 8.12 38.76 8.12H76.67C85.23 8.12 92.24 15.13 92.24 23.69V98.61V98.63ZM107.59 20.1C107.59 20.1 108.04 41.09 108.04 42.67V102.7C108.04 117.59 95.85 129.78 80.96 129.78H17.1C22.06 134.52 28.83 137.45 36.28 137.45H80.96C100.2 137.45 115.94 121.71 115.94 102.47V42.67C115.94 34.09 112.78 26.2 107.59 20.1ZM46.66 25.06H81.19C82.69 25.06 83.9 26.27 83.9 27.77C83.9 29.27 82.69 30.48 81.19 30.48H46.66C45.16 30.48 43.95 29.27 43.95 27.77C43.95 26.27 45.16 25.06 46.66 25.06ZM46.66 37.47H81.19C82.69 37.47 83.9 38.68 83.9 40.18C83.9 41.68 82.69 42.89 81.19 42.89H46.66C45.16 42.89 43.95 41.68 43.95 40.18C43.95 38.68 45.16 37.47 46.66 37.47ZM46.66 58.91H81.19C82.69 58.91 83.9 60.12 83.9 61.62C83.9 63.12 82.69 64.33 81.19 64.33H46.66C45.16 64.33 43.95 63.12 43.95 61.62C43.95 60.12 45.16 58.91 46.66 58.91ZM46.66 74.48H81.19C82.69 74.48 83.9 75.69 83.9 77.19C83.9 78.69 82.69 79.9 81.19 79.9H46.66C45.16 79.9 43.95 78.69 43.95 77.19C43.95 75.69 45.16 74.48 46.66 74.48ZM46.66 90.05H81.19C82.69 90.05 83.9 91.26 83.9 92.76C83.9 94.26 82.69 95.47 81.19 95.47H46.66C45.16 95.47 43.95 94.26 43.95 92.76C43.95 91.26 45.16 90.05 46.66 90.05ZM28.42 90.18V92.77C28.42 94.09 27.35 95.16 26.03 95.16C24.71 95.16 23.64 94.09 23.64 92.77V90.52C21.58 90.43 19.56 90.05 17.88 89.51C16.41 89.04 15.56 87.5 15.95 86.01C16.36 84.39 18.06 83.42 19.65 83.96C21.24 84.5 23.01 84.86 24.91 84.86C27.7 84.86 29.6 83.78 29.6 81.83C29.6 79.88 28.04 78.8 24.42 77.58C19.19 75.82 15.62 73.38 15.62 68.64C15.62 64.34 18.65 60.97 23.88 59.94V57.69C23.88 56.37 24.95 55.3 26.27 55.3C27.59 55.3 28.66 56.37 28.66 57.69V59.6C30.44 59.68 31.9 59.92 33.12 60.24C34.61 60.64 35.5 62.17 35.11 63.67C34.72 65.2 33.14 66.14 31.62 65.69C30.46 65.35 29.03 65.07 27.29 65.07C24.12 65.07 23.09 66.44 23.09 67.81C23.09 69.42 24.8 70.45 28.95 72.01C34.77 74.06 37.11 76.75 37.11 81.15C37.11 85.55 34.03 89.21 28.42 90.19V90.18Z" fill="#00AAF0"/>
</svg>
