<svg width="17" height="18" viewBox="0 0 17 18" fill="none" xmlns="http://www.w3.org/2000/svg">
<g clip-path="url(#clip0_1347_175)">
<path d="M5.89751 7.19235C6.84681 7.1847 7.75462 6.80244 8.42319 6.12886C9.09175 5.45528 9.46689 4.54495 9.46689 3.59617C9.46689 2.6474 9.09175 1.73707 8.42319 1.06348C7.75462 0.389901 6.84681 0.00764906 5.89751 0C4.94821 0.00764906 4.0404 0.389901 3.37183 1.06348C2.70327 1.73707 2.32812 2.6474 2.32812 3.59617C2.32812 4.54495 2.70327 5.45528 3.37183 6.12886C4.0404 6.80244 4.94821 7.1847 5.89751 7.19235ZM5.89751 0.899043C6.60858 0.90615 7.28811 1.19344 7.78841 1.69848C8.28872 2.20352 8.56937 2.88549 8.56937 3.59617C8.56937 4.30686 8.28872 4.98883 7.78841 5.49387C7.28811 5.9989 6.60858 6.2862 5.89751 6.2933C5.18644 6.2862 4.50691 5.9989 4.0066 5.49387C3.5063 4.98883 3.22566 4.30686 3.22566 3.59617C3.22566 2.88549 3.5063 2.20352 4.0066 1.69848C4.50691 1.19344 5.18644 0.90615 5.89751 0.899043Z" fill="#00AAF0"/>
<path d="M2.74892 17.0818C2.57166 17.0821 2.39609 17.0473 2.23227 16.9797C2.06845 16.912 1.9196 16.8126 1.79426 16.6874C1.66891 16.5621 1.56953 16.4133 1.5018 16.2496C1.43407 16.0859 1.39933 15.9104 1.39957 15.7333V10.339C1.39933 10.1618 1.43407 9.98634 1.5018 9.82262C1.56953 9.6589 1.66891 9.51014 1.79426 9.38487C1.9196 9.2596 2.06845 9.16027 2.23227 9.09258C2.39609 9.02489 2.57166 8.99017 2.74892 8.99041H7.54363C7.86724 8.64267 8.23641 8.34025 8.6411 8.09137H2.74892C2.15254 8.09158 1.58064 8.32845 1.15893 8.74992C0.737226 9.17138 0.500217 9.74294 0.5 10.339V15.7333C0.500217 16.3293 0.737226 16.9009 1.15893 17.3223C1.58064 17.7438 2.15254 17.9806 2.74892 17.9809H8.6411C8.23642 17.732 7.86725 17.4295 7.54363 17.0818H2.74892Z" fill="#00AAF0"/>
<path fill-rule="evenodd" clip-rule="evenodd" d="M11.5024 18C14.2625 18 16.5 15.7638 16.5 13.0053C16.5 10.2468 14.2625 8.01062 11.5024 8.01062C8.74229 8.01062 6.50479 10.2468 6.50479 13.0053C6.50479 15.7638 8.74229 18 11.5024 18ZM9.26209 12.5422C8.99136 12.5422 8.7719 12.7615 8.7719 13.0321C8.7719 13.3027 8.99136 13.522 9.26209 13.522H13.7963C14.067 13.522 14.2865 13.3027 14.2865 13.0321C14.2865 12.7615 14.067 12.5422 13.7963 12.5422H9.26209Z" fill="#00AAF0"/>
</g>
<defs>
<clipPath id="clip0_1347_175">
<rect width="16" height="18" fill="white" transform="translate(0.5)"/>
</clipPath>
</defs>
</svg>
