<svg width="17" height="22" viewBox="0 0 17 22" fill="none" xmlns="http://www.w3.org/2000/svg">
<g clip-path="url(#clip0_1347_342)">
<path d="M14.0841 0.28006H3.42501C2.13953 0.28006 1.09741 1.32213 1.09741 2.60766V21.1632L3.99123 18.4244L6.45742 21.1632L8.75456 18.4244L11.0517 21.1632L13.5179 18.4244L16.4117 21.1632V2.60766C16.4117 1.32213 15.3696 0.28006 14.0841 0.28006ZM4.06673 4.48387H11.8408C12.2256 4.48387 12.5369 4.79556 12.5369 5.17998C12.5369 5.5644 12.2256 5.87608 11.8408 5.87608H4.06673C3.68197 5.87608 3.37063 5.5644 3.37063 5.17998C3.37063 4.79556 3.68197 4.48387 4.06673 4.48387ZM4.06673 6.93112H7.95376C8.33853 6.93112 8.64987 7.2428 8.64987 7.62722C8.64987 8.01164 8.33853 8.32332 7.95376 8.32332H4.06673C3.68197 8.32332 3.37063 8.01164 3.37063 7.62722C3.37063 7.2428 3.68197 6.93112 4.06673 6.93112ZM13.4424 16.1055H4.06673C3.68197 16.1055 3.37063 15.7939 3.37063 15.4094C3.37063 15.025 3.68197 14.7133 4.06673 14.7133H13.4424C13.8271 14.7133 14.1385 15.025 14.1385 15.4094C14.1385 15.7939 13.8271 16.1055 13.4424 16.1055ZM13.4424 13.9193H4.06673C3.68197 13.9193 3.37063 13.6077 3.37063 13.2232C3.37063 12.8388 3.68197 12.5271 4.06673 12.5271H13.4424C13.8271 12.5271 14.1385 12.8388 14.1385 13.2232C14.1385 13.6077 13.8271 13.9193 13.4424 13.9193ZM13.4424 11.4177H4.06673C3.68197 11.4177 3.37063 11.106 3.37063 10.7216C3.37063 10.3372 3.68197 10.0255 4.06673 10.0255H13.4424C13.8271 10.0255 14.1385 10.3372 14.1385 10.7216C14.1385 11.106 13.8271 11.4177 13.4424 11.4177Z" fill="#00AAF0"/>
</g>
<defs>
<clipPath id="clip0_1347_342">
<rect width="16" height="22" fill="white" transform="translate(0.5)"/>
</clipPath>
</defs>
</svg>
