<svg width="19" height="24" viewBox="0 0 19 24" fill="none" xmlns="http://www.w3.org/2000/svg">
<g clip-path="url(#clip0_1347_340)">
<path d="M15.425 0H3.175C1.69766 0 0.5 1.19761 0.5 2.675V24L3.82573 20.8524L6.66001 24L9.3 20.8524L11.94 24L14.7743 20.8524L18.1 24V2.675C18.1 1.19761 16.9023 0 15.425 0ZM3.9125 4.83125H12.8469C13.2891 4.83125 13.6469 5.18945 13.6469 5.63125C13.6469 6.07305 13.2891 6.43125 12.8469 6.43125H3.9125C3.47031 6.43125 3.1125 6.07305 3.1125 5.63125C3.1125 5.18945 3.47031 4.83125 3.9125 4.83125ZM3.9125 7.64375H8.37969C8.82188 7.64375 9.17969 8.00195 9.17969 8.44375C9.17969 8.88555 8.82188 9.24375 8.37969 9.24375H3.9125C3.47031 9.24375 3.1125 8.88555 3.1125 8.44375C3.1125 8.00195 3.47031 7.64375 3.9125 7.64375ZM14.6875 18.1875H3.9125C3.47031 18.1875 3.1125 17.8293 3.1125 17.3875C3.1125 16.9457 3.47031 16.5875 3.9125 16.5875H14.6875C15.1297 16.5875 15.4875 16.9457 15.4875 17.3875C15.4875 17.8293 15.1297 18.1875 14.6875 18.1875ZM14.6875 15.675H3.9125C3.47031 15.675 3.1125 15.3168 3.1125 14.875C3.1125 14.4332 3.47031 14.075 3.9125 14.075H14.6875C15.1297 14.075 15.4875 14.4332 15.4875 14.875C15.4875 15.3168 15.1297 15.675 14.6875 15.675ZM14.6875 12.8H3.9125C3.47031 12.8 3.1125 12.4418 3.1125 12C3.1125 11.5582 3.47031 11.2 3.9125 11.2H14.6875C15.1297 11.2 15.4875 11.5582 15.4875 12C15.4875 12.4418 15.1297 12.8 14.6875 12.8Z" fill="#00AAF0"/>
</g>
<defs>
<clipPath id="clip0_1347_340">
<rect width="18" height="24" fill="white" transform="translate(0.5)"/>
</clipPath>
</defs>
</svg>
