<svg width="17" height="20" viewBox="0 0 17 20" fill="none" xmlns="http://www.w3.org/2000/svg">
<g clip-path="url(#clip0_1347_407)">
<path d="M15.2097 6.45936V5.47613C15.2097 2.99097 13.1865 0.967743 10.6987 0.967743H6.30129C3.81355 0.967743 1.79032 2.99097 1.79032 5.47871V6.46194C1.00323 7.12516 0.5 8.11613 0.5 9.22323V15.4271C0.5 17.4142 2.11806 19.0323 4.10774 19.0323H12.8923C14.8819 19.0323 16.5 17.4142 16.5 15.4245V9.22065C16.5 8.11355 15.9968 7.12258 15.2097 6.45936ZM3.33871 5.47871C3.33871 3.84516 4.66774 2.51613 6.30129 2.51613H10.7013C12.3323 2.51613 13.6613 3.84516 13.6613 5.47871V5.69807C13.4135 5.64387 13.1555 5.6129 12.8923 5.6129H4.10774C3.84452 5.6129 3.58645 5.64387 3.33871 5.69807V5.47871ZM14.9516 15.4245C14.9516 16.56 14.0277 17.4839 12.8923 17.4839H4.10774C2.97226 17.4839 2.04839 16.56 2.04839 15.4245V9.22065C2.04839 8.08516 2.97226 7.16129 4.10774 7.16129H12.8923C14.0277 7.16129 14.9516 8.08516 14.9516 9.22065V15.4245Z" fill="#00AAF0"/>
<path d="M8.5 11.2903C8.07161 11.2903 7.72581 11.6361 7.72581 12.0645V14.6452C7.72581 15.0735 8.07161 15.4194 8.5 15.4194C8.92839 15.4194 9.27419 15.0735 9.27419 14.6452V12.0645C9.27419 11.6361 8.92839 11.2903 8.5 11.2903Z" fill="#00AAF0"/>
</g>
<defs>
<clipPath id="clip0_1347_407">
<rect width="16" height="20" fill="white" transform="translate(0.5)"/>
</clipPath>
</defs>
</svg>
