<svg width="17" height="20" viewBox="0 0 17 20" fill="none" xmlns="http://www.w3.org/2000/svg">
<g clip-path="url(#clip0_1347_344)">
<path d="M12.5 0H4.5C3.44004 0.00293215 2.42432 0.425301 1.67481 1.17481C0.925301 1.92432 0.502932 2.94004 0.5 4V16C0.502932 17.06 0.925301 18.0757 1.67481 18.8252C2.42432 19.5747 3.44004 19.9971 4.5 20H12.5C13.56 19.9971 14.5757 19.5747 15.3252 18.8252C16.0747 18.0757 16.4971 17.06 16.5 16V14H14.5V16C14.5 16.5304 14.2893 17.0391 13.9142 17.4142C13.5391 17.7893 13.0304 18 12.5 18H4.5C3.96957 18 3.46086 17.7893 3.08579 17.4142C2.71071 17.0391 2.5 16.5304 2.5 16V4C2.5 3.46957 2.71071 2.96086 3.08579 2.58579C3.46086 2.21071 3.96957 2 4.5 2H12.5C13.0304 2 13.5391 2.21071 13.9142 2.58579C14.2893 2.96086 14.5 3.46957 14.5 4V6H16.5V4C16.4971 2.94004 16.0747 1.92432 15.3252 1.17481C14.5757 0.425301 13.56 0.00293215 12.5 0Z" fill="#00AAF0"/>
<path d="M16.4978 10.0045L12.4978 7.00446V9.00446H5.5022V11.0022H12.4978V13.0022L16.4978 10.0045Z" fill="#00AAF0"/>
</g>
<defs>
<clipPath id="clip0_1347_344">
<rect width="16" height="20" fill="white" transform="translate(0.5)"/>
</clipPath>
</defs>
</svg>
