<svg width="25" height="24" viewBox="0 0 25 24" fill="none" xmlns="http://www.w3.org/2000/svg">
<g clip-path="url(#clip0_1347_421)">
<path d="M3.85995 11.272C5.51195 11.284 7.16794 11.284 8.81994 11.272C10.4479 11.264 11.7679 9.93996 11.7759 8.30796C11.7839 6.66396 11.7839 5.01596 11.7759 3.37196C11.7719 2.09996 10.9599 0.975963 9.75595 0.563963C9.55995 0.495963 9.35195 0.455963 9.14795 0.399963H3.53195C3.49595 0.411963 3.46395 0.431963 3.42795 0.439963C1.93595 0.699963 0.907946 1.90796 0.903946 3.41596C0.903946 5.04796 0.895946 6.67596 0.903946 8.30796C0.911946 9.93596 2.23195 11.26 3.85995 11.272ZM2.35195 3.45996C2.35195 2.50796 3.01195 1.85196 3.95995 1.84796C4.75195 1.84796 5.54395 1.84796 6.33595 1.84796C7.12795 1.84796 7.91995 1.84796 8.71195 1.84796C9.65995 1.84796 10.3199 2.50796 10.3239 3.45596C10.3239 5.03996 10.3239 6.62396 10.3239 8.21196C10.3239 9.16396 9.66395 9.81996 8.71595 9.82396C7.13195 9.82396 5.54795 9.82396 3.95995 9.82396C3.01195 9.82396 2.35195 9.16396 2.34795 8.21596C2.34795 6.63196 2.34795 5.04796 2.34795 3.45996H2.35195Z" fill="#00AAF0"/>
<path d="M23.9119 2.35996C23.4919 1.29996 22.7199 0.655963 21.5959 0.439963C21.5519 0.431963 21.5119 0.411963 21.4719 0.399963H15.8519C15.8159 0.411963 15.7839 0.431963 15.7479 0.439963C14.2599 0.699963 13.2279 1.91196 13.2239 3.41596C13.2239 5.03996 13.2199 6.65996 13.2239 8.28396C13.2279 9.93996 14.5439 11.268 16.1959 11.276C17.8399 11.284 19.4839 11.284 21.1319 11.276C22.4719 11.268 23.6319 10.372 23.9919 9.08396C24.0319 8.93996 24.0639 8.79596 24.0999 8.64796V3.02796C24.0399 2.80396 23.9959 2.57596 23.9119 2.35996ZM22.6479 8.21196C22.6479 9.15996 21.9879 9.81996 21.0399 9.82396C19.4559 9.82396 17.8719 9.82396 16.2839 9.82396C15.3359 9.82396 14.6759 9.16396 14.6719 8.21596C14.6719 7.42396 14.6719 6.63196 14.6719 5.83996C14.6719 5.04796 14.6719 4.25596 14.6719 3.46396C14.6719 2.51196 15.3319 1.85596 16.2799 1.85596C17.8639 1.85596 19.4479 1.85596 21.0359 1.85596C21.9839 1.85596 22.6439 2.51596 22.6439 3.46396C22.6439 5.04796 22.6439 6.63196 22.6439 8.21996L22.6479 8.21196Z" fill="#00AAF0"/>
<path d="M19.2439 12.76C15.6679 12.364 12.6959 15.532 13.3079 19.084C13.7479 21.62 15.9439 23.54 18.4719 23.596C21.1359 23.656 23.3999 21.896 23.9679 19.32C24.0159 19.1 24.0559 18.88 24.0959 18.66V17.664C24.0839 17.62 24.0639 17.58 24.0559 17.536C23.7319 14.98 21.7759 13.04 19.2399 12.76H19.2439ZM18.6559 22.148C16.4599 22.148 14.6719 20.352 14.6759 18.148C14.6799 15.952 16.4759 14.168 18.6799 14.172C20.8759 14.18 22.6599 15.98 22.6479 18.18C22.6399 20.368 20.8439 22.148 18.6559 22.144V22.148Z" fill="#00AAF0"/>
<path d="M8.75597 12.7239C7.95597 12.7239 7.15597 12.7239 6.35597 12.7239C5.53197 12.7239 4.70797 12.7199 3.88797 12.7239C2.23597 12.7359 0.915968 14.0559 0.907968 15.7119C0.903968 17.3439 0.903968 18.9719 0.907968 20.6039C0.911968 22.2679 2.23597 23.5879 3.90397 23.5959C5.52797 23.6039 7.15197 23.5999 8.77597 23.5959C10.456 23.5919 11.776 22.2719 11.78 20.5879C11.784 18.9719 11.784 17.3559 11.78 15.7399C11.776 14.0439 10.46 12.7319 8.75997 12.7239H8.75597ZM10.328 20.5359C10.328 21.4839 9.66797 22.1439 8.71997 22.1439C7.13597 22.1439 5.55197 22.1439 3.96397 22.1439C3.01597 22.1439 2.35597 21.4839 2.35597 20.5359C2.35597 19.7439 2.35597 18.9519 2.35597 18.1599C2.35597 17.3679 2.35597 16.5759 2.35597 15.7839C2.35597 14.8319 3.01597 14.1759 3.96397 14.1759C5.54797 14.1759 7.13197 14.1759 8.71997 14.1759C9.66797 14.1759 10.328 14.8359 10.328 15.7839C10.328 17.3679 10.328 18.9519 10.328 20.5399V20.5359Z" fill="#00AAF0"/>
</g>
<defs>
<clipPath id="clip0_1347_421">
<rect width="24" height="24" fill="white" transform="translate(0.5)"/>
</clipPath>
</defs>
</svg>
