<svg width="17" height="20" viewBox="0 0 17 20" fill="none" xmlns="http://www.w3.org/2000/svg">
<g clip-path="url(#clip0_1347_179)">
<path d="M14.4692 1.57949H12.741V0.769231C12.741 0.565218 12.66 0.369561 12.5157 0.225302C12.3715 0.0810436 12.1758 0 11.9718 0C11.7678 0 11.5721 0.0810436 11.4279 0.225302C11.2836 0.369561 11.2026 0.565218 11.2026 0.769231V1.58718H9.15128V0.769231C9.15128 0.668214 9.13138 0.568186 9.09273 0.474859C9.05407 0.381532 8.99741 0.296732 8.92598 0.225302C8.85455 0.153873 8.76975 0.0972116 8.67642 0.0585541C8.5831 0.0198967 8.48307 0 8.38205 0C8.28103 0 8.18101 0.0198967 8.08768 0.0585541C7.99435 0.0972116 7.90955 0.153873 7.83812 0.225302C7.76669 0.296732 7.71003 0.381532 7.67137 0.474859C7.63272 0.568186 7.61282 0.668214 7.61282 0.769231V1.58718H5.56154V0.769231C5.56154 0.565218 5.48049 0.369561 5.33624 0.225302C5.19198 0.0810436 4.99632 0 4.79231 0C4.58829 0 4.39264 0.0810436 4.24838 0.225302C4.10412 0.369561 4.02308 0.565218 4.02308 0.769231V1.58718H2.29487C1.81884 1.58718 1.36231 1.77628 1.02571 2.11289C0.689102 2.44949 0.5 2.90602 0.5 3.38205V18.2051C0.5 18.6812 0.689102 19.1377 1.02571 19.4743C1.36231 19.8109 1.81884 20 2.29487 20H14.4692C14.9453 20 15.4018 19.8109 15.7384 19.4743C16.075 19.1377 16.2641 18.6812 16.2641 18.2051V3.37436C16.2641 2.89833 16.075 2.4418 15.7384 2.10519C15.4018 1.76859 14.9453 1.57949 14.4692 1.57949ZM5.6359 8.55385H11.1282C11.3322 8.55385 11.5279 8.63489 11.6721 8.77915C11.8164 8.92341 11.8974 9.11907 11.8974 9.32308C11.8974 9.52709 11.8164 9.72275 11.6721 9.86701C11.5279 10.0113 11.3322 10.0923 11.1282 10.0923H5.6359C5.43188 10.0923 5.23623 10.0113 5.09197 9.86701C4.94771 9.72275 4.86667 9.52709 4.86667 9.32308C4.86667 9.11907 4.94771 8.92341 5.09197 8.77915C5.23623 8.63489 5.43188 8.55385 5.6359 8.55385ZM12.5487 13.5897H4.21538C4.01137 13.5897 3.81571 13.5087 3.67146 13.3644C3.5272 13.2202 3.44615 13.0245 3.44615 12.8205C3.44615 12.6165 3.5272 12.4208 3.67146 12.2766C3.81571 12.1323 4.01137 12.0513 4.21538 12.0513H12.5487C12.7527 12.0513 12.9484 12.1323 13.0926 12.2766C13.2369 12.4208 13.3179 12.6165 13.3179 12.8205C13.3179 13.0245 13.2369 13.2202 13.0926 13.3644C12.9484 13.5087 12.7527 13.5897 12.5487 13.5897Z" fill="#00AAF0"/>
</g>
<defs>
<clipPath id="clip0_1347_179">
<rect width="16" height="20" fill="white" transform="translate(0.5)"/>
</clipPath>
</defs>
</svg>
