<svg width="147" height="127" viewBox="0 0 147 127" fill="none" xmlns="http://www.w3.org/2000/svg">
<path d="M27.4258 56.639C41.2933 48.8961 55.1669 41.1842 69.0345 33.4413C60.6885 30.4096 52.3364 27.3469 44.0215 24.3091L2.76188 46.9859C10.9832 50.2036 19.2045 53.4213 27.4258 56.639Z" fill="white" stroke="#00AAF0" stroke-width="1.05014" stroke-miterlimit="10"/>
<path d="M69.5378 33.3743C75.5136 27.5132 81.4832 21.6211 87.4901 15.7539L134.367 21.0187C127.676 27.1824 120.954 33.3522 114.264 39.5159C99.3322 37.4624 84.4319 35.4028 69.5378 33.3743Z" fill="white" stroke="#00AAF0" stroke-width="1.05014" stroke-miterlimit="10"/>
<path d="M114.264 39.5176C101.043 46.9391 87.7915 54.3667 74.5706 61.7883C82.9592 65.1989 91.3477 68.6095 99.7734 72.045C112.858 64.4244 125.937 56.7728 138.99 49.1584C130.732 45.9158 122.479 42.7042 114.264 39.5176Z" fill="white" stroke="#BBE0FF" stroke-width="1.05014" stroke-miterlimit="10"/>
<path d="M27.4263 56.6406C43.1285 58.3481 58.8308 60.0556 74.533 61.7631C68.3819 68.2075 62.2309 74.6519 56.0798 81.0964L9.51614 74.8014C15.4862 68.7478 21.4562 62.6942 27.4263 56.6406Z" fill="white" stroke="#BBE0FF" stroke-width="1.05014" stroke-miterlimit="10"/>
<path d="M27.4234 56.6403C41.3653 48.9472 55.301 41.2231 69.2119 33.5361C84.0688 35.5397 98.9257 37.5433 113.752 39.5531C100.686 46.9439 87.5956 54.3719 74.5301 61.7627C58.8278 60.0553 43.1256 58.3478 27.4234 56.6403Z" fill="#CAF0FF"/>
<rect x="84.2211" y="40.0215" width="11.1771" height="2.92087" rx="1.46043" transform="rotate(7.8501 84.2211 40.0215)" stroke="#00AAF0" stroke-width="0.787604"/>
<path d="M74.5303 61.7599C78.6105 80.2891 82.6908 98.8182 86.8021 117.341C99.7936 109.739 112.822 102.162 125.814 94.5598C123.586 83.2825 121.352 71.9743 119.124 60.697C112.669 64.4578 106.188 68.2558 99.7331 72.0166C91.3445 68.606 82.9188 65.1705 74.5303 61.7599Z" fill="#F6FEFF" stroke="#BBE0FF" stroke-width="1.05014" stroke-miterlimit="10"/>
<path d="M74.5354 61.7596C78.3982 80.3317 82.2609 98.9039 86.0926 117.482C70.222 116.066 54.3514 114.65 38.4808 113.234C36.1485 101.429 33.8102 89.5924 31.4779 77.7871C39.6236 78.8247 47.8065 79.8873 55.9522 80.9249C62.1776 74.5304 68.372 68.1419 74.5354 61.7596Z" fill="#F6FEFF" stroke="#BBE0FF" stroke-width="1.05014" stroke-miterlimit="10"/>
<path d="M69.0405 33.4746C70.8691 42.894 72.7038 52.3444 74.5324 61.7637" stroke="#90C7FF" stroke-width="2.10028" stroke-miterlimit="10"/>
<path d="M25.8051 15.0949C28.2929 14.6034 29.9113 12.1882 29.4198 9.70032C28.9283 7.21245 26.513 5.59408 24.0252 6.08558C21.5373 6.57709 19.9189 8.99233 20.4104 11.4802C20.9019 13.9681 23.3172 15.5864 25.8051 15.0949Z" stroke="#00AAF0" stroke-width="1.05014" stroke-miterlimit="10"/>
<path d="M129.403 9.89925C131.891 9.40775 133.509 6.9925 133.018 4.50464C132.526 2.01677 130.111 0.398404 127.623 0.889905C125.135 1.38141 123.517 3.79666 124.009 6.28452C124.5 8.77238 126.915 10.3908 129.403 9.89925Z" stroke="#00AAF0" stroke-width="1.05014" stroke-miterlimit="10"/>
<path d="M142.109 87.8231C144.597 87.3316 146.215 84.9164 145.724 82.4285C145.232 79.9407 142.817 78.3223 140.329 78.8138C137.842 79.3053 136.223 81.7205 136.715 84.2084C137.206 86.6963 139.621 88.3146 142.109 87.8231Z" stroke="#00AAF0" stroke-width="1.05014" stroke-miterlimit="10"/>
<path d="M132.307 64.5702C133.388 64.3566 134.091 63.3072 133.877 62.2263C133.664 61.1454 132.614 60.4422 131.533 60.6558C130.452 60.8693 129.749 61.9187 129.963 62.9996C130.176 64.0806 131.226 64.7837 132.307 64.5702Z" stroke="#00AAF0" stroke-width="1.05014" stroke-miterlimit="10"/>
<path d="M10.105 33.0088C11.186 32.7953 11.8891 31.7459 11.6756 30.665C11.462 29.584 10.4126 28.8809 9.33171 29.0944C8.25078 29.308 7.54763 30.3574 7.76118 31.4383C7.97472 32.5192 9.02411 33.2224 10.105 33.0088Z" stroke="#00AAF0" stroke-width="1.05014" stroke-miterlimit="10"/>
</svg>
