<svg width="37" height="36" viewBox="0 0 37 36" fill="none" xmlns="http://www.w3.org/2000/svg">
<g clip-path="url(#clip0_1347_3)">
<path opacity="0.25" d="M18.5 29.77C19.1533 29.77 19.7207 29.542 20.202 29.086C20.682 28.6313 20.9607 28.0647 21.038 27.386H15.962C16.038 28.0647 16.3167 28.6313 16.798 29.086C17.278 29.542 17.8453 29.77 18.5 29.77ZM18.506 36C16.018 36 13.678 35.528 11.486 34.584C9.29533 33.6387 7.38933 32.356 5.768 30.736C4.14667 29.1173 2.86333 27.2133 1.918 25.024C0.972667 22.8347 0.5 20.4953 0.5 18.006C0.5 15.518 0.972 13.178 1.916 10.986C2.86133 8.79533 4.144 6.88933 5.764 5.268C7.38267 3.64667 9.28667 2.36333 11.476 1.418C13.6653 0.472667 16.0047 0 18.494 0C20.982 0 23.322 0.472 25.514 1.416C27.7047 2.36133 29.6107 3.644 31.232 5.264C32.8533 6.88267 34.1367 8.78667 35.082 10.976C36.0273 13.1653 36.5 15.5047 36.5 17.994C36.5 20.482 36.028 22.822 35.084 25.014C34.1387 27.2047 32.856 29.1107 31.236 30.732C29.6173 32.3533 27.7133 33.6367 25.524 34.582C23.3347 35.5273 20.9953 36 18.506 36ZM11.27 24.308H25.73C26.0793 24.308 26.372 24.19 26.608 23.954C26.844 23.718 26.962 23.4253 26.962 23.076C26.962 22.728 26.844 22.436 26.608 22.2C26.372 21.964 26.0793 21.846 25.73 21.846H24.962V16.416C24.962 14.716 24.514 13.1713 23.618 11.782C22.722 10.394 21.4773 9.518 19.884 9.154V7.538C19.884 7.12467 19.7567 6.778 19.502 6.498C19.2473 6.218 18.9133 6.078 18.5 6.078C18.0867 6.078 17.7527 6.218 17.498 6.498C17.2433 6.778 17.116 7.12467 17.116 7.538V9.154C15.5227 9.518 14.278 10.3813 13.382 11.744C12.486 13.1067 12.038 14.638 12.038 16.338V21.846H11.27C10.9207 21.846 10.628 21.964 10.392 22.2C10.156 22.436 10.038 22.728 10.038 23.076C10.038 23.4253 10.156 23.718 10.392 23.954C10.628 24.19 10.9207 24.308 11.27 24.308Z" fill="#00AAF0"/>
</g>
<defs>
<clipPath id="clip0_1347_3">
<rect width="36" height="36" fill="white" transform="translate(0.5)"/>
</clipPath>
</defs>
</svg>
