<svg width="22" height="24" viewBox="0 0 22 24" fill="none" xmlns="http://www.w3.org/2000/svg">
<g clip-path="url(#clip0_1347_350)">
<path d="M11.1723 5.99368H16.3061L10.2872 0V5.13382C10.2872 5.61433 10.6918 5.99368 11.1723 5.99368Z" fill="#00AAF0"/>
<path d="M16.2808 14.5922C13.676 14.5922 11.5769 16.6913 11.5769 19.2961C11.5769 21.9009 13.676 24 16.2808 24C18.8857 24 20.9847 21.9009 20.9847 19.2961C21.01 16.7165 18.8857 14.5922 16.2808 14.5922ZM18.5569 18.7144L16.1291 21.1423C16.0026 21.2687 15.8003 21.3446 15.6233 21.3446C15.4462 21.3446 15.2692 21.2687 15.1175 21.1423L13.9036 19.9283C13.6254 19.6502 13.6254 19.1949 13.9036 18.9168C14.1818 18.6386 14.637 18.6386 14.9152 18.9168L15.6233 19.6249L17.5453 17.7028C17.8235 17.4247 18.2787 17.4247 18.5569 17.7028C18.8351 17.981 18.8351 18.4362 18.5569 18.7144Z" fill="#00AAF0"/>
<path d="M16.2808 13.4036V7.1823H11.1723C10.0343 7.1823 9.12381 6.27186 9.12381 5.13382V0H1.71391C1.03108 0 0.5 0.556375 0.5 1.21391V19.4226C0.5 20.1054 1.05637 20.6365 1.71391 20.6365H10.5653C10.4642 20.2065 10.4136 19.7513 10.4136 19.2961C10.3883 16.059 13.0437 13.4036 16.2808 13.4036ZM4.31876 2.98419V2.32666C4.31876 2.25079 4.39463 2.17492 4.4705 2.17492H5.2039C5.27977 2.17492 5.35564 2.25079 5.35564 2.32666V2.98419C6.13962 3.06006 6.77186 3.66702 6.84773 4.42571C6.84773 4.52687 6.79715 4.60274 6.696 4.60274H5.9373C5.86143 4.60274 5.81085 4.55216 5.78556 4.47629C5.73498 4.1981 5.48209 3.99578 5.2039 3.99578H4.44521C4.14173 3.99578 3.86354 4.22339 3.81296 4.52687C3.78767 4.88093 4.06586 5.1844 4.39463 5.1844H5.17861C6.01317 5.1844 6.77186 5.79136 6.87302 6.62592C6.99947 7.58693 6.29136 8.39621 5.38093 8.44679V9.10432C5.38093 9.18019 5.30506 9.25606 5.22919 9.25606H4.49578C4.41992 9.25606 4.34405 9.18019 4.34405 9.10432V8.47208C3.56006 8.39621 2.92782 7.78925 2.85195 7.03056C2.85195 6.9294 2.90253 6.85353 3.00369 6.85353H3.76238C3.83825 6.85353 3.88883 6.90411 3.91412 6.97998C3.9647 7.25817 4.2176 7.46048 4.49578 7.46048H5.27977C5.63382 7.46048 5.91201 7.15701 5.86143 6.80295C5.83614 6.49947 5.55796 6.27186 5.22919 6.27186H4.54636C3.7118 6.27186 2.95311 5.66491 2.85195 4.83035C2.70021 3.86934 3.40832 3.06006 4.31876 2.98419ZM3.33246 11.2034H13.4231C13.7013 11.2034 13.9289 11.431 13.9289 11.7092C13.9289 11.9874 13.7013 12.215 13.4231 12.215H3.33246C3.05427 12.215 2.82666 11.9874 2.82666 11.7092C2.82666 11.431 3.05427 11.2034 3.33246 11.2034ZM8.39041 17.981H3.33246C3.05427 17.981 2.82666 17.7534 2.82666 17.4752C2.82666 17.197 3.05427 16.9694 3.33246 16.9694H8.39041C8.6686 16.9694 8.89621 17.197 8.89621 17.4752C8.89621 17.7534 8.6686 17.981 8.39041 17.981ZM9.47787 15.098H3.33246C3.05427 15.098 2.82666 14.8704 2.82666 14.5922C2.82666 14.314 3.05427 14.0864 3.33246 14.0864H9.47787C9.75606 14.0864 9.98367 14.314 9.98367 14.5922C9.98367 14.8704 9.75606 15.098 9.47787 15.098Z" fill="#00AAF0"/>
</g>
<defs>
<clipPath id="clip0_1347_350">
<rect width="21" height="24" fill="white" transform="translate(0.5)"/>
</clipPath>
</defs>
</svg>
