<svg width="26" height="25" viewBox="0 0 26 25" fill="none" xmlns="http://www.w3.org/2000/svg">
<g clip-path="url(#clip0_1347_347)">
<path d="M12.9731 0C10.6202 0.00303881 8.36463 0.939033 6.70091 2.60272C5.03718 4.26641 4.10115 6.52199 4.09806 8.87483C4.0958 9.63262 4.1933 10.3874 4.38804 11.1198C5.47991 10.8495 6.60382 10.7308 7.72807 10.7673C10.7406 10.8623 13.5556 12.0473 15.4555 14.0147C15.7915 14.3648 16.0991 14.741 16.3755 15.1397L20.6031 13.3997C21.421 12.0324 21.8514 10.4682 21.8481 8.87483C21.8454 6.52186 20.9095 4.26603 19.2457 2.60225C17.5819 0.93847 15.326 0.00261301 12.9731 0ZM12.1681 10.4123L9.17806 7.42235L10.2381 6.36238L12.1681 8.29233L15.7331 4.7274L16.7931 5.78738L12.1681 10.4123Z" fill="#00AAF0"/>
<path d="M25.3525 17.5576C25.2425 17.9037 25.0592 18.222 24.815 18.4908C24.5708 18.7596 24.2715 18.9725 23.9375 19.1151L10.175 25L9.87 24.855C3.6725 21.9126 2.8425 21.4676 2.655 21.3226L3.7325 20.2251C4.5775 20.6651 7.9225 22.27 10.2075 23.355L23.35 17.7351C23.4858 17.6772 23.6076 17.5906 23.7069 17.4813C23.8061 17.372 23.8806 17.2426 23.9253 17.1018C23.9699 16.961 23.9836 16.8123 23.9654 16.6657C23.9473 16.5192 23.8977 16.3783 23.82 16.2527C23.6926 16.0448 23.4951 15.8893 23.2632 15.8142C23.0313 15.739 22.7801 15.7491 22.555 15.8427L12.5475 19.9601L7.765 17.5226L8.445 16.1877L12.615 18.3126L14.3475 17.5976C14.0755 17.0467 13.7206 16.5408 13.295 16.0977C10.4475 13.1427 5.08 12.9327 1.91752 15.6177L0.5 14.9177C0.575003 14.8058 0.666933 14.7063 0.7725 14.6227C4.475 11.3053 10.9575 11.5128 14.375 15.0552C14.9316 15.6347 15.3917 16.2998 15.7375 17.0252L21.9825 14.4552C22.4273 14.2718 22.9153 14.2193 23.389 14.3038C23.8627 14.3883 24.3024 14.6063 24.6564 14.9322C25.0104 15.2581 25.264 15.6783 25.3873 16.1434C25.5106 16.6085 25.4986 17.0992 25.3525 17.5576Z" fill="#00AAF0"/>
</g>
<defs>
<clipPath id="clip0_1347_347">
<rect width="25" height="25" fill="white" transform="translate(0.5)"/>
</clipPath>
</defs>
</svg>
