<svg width="21" height="18" viewBox="0 0 21 18" fill="none" xmlns="http://www.w3.org/2000/svg">
<g clip-path="url(#clip0_1347_181)">
<path d="M10.5 1.60563C7.59137 1.60563 5.22515 3.97235 5.22515 6.88098C5.22515 9.78987 7.59187 12.1558 10.5 12.1558C13.4086 12.1558 15.7754 9.78962 15.7754 6.88098C15.7754 3.97235 13.4086 1.60563 10.5 1.60563ZM10.5 11.4018C8.0071 11.4018 5.9787 9.37414 5.9792 6.88098C5.9792 4.38809 8.0071 2.35968 10.5 2.35968C12.9929 2.35968 15.0213 4.38783 15.0213 6.88098C15.0213 9.37363 12.9929 11.402 10.5 11.4018ZM18.6978 0L2.30168 0.000251453C1.31111 0.000251453 0.5 0.808596 0.5 1.80219V11.9595C0.5 12.9534 1.31111 13.7615 2.3047 13.7615H5.61449C5.82272 13.7615 5.99152 13.5927 5.99152 13.3844C5.99152 13.1762 5.82272 13.0074 5.61449 13.0074H2.3047C1.72383 13.0074 1.25405 12.5374 1.25405 11.9595V1.80219C1.25405 1.22433 1.72433 0.754053 2.30168 0.754053H18.6978C19.2762 0.754053 19.7459 1.22433 19.7459 1.80219V11.9595C19.7459 12.5374 19.2757 13.0072 18.6978 13.0074H15.388C15.1798 13.0074 15.011 13.1762 15.011 13.3844C15.011 13.5927 15.1798 13.7615 15.388 13.7615H18.6978C19.6914 13.7615 20.5 12.9531 20.5 11.9595V1.80219C20.5 0.808596 19.6914 0 18.6978 0ZM10.5902 4.838C10.8137 4.838 10.9914 4.91768 11.1234 5.07729C11.2558 5.2369 11.3227 5.47744 11.3227 5.79942H12.4852C12.4852 5.27636 12.3517 4.85107 12.082 4.52231C11.8146 4.19228 11.4428 3.99573 10.968 3.92887V3.05567H10.3236V3.91655C9.84397 3.96456 9.45941 4.13397 9.16935 4.42327C8.87979 4.71308 8.73476 5.08609 8.73476 5.53877C8.73476 5.80168 8.77699 6.02765 8.86144 6.21868C8.9459 6.4092 9.06378 6.57484 9.21434 6.7156C9.36615 6.85711 9.54512 6.98278 9.75977 7.08961C9.97241 7.19869 10.2243 7.30728 10.5168 7.41762C10.8089 7.52771 11.015 7.64761 11.1384 7.77906C11.2596 7.90951 11.3217 8.0842 11.3217 8.30413C11.3217 8.51602 11.2536 8.68418 11.1173 8.8091C10.9803 8.93377 10.7938 8.9961 10.5576 8.9961C10.2733 8.99636 10.0554 8.9109 9.90279 8.73947C9.75097 8.56956 9.67657 8.32575 9.67657 8.00528L8.51357 8.00553C8.51357 8.55549 8.66489 8.9956 8.96676 9.32738C9.26863 9.65816 9.69442 9.85522 10.2441 9.91253L10.2446 10.7091L10.8838 10.7088V9.90826C11.382 9.85723 11.7738 9.68933 12.0581 9.40505C12.3424 9.12077 12.4847 8.75053 12.4847 8.29458C12.4852 8.05077 12.4475 7.83712 12.3718 7.65238C12.2972 7.46915 12.1886 7.30401 12.0468 7.1625C11.9045 7.01923 11.7301 6.89028 11.523 6.77642C11.3174 6.66231 11.0537 6.54066 10.7325 6.41247C10.4125 6.28378 10.1931 6.1576 10.0752 6.03443C9.95683 5.91102 9.89852 5.74664 9.89852 5.5438C9.89852 5.32387 9.95834 5.15119 10.0797 5.02677C10.2006 4.90009 10.3703 4.838 10.5902 4.838ZM4.17299 11.9226C4.38122 11.9226 4.55002 11.7538 4.55002 11.5456C4.55002 11.3373 4.38122 11.1685 4.17299 11.1685H2.87678C2.66865 11.1685 2.49989 11.3372 2.49975 11.5453C2.49961 11.7536 2.66845 11.9226 2.87678 11.9226H4.17299ZM4.55052 2.21616C4.55052 2.00794 4.38172 1.83914 4.17349 1.83914H2.87652C2.6683 1.83914 2.4995 2.00794 2.4995 2.21616C2.4995 2.42439 2.6683 2.59319 2.87652 2.59319H4.1735C4.38172 2.59319 4.55052 2.42439 4.55052 2.21616ZM16.45 11.5456C16.45 11.7538 16.6188 11.9226 16.827 11.9226H18.1232C18.3315 11.9226 18.5004 11.7536 18.5003 11.5453C18.5001 11.3372 18.3314 11.1685 18.1232 11.1685H16.827C16.6188 11.1685 16.45 11.3373 16.45 11.5456ZM18.5005 2.21641C18.5005 2.00819 18.3317 1.83939 18.1235 1.83939H16.8268C16.6184 1.83939 16.4496 2.00834 16.4497 2.21666C16.4499 2.42479 16.6186 2.59344 16.8268 2.59344H18.1235C18.3317 2.59344 18.5005 2.42464 18.5005 2.21641ZM7.77988 15.7577C7.77988 15.9659 7.94868 16.1347 8.15691 16.1347C8.36513 16.1347 8.53393 15.9659 8.53393 15.7577V13.3842C8.53393 13.176 8.36513 13.0072 8.15691 13.0072C7.94868 13.0072 7.77988 13.176 7.77988 13.3842V15.7577ZM12.4661 15.7577C12.4661 15.9659 12.6349 16.1347 12.8431 16.1347C13.0513 16.1347 13.2201 15.9659 13.2201 15.7577V13.3842C13.2201 13.176 13.0513 13.0072 12.8431 13.0072C12.6349 13.0072 12.4661 13.176 12.4661 13.3842V15.7577ZM10.123 17.4161C10.123 17.6243 10.2918 17.7931 10.5 17.7931C10.7082 17.7931 10.877 17.6243 10.877 17.4161V13.3844C10.877 13.1762 10.7082 13.0074 10.5 13.0074C10.2918 13.0074 10.123 13.1762 10.123 13.3844V17.4161Z" fill="#00AAF0"/>
</g>
<defs>
<clipPath id="clip0_1347_181">
<rect width="20" height="18" fill="white" transform="translate(0.5)"/>
</clipPath>
</defs>
</svg>
