<svg width="23" height="22" viewBox="0 0 23 22" fill="none" xmlns="http://www.w3.org/2000/svg">
<g clip-path="url(#clip0_1347_354)">
<path d="M10.8667 11.5616H8.81379V16.5169C8.81379 16.6939 8.7076 16.8709 8.53063 16.9771C8.49523 17.0125 8.38905 17.0479 8.31826 17.0479C8.24747 17.0479 8.14128 17.0125 8.07049 16.9771L6.47771 16.0568L4.84954 16.9771C4.67256 17.0833 4.49558 17.0833 4.31861 16.9771C4.14163 16.8709 4.07084 16.6939 4.07084 16.5169V11.5616H2.01793C1.73477 11.5616 1.487 11.8094 1.487 12.0926V20.9413C1.487 21.2245 1.73477 21.4723 2.01793 21.4723H10.8667C11.1499 21.4723 11.3976 21.2245 11.3976 20.9413V12.0926C11.3976 11.8094 11.1499 11.5616 10.8667 11.5616Z" fill="#00AAF0"/>
<path d="M6.69007 14.995L7.75192 15.5967V11.5616H5.09729V15.5967L6.15914 14.995C6.33612 14.8888 6.54849 14.8888 6.69007 14.995Z" fill="#00AAF0"/>
<path d="M21.8392 11.5616H19.7863V16.5169C19.7863 16.6939 19.6801 16.8709 19.5031 16.9771C19.4677 17.0125 19.3615 17.0479 19.2907 17.0479C19.2199 17.0479 19.1138 17.0125 19.043 16.9771L17.4502 16.0568L15.822 16.9771C15.645 17.0833 15.4681 17.0833 15.2911 16.9771C15.1141 16.8709 15.0079 16.6939 15.0079 16.5169V11.5616H12.9904C12.7072 11.5616 12.4595 11.8094 12.4595 12.0926V20.9413C12.4595 21.2245 12.7072 21.4723 12.9904 21.4723H21.8392C22.1223 21.4723 22.3701 21.2245 22.3701 20.9413V12.0926C22.3701 11.8094 22.1223 11.5616 21.8392 11.5616Z" fill="#00AAF0"/>
<path d="M16.1052 15.5967L17.1671 14.995C17.3441 14.8888 17.521 14.8888 17.698 14.995L18.7599 15.5967V11.5616H16.1052V15.5967Z" fill="#00AAF0"/>
<path d="M7.50419 10.4998H16.353C16.6361 10.4998 16.8839 10.252 16.8839 9.96885V1.12007C16.8839 0.836908 16.6361 0.589142 16.353 0.589142H14.3001V5.54446C14.3001 5.72143 14.1939 5.89841 14.0169 6.00459C13.9461 6.03999 13.8399 6.07539 13.7337 6.07539C13.6275 6.07539 13.5568 6.03999 13.486 6.00459L11.9286 5.08432L10.3358 6.00459C10.1588 6.11078 9.98185 6.11078 9.80488 6.00459C9.6279 5.89841 9.52172 5.72143 9.52172 5.54446V0.589142H7.4688C7.22103 0.589142 6.97327 0.836908 6.97327 1.12007V9.96885C6.97327 10.252 7.22103 10.4998 7.50419 10.4998Z" fill="#00AAF0"/>
<path d="M12.1763 4.02247L13.2381 4.62419V0.589142H10.5835V4.62419L11.6453 4.02247C11.8223 3.91628 12.0347 3.91628 12.1763 4.02247Z" fill="#00AAF0"/>
</g>
<defs>
<clipPath id="clip0_1347_354">
<rect width="22" height="22" fill="white" transform="translate(0.5)"/>
</clipPath>
</defs>
</svg>
