<svg width="86" height="83" viewBox="0 0 86 83" fill="none" xmlns="http://www.w3.org/2000/svg">
<g clip-path="url(#clip0_1347_183)">
<path d="M68.8645 23.3368L14.2567 32.4381L38.2785 8.02271L68.8645 23.3368Z" fill="#1F2A37"/>
<path d="M14.2568 32.6135C14.2221 32.6137 14.1881 32.6036 14.1592 32.5846C14.1302 32.5655 14.1075 32.5383 14.094 32.5063C14.0805 32.4744 14.0767 32.4391 14.0832 32.4051C14.0896 32.371 14.106 32.3396 14.1303 32.3148L38.1521 7.89591C38.1784 7.86983 38.2123 7.85273 38.2489 7.84705C38.2855 7.84137 38.323 7.8474 38.3559 7.86429L68.9278 23.1819C68.962 23.1971 68.99 23.2235 69.0072 23.2566C69.0245 23.2898 69.0299 23.3279 69.0227 23.3646C69.0194 23.4011 69.0047 23.4356 68.9807 23.4633C68.9568 23.491 68.9248 23.5106 68.8892 23.5192L14.2849 32.61L14.2568 32.6135ZM38.3173 8.23677L14.7734 32.1742L68.3024 23.2522L38.3173 8.23677Z" fill="#1F2A37"/>
<path d="M73.9071 59.9702L22.3952 69.2367L14.327 32.7612L68.9067 23.6599L73.9071 59.9702Z" fill="#1F2A37"/>
<path d="M22.3987 69.4122C22.3585 69.4131 22.3193 69.3998 22.2879 69.3748C22.2564 69.3498 22.2347 69.3145 22.2265 69.2752L14.1443 32.7962C14.1347 32.7502 14.1435 32.7022 14.1689 32.6627C14.1822 32.642 14.1997 32.6244 14.2203 32.6111C14.2409 32.5977 14.2641 32.589 14.2884 32.5853L68.8891 23.4841C68.9361 23.4768 68.984 23.4882 69.0227 23.5157C69.0419 23.5298 69.058 23.5477 69.0701 23.5682C69.0822 23.5887 69.0899 23.6115 69.0929 23.6352L74.0934 59.9455C74.0969 59.9678 74.0959 59.9907 74.0906 60.0127C74.0852 60.0347 74.0756 60.0555 74.0622 60.0738C74.0488 60.092 74.032 60.1075 74.0126 60.1193C73.9932 60.131 73.9717 60.1388 73.9493 60.1422L22.4268 69.4087L22.3987 69.4122ZM14.5379 32.9016L22.5323 69.0362L73.7104 59.826L68.7591 23.8706L14.5379 32.9016Z" fill="#1F2A37"/>
<path d="M26.721 57.1663C26.721 57.1663 17.2331 27.8805 12.6649 18.976L63.5232 5.12378L66.6859 50.4546L26.721 57.1663Z" fill="#00AAF0"/>
<path d="M21.573 24.0992C21.5339 24.0994 21.4959 24.0863 21.4652 24.0621C21.4346 24.0378 21.4131 24.0038 21.4043 23.9657C21.3924 23.921 21.3987 23.8734 21.4217 23.8333C21.4448 23.7931 21.4827 23.7637 21.5273 23.7514L58.9269 14.0562C58.9735 14.0445 59.0229 14.0519 59.064 14.0766C59.1052 14.1013 59.1349 14.1414 59.1466 14.188C59.1582 14.2346 59.1509 14.2839 59.1262 14.3251C59.1015 14.3663 59.0614 14.3959 59.0148 14.4076L21.6151 24.0922L21.573 24.0992Z" fill="white"/>
<path d="M23.1543 30.2314C23.1145 30.2321 23.0758 30.2187 23.0449 30.1937C23.014 30.1686 22.993 30.1334 22.9856 30.0943C22.9804 30.072 22.9798 30.0487 22.9838 30.0261C22.9877 30.0035 22.9962 29.9819 23.0086 29.9625C23.0211 29.9432 23.0373 29.9266 23.0562 29.9136C23.0752 29.9006 23.0966 29.8916 23.1191 29.887L59.331 21.7626C59.3776 21.7528 59.4262 21.762 59.4661 21.788C59.5059 21.814 59.5338 21.8548 59.5436 21.9014C59.5534 21.948 59.5443 21.9966 59.5182 22.0365C59.4922 22.0763 59.4514 22.1042 59.4048 22.114L23.207 30.2279L23.1543 30.2314Z" fill="white"/>
<path d="M26.2572 35.9695C26.2165 35.9702 26.1769 35.9565 26.1453 35.9308C26.1138 35.905 26.0924 35.869 26.085 35.829C26.0804 35.8064 26.0802 35.7831 26.0846 35.7604C26.089 35.7378 26.0978 35.7162 26.1105 35.6969C26.1233 35.6777 26.1397 35.6611 26.1588 35.6482C26.1779 35.6353 26.1994 35.6263 26.222 35.6217L60.8526 28.8958C60.875 28.8913 60.8981 28.8912 60.9205 28.8956C60.943 28.9 60.9643 28.9089 60.9833 28.9216C61.0022 28.9344 61.0185 28.9508 61.031 28.9699C61.0436 28.989 61.0522 29.0104 61.0564 29.0329C61.0616 29.0555 61.062 29.079 61.0579 29.1018C61.0537 29.1246 61.0449 29.1464 61.0321 29.1658C61.0193 29.1851 61.0027 29.2017 60.9834 29.2145C60.964 29.2273 60.9422 29.236 60.9194 29.2402L26.2888 35.966L26.2572 35.9695Z" fill="white"/>
<path d="M27.9052 43.2927C27.8586 43.2964 27.8124 43.2815 27.7768 43.2512C27.7412 43.2209 27.7191 43.1776 27.7154 43.131C27.7117 43.0844 27.7266 43.0383 27.7569 43.0027C27.7872 42.9671 27.8304 42.945 27.877 42.9413L60.7261 37.5965C60.7727 37.589 60.8203 37.6004 60.8585 37.6281C60.8968 37.6557 60.9224 37.6975 60.9299 37.7441C60.9373 37.7907 60.926 37.8383 60.8983 37.8765C60.8706 37.9148 60.8289 37.9404 60.7823 37.9479L27.9333 43.2892L27.9052 43.2927Z" fill="white"/>
<path d="M45.2222 46.87L14.327 32.7612L22.3952 69.2367L73.9071 59.9702L68.9067 23.6599L45.2222 46.87Z" fill="white"/>
<path d="M22.3987 69.4124C22.3586 69.4133 22.3194 69.4 22.2879 69.375C22.2565 69.35 22.2348 69.3147 22.2266 69.2754L14.1443 32.7964C14.1373 32.7644 14.1394 32.7311 14.1503 32.7002C14.1613 32.6693 14.1806 32.6421 14.2062 32.6216C14.2318 32.6011 14.2626 32.5882 14.2951 32.5843C14.3276 32.5805 14.3606 32.5857 14.3903 32.5996L45.1766 46.6557L68.7837 23.5194C68.8069 23.4961 68.8362 23.4798 68.8683 23.4724C68.9003 23.4649 68.9337 23.4666 68.9649 23.4772C68.996 23.4878 69.0235 23.5069 69.0443 23.5324C69.0651 23.5579 69.0783 23.5887 69.0824 23.6213L74.0829 59.9316C74.0864 59.954 74.0854 59.9768 74.0801 59.9989C74.0747 60.0209 74.0651 60.0416 74.0517 60.0599C74.0383 60.0782 74.0214 60.0936 74.0021 60.1054C73.9827 60.1171 73.9612 60.125 73.9388 60.1284L22.4269 69.4089L22.3987 69.4124ZM14.573 33.067L22.5323 69.0364L73.7104 59.8262L68.7908 24.0289L45.3453 46.9965C45.3195 47.0211 45.2869 47.0373 45.2518 47.0429C45.2166 47.0486 45.1806 47.0434 45.1485 47.0281L14.573 33.067Z" fill="#1F2A37"/>
<path d="M73.9106 59.9704L22.3987 69.2368L45.2257 46.8701L73.9106 59.9704Z" fill="white"/>
<path d="M22.3988 69.4124C22.3662 69.4128 22.3342 69.4041 22.3062 69.3873C22.2783 69.3706 22.2556 69.3464 22.2406 69.3175C22.2236 69.2843 22.2178 69.2465 22.2242 69.2097C22.2305 69.173 22.2486 69.1393 22.2758 69.1137L45.1169 46.7435C45.1426 46.7189 45.1752 46.7027 45.2103 46.6971C45.2455 46.6914 45.2815 46.6966 45.3136 46.7118L73.995 59.8086C74.029 59.8245 74.0571 59.8507 74.0754 59.8835C74.0937 59.9163 74.1012 59.954 74.0969 59.9913C74.0924 60.0281 74.0764 60.0625 74.0512 60.0897C74.0259 60.1168 73.9927 60.1353 73.9564 60.1424L22.4304 69.4124H22.3988ZM45.2609 47.0808L22.9294 68.9626L73.3238 59.8964L45.2609 47.0808Z" fill="#1F2A37"/>
<path d="M73.9106 59.9704L22.3987 69.2368L45.2257 46.8701L73.9106 59.9704Z" fill="white"/>
<path d="M22.3988 69.4124C22.3662 69.4128 22.3342 69.4041 22.3062 69.3873C22.2783 69.3706 22.2556 69.3464 22.2406 69.3175C22.2236 69.2843 22.2178 69.2465 22.2242 69.2097C22.2305 69.173 22.2486 69.1393 22.2758 69.1137L45.1169 46.7435C45.1426 46.7189 45.1752 46.7027 45.2103 46.6971C45.2455 46.6914 45.2815 46.6966 45.3136 46.7118L73.995 59.8086C74.029 59.8245 74.0571 59.8507 74.0754 59.8835C74.0937 59.9163 74.1012 59.954 74.0969 59.9913C74.0924 60.0281 74.0764 60.0625 74.0512 60.0897C74.0259 60.1168 73.9927 60.1353 73.9564 60.1424L22.4304 69.4124H22.3988ZM45.2609 47.0808L22.9294 68.9626L73.3238 59.8964L45.2609 47.0808Z" fill="#1F2A37"/>
<path d="M70.3263 9.70947C70.3263 9.70947 69.5778 12.5207 67.2129 12.591C67.2129 12.591 69.7078 13.2938 70.2314 15.6341C70.4638 14.9848 70.8478 14.4003 71.3514 13.9291C71.855 13.4579 72.4637 13.1136 73.127 12.9248C72.4479 12.6348 71.8432 12.1949 71.3581 11.6381C70.8731 11.0813 70.5204 10.422 70.3263 9.70947Z" fill="#D8D8D8"/>
<path d="M2.41449 31.0711C2.41449 31.0711 4.30151 33.7699 2.62884 35.8572C2.62884 35.8572 5.05 34.2126 7.45358 35.4671C7.06259 34.794 6.8379 34.0373 6.79817 33.2599C6.75845 32.4825 6.90483 31.7068 7.22517 30.9973C7.22517 30.9973 5.16948 32.2413 2.41449 31.0711Z" fill="#D8D8D8"/>
<path d="M19.3416 9.06641C19.3416 9.06641 19.7387 13.7682 16.179 15.1492C16.179 15.1492 20.3571 14.854 22.4339 18.1361C22.4339 18.1361 22.2863 14.5377 25.3646 12.4399C25.3365 12.4399 21.8998 12.5031 19.3416 9.06641Z" fill="#D8D8D8"/>
<path d="M0.801599 49.0102C0.758728 49.0102 0.717613 48.9932 0.687298 48.9629C0.656984 48.9325 0.639954 48.8914 0.639954 48.8486C0.639954 48.8057 0.656984 48.7646 0.687298 48.7343C0.717613 48.7039 0.758728 48.6869 0.801599 48.6869L11.695 48.093C11.7168 48.0906 11.7388 48.0927 11.7596 48.0994C11.7805 48.106 11.7996 48.117 11.8159 48.1316C11.8322 48.1462 11.8452 48.1641 11.854 48.1841C11.8629 48.2041 11.8674 48.2258 11.8672 48.2477C11.8692 48.29 11.8544 48.3313 11.8261 48.3629C11.7979 48.3944 11.7584 48.4136 11.7161 48.4163L0.822682 49.0102H0.801599Z" fill="#D8D8D8"/>
<path d="M26.9212 82.453C26.8901 82.4536 26.8596 82.445 26.8333 82.4284C26.7975 82.4046 26.7723 82.3679 26.7631 82.3259C26.7539 82.2839 26.7615 82.24 26.7841 82.2035L32.129 73.8928C32.1398 73.8735 32.1544 73.8567 32.172 73.8433C32.1896 73.8299 32.2098 73.8203 32.2312 73.815C32.2527 73.8097 32.275 73.8089 32.2968 73.8126C32.3186 73.8162 32.3394 73.8243 32.3579 73.8364C32.3765 73.8484 32.3923 73.8641 32.4046 73.8825C32.4168 73.901 32.4251 73.9217 32.429 73.9434C32.4329 73.9652 32.4323 73.9875 32.4272 74.009C32.4222 74.0305 32.4127 74.0508 32.3995 74.0685L27.0723 82.3792C27.0563 82.4041 27.0337 82.4242 27.0071 82.4373C26.9804 82.4503 26.9507 82.4557 26.9212 82.453Z" fill="#D8D8D8"/>
<path d="M6.7367 68.9979C6.70788 68.9976 6.67965 68.9897 6.65494 68.9748C6.63022 68.96 6.60992 68.9388 6.59614 68.9135C6.58568 68.8951 6.57901 68.8748 6.57653 68.8538C6.57405 68.8328 6.57581 68.8115 6.58171 68.7912C6.58761 68.7709 6.59752 68.752 6.61086 68.7356C6.62421 68.7191 6.64071 68.7056 6.65939 68.6957L14.7732 64.1415C14.8111 64.1211 14.8554 64.1164 14.8968 64.1282C14.9381 64.14 14.9732 64.1675 14.9946 64.2047C15.0053 64.2232 15.0122 64.2436 15.015 64.2647C15.0178 64.2858 15.0164 64.3073 15.0108 64.3279C15.0053 64.3484 14.9957 64.3677 14.9827 64.3846C14.9696 64.4014 14.9534 64.4156 14.9349 64.4261L6.82104 68.9943C6.79373 69.003 6.76463 69.0042 6.7367 68.9979Z" fill="#D8D8D8"/>
<path d="M66.8931 5.87203C66.8671 5.87196 66.8415 5.8656 66.8184 5.8535C66.7954 5.84139 66.7756 5.8239 66.7608 5.80251C66.7459 5.78112 66.7365 5.75646 66.7332 5.73063C66.7299 5.7048 66.733 5.67857 66.742 5.65416L68.7204 0.326919C68.7374 0.289757 68.7678 0.2604 68.8055 0.244751C68.8433 0.229102 68.8855 0.228323 68.9238 0.242569C68.9621 0.256816 68.9936 0.285033 69.0119 0.321544C69.0302 0.358055 69.0341 0.400151 69.0226 0.439367L67.0442 5.78067C67.031 5.8092 67.0095 5.83313 66.9826 5.84941C66.9557 5.86568 66.9245 5.87356 66.8931 5.87203Z" fill="#D8D8D8"/>
<path d="M75.6888 38.4786C75.6508 38.479 75.6139 38.4658 75.5848 38.4413C75.5558 38.4167 75.5366 38.3826 75.5307 38.345C75.5271 38.324 75.5278 38.3025 75.5326 38.2818C75.5374 38.2611 75.5463 38.2415 75.5587 38.2242C75.5711 38.2069 75.5868 38.1922 75.6049 38.181C75.623 38.1697 75.6432 38.1622 75.6642 38.1588L84.1716 36.7532C84.2139 36.747 84.2569 36.7575 84.2917 36.7824C84.3264 36.8073 84.3501 36.8447 84.3579 36.8867C84.3614 36.9077 84.3607 36.9292 84.3559 36.95C84.3511 36.9707 84.3422 36.9903 84.3298 37.0076C84.3174 37.0249 84.3017 37.0396 84.2836 37.0508C84.2655 37.062 84.2454 37.0696 84.2243 37.073L75.7134 38.461L75.6888 38.4786Z" fill="#D8D8D8"/>
<path d="M77.9517 75.1087C77.9271 75.1089 77.9028 75.1033 77.8808 75.0923C77.8588 75.0813 77.8398 75.0652 77.8252 75.0454L72.4804 68.3196C72.4545 68.2853 72.4429 68.2423 72.4481 68.1997C72.4534 68.157 72.475 68.1181 72.5085 68.0912C72.5248 68.0778 72.5436 68.0678 72.5638 68.0618C72.584 68.0557 72.6052 68.0538 72.6262 68.0561C72.6471 68.0584 72.6674 68.0649 72.6858 68.0751C72.7042 68.0853 72.7204 68.0992 72.7334 68.1158L78.0782 74.8451C78.0915 74.8619 78.1014 74.8811 78.1071 74.9018C78.1129 74.9224 78.1146 74.9439 78.1119 74.9652C78.1093 74.9864 78.1025 75.007 78.0919 75.0256C78.0813 75.0441 78.0671 75.0605 78.0501 75.0735C78.0219 75.0953 77.9874 75.1076 77.9517 75.1087Z" fill="#D8D8D8"/>
<path d="M13.3958 16.2207C13.3571 16.2211 13.3196 16.2073 13.2904 16.182L9.47066 12.8999C9.44123 12.8692 9.4248 12.8283 9.4248 12.7857C9.4248 12.7432 9.44123 12.7022 9.47066 12.6715C9.48419 12.6549 9.50096 12.6412 9.51995 12.6313C9.53893 12.6214 9.55974 12.6154 9.58111 12.6137C9.60247 12.6121 9.62393 12.6148 9.64421 12.6217C9.66448 12.6286 9.68315 12.6396 9.69907 12.6539L13.5188 15.936C13.5354 15.9496 13.5491 15.9663 13.559 15.9853C13.5689 16.0043 13.5749 16.0251 13.5766 16.0465C13.5782 16.0678 13.5755 16.0893 13.5686 16.1096C13.5617 16.1298 13.5507 16.1485 13.5364 16.1644C13.5197 16.1851 13.4981 16.2011 13.4734 16.2109C13.4488 16.2208 13.4221 16.2241 13.3958 16.2207Z" fill="#D8D8D8"/>
<g filter="url(#filter0_d_1347_183)">
<path d="M72.1502 66.9986C77.0991 66.9986 81.1109 62.9868 81.1109 58.0379C81.1109 53.089 77.0991 49.0771 72.1502 49.0771C67.2013 49.0771 63.1895 53.089 63.1895 58.0379C63.1895 62.9868 67.2013 66.9986 72.1502 66.9986Z" fill="#00AAF0"/>
<path d="M75.1068 54.5428L73.4688 56.8767L73.154 56.0034C72.0668 56.2921 70.9966 56.641 69.9481 57.0484C68.7395 57.5297 67.5756 58.1279 67.2412 58.746C66.4747 60.166 68.2753 60.7937 68.2753 60.7937C67.9328 60.8211 67.5883 60.8128 67.2474 60.7689C66.3493 60.6511 65.2341 60.2161 65.557 58.746C65.8122 57.5846 67.4735 56.6077 69.1058 55.9118H69.1082C69.3467 55.8106 69.5852 55.7157 69.817 55.6256L69.8236 55.6227C70.6969 55.2888 71.5874 55.0022 72.4914 54.7641L72.3345 54L75.1068 54.5428Z" fill="white"/>
<path d="M69.2672 61.9618L70.9052 59.6279L71.22 60.5013C72.3072 60.2125 73.3774 59.8636 74.4259 59.4562C75.6346 58.9749 76.7984 58.3768 77.1328 57.7586C77.8993 56.3386 76.0987 55.7109 76.0987 55.7109C76.4412 55.6835 76.7857 55.6918 77.1266 55.7357C78.0248 55.8535 79.14 56.2885 78.817 57.7586C78.5618 58.9201 76.9005 59.8969 75.2682 60.5929H75.2659C75.0274 60.694 74.7889 60.7889 74.5571 60.8791L74.5504 60.8819C73.6772 61.2158 72.7866 61.5024 71.8826 61.7405L72.0395 62.5046L69.2672 61.9618Z" fill="white"/>
</g>
</g>
<defs>
<filter id="filter0_d_1347_183" x="59.1895" y="45.0771" width="25.9215" height="25.9215" filterUnits="userSpaceOnUse" color-interpolation-filters="sRGB">
<feFlood flood-opacity="0" result="BackgroundImageFix"/>
<feColorMatrix in="SourceAlpha" type="matrix" values="0 0 0 0 0 0 0 0 0 0 0 0 0 0 0 0 0 0 127 0" result="hardAlpha"/>
<feOffset/>
<feGaussianBlur stdDeviation="2"/>
<feComposite in2="hardAlpha" operator="out"/>
<feColorMatrix type="matrix" values="0 0 0 0 0 0 0 0 0 0 0 0 0 0 0 0 0 0 0.15 0"/>
<feBlend mode="normal" in2="BackgroundImageFix" result="effect1_dropShadow_1347_183"/>
<feBlend mode="normal" in="SourceGraphic" in2="effect1_dropShadow_1347_183" result="shape"/>
</filter>
<clipPath id="clip0_1347_183">
<rect width="85" height="83" fill="white" transform="translate(0.5)"/>
</clipPath>
</defs>
</svg>
