<svg width="18" height="19" viewBox="0 0 18 19" fill="none" xmlns="http://www.w3.org/2000/svg">
<path d="M16.3101 4.3605L12.6756 0.725943C12.3758 0.426185 12.0011 0.276306 11.5889 0.276306H2.63367C1.77187 0.276306 1.09741 0.950761 1.09741 1.81256V16.8004C1.09741 17.6623 1.77187 18.3367 2.63367 18.3367H15.2235C16.0853 18.3367 16.7598 17.6623 16.7598 16.8004V5.44713C16.7598 5.03496 16.6099 4.62279 16.3101 4.3605ZM7.69208 6.45881C7.01763 7.13326 6.34317 7.80772 5.66872 8.48217C5.14414 9.00675 4.35728 8.18242 4.88185 7.69531C5.70619 6.87098 6.49305 6.08411 7.31738 5.25978C7.5422 5.03496 7.87943 5.03496 8.10425 5.25978C8.7787 5.93423 9.45316 6.60869 10.1276 7.28314C10.8021 6.60869 11.514 5.89676 12.1884 5.22231C12.713 4.69773 13.4999 5.52207 12.9753 6.00917C12.151 6.83351 11.3266 7.65784 10.5023 8.48217C10.2775 8.70699 9.94026 8.70699 9.71544 8.48217C9.04099 7.80772 8.36654 7.13326 7.69208 6.45881ZM9.04099 11.2549C8.85364 11.2549 8.66629 11.2549 8.47894 11.2549C7.1675 11.2549 5.85606 11.2549 4.58209 11.2549C3.87017 11.2549 3.87017 10.1308 4.58209 10.1308C4.76944 10.1308 4.95679 10.1308 5.14414 10.1308C6.45558 10.1308 7.76702 10.1308 9.04099 10.1308C9.75291 10.1308 9.75291 11.2549 9.04099 11.2549ZM4.54462 14.29C4.80691 14.29 5.03173 14.29 5.29402 14.29C7.0551 14.29 8.7787 14.29 10.5398 14.29C11.2517 14.29 11.2517 15.4141 10.5398 15.4141C10.2775 15.4141 10.0527 15.4141 9.79038 15.4141C8.02931 15.4141 6.3057 15.4141 4.54462 15.4141C3.8327 15.4141 3.8327 14.29 4.54462 14.29ZM13.3125 13.3158C12.9378 13.3158 12.6006 13.3158 12.2259 13.3158C9.67797 13.3158 7.13003 13.3158 4.58209 13.3158C3.87017 13.3158 3.87017 12.1917 4.58209 12.1917C4.95679 12.1917 5.29402 12.1917 5.66872 12.1917C8.21666 12.1917 10.7646 12.1917 13.3125 12.1917C14.0245 12.1917 14.0245 13.3158 13.3125 13.3158Z" fill="#00AAF0"/>
</svg>
