<svg width="75" height="75" viewBox="0 0 75 75" fill="none" xmlns="http://www.w3.org/2000/svg">
<g clip-path="url(#clip0_1347_217)">
<path d="M69.2698 37.8439L19.7291 60.4608C18.6749 60.9411 17.4733 60.9837 16.3877 60.5792C15.3021 60.1747 14.4213 59.3562 13.9385 58.3032L1.26546 30.5351C1.02299 30.0197 0.892212 29.4587 0.881692 28.8892C0.848754 28.0235 1.07456 27.1677 1.53026 26.431C1.98597 25.6942 2.65091 25.1101 3.44017 24.753L52.9808 2.13604C53.5681 1.87192 54.2061 1.73962 54.8499 1.74846C55.4938 1.7573 56.1279 1.90706 56.7077 2.18721C57.6199 2.62761 58.3499 3.37262 58.7715 4.29369L71.4274 32.0702C71.6649 32.591 71.7975 33.1534 71.8176 33.7254C71.8377 34.2975 71.7449 34.8678 71.5445 35.404C71.3442 35.9401 71.0402 36.4315 70.6498 36.8502C70.2596 37.2688 69.7906 37.6065 69.2698 37.8439Z" fill="#00AAF0"/>
<path d="M69.2698 37.8439L19.7291 60.4608C18.6749 60.9411 17.4733 60.9837 16.3877 60.5792C15.3021 60.1747 14.4213 59.3562 13.9385 58.3032L1.26546 30.5351C1.02299 30.0197 0.892212 29.4587 0.881692 28.8892C0.848754 28.0235 1.07456 27.1677 1.53026 26.431C1.98597 25.6942 2.65091 25.1101 3.44017 24.753L52.9808 2.13604C53.5681 1.87192 54.2061 1.73962 54.8499 1.74846C55.4938 1.7573 56.1279 1.90706 56.7077 2.18721C57.6199 2.62761 58.3499 3.37262 58.7715 4.29369L71.4274 32.0702C71.6649 32.591 71.7975 33.1534 71.8176 33.7254C71.8377 34.2975 71.7449 34.8678 71.5445 35.404C71.3442 35.9401 71.0402 36.4315 70.6498 36.8502C70.2596 37.2688 69.7906 37.6065 69.2698 37.8439Z" fill="#008CC0"/>
<path d="M71.564 36.8461L22.0234 59.4631C20.9692 59.9434 19.7675 59.986 18.6819 59.5815C17.5964 59.177 16.7156 58.3585 16.2327 57.3054L3.5597 29.546C3.32029 29.029 3.1869 28.4693 3.1674 27.9C3.13617 27.0336 3.36257 26.1773 3.81798 25.4396C4.27339 24.7018 4.93734 24.1157 5.72587 23.7553L55.2665 1.14686C56.32 0.668327 57.5199 0.625708 58.6047 1.0283C59.6894 1.43089 60.571 2.24603 61.0572 3.29598L73.7302 31.0725C73.9674 31.5938 74.0995 32.1567 74.119 32.7291C74.1385 33.3015 74.045 33.8721 73.8438 34.4083C73.6427 34.9445 73.3378 35.4358 72.9466 35.8541C72.5554 36.2724 72.0856 36.6095 71.564 36.8461Z" fill="#00AAF0"/>
<path d="M58.9763 1.14679L43.5061 35.0722L3.1674 27.8573C3.13617 26.9909 3.36257 26.1346 3.81798 25.3969C4.27339 24.6591 4.93734 24.073 5.72587 23.7126L55.2665 1.10415C55.8499 0.837852 56.4849 0.70361 57.1262 0.710981C57.7674 0.718352 58.3992 0.867156 58.9763 1.14679Z" fill="url(#paint0_linear_1347_217)"/>
<path d="M29.042 32.4796L24.9911 58.0559L71.5639 36.8035L49.0408 22.9365L43.5059 35.0722L29.042 32.4796Z" fill="#008CC0"/>
<path d="M17.0823 74.0538C24.1474 74.0538 29.8747 68.3264 29.8747 61.2614C29.8747 54.1963 24.1474 48.469 17.0823 48.469C10.0173 48.469 4.2899 54.1963 4.2899 61.2614C4.2899 68.3264 10.0173 74.0538 17.0823 74.0538Z" fill="#DDF5FF"/>
<path d="M21.2978 56.0355L19.2368 58.9518L18.8407 57.8605C17.4728 58.2213 16.1262 58.6573 14.807 59.1664C13.2861 59.7678 11.8217 60.5152 11.401 61.2877C10.4365 63.0621 12.7022 63.8464 12.7022 63.8464C12.2711 63.8807 11.8377 63.8703 11.4088 63.8154C10.2787 63.6682 8.87547 63.1246 9.28179 61.2877C9.60288 59.8363 11.6933 58.6157 13.7471 57.7461H13.7501C14.0501 57.6197 14.3502 57.5011 14.6419 57.3884L14.6503 57.3849C15.749 56.9677 16.8696 56.6095 18.0071 56.312L17.8096 55.3572L21.2978 56.0355Z" fill="#00AAF0"/>
<path d="M12.1882 66.4875L14.2492 63.5711L14.6453 64.6624C16.0132 64.3016 17.3598 63.8657 18.679 63.3565C20.1998 62.7551 21.6643 62.0077 22.085 61.2353C23.0494 59.4609 20.7838 58.6765 20.7838 58.6765C21.2148 58.6423 21.6483 58.6527 22.0772 58.7075C23.2073 58.8547 24.6105 59.3983 24.2042 61.2353C23.8831 62.6866 21.7927 63.9073 19.7389 64.7769H19.7359C19.4358 64.9032 19.1357 65.0219 18.8441 65.1345L18.8357 65.1381C17.7369 65.5553 16.6164 65.9134 15.4789 66.2109L15.6764 67.1658L12.1882 66.4875Z" fill="#00AAF0"/>
</g>
<defs>
<linearGradient id="paint0_linear_1347_217" x1="22.7671" y1="-29.2612" x2="40.9354" y2="66.3905" gradientUnits="userSpaceOnUse">
<stop offset="0.01" stop-color="white"/>
<stop offset="1" stop-color="white" stop-opacity="0"/>
</linearGradient>
<clipPath id="clip0_1347_217">
<rect width="74" height="75" fill="white" transform="translate(0.5)"/>
</clipPath>
</defs>
</svg>
