<svg width="19" height="17" viewBox="0 0 19 17" fill="none" xmlns="http://www.w3.org/2000/svg">
<g clip-path="url(#clip0_1347_213)">
<path d="M15.5141 15.5401C15.2766 15.591 15.09 15.7945 15.09 16.049C15.09 16.3544 15.3615 16.6089 15.6668 16.558C17.2615 16.2865 18.483 14.8954 18.483 13.2158V13.0462C18.483 11.1291 16.8883 9.5853 14.9543 9.65316C13.1221 9.72102 11.697 11.2818 11.697 13.114V14.8615L10.8657 14.0302C10.6452 13.8096 10.2719 13.8266 10.0853 14.115C9.94958 14.3186 9.98351 14.59 10.1701 14.7766L11.8497 16.4562C11.9515 16.558 12.0872 16.6258 12.2738 16.5919C12.3926 16.5749 12.5113 16.5071 12.5961 16.4223L14.2757 14.7427C14.3775 14.6409 14.4284 14.5052 14.4284 14.3864C14.4284 14.2507 14.3775 14.098 14.2587 13.9962C14.0551 13.8266 13.7328 13.8436 13.5462 14.0471L12.7319 14.8615V13.0292C12.7319 11.672 13.8685 10.5862 15.2257 10.6541C16.4981 10.722 17.4821 11.8247 17.4821 13.0971V13.1989C17.4651 14.3695 16.6169 15.3365 15.5141 15.5401Z" fill="#00AAF0"/>
<path d="M0.5 12.7238C0.5 13.9453 1.48398 14.9293 2.70547 14.9293H7.1164C7.40481 14.9293 7.62535 14.7088 7.62535 14.4204C7.62535 14.132 7.40481 13.9114 7.1164 13.9114H2.70547C2.04383 13.9114 1.51791 13.3855 1.51791 12.7238V2.20547C1.51791 1.54383 2.04383 1.01791 2.70547 1.01791H16.2776C16.9392 1.01791 17.4651 1.54383 17.4651 2.20547V8.00754C17.4651 8.24505 17.6178 8.44863 17.8553 8.49953C17.8553 8.49953 17.8553 8.49953 17.8723 8.49953C18.1946 8.58435 18.5 8.32988 18.5 8.00754V2.20547C18.5 0.983977 17.516 0 16.2945 0H2.70547C1.48398 0 0.5 0.983977 0.5 2.20547V12.7238Z" fill="#00AAF0"/>
<path d="M16.0909 5.0556C16.2776 4.83506 16.2436 4.51272 16.0231 4.34307C15.8025 4.15645 15.4802 4.19038 15.3105 4.41093C15.3105 4.42789 14.4453 5.42884 13.2917 6.41281C11.7988 7.65127 10.4925 8.31291 9.49152 8.31291C8.49058 8.31291 7.18426 7.65127 5.69133 6.39585C4.52074 5.41187 3.67248 4.41093 3.67248 4.39396C3.48586 4.17342 3.16353 4.15645 2.95995 4.3261C2.7394 4.51272 2.72243 4.83506 2.89208 5.03864C3.04477 5.22526 6.53959 9.33082 9.49152 9.33082C12.4434 9.33082 15.9383 5.22526 16.0909 5.0556Z" fill="#00AAF0"/>
</g>
<defs>
<clipPath id="clip0_1347_213">
<rect width="18" height="17" fill="white" transform="translate(0.5)"/>
</clipPath>
</defs>
</svg>
