<svg width="21" height="14" viewBox="0 0 21 14" fill="none" xmlns="http://www.w3.org/2000/svg">
<g clip-path="url(#clip0_1347_228)">
<path d="M8.67003 8.33067C8.67003 8.46381 8.61714 8.5915 8.523 8.68564C8.42886 8.77978 8.30117 8.83267 8.16803 8.83267H3.43669C3.30356 8.83267 3.17587 8.77978 3.08173 8.68564C2.98758 8.5915 2.93469 8.46381 2.93469 8.33067C2.93469 8.19753 2.98758 8.06985 3.08173 7.97571C3.17587 7.88156 3.30356 7.82867 3.43669 7.82867H8.17054C8.30325 7.82934 8.43029 7.88252 8.52389 7.97659C8.61749 8.07066 8.67003 8.19797 8.67003 8.33067ZM6.23534 10.7679C6.23534 10.6347 6.18245 10.5071 6.08831 10.4129C5.99416 10.3188 5.86648 10.2659 5.73334 10.2659H1.002C0.868861 10.2659 0.741175 10.3188 0.647032 10.4129C0.552889 10.5071 0.5 10.6347 0.5 10.7679C0.5 10.901 0.552889 11.0287 0.647032 11.1228C0.741175 11.217 0.868861 11.2699 1.002 11.2699H5.73334C5.86648 11.2699 5.99416 11.217 6.08831 11.1228C6.18245 11.0287 6.23534 10.901 6.23534 10.7679ZM8.17054 12.5625H3.43669C3.30356 12.5625 3.17587 12.6154 3.08173 12.7096C2.98758 12.8037 2.93469 12.9314 2.93469 13.0645C2.93469 13.1977 2.98758 13.3253 3.08173 13.4195C3.17587 13.5136 3.30356 13.5665 3.43669 13.5665H8.17054C8.30368 13.5665 8.43137 13.5136 8.52551 13.4195C8.61965 13.3253 8.67254 13.1977 8.67254 13.0645C8.67254 12.9314 8.61965 12.8037 8.52551 12.7096C8.43137 12.6154 8.30368 12.5625 8.17054 12.5625ZM10.4923 6.15702C10.7945 6.37111 11.1495 6.49869 11.5189 6.52599C11.8878 6.50017 12.2427 6.37435 12.5455 6.16204C14.4003 5.0476 14.8823 4.7715 16.7372 3.65204C17.2567 3.3408 16.7572 2.47736 16.2552 2.77856C14.4982 3.83025 14.1192 4.03356 12.3748 5.08525C11.9631 5.33625 11.7398 5.45673 11.5189 5.45673C11.298 5.45673 11.0721 5.33374 10.6605 5.08525C8.91601 4.03607 8.53449 3.83025 6.78001 2.77856C6.27801 2.47736 5.77601 3.3408 6.29809 3.65204C8.15548 4.76899 8.6374 5.04258 10.4923 6.15702ZM17.1714 5.66792e-10H5.87641C5.14415 5.66792e-10 4.44188 0.290889 3.92409 0.808676C3.4063 1.32646 3.11541 2.02873 3.11541 2.76099V5.98634C3.11541 6.64396 4.11941 6.56615 4.11941 5.98634V2.74342C4.11941 2.27744 4.30452 1.83054 4.63402 1.50104C4.96353 1.17154 5.41042 0.986428 5.87641 0.986428H17.1714C17.6374 0.986428 18.0843 1.17154 18.4138 1.50104C18.7433 1.83054 18.9284 2.27744 18.9284 2.74342V10.8055C18.9284 11.2715 18.7433 11.7184 18.4138 12.0479C18.0843 12.3774 17.6374 12.5625 17.1714 12.5625H10.6931C10.6212 12.5528 10.548 12.5589 10.4787 12.5802C10.4093 12.6015 10.3454 12.6375 10.2914 12.6859C10.2373 12.7343 10.1944 12.7938 10.1655 12.8604C10.1367 12.9269 10.1226 12.9989 10.1242 13.0715C10.1259 13.144 10.1432 13.2153 10.1751 13.2805C10.2069 13.3457 10.2525 13.4032 10.3088 13.449C10.365 13.4949 10.4305 13.528 10.5007 13.5461C10.571 13.5642 10.6443 13.5669 10.7157 13.554H17.1714C17.534 13.554 17.893 13.4826 18.228 13.3438C18.5629 13.205 18.8673 13.0017 19.1237 12.7453C19.3801 12.4889 19.5835 12.1845 19.7222 11.8496C19.861 11.5146 19.9324 11.1556 19.9324 10.793V2.74342C19.9277 2.01421 19.6348 1.31645 19.1175 0.802454C18.6002 0.288462 17.9006 -1.47649e-05 17.1714 5.66792e-10Z" fill="#00AAF0"/>
</g>
<defs>
<clipPath id="clip0_1347_228">
<rect width="20" height="14" fill="white" transform="translate(0.5)"/>
</clipPath>
</defs>
</svg>
