<svg width="23" height="21" viewBox="0 0 23 21" fill="none" xmlns="http://www.w3.org/2000/svg">
<g clip-path="url(#clip0_1347_370)">
<path fill-rule="evenodd" clip-rule="evenodd" d="M9.89392 10.4452C9.58623 10.3273 9.2652 10.2676 8.93931 10.2676C7.84152 10.2676 6.83935 10.9562 6.446 11.9815C5.91895 13.3554 6.60761 14.9021 7.98129 15.4294C8.28971 15.5476 8.61148 15.6075 8.93761 15.6075C10.0349 15.6075 11.0366 14.9188 11.4299 13.8936C11.9575 12.5197 11.2683 10.9727 9.89392 10.4452Z" fill="#00AAF0"/>
<path fill-rule="evenodd" clip-rule="evenodd" d="M15.219 13.5287C15.267 13.0196 15.2527 12.5127 15.1792 12.0174L16.3241 11.5073C16.2156 10.9529 16.0455 10.4059 15.8099 9.87691C15.5743 9.34792 15.2816 8.85581 14.9421 8.40422L13.797 8.91429C13.4784 8.52846 13.1115 8.17855 12.7009 7.87377L13.1499 6.70416C12.6808 6.38871 12.1741 6.12251 11.6332 5.9148C11.0945 5.70805 10.541 5.56489 9.97857 5.48578L9.52916 6.6566C9.02007 6.60831 8.5134 6.62287 8.01813 6.6964L7.51098 5.55785C6.37825 5.78037 5.31954 6.26083 4.41103 6.94706L4.91478 8.07833C4.52896 8.39719 4.1788 8.76433 3.87402 9.1749L2.70805 8.72744C2.38993 9.19529 2.12228 9.70244 1.91481 10.2428C1.70733 10.7832 1.56611 11.3382 1.487 11.8975L2.65661 12.3464C2.60832 12.8555 2.62288 13.3624 2.69641 13.8577L1.55179 14.3675C1.66001 14.9223 1.83012 15.469 2.06574 15.9982C2.3016 16.5274 2.594 17.0193 2.93372 17.4709L4.07834 16.9613C4.39719 17.3471 4.76433 17.697 5.17515 18.0018L4.72624 19.1712C5.1953 19.4869 5.70196 19.7528 6.24285 19.9606C6.78131 20.1673 7.33481 20.3102 7.89729 20.3896L8.34669 19.219C8.85579 19.267 9.36294 19.2525 9.85796 19.179L10.3651 20.3175C11.4976 20.0947 12.5568 19.6143 13.4653 18.928L12.9613 17.7968C13.3471 17.4779 13.6971 17.1108 14.0018 16.7002L15.1678 17.1477C15.4859 16.6801 15.7533 16.1729 15.9608 15.6325C16.1683 15.0919 16.3095 14.5369 16.3886 13.9776L15.219 13.5287ZM12.1098 14.1545C11.5913 15.5058 10.3035 16.3352 8.93781 16.3352C8.53281 16.3352 8.12126 16.2624 7.72039 16.1086C5.96986 15.4367 5.09435 13.4719 5.76627 11.7201C6.28531 10.3688 7.57334 9.53938 8.93902 9.53938C9.34353 9.53938 9.75435 9.61193 10.1547 9.76553C11.9067 10.4382 12.782 12.403 12.1098 14.1545Z" fill="#00AAF0"/>
<path fill-rule="evenodd" clip-rule="evenodd" d="M21.556 4.68742C21.556 4.46029 21.5325 4.23898 21.4927 4.0235L22.3701 3.51684C22.1576 2.70903 21.7353 1.98542 21.1585 1.41421L20.2791 1.92209C19.9433 1.63478 19.5546 1.4096 19.1294 1.25939V0.244111C18.7419 0.138069 18.3364 0.0769196 17.9161 0.0769196C17.4959 0.0769196 17.0904 0.138312 16.7029 0.244111V1.25915C16.2777 1.40935 15.889 1.63478 15.5531 1.92185L14.6737 1.41396C14.097 1.98518 13.6747 2.70878 13.4622 3.51659L14.3396 4.02326C14.2998 4.23898 14.2763 4.46029 14.2763 4.68717C14.2763 4.91406 14.2998 5.1356 14.3396 5.35108L13.4622 5.85775C13.6747 6.66556 14.097 7.38917 14.6737 7.96038L15.5531 7.4525C15.889 7.73981 16.2777 7.96499 16.7029 8.1152V9.13024C17.0904 9.23628 17.4959 9.29743 17.9161 9.29743C18.3364 9.29743 18.7419 9.23604 19.1294 9.13024V8.1152C19.5546 7.96499 19.9433 7.73956 20.2791 7.4525L21.1585 7.96038C21.7353 7.38917 22.1576 6.66556 22.3701 5.85775L21.4927 5.35108C21.5327 5.1356 21.556 4.9143 21.556 4.68742ZM17.9164 6.38602C16.978 6.38602 16.2175 5.62577 16.2175 4.68742C16.2175 3.74906 16.978 2.98881 17.9164 2.98881C18.8538 2.98881 19.6147 3.74906 19.6147 4.68742C19.6147 5.62577 18.854 6.38602 17.9164 6.38602Z" fill="#00AAF0"/>
<path fill-rule="evenodd" clip-rule="evenodd" d="M17.9164 3.7168C17.3811 3.7168 16.9455 4.15237 16.9455 4.68743C16.9455 5.22249 17.3811 5.65806 17.9164 5.65806C18.4514 5.65806 18.8868 5.22249 18.8868 4.68743C18.8868 4.15237 18.4514 3.7168 17.9164 3.7168Z" fill="#00AAF0"/>
</g>
<defs>
<clipPath id="clip0_1347_370">
<rect width="22" height="21" fill="white" transform="translate(0.5)"/>
</clipPath>
</defs>
</svg>
