<svg width="20" height="16" viewBox="0 0 20 16" fill="none" xmlns="http://www.w3.org/2000/svg">
<path d="M10.4551 0.459705C10.2339 0.143772 9.76606 0.143772 9.5449 0.459705L5.90881 5.65411L0.762515 3.59559C0.341753 3.42729 -0.0926412 3.80647 0.0172697 4.24611L2.23934 13.1344C2.30116 13.3817 2.52336 13.5552 2.77827 13.5552H17.2217C17.4766 13.5552 17.6988 13.3817 17.7607 13.1344L19.9827 4.24611C20.0926 3.80647 19.6582 3.42729 19.2375 3.59559L14.0912 5.65411L10.4551 0.459705ZM1.35864 5.03066L5.90506 6.84923C6.14458 6.94504 6.41854 6.86335 6.56647 6.65202L10 1.74698L13.4335 6.65202C13.5815 6.86335 13.8554 6.94504 14.0949 6.84923L18.6414 5.03066L16.788 12.4441H3.21201L1.35864 5.03066ZM2.77827 15.7772C2.47147 15.7772 2.22275 15.5285 2.22275 15.2217C2.22275 14.9149 2.47147 14.6662 2.77827 14.6662H17.2217C17.5285 14.6662 17.7772 14.9149 17.7772 15.2217C17.7772 15.5285 17.5285 15.7772 17.2217 15.7772H2.77827Z" fill="#6DC38D"/>
</svg>
