<svg width="21" height="20" viewBox="0 0 21 20" fill="none" xmlns="http://www.w3.org/2000/svg">
<g clip-path="url(#clip0_1347_5)">
<path d="M16.5 15.9993V10.0567C16.5 9.68849 16.2015 9.39001 15.8333 9.39001C15.4651 9.39001 15.1667 9.68849 15.1667 10.0567V15.9993C15.1667 16.3675 15.4651 16.666 15.8333 16.666C16.2015 16.666 16.5 16.3675 16.5 15.9993Z" fill="#00AAF0"/>
<path d="M9.71867 5.334C10.0869 5.334 10.3853 5.03553 10.3853 4.66734C10.3853 4.29915 10.0869 4.00067 9.71867 4.00067C9.35048 4.00067 9.052 4.29915 9.052 4.66734C9.052 5.03553 9.35048 5.334 9.71867 5.334Z" fill="#00AAF0"/>
<path d="M12.2267 5.334C12.5949 5.334 12.8933 5.03553 12.8933 4.66734C12.8933 4.29915 12.5949 4.00067 12.2267 4.00067C11.8585 4.00067 11.56 4.29915 11.56 4.66734C11.56 5.03553 11.8585 5.334 12.2267 5.334Z" fill="#00AAF0"/>
<path d="M6.5 20C3.19133 20 0.5 17.308 0.5 14C0.5 10.692 3.19133 8 6.5 8C9.80867 8 12.5 10.692 12.5 14C12.5 17.308 9.80867 20 6.5 20ZM6.5 9.33333C3.92733 9.33333 1.83333 11.4267 1.83333 14C1.83333 16.5733 3.92733 18.6667 6.5 18.6667C9.07267 18.6667 11.1667 16.5733 11.1667 14C11.1667 11.4267 9.07267 9.33333 6.5 9.33333Z" fill="#00AAF0"/>
<path d="M4.61467 12.7807C4.98286 12.7807 5.28134 12.4822 5.28134 12.114C5.28134 11.7458 4.98286 11.4473 4.61467 11.4473C4.24648 11.4473 3.948 11.7458 3.948 12.114C3.948 12.4822 4.24648 12.7807 4.61467 12.7807Z" fill="#00AAF0"/>
<path d="M8.38536 16.552C8.75355 16.552 9.05202 16.2535 9.05202 15.8853C9.05202 15.5171 8.75355 15.2187 8.38536 15.2187C8.01717 15.2187 7.71869 15.5171 7.71869 15.8853C7.71869 16.2535 8.01717 16.552 8.38536 16.552Z" fill="#00AAF0"/>
<path d="M7.90696 11.6498L4.15034 15.4064C3.88999 15.6667 3.88999 16.0889 4.15034 16.3492C4.41069 16.6096 4.8328 16.6096 5.09315 16.3492L8.84977 12.5926C9.11012 12.3322 9.11012 11.9101 8.84977 11.6498C8.58942 11.3894 8.16731 11.3894 7.90696 11.6498Z" fill="#00AAF0"/>
<path d="M17.1667 20H12.85C12.482 20 12.1833 19.7013 12.1833 19.3333C12.1833 18.9653 12.482 18.6667 12.85 18.6667H17.1667C18.2713 18.6667 19.1667 17.7713 19.1667 16.6667V6.37733C19.1667 5.932 19.012 5.50133 18.7287 5.158L16.1447 2.028C15.7813 1.588 15.24 1.33267 14.6693 1.33267H9.16665C8.06198 1.33267 7.16665 2.228 7.16665 3.33267V6.03067C7.16665 6.39867 6.86798 6.69733 6.49998 6.69733C6.13198 6.69733 5.83331 6.39867 5.83331 6.03067V3.33333C5.83331 1.49267 7.32598 0 9.16665 0H14.6687C15.638 0 16.556 0.432667 17.1733 1.18L19.7567 4.30867C20.2373 4.89067 20.5 5.622 20.5 6.37733V16.6667C20.5 18.5073 19.0073 20 17.1667 20Z" fill="#00AAF0"/>
<path d="M19.8333 6.70069H17.1667C15.696 6.70069 14.5 5.50469 14.5 4.03402V0.666687H15.8333V4.03402C15.8333 4.76935 16.4313 5.36735 17.1667 5.36735H19.8333V6.70069Z" fill="#00AAF0"/>
</g>
<defs>
<clipPath id="clip0_1347_5">
<rect width="20" height="20" fill="white" transform="translate(0.5)"/>
</clipPath>
</defs>
</svg>
