<svg width="16" height="14" viewBox="0 0 16 14" fill="none" xmlns="http://www.w3.org/2000/svg">
<path d="M14.2041 0H1.79588C1.58487 0.000230328 1.38257 0.0841562 1.23336 0.233364C1.08416 0.382571 1.00023 0.584873 1 0.795884V13.2041C1.00023 13.4151 1.08416 13.6174 1.23336 13.7666C1.38257 13.9158 1.58487 13.9998 1.79588 14H14.2041C14.4151 13.9998 14.6174 13.9158 14.7666 13.7666C14.9158 13.6174 14.9998 13.4151 15 13.2041V0.795884C14.9998 0.584873 14.9158 0.382571 14.7666 0.233364C14.6174 0.0841562 14.4151 0.000230328 14.2041 0ZM1.79588 0.53059H14.2041C14.2745 0.530637 14.3419 0.558603 14.3917 0.608346C14.4414 0.658088 14.4694 0.725538 14.4694 0.795884V2.45968H1.53059V0.795884C1.53064 0.725538 1.5586 0.658088 1.60835 0.608346C1.65809 0.558603 1.72554 0.530637 1.79588 0.53059ZM1.53059 13.2041V2.99026H10.7996V13.4694H1.79588C1.72554 13.4694 1.65809 13.4414 1.60835 13.3917C1.5586 13.3419 1.53064 13.2745 1.53059 13.2041ZM14.2041 13.4694H11.3302V2.99026H14.4694V13.2041C14.4694 13.2745 14.4414 13.3419 14.3917 13.3917C14.3419 13.4414 14.2745 13.4694 14.2041 13.4694Z" fill="#00AAF0"/>
<path d="M3.72495 5.723H8.40984C8.4802 5.723 8.54768 5.69505 8.59743 5.6453C8.64718 5.59554 8.67514 5.52807 8.67514 5.45771C8.67514 5.38734 8.64718 5.31987 8.59743 5.27011C8.54768 5.22036 8.4802 5.19241 8.40984 5.19241H3.72495C3.65459 5.19241 3.58711 5.22036 3.53736 5.27011C3.48761 5.31987 3.45966 5.38734 3.45966 5.45771C3.45966 5.52807 3.48761 5.59554 3.53736 5.6453C3.58711 5.69505 3.65459 5.723 3.72495 5.723Z" fill="#00AAF0"/>
<path d="M8.40984 7.92542H3.72495C3.65459 7.92542 3.58711 7.95337 3.53736 8.00313C3.48761 8.05288 3.45966 8.12035 3.45966 8.19071C3.45966 8.26107 3.48761 8.32856 3.53736 8.37831C3.58711 8.42806 3.65459 8.45601 3.72495 8.45601H8.40984C8.4802 8.45601 8.54768 8.42806 8.59743 8.37831C8.64718 8.32856 8.67514 8.26107 8.67514 8.19071C8.67514 8.12035 8.64718 8.05288 8.59743 8.00313C8.54768 7.95337 8.4802 7.92542 8.40984 7.92542Z" fill="#00AAF0"/>
<path d="M8.40984 10.6584H3.72495C3.65459 10.6584 3.58711 10.6864 3.53736 10.7361C3.48761 10.7859 3.45966 10.8534 3.45966 10.9237C3.45966 10.9941 3.48761 11.0616 3.53736 11.1113C3.58711 11.1611 3.65459 11.189 3.72495 11.189H8.40984C8.4802 11.189 8.54768 11.1611 8.59743 11.1113C8.64718 11.0616 8.67514 10.9941 8.67514 10.9237C8.67514 10.8534 8.64718 10.7859 8.59743 10.7361C8.54768 10.6864 8.4802 10.6584 8.40984 10.6584Z" fill="#00AAF0"/>
</svg>
