<svg width="25" height="24" viewBox="0 0 25 24" fill="none" xmlns="http://www.w3.org/2000/svg">
<g clip-path="url(#clip0_1347_382)">
<path d="M11.2797 12.6102H8.92034V18.3051C8.92034 18.5085 8.79831 18.7119 8.59492 18.8339C8.55424 18.8746 8.4322 18.9153 8.35085 18.9153C8.26949 18.9153 8.14746 18.8746 8.0661 18.8339L6.23559 17.7763L4.36441 18.8339C4.16102 18.9559 3.95763 18.9559 3.75424 18.8339C3.55085 18.7119 3.46949 18.5085 3.46949 18.3051V12.6102H1.11017C0.784746 12.6102 0.5 12.8949 0.5 13.2203V23.3898C0.5 23.7153 0.784746 24 1.11017 24H11.2797C11.6051 24 11.8898 23.7153 11.8898 23.3898V13.2203C11.8898 12.8949 11.6051 12.6102 11.2797 12.6102Z" fill="#00AAF0"/>
<path d="M6.47968 16.5559L7.70002 17.2475V12.6102H4.64917V17.2475L5.86951 16.5559C6.0729 16.4339 6.31697 16.4339 6.47968 16.5559Z" fill="#00AAF0"/>
<path d="M23.8898 12.6102H21.5305V18.3051C21.5305 18.5085 21.4085 18.7119 21.2051 18.8339C21.1644 18.8746 21.0424 18.9153 20.961 18.9153C20.8797 18.9153 20.7576 18.8746 20.6763 18.8339L18.8458 17.7763L16.9746 18.8339C16.7712 18.9559 16.5678 18.9559 16.3644 18.8339C16.161 18.7119 16.039 18.5085 16.039 18.3051V12.6102H13.7203C13.3949 12.6102 13.1102 12.8949 13.1102 13.2203V23.3898C13.1102 23.7153 13.3949 24 13.7203 24H23.8898C24.2153 24 24.5 23.7153 24.5 23.3898V13.2203C24.5 12.8949 24.2153 12.6102 23.8898 12.6102Z" fill="#00AAF0"/>
<path d="M17.3 17.2475L18.5203 16.5559C18.7237 16.4339 18.9271 16.4339 19.1305 16.5559L20.3508 17.2475V12.6102H17.3V17.2475Z" fill="#00AAF0"/>
<path d="M7.41528 11.3898H17.5848C17.9102 11.3898 18.1949 11.1051 18.1949 10.7797V0.61017C18.1949 0.284746 17.9102 0 17.5848 0H15.2255V5.69492C15.2255 5.89831 15.1034 6.1017 14.9 6.22373C14.8187 6.26441 14.6966 6.30509 14.5746 6.30509C14.4526 6.30509 14.3712 6.26441 14.2899 6.22373L12.5 5.1661L10.6695 6.22373C10.4661 6.34576 10.2627 6.34576 10.0594 6.22373C9.85596 6.1017 9.73393 5.89831 9.73393 5.69492V0H7.37461C7.08986 0 6.80511 0.284746 6.80511 0.61017V10.7797C6.80511 11.1051 7.08986 11.3898 7.41528 11.3898Z" fill="#00AAF0"/>
<path d="M12.7847 3.94576L14.0051 4.63729V0H10.9542V4.63729L12.1746 3.94576C12.378 3.82373 12.622 3.82373 12.7847 3.94576Z" fill="#00AAF0"/>
</g>
<defs>
<clipPath id="clip0_1347_382">
<rect width="24" height="24" fill="white" transform="translate(0.5)"/>
</clipPath>
</defs>
</svg>
