<svg width="25" height="18" viewBox="0 0 25 18" fill="none" xmlns="http://www.w3.org/2000/svg">
<g clip-path="url(#clip0_1347_375)">
<path d="M19.7 7.99999C21.2464 7.99999 22.5 6.74639 22.5 5.19999C22.5 3.6536 21.2464 2.39999 19.7 2.39999C18.1536 2.39999 16.9 3.6536 16.9 5.19999C16.9 6.74639 18.1536 7.99999 19.7 7.99999Z" fill="#00AAF0"/>
<path d="M23.372 7.62401C23.0061 8.17963 22.5199 8.64576 21.9493 8.98783C21.3787 9.3299 20.7385 9.53913 20.076 9.60001C20.3545 10.3696 20.498 11.1816 20.5 12V14.4H22.1C22.7365 14.4 23.347 14.1472 23.797 13.6971C24.2471 13.247 24.5 12.6365 24.5 12V10.4C24.4979 9.36348 24.0935 8.36824 23.372 7.62401Z" fill="#00AAF0"/>
<path d="M5.3 7.99999C6.8464 7.99999 8.1 6.74639 8.1 5.19999C8.1 3.6536 6.8464 2.39999 5.3 2.39999C3.7536 2.39999 2.5 3.6536 2.5 5.19999C2.5 6.74639 3.7536 7.99999 5.3 7.99999Z" fill="#00AAF0"/>
<path d="M1.628 7.62401C0.906525 8.36824 0.50212 9.36348 0.5 10.4V12C0.5 12.6365 0.752856 13.247 1.20294 13.6971C1.65303 14.1472 2.26348 14.4 2.9 14.4H4.5V12C4.50203 11.1816 4.64547 10.3696 4.924 9.60001C4.26153 9.53913 3.62127 9.3299 3.05069 8.98783C2.48011 8.64576 1.99386 8.17963 1.628 7.62401Z" fill="#00AAF0"/>
<path d="M16.772 7.61601C16.2463 8.23626 15.5918 8.7346 14.8541 9.07639C14.1164 9.41819 13.313 9.59524 12.5 9.59524C11.6869 9.59524 10.8836 9.41819 10.1459 9.07639C9.40813 8.7346 8.75368 8.23626 8.22798 7.61601C7.56588 8.1392 7.03059 8.80526 6.6621 9.5644C6.29361 10.3236 6.10145 11.1562 6.09998 12V15.2C6.09998 15.8365 6.35283 16.447 6.80292 16.8971C7.25301 17.3472 7.86346 17.6 8.49998 17.6H16.5C17.1365 17.6 17.7469 17.3472 18.197 16.8971C18.6471 16.447 18.9 15.8365 18.9 15.2V12C18.8985 11.1562 18.7063 10.3236 18.3378 9.5644C17.9694 8.80526 17.4341 8.1392 16.772 7.61601Z" fill="#00AAF0"/>
<path d="M12.5 7.99998C14.7091 7.99998 16.5 6.20912 16.5 3.99998C16.5 1.79085 14.7091 -1.52588e-05 12.5 -1.52588e-05C10.2909 -1.52588e-05 8.5 1.79085 8.5 3.99998C8.5 6.20912 10.2909 7.99998 12.5 7.99998Z" fill="#00AAF0"/>
</g>
<defs>
<clipPath id="clip0_1347_375">
<rect width="24" height="18" fill="white" transform="translate(0.5)"/>
</clipPath>
</defs>
</svg>
