<svg width="23" height="15" viewBox="0 0 23 15" fill="none" xmlns="http://www.w3.org/2000/svg">
<g clip-path="url(#clip0_1347_389)">
<path d="M16.4027 8.41884V9.09742C16.4024 10.0862 16.0094 11.0343 15.3103 11.7335C14.6111 12.4326 13.663 12.8255 12.6743 12.8259H6.6416V13.9071C6.64226 14.0556 6.59862 14.2009 6.51626 14.3245C6.43391 14.448 6.31657 14.5442 6.17927 14.6006C6.08918 14.6366 5.99287 14.6543 5.8959 14.6528C5.6978 14.6534 5.5075 14.5757 5.36646 14.4366L1.7051 10.7752C1.63596 10.7062 1.58111 10.6243 1.54369 10.5341C1.50626 10.4439 1.487 10.3472 1.487 10.2495C1.487 10.1519 1.50626 10.0551 1.54369 9.96494C1.58111 9.87473 1.63596 9.79279 1.7051 9.7238L5.36646 6.06245C5.47038 5.9579 5.60294 5.88648 5.74741 5.8572C5.89188 5.82792 6.04178 5.8421 6.1782 5.89795C6.31462 5.95379 6.43144 6.0488 6.51392 6.17098C6.59639 6.29316 6.64082 6.43703 6.6416 6.58443V7.67315H15.657C15.8546 7.67374 16.044 7.75249 16.1837 7.8922C16.3234 8.03192 16.4021 8.22125 16.4027 8.41884Z" fill="#00AAF0"/>
<path d="M22.152 4.96626L18.4907 8.62762C18.3504 8.76877 18.1602 8.84912 17.9612 8.85133C17.7644 8.84838 17.5764 8.76887 17.4372 8.62966C17.298 8.49045 17.2185 8.30249 17.2155 8.10563V7.01692H8.2001C8.00251 7.01633 7.81318 6.93758 7.67347 6.79786C7.53375 6.65814 7.455 6.46882 7.45441 6.27123V5.59265C7.45477 4.60391 7.84771 3.65577 8.54685 2.95662C9.246 2.25748 10.1941 1.86454 11.1829 1.86418H17.2155V0.782924C17.2148 0.634876 17.2582 0.489965 17.3401 0.366635C17.422 0.243304 17.5387 0.147133 17.6755 0.0903609C17.8122 0.0335893 17.9627 0.0187853 18.1079 0.0478334C18.2531 0.0768816 18.3863 0.148468 18.4907 0.253481L22.152 3.91483C22.2212 3.98382 22.276 4.06577 22.3134 4.15597C22.3508 4.24618 22.3701 4.34289 22.3701 4.44055C22.3701 4.53821 22.3508 4.63492 22.3134 4.72512C22.276 4.81533 22.2212 4.89728 22.152 4.96626Z" fill="#00AAF0"/>
</g>
<defs>
<clipPath id="clip0_1347_389">
<rect width="22" height="15" fill="white" transform="translate(0.5)"/>
</clipPath>
</defs>
</svg>
