<svg width="38" height="38" viewBox="0 0 38 38" fill="none" xmlns="http://www.w3.org/2000/svg">
<path fill-rule="evenodd" clip-rule="evenodd" d="M19 0C8.53967 0 0.0207649 8.512 3.76217e-05 18.9793C-0.0206896 29.4465 8.52586 38 19 38C29.4604 38 37.9793 29.488 38 19.0207C38.0208 8.55346 29.4811 0 19 0ZM18.9862 35.2847C10.0044 35.2778 2.69458 27.9542 2.71531 18.9724C2.72913 9.98364 10.0597 2.68764 19.0346 2.70836C28.0233 2.736 35.3193 10.0665 35.2848 19.0345C35.2502 28.0095 27.9473 35.2847 18.9862 35.2778V35.2847ZM19.8006 17.7052H19.8021C21.1937 17.7059 22.5858 17.7066 23.9786 17.7066H26.7302C27.3241 17.7066 27.7926 17.3767 27.984 16.8554C28.3073 15.9712 27.6673 15.12 26.6643 15.12H14.1465H13.6384C14.0608 14.4865 14.4369 13.919 14.813 13.3515C15.044 13.015 15.1627 12.652 15.0638 12.2429C14.9252 11.7084 14.5887 11.3587 14.0476 11.2597C13.4933 11.1541 13.0314 11.3521 12.7146 11.8272C12.3999 12.2967 12.0862 12.7673 11.7723 13.238L11.7722 13.2381C11.27 13.9912 10.7675 14.7449 10.2599 15.4961C9.92338 15.991 9.77161 16.4925 10.0817 17.0468C10.3787 17.5813 10.867 17.7198 11.4543 17.7198L11.4609 17.7066C14.2401 17.7022 17.0194 17.7037 19.8006 17.7052ZM19.8065 20.2947C22.0451 20.2961 24.2837 20.2976 26.5223 20.2932C27.1206 20.294 27.6136 20.4399 27.9097 20.9993C28.2001 21.5404 28.0417 22.0287 27.7184 22.5104C27.1685 23.3198 26.6245 24.1351 26.0804 24.9504C25.8084 25.358 25.5364 25.7657 25.2636 26.1726C24.9469 26.6411 24.4916 26.8523 23.9373 26.7467C23.3896 26.6411 22.9871 26.2914 22.9277 25.7305C22.8881 25.4006 22.9871 25.0047 23.1521 24.7077C23.3875 24.2831 23.6649 23.881 23.9594 23.4541C24.0859 23.2707 24.2156 23.0828 24.3464 22.8865H22.0303H11.3074C10.2978 22.8865 9.64455 21.9759 10.0207 21.0983C10.2582 20.544 10.7069 20.2932 11.3074 20.2932H16.4478C17.5674 20.2932 18.687 20.2939 19.8065 20.2947ZM26.5223 20.2932C26.5229 20.2932 26.5234 20.2932 26.524 20.2932H26.5174C26.519 20.2932 26.5207 20.2932 26.5223 20.2932Z" fill="#7A7A7A"/>
</svg>
