<svg width="19" height="18" viewBox="0 0 19 18" fill="none" xmlns="http://www.w3.org/2000/svg">
<g clip-path="url(#clip0_1347_235)">
<path d="M15.125 0H3.875C2.97989 0 2.12145 0.355579 1.48852 0.988515C0.855579 1.62145 0.5 2.47989 0.5 3.375V14.625C0.5 15.5201 0.855579 16.3786 1.48852 17.0115C2.12145 17.6444 2.97989 18 3.875 18H11.943C12.5398 18 13.1121 17.7629 13.534 17.341L17.841 13.034C18.0499 12.8251 18.2156 12.577 18.3287 12.304C18.4418 12.0311 18.5 11.7385 18.5 11.443V3.375C18.5 2.47989 18.1444 1.62145 17.5115 0.988515C16.8786 0.355579 16.0201 0 15.125 0ZM12.875 16.409V13.5C12.8753 13.2017 12.994 12.9158 13.2049 12.7049C13.4158 12.494 13.7017 12.3753 14 12.375H16.909L12.875 16.409ZM17.375 11.25H14C13.4033 11.25 12.831 11.4871 12.409 11.909C11.9871 12.331 11.75 12.9033 11.75 13.5V16.875H3.875C3.27847 16.8743 2.70657 16.637 2.28477 16.2152C1.86296 15.7934 1.62568 15.2215 1.625 14.625V3.375C1.62567 2.77847 1.86294 2.20656 2.28475 1.78475C2.70656 1.36294 3.27847 1.12567 3.875 1.125H15.125C15.7215 1.12567 16.2934 1.36294 16.7152 1.78475C17.1371 2.20656 17.3743 2.77847 17.375 3.375V11.25Z" fill="#00AAF0"/>
<path d="M13.4375 4.5H5.5625C5.41332 4.5 5.27024 4.55926 5.16475 4.66475C5.05926 4.77024 5 4.91332 5 5.0625C5 5.21168 5.05926 5.35476 5.16475 5.46025C5.27024 5.56574 5.41332 5.625 5.5625 5.625H13.4375C13.5867 5.625 13.7298 5.56574 13.8352 5.46025C13.9407 5.35476 14 5.21168 14 5.0625C14 4.91332 13.9407 4.77024 13.8352 4.66475C13.7298 4.55926 13.5867 4.5 13.4375 4.5Z" fill="#00AAF0"/>
<path d="M13.4375 7.875H5.5625C5.41332 7.875 5.27024 7.93426 5.16475 8.03975C5.05926 8.14524 5 8.28832 5 8.4375C5 8.58668 5.05926 8.72976 5.16475 8.83525C5.27024 8.94074 5.41332 9 5.5625 9H13.4375C13.5867 9 13.7298 8.94074 13.8352 8.83525C13.9407 8.72976 14 8.58668 14 8.4375C14 8.28832 13.9407 8.14524 13.8352 8.03975C13.7298 7.93426 13.5867 7.875 13.4375 7.875Z" fill="#00AAF0"/>
</g>
<defs>
<clipPath id="clip0_1347_235">
<rect width="18" height="18" fill="white" transform="translate(0.5)"/>
</clipPath>
</defs>
</svg>
