<svg width="43" height="30" viewBox="0 0 43 30" fill="none" xmlns="http://www.w3.org/2000/svg">
<path d="M15.9165 19.3457L17.4215 20.8507L20.4365 17.8347V29.8767H22.5645V17.8347L25.5795 20.8507L27.0835 19.3457L21.5005 13.7617L15.9165 19.3457Z" fill="#00AAF0"/>
<path d="M34.3744 7.75454C33.4484 3.34254 29.5564 0.123535 24.9524 0.123535C21.0754 0.123535 17.5604 2.50154 16.0724 6.01954C15.5634 5.91553 15.0504 5.86353 14.5374 5.86353C10.8724 5.86353 7.7714 8.37054 6.9424 11.8435C3.8154 11.8895 1.2854 14.4505 1.2854 17.5935C1.2854 20.7625 3.8614 23.3425 7.0284 23.3425H13.3604V21.2145H7.0284C5.0354 21.2145 3.4134 19.5905 3.4134 17.5935C3.4134 15.5955 5.0354 13.9705 7.0284 13.9705C7.2104 13.9705 7.4054 13.9895 7.6434 14.0315C7.9344 14.0825 8.2334 14.0095 8.4684 13.8325C8.7034 13.6535 8.8544 13.3865 8.8844 13.0925C9.1834 10.1845 11.6144 7.99154 14.5384 7.99154C15.1484 7.99154 15.7904 8.10154 16.3934 8.30954C16.6664 8.40354 16.9684 8.38353 17.2264 8.25053C17.4844 8.11753 17.6774 7.88554 17.7604 7.60754C18.7014 4.45354 21.6594 2.25153 24.9524 2.25153C28.7934 2.25153 31.9994 5.12754 32.4094 8.94154C32.4714 9.51454 32.9684 9.94253 33.5534 9.88853C33.6784 9.87853 33.7944 9.86953 33.9134 9.86953C37.0414 9.86953 39.5864 12.4155 39.5864 15.5445C39.5864 18.6705 37.0414 21.2145 33.9134 21.2145H29.8254V23.3425H33.9134C38.2144 23.3425 41.7144 19.8445 41.7144 15.5455C41.7154 11.3965 38.4624 7.99354 34.3744 7.75454Z" fill="#00AAF0"/>
</svg>
