<svg width="21" height="18" viewBox="0 0 21 18" fill="none" xmlns="http://www.w3.org/2000/svg">
<g clip-path="url(#clip0_1347_242)">
<path d="M2.73792 18H10.4738C10.5875 18 10.6965 17.9548 10.7769 17.8744C10.8573 17.794 10.9025 17.685 10.9025 17.5713C10.9025 17.4576 10.8573 17.3485 10.7769 17.2681C10.6965 17.1877 10.5875 17.1426 10.4738 17.1426H2.73792C2.37184 17.1421 2.02088 16.9964 1.76208 16.7375C1.50327 16.4786 1.35775 16.1276 1.35744 15.7615V2.23792C1.3579 1.87194 1.50348 1.52107 1.76228 1.26228C2.02107 1.00348 2.37194 0.857896 2.73792 0.857442H15.1257C15.4917 0.857896 15.8425 1.00348 16.1013 1.26228C16.3601 1.52107 16.5057 1.87194 16.5062 2.23792V9.35412C16.5062 9.46783 16.5513 9.57687 16.6317 9.65728C16.7121 9.73768 16.8212 9.78285 16.9349 9.78285C17.0486 9.78285 17.1576 9.73768 17.238 9.65728C17.3184 9.57687 17.3636 9.46783 17.3636 9.35412V2.23792C17.3628 1.64462 17.1268 1.07584 16.7073 0.656308C16.2878 0.23678 15.719 0.000756282 15.1257 0H2.73792C2.14462 0.000756282 1.57584 0.23678 1.15631 0.656308C0.73678 1.07584 0.500756 1.64462 0.5 2.23792V15.7615C0.500605 16.3549 0.736562 16.9238 1.15611 17.3435C1.57565 17.7631 2.14452 17.9992 2.73792 18Z" fill="#00AAF0"/>
<path d="M4.53571 4.73253H13.0461C13.1598 4.73253 13.2689 4.68736 13.3493 4.60696C13.4297 4.52656 13.4749 4.41751 13.4749 4.30381C13.4749 4.1901 13.4297 4.08106 13.3493 4.00066C13.2689 3.92026 13.1598 3.87509 13.0461 3.87509H4.53571C4.422 3.87509 4.31296 3.92026 4.23256 4.00066C4.15216 4.08106 4.10699 4.1901 4.10699 4.30381C4.10699 4.41751 4.15216 4.52656 4.23256 4.60696C4.31296 4.68736 4.422 4.73253 4.53571 4.73253Z" fill="#00AAF0"/>
<path d="M11.3758 7.63011C11.3758 7.5164 11.3307 7.40736 11.2503 7.32695C11.1699 7.24655 11.0608 7.20139 10.9471 7.20139H4.53571C4.422 7.20139 4.31296 7.24655 4.23256 7.32695C4.15216 7.40736 4.10699 7.5164 4.10699 7.63011C4.10699 7.74381 4.15216 7.85286 4.23256 7.93326C4.31296 8.01366 4.422 8.05883 4.53571 8.05883H10.9471C11.0608 8.05883 11.1699 8.01366 11.2503 7.93326C11.3307 7.85286 11.3758 7.74381 11.3758 7.63011Z" fill="#00AAF0"/>
<path d="M4.53571 10.5266C4.422 10.5266 4.31296 10.5717 4.23256 10.6521C4.15216 10.7325 4.10699 10.8416 4.10699 10.9553C4.10699 11.069 4.15216 11.178 4.23256 11.2584C4.31296 11.3388 4.422 11.384 4.53571 11.384H7.15262C7.26633 11.384 7.37537 11.3388 7.45577 11.2584C7.53617 11.178 7.58134 11.069 7.58134 10.9553C7.58134 10.8416 7.53617 10.7325 7.45577 10.6521C7.37537 10.5717 7.26633 10.5266 7.15262 10.5266H4.53571Z" fill="#00AAF0"/>
<path d="M13.8187 16.4332C16.0728 16.4332 18.1206 15.343 19.6528 13.5751C18.1059 11.8071 16.058 10.7169 13.8187 10.7169C11.5498 10.7169 9.47251 11.7629 7.92557 13.5751C9.47251 15.3872 11.5351 16.4332 13.8187 16.4332ZM13.7892 11.3652C15.012 11.3652 15.9991 12.3522 15.9991 13.5751C15.9991 14.7979 15.012 15.785 13.7892 15.785C12.5664 15.785 11.5793 14.7979 11.5793 13.5751C11.5793 12.3522 12.5664 11.3652 13.7892 11.3652Z" fill="#00AAF0"/>
<path d="M13.7893 15.1956C14.688 15.1956 15.4099 14.4737 15.4099 13.575C15.4099 13.2215 15.292 12.8973 15.1005 12.6321C15.071 12.8384 14.8795 12.9857 14.6733 12.9857C14.4228 12.9857 14.2313 12.7942 14.2313 12.5437C14.2313 12.3522 14.3491 12.1902 14.5259 12.1312C14.3049 12.0134 14.0545 11.9544 13.7893 11.9544C12.8906 11.9544 12.1687 12.6763 12.1687 13.575C12.1687 14.4737 12.8906 15.1956 13.7893 15.1956Z" fill="#00AAF0"/>
</g>
<defs>
<clipPath id="clip0_1347_242">
<rect width="20" height="18" fill="white" transform="translate(0.5)"/>
</clipPath>
</defs>
</svg>
