<svg width="100" height="120" viewBox="0 0 100 120" fill="none" xmlns="http://www.w3.org/2000/svg">
<path fill-rule="evenodd" clip-rule="evenodd" d="M60 0L100 40V106C100 113.732 93.732 120 86 120H14C6.26801 120 0 113.732 0 106V14C0 6.26801 6.26801 0 14 0H60Z" fill="url(#paint0_linear_0_277)"/>
<mask id="mask0_0_277" style="mask-type:luminance" maskUnits="userSpaceOnUse" x="0" y="0" width="100" height="120">
<path fill-rule="evenodd" clip-rule="evenodd" d="M60 0L100 40V106C100 113.732 93.732 120 86 120H14C6.26801 120 0 113.732 0 106V14C0 6.26801 6.26801 0 14 0H60Z" fill="white"/>
</mask>
<g mask="url(#mask0_0_277)">
<g filter="url(#filter0_d_0_277)">
<path fill-rule="evenodd" clip-rule="evenodd" d="M100 40H74.7071C66.9751 40 60 33.0249 60 25.2929V0L100 40Z" fill="white" fill-opacity="0.4"/>
</g>
<path fill-rule="evenodd" clip-rule="evenodd" d="M46.9438 51.3334H50.6771C52.9438 51.3334 54.6771 53.0667 54.5438 55.3334V83.3334C54.5438 84.6667 54.0104 85.7334 52.9438 86.5334C52.8104 86.6667 52.6771 86.6667 52.5438 86.6667C52.4771 86.6667 52.4438 86.6334 52.4104 86.6C52.3771 86.5667 52.3438 86.5334 52.2771 86.5334C52.0104 86.5334 51.8771 86.2667 51.8771 86V80C51.8771 77.8667 50.5438 75.8667 48.4104 75.0667L47.7438 74.6667C47.7438 74.6667 47.6104 74.5334 47.4771 74.5334C47.4456 74.5019 47.4067 74.4704 47.3656 74.4372C47.2327 74.3297 47.0771 74.2038 47.0771 74L46.6771 71.3334V54C46.6771 53.4667 46.5438 52.8 46.2771 52.2667C46.2771 52 46.2771 51.7334 46.4104 51.6C46.5438 51.4667 46.6771 51.3334 46.9438 51.3334ZM32.1438 60L33.8771 54H34.1438L35.8771 60C36.0104 60.5334 35.8771 61.2 35.4771 61.6C34.9438 62.1334 32.9438 62.1334 32.4104 61.6C32.0104 61.2 31.8771 60.5334 32.1438 60Z" fill="white"/>
<path d="M32.6771 53.2C32.8104 52.8 33.0771 52.6667 33.3437 52.6667H34.6771C34.9437 52.6667 35.2104 52.8 35.3437 53.2L36.1437 56.2667L37.2104 54L35.6104 50.2667V50H32.0104V50.2667L30.6771 54L31.7437 56.5333L32.6771 53.2V53.2Z" fill="white"/>
<path fill-rule="evenodd" clip-rule="evenodd" d="M47.0771 75.8667L48.0104 76.2667C49.6104 76.8 50.6771 78.2667 50.6771 80V86C50.6771 88.2667 48.9437 90 46.6771 90H24.0104C21.7437 90 20.0104 88.2667 20.0104 86V54C20.0104 51.7333 21.7437 50 24.0104 50H30.6771L29.3437 53.7333V54.2667L30.6771 57.6C30.8104 57.8667 31.0771 58 31.3437 58L30.8104 59.6C30.4104 60.5333 30.6771 61.7333 31.4771 62.5333C32.0104 63.0667 32.9437 63.3333 34.0104 63.3333C35.0771 63.3333 36.0104 63.0667 36.5437 62.5333C37.3437 61.7333 37.6104 60.5333 37.2104 59.6L36.6771 57.8667C36.8104 57.8667 36.9437 57.7333 36.9437 57.6L38.6771 54.2667C38.8104 54.1333 38.8104 53.8667 38.6771 53.7333L36.9437 50H41.2104C43.4771 50 45.2104 51.7333 45.2104 54V73.3333C45.2104 74.5333 46.0104 75.4667 47.0771 75.8667ZM31.3437 84.6667H32.6771C33.0771 84.6667 33.3437 84.4 33.3437 84C33.3437 83.6 33.0771 83.3333 32.6771 83.3333H31.3437C30.9437 83.3333 30.6771 83.6 30.6771 84C30.6771 84.4 30.9437 84.6667 31.3437 84.6667ZM32.6771 82H31.3437C30.9437 82 30.6771 81.7333 30.6771 81.3333C30.6771 80.9333 30.9437 80.6667 31.3437 80.6667H32.6771C33.0771 80.6667 33.3437 80.9333 33.3437 81.3333C33.3437 81.7333 33.0771 82 32.6771 82ZM31.3437 79.3333H32.6771C33.0771 79.3333 33.3437 79.0667 33.3437 78.6667C33.3437 78.2667 33.0771 78 32.6771 78H31.3437C30.9437 78 30.6771 78.2667 30.6771 78.6667C30.6771 79.0667 30.9437 79.3333 31.3437 79.3333ZM32.6771 76.6667H31.3437C30.9437 76.6667 30.6771 76.4 30.6771 76C30.6771 75.6 30.9437 75.3333 31.3437 75.3333H32.6771C33.0771 75.3333 33.3437 75.6 33.3437 76C33.3437 76.4 33.0771 76.6667 32.6771 76.6667ZM31.3437 74H32.6771C33.0771 74 33.3437 73.7333 33.3437 73.3333C33.3437 72.9333 33.0771 72.6667 32.6771 72.6667H31.3437C30.9437 72.6667 30.6771 72.9333 30.6771 73.3333C30.6771 73.7333 30.9437 74 31.3437 74ZM32.6771 71.3333H31.3437C30.9437 71.3333 30.6771 71.0667 30.6771 70.6667C30.6771 70.2667 30.9437 70 31.3437 70H32.6771C33.0771 70 33.3437 70.2667 33.3437 70.6667C33.3437 71.0667 33.0771 71.3333 32.6771 71.3333ZM31.3437 68.6667H32.6771C33.0771 68.6667 33.3437 68.4 33.3437 68C33.3437 67.6 33.0771 67.3333 32.6771 67.3333H31.3437C30.9437 67.3333 30.6771 67.6 30.6771 68C30.6771 68.4 30.9437 68.6667 31.3437 68.6667ZM32.6771 66H31.3437C30.9437 66 30.6771 65.7333 30.6771 65.3333C30.6771 64.9333 30.9437 64.6667 31.3437 64.6667H32.6771C33.0771 64.6667 33.3437 64.9333 33.3437 65.3333C33.3437 65.7333 33.0771 66 32.6771 66ZM35.3437 83.3333H36.6771C37.0771 83.3333 37.3437 83.0667 37.3437 82.6667C37.3437 82.2667 37.0771 82 36.6771 82H35.3437C34.9437 82 34.6771 82.2667 34.6771 82.6667C34.6771 83.0667 34.9437 83.3333 35.3437 83.3333ZM36.6771 80.6667H35.3437C34.9437 80.6667 34.6771 80.4 34.6771 80C34.6771 79.6 34.9437 79.3333 35.3437 79.3333H36.6771C37.0771 79.3333 37.3437 79.6 37.3437 80C37.3437 80.4 37.0771 80.6667 36.6771 80.6667ZM35.3437 78H36.6771C37.0771 78 37.3437 77.7333 37.3437 77.3333C37.3437 76.9333 37.0771 76.6667 36.6771 76.6667H35.3437C34.9437 76.6667 34.6771 76.9333 34.6771 77.3333C34.6771 77.7333 34.9437 78 35.3437 78ZM36.6771 75.3333H35.3437C34.9437 75.3333 34.6771 75.0667 34.6771 74.6667C34.6771 74.2667 34.9437 74 35.3437 74H36.6771C37.0771 74 37.3437 74.2667 37.3437 74.6667C37.3437 75.0667 37.0771 75.3333 36.6771 75.3333ZM35.3437 72.6667H36.6771C37.0771 72.6667 37.3437 72.4 37.3437 72C37.3437 71.6 37.0771 71.3333 36.6771 71.3333H35.3437C34.9437 71.3333 34.6771 71.6 34.6771 72C34.6771 72.4 34.9437 72.6667 35.3437 72.6667ZM36.6771 70H35.3437C34.9437 70 34.6771 69.7333 34.6771 69.3333C34.6771 68.9333 34.9437 68.6667 35.3437 68.6667H36.6771C37.0771 68.6667 37.3437 68.9333 37.3437 69.3333C37.3437 69.7333 37.0771 70 36.6771 70ZM35.3437 67.3333H36.6771C37.0771 67.3333 37.3437 67.0667 37.3437 66.6667C37.3437 66.2667 37.0771 66 36.6771 66H35.3437C34.9437 66 34.6771 66.2667 34.6771 66.6667C34.6771 67.0667 34.9437 67.3333 35.3437 67.3333Z" fill="white"/>
</g>
<defs>
<filter id="filter0_d_0_277" x="58" y="-4" width="44" height="44" filterUnits="userSpaceOnUse" color-interpolation-filters="sRGB">
<feFlood flood-opacity="0" result="BackgroundImageFix"/>
<feColorMatrix in="SourceAlpha" type="matrix" values="0 0 0 0 0 0 0 0 0 0 0 0 0 0 0 0 0 0 127 0" result="hardAlpha"/>
<feOffset dy="-2"/>
<feGaussianBlur stdDeviation="1"/>
<feColorMatrix type="matrix" values="0 0 0 0 0 0 0 0 0 0 0 0 0 0 0 0 0 0 0.0909637 0"/>
<feBlend mode="normal" in2="BackgroundImageFix" result="effect1_dropShadow_0_277"/>
<feBlend mode="normal" in="SourceGraphic" in2="effect1_dropShadow_0_277" result="shape"/>
</filter>
<linearGradient id="paint0_linear_0_277" x1="0" y1="0" x2="0" y2="120" gradientUnits="userSpaceOnUse">
<stop stop-color="#D0D8E1"/>
<stop offset="1" stop-color="#BAC3CD"/>
</linearGradient>
</defs>
</svg>
