<svg width="202" height="202" viewBox="0 0 202 202" fill="none" xmlns="http://www.w3.org/2000/svg">
<g clip-path="url(#clip0_1558_183)">
<path d="M40.4 6.73332V77.4333H6.73332C5.84042 77.4333 4.9841 77.0786 4.35272 76.4473C3.72135 75.8159 3.36665 74.9595 3.36665 74.0667V20.2C3.29902 17.9711 3.68819 15.7519 4.51021 13.679C5.33223 11.6061 6.56972 9.72332 8.14652 8.14652C9.72332 6.56972 11.6061 5.33223 13.679 4.51021C15.7519 3.68819 17.9711 3.29902 20.2 3.36665H23.5667L40.4 6.73332Z" fill="#D5D8DB"/>
<g filter="url(#filter0_d_1558_183)">
<path d="M164.967 20.2V112.278L113.12 168.03L102.818 174.528C102.281 174.874 101.656 175.059 101.017 175.059C100.378 175.059 99.7525 174.874 99.2156 174.528L86.86 166.717C86.3231 166.371 85.6977 166.187 85.0588 166.187C84.4199 166.187 83.7945 166.371 83.2576 166.717L70.8346 174.562C70.2981 174.892 69.6804 175.067 69.0503 175.067C68.4202 175.067 67.8025 174.892 67.266 174.562L54.843 166.717C54.3061 166.371 53.6807 166.187 53.0418 166.187C52.4029 166.187 51.7775 166.371 51.2406 166.717L42.1843 172.407C41.6784 172.734 41.0936 172.917 40.4918 172.939C39.89 172.96 39.2936 172.818 38.7657 172.529C38.2378 172.239 37.7981 171.812 37.4932 171.292C37.1882 170.773 37.0293 170.181 37.0333 169.579V20.907C37.1018 16.635 35.5896 12.4883 32.7871 9.26322C29.9846 6.03819 26.0894 3.96221 21.8496 3.43398C21.3129 3.37795 20.7732 3.35546 20.2336 3.36665H148.133C152.598 3.36665 156.879 5.14015 160.036 8.29702C163.193 11.4539 164.967 15.7355 164.967 20.2Z" fill="#F3F3F3"/>
</g>
<path d="M154.867 198.633C179.038 198.633 198.633 179.038 198.633 154.867C198.633 130.695 179.038 111.1 154.867 111.1C130.695 111.1 111.1 130.695 111.1 154.867C111.1 179.038 130.695 198.633 154.867 198.633Z" fill="#00AAF0"/>
<path d="M148.133 74.0667H53.8667C52.9738 74.0667 52.1174 73.712 51.4861 73.0806C50.8547 72.4492 50.5 71.5929 50.5 70.7C50.5 69.8071 50.8547 68.9508 51.4861 68.3194C52.1174 67.688 52.9738 67.3333 53.8667 67.3333H148.133C149.026 67.3333 149.883 67.688 150.514 68.3194C151.145 68.9508 151.5 69.8071 151.5 70.7C151.5 71.5929 151.145 72.4492 150.514 73.0806C149.883 73.712 149.026 74.0667 148.133 74.0667Z" fill="#505068"/>
<path d="M101 141.4H53.8667C52.9738 141.4 52.1174 141.045 51.4861 140.414C50.8547 139.783 50.5 138.926 50.5 138.033C50.5 137.14 50.8547 136.284 51.4861 135.653C52.1174 135.021 52.9738 134.667 53.8667 134.667H101C101.893 134.667 102.749 135.021 103.381 135.653C104.012 136.284 104.367 137.14 104.367 138.033C104.367 138.926 104.012 139.783 103.381 140.414C102.749 141.045 101.893 141.4 101 141.4Z" fill="#505068"/>
<path d="M63.9667 90.9H53.8667C52.9738 90.9 52.1174 90.5453 51.4861 89.9139C50.8547 89.2825 50.5 88.4262 50.5 87.5333C50.5 86.6404 50.8547 85.7841 51.4861 85.1527C52.1174 84.5214 52.9738 84.1667 53.8667 84.1667H63.9667C64.8596 84.1667 65.7159 84.5214 66.3473 85.1527C66.9786 85.7841 67.3333 86.6404 67.3333 87.5333C67.3333 88.4262 66.9786 89.2825 66.3473 89.9139C65.7159 90.5453 64.8596 90.9 63.9667 90.9Z" fill="#B5B8BC"/>
<path d="M134.667 90.9H77.4333C76.5404 90.9 75.6841 90.5453 75.0527 89.9139C74.4213 89.2825 74.0667 88.4262 74.0667 87.5333C74.0667 86.6404 74.4213 85.7841 75.0527 85.1527C75.6841 84.5214 76.5404 84.1667 77.4333 84.1667H134.667C135.56 84.1667 136.416 84.5214 137.047 85.1527C137.679 85.7841 138.033 86.6404 138.033 87.5333C138.033 88.4262 137.679 89.2825 137.047 89.9139C136.416 90.5453 135.56 90.9 134.667 90.9Z" fill="#B5B8BC"/>
<path d="M63.9667 107.733H53.8667C52.9738 107.733 52.1174 107.379 51.4861 106.747C50.8547 106.116 50.5 105.26 50.5 104.367C50.5 103.474 50.8547 102.617 51.4861 101.986C52.1174 101.355 52.9738 101 53.8667 101H63.9667C64.8596 101 65.7159 101.355 66.3473 101.986C66.9786 102.617 67.3333 103.474 67.3333 104.367C67.3333 105.26 66.9786 106.116 66.3473 106.747C65.7159 107.379 64.8596 107.733 63.9667 107.733Z" fill="#B5B8BC"/>
<path d="M131.3 107.733H77.4333C76.5404 107.733 75.6841 107.379 75.0527 106.747C74.4213 106.116 74.0667 105.26 74.0667 104.367C74.0667 103.474 74.4213 102.617 75.0527 101.986C75.6841 101.355 76.5404 101 77.4333 101H131.3C132.193 101 133.049 101.355 133.681 101.986C134.312 102.617 134.667 103.474 134.667 104.367C134.667 105.26 134.312 106.116 133.681 106.747C133.049 107.379 132.193 107.733 131.3 107.733Z" fill="#B5B8BC"/>
<path d="M63.9667 124.567H53.8667C52.9738 124.567 52.1174 124.212 51.4861 123.581C50.8547 122.949 50.5 122.093 50.5 121.2C50.5 120.307 50.8547 119.451 51.4861 118.819C52.1174 118.188 52.9738 117.833 53.8667 117.833H63.9667C64.8596 117.833 65.7159 118.188 66.3473 118.819C66.9786 119.451 67.3333 120.307 67.3333 121.2C67.3333 122.093 66.9786 122.949 66.3473 123.581C65.7159 124.212 64.8596 124.567 63.9667 124.567Z" fill="#B5B8BC"/>
<path d="M111.1 124.567H77.4333C76.5404 124.567 75.6841 124.212 75.0527 123.581C74.4213 122.949 74.0667 122.093 74.0667 121.2C74.0667 120.307 74.4213 119.451 75.0527 118.819C75.6841 118.188 76.5404 117.833 77.4333 117.833H111.1C111.993 117.833 112.849 118.188 113.481 118.819C114.112 119.451 114.467 120.307 114.467 121.2C114.467 122.093 114.112 122.949 113.481 123.581C112.849 124.212 111.993 124.567 111.1 124.567Z" fill="#B5B8BC"/>
<path d="M74.0666 43.7667C74.0666 41.088 73.0025 38.519 71.1084 36.6249C69.2143 34.7308 66.6453 33.6667 63.9666 33.6667C63.3758 33.6661 62.7955 33.51 62.2841 33.2142C61.7727 32.9183 61.3481 32.4931 61.0531 31.9812C60.758 31.4693 60.6029 30.8888 60.6033 30.298C60.6036 29.7071 60.7595 29.1268 61.0551 28.6153C61.3508 28.1037 61.7759 27.679 62.2877 27.3838C62.7994 27.0885 63.3799 26.9332 63.9707 26.9333C64.5616 26.9335 65.142 27.0891 65.6536 27.3846C66.1653 27.6801 66.5901 28.105 66.8855 28.6167C67.3461 29.3611 68.0784 29.8968 68.9272 30.1104C69.7761 30.3239 70.6748 30.1984 71.4327 29.7606C72.1906 29.3227 72.7482 28.6069 72.9873 27.7649C73.2263 26.9228 73.128 26.0208 72.7132 25.25C71.4943 23.2005 69.588 21.6497 67.3333 20.8733V20.2C67.3333 19.3071 66.9786 18.4508 66.3472 17.8194C65.7159 17.188 64.8595 16.8333 63.9666 16.8333C63.0737 16.8333 62.2174 17.188 61.586 17.8194C60.9547 18.4508 60.6 19.3071 60.6 20.2V20.8195C58.3555 21.61 56.4632 23.1694 55.2583 25.2215C54.0534 27.2736 53.6136 29.6858 54.0168 32.0311C54.4201 34.3763 55.6403 36.5032 57.4614 38.0349C59.2825 39.5667 61.587 40.4045 63.9666 40.4C64.5575 40.4006 65.1378 40.5566 65.6492 40.8525C66.1606 41.1483 66.5852 41.5736 66.8802 42.0855C67.1753 42.5974 67.3304 43.1779 67.33 43.7687C67.3297 44.3596 67.1738 44.9399 66.8782 45.4514C66.5825 45.963 66.1574 46.3877 65.6456 46.6829C65.1338 46.9781 64.5534 47.1335 63.9625 47.1333C63.3717 47.1332 62.7913 46.9776 62.2797 46.6821C61.768 46.3866 61.3432 45.9617 61.0477 45.45C60.5872 44.7056 59.8549 44.1699 59.006 43.9563C58.1572 43.7428 57.2585 43.8682 56.5006 44.3061C55.7427 44.7439 55.1851 45.4598 54.946 46.3018C54.707 47.1439 54.8052 48.0459 55.22 48.8167C56.4407 50.8674 58.3495 52.4184 60.6067 53.1933V53.8667C60.6067 54.7596 60.9614 55.6159 61.5928 56.2473C62.2242 56.8786 63.0805 57.2333 63.9734 57.2333C64.8663 57.2333 65.7226 56.8786 66.354 56.2473C66.9853 55.6159 67.34 54.7596 67.34 53.8667V53.2472C69.3012 52.5523 71 51.2686 72.204 49.5717C73.408 47.8747 74.0585 45.8473 74.0666 43.7667Z" fill="#00AAF0"/>
<path d="M117.833 40.4H87.5333C86.6404 40.4 85.7841 40.0453 85.1527 39.4139C84.5213 38.7825 84.1666 37.9262 84.1666 37.0333C84.1666 36.1404 84.5213 35.2841 85.1527 34.6527C85.7841 34.0214 86.6404 33.6667 87.5333 33.6667H117.833C118.726 33.6667 119.583 34.0214 120.214 34.6527C120.845 35.2841 121.2 36.1404 121.2 37.0333C121.2 37.9262 120.845 38.7825 120.214 39.4139C119.583 40.0453 118.726 40.4 117.833 40.4Z" fill="#B5B8BC"/>
<path d="M148.133 57.2333H87.5333C86.6404 57.2333 85.7841 56.8786 85.1527 56.2473C84.5213 55.6159 84.1666 54.7596 84.1666 53.8667C84.1666 52.9738 84.5213 52.1174 85.1527 51.4861C85.7841 50.8547 86.6404 50.5 87.5333 50.5H148.133C149.026 50.5 149.883 50.8547 150.514 51.4861C151.145 52.1174 151.5 52.9738 151.5 53.8667C151.5 54.7596 151.145 55.6159 150.514 56.2473C149.883 56.8786 149.026 57.2333 148.133 57.2333Z" fill="#B5B8BC"/>
<path d="M148.133 175.067C147.24 175.066 146.384 174.712 145.753 174.08L135.653 163.98C135.04 163.345 134.7 162.495 134.708 161.612C134.716 160.729 135.07 159.885 135.694 159.261C136.318 158.637 137.163 158.283 138.045 158.275C138.928 158.267 139.779 158.607 140.414 159.22L147.675 166.482L168.943 136.104C169.19 135.727 169.51 135.404 169.884 135.153C170.259 134.902 170.68 134.729 171.122 134.644C171.565 134.559 172.02 134.564 172.461 134.658C172.902 134.752 173.319 134.933 173.688 135.192C174.057 135.45 174.371 135.78 174.61 136.162C174.85 136.543 175.01 136.969 175.082 137.414C175.154 137.859 175.135 138.314 175.028 138.752C174.921 139.189 174.727 139.601 174.457 139.962L150.891 173.629C150.609 174.032 150.242 174.368 149.816 174.614C149.391 174.86 148.916 175.01 148.426 175.053C148.329 175.063 148.231 175.067 148.133 175.067Z" fill="white"/>
</g>
<defs>
<filter id="filter0_d_1558_183" x="0.233643" y="-8.63614" width="184.733" height="211.703" filterUnits="userSpaceOnUse" color-interpolation-filters="sRGB">
<feFlood flood-opacity="0" result="BackgroundImageFix"/>
<feColorMatrix in="SourceAlpha" type="matrix" values="0 0 0 0 0 0 0 0 0 0 0 0 0 0 0 0 0 0 127 0" result="hardAlpha"/>
<feOffset dy="8"/>
<feGaussianBlur stdDeviation="10"/>
<feComposite in2="hardAlpha" operator="out"/>
<feColorMatrix type="matrix" values="0 0 0 0 0 0 0 0 0 0 0 0 0 0 0 0 0 0 0.14 0"/>
<feBlend mode="normal" in2="BackgroundImageFix" result="effect1_dropShadow_1558_183"/>
<feBlend mode="normal" in="SourceGraphic" in2="effect1_dropShadow_1558_183" result="shape"/>
</filter>
<clipPath id="clip0_1558_183">
<rect width="202" height="202" fill="white"/>
</clipPath>
</defs>
</svg>
