<svg width="281" height="237" viewBox="0 0 281 237" fill="none" xmlns="http://www.w3.org/2000/svg">
<path d="M226.153 22.6224C249.551 39.1749 269.53 65.9827 277.09 100.528C284.65 135.072 279.97 177.173 256.391 202.902C232.992 228.451 190.875 237.627 150.017 236.547C108.979 235.288 69.2014 223.773 40.5836 198.045C11.7854 172.496 -5.8536 132.734 2.78559 101.608C11.2453 70.3015 46.1627 47.8116 74.7815 31.2591C103.58 14.886 126.078 4.63059 150.917 2.47207C175.755 0.312669 202.573 6.25014 226.152 22.6233L226.153 22.6224Z" fill="#EBFBFF"/>
<path d="M218.792 183.449C218.521 183.449 218.302 183.229 218.302 182.959C218.302 182.689 218.522 182.47 218.792 182.47H220.942C221.213 182.47 221.432 182.689 221.432 182.959C221.432 183.229 221.212 183.449 220.942 183.449H218.792ZM216.657 183.449H214.522C214.251 183.449 214.032 183.229 214.032 182.959C214.032 182.689 214.252 182.47 214.522 182.47H216.657C216.928 182.47 217.146 182.689 217.146 182.959C217.146 183.229 216.927 183.449 216.657 183.449ZM212.388 183.449H210.253C209.982 183.449 209.763 183.229 209.763 182.959C209.763 182.689 209.983 182.47 210.253 182.47H212.388C212.658 182.47 212.877 182.689 212.877 182.959C212.877 183.229 212.658 183.449 212.388 183.449ZM208.118 183.449H205.984C205.713 183.449 205.494 183.229 205.494 182.959C205.494 182.689 205.713 182.47 205.984 182.47H208.118C208.389 182.47 208.608 182.689 208.608 182.959C208.608 183.229 208.389 183.449 208.118 183.449ZM203.849 183.449H201.714C201.444 183.449 201.225 183.229 201.225 182.959C201.225 182.689 201.444 182.47 201.714 182.47H203.849C204.12 182.47 204.339 182.689 204.339 182.959C204.339 183.229 204.119 183.449 203.849 183.449ZM199.58 183.449H197.445C197.174 183.449 196.956 183.229 196.956 182.959C196.956 182.689 197.175 182.47 197.445 182.47H199.58C199.851 182.47 200.07 182.689 200.07 182.959C200.07 183.229 199.85 183.449 199.58 183.449ZM195.311 183.449H193.176C192.905 183.449 192.687 183.229 192.687 182.959C192.687 182.689 192.906 182.47 193.176 182.47H195.311C195.582 182.47 195.801 182.689 195.801 182.959C195.801 183.229 195.581 183.449 195.311 183.449ZM191.042 183.449H188.907C188.636 183.449 188.418 183.229 188.418 182.959C188.418 182.689 188.637 182.47 188.907 182.47H191.042C191.313 182.47 191.532 182.689 191.532 182.959C191.532 183.229 191.312 183.449 191.042 183.449ZM186.773 183.449H184.638C184.367 183.449 184.149 183.229 184.149 182.959C184.149 182.689 184.368 182.47 184.638 182.47H186.773C187.044 182.47 187.263 182.689 187.263 182.959C187.263 183.229 187.043 183.449 186.773 183.449ZM182.504 183.449H180.369C180.098 183.449 179.88 183.229 179.88 182.959C179.88 182.689 180.099 182.47 180.369 182.47H182.504C182.775 182.47 182.994 182.689 182.994 182.959C182.994 183.229 182.774 183.449 182.504 183.449ZM178.235 183.449H176.1C175.829 183.449 175.61 183.229 175.61 182.959C175.61 182.689 175.83 182.47 176.1 182.47H178.235C178.506 182.47 178.724 182.689 178.724 182.959C178.724 183.229 178.505 183.449 178.235 183.449ZM173.966 183.449H171.831C171.56 183.449 171.341 183.229 171.341 182.959C171.341 182.689 171.561 182.47 171.831 182.47H173.966C174.237 182.47 174.455 182.689 174.455 182.959C174.455 183.229 174.236 183.449 173.966 183.449ZM169.697 183.449H167.562C167.291 183.449 167.072 183.229 167.072 182.959C167.072 182.689 167.292 182.47 167.562 182.47H169.697C169.968 182.47 170.186 182.689 170.186 182.959C170.186 183.229 169.967 183.449 169.697 183.449ZM165.428 183.449H163.293C163.022 183.449 162.803 183.229 162.803 182.959C162.803 182.689 163.023 182.47 163.293 182.47H165.428C165.699 182.47 165.917 182.689 165.917 182.959C165.917 183.229 165.698 183.449 165.428 183.449ZM161.159 183.449H159.024C158.753 183.449 158.534 183.229 158.534 182.959C158.534 182.689 158.754 182.47 159.024 182.47H161.159C161.43 182.47 161.648 182.689 161.648 182.959C161.648 183.229 161.429 183.449 161.159 183.449ZM156.89 183.449H154.755C154.484 183.449 154.265 183.229 154.265 182.959C154.265 182.689 154.485 182.47 154.755 182.47H156.89C157.16 182.47 157.379 182.689 157.379 182.959C157.379 183.229 157.16 183.449 156.89 183.449ZM152.621 183.449H150.486C150.215 183.449 149.996 183.229 149.996 182.959C149.996 182.689 150.215 182.47 150.486 182.47H152.621C152.891 182.47 153.11 182.689 153.11 182.959C153.11 183.229 152.891 183.449 152.621 183.449ZM148.351 183.449H146.216C145.946 183.449 145.727 183.229 145.727 182.959C145.727 182.689 145.946 182.47 146.216 182.47H148.351C148.622 182.47 148.841 182.689 148.841 182.959C148.841 183.229 148.621 183.449 148.351 183.449ZM144.082 183.449H141.947C141.676 183.449 141.458 183.229 141.458 182.959C141.458 182.689 141.677 182.47 141.947 182.47H144.082C144.353 182.47 144.572 182.689 144.572 182.959C144.572 183.229 144.352 183.449 144.082 183.449ZM139.813 183.449H137.678C137.407 183.449 137.189 183.229 137.189 182.959C137.189 182.689 137.408 182.47 137.678 182.47H139.813C140.084 182.47 140.303 182.689 140.303 182.959C140.303 183.229 140.083 183.449 139.813 183.449ZM135.544 183.449H133.409C133.138 183.449 132.92 183.229 132.92 182.959C132.92 182.689 133.139 182.47 133.409 182.47H135.544C135.815 182.47 136.034 182.689 136.034 182.959C136.034 183.229 135.814 183.449 135.544 183.449ZM131.275 183.449H129.14C128.869 183.449 128.651 183.229 128.651 182.959C128.651 182.689 128.87 182.47 129.14 182.47H131.275C131.546 182.47 131.765 182.689 131.765 182.959C131.765 183.229 131.545 183.449 131.275 183.449ZM127.006 183.449H124.871C124.6 183.449 124.382 183.229 124.382 182.959C124.382 182.689 124.601 182.47 124.871 182.47H127.006C127.277 182.47 127.496 182.689 127.496 182.959C127.496 183.229 127.276 183.449 127.006 183.449ZM122.737 183.449H120.602C120.331 183.449 120.112 183.229 120.112 182.959C120.112 182.689 120.332 182.47 120.602 182.47H122.737C123.008 182.47 123.227 182.689 123.227 182.959C123.227 183.229 123.007 183.449 122.737 183.449ZM118.468 183.449H116.333C116.062 183.449 115.843 183.229 115.843 182.959C115.843 182.689 116.063 182.47 116.333 182.47H118.468C118.739 182.47 118.957 182.689 118.957 182.959C118.957 183.229 118.738 183.449 118.468 183.449ZM114.199 183.449H112.064C111.793 183.449 111.574 183.229 111.574 182.959C111.574 182.689 111.794 182.47 112.064 182.47H114.199C114.47 182.47 114.688 182.689 114.688 182.959C114.688 183.229 114.469 183.449 114.199 183.449ZM109.93 183.449H107.795C107.524 183.449 107.305 183.229 107.305 182.959C107.305 182.689 107.525 182.47 107.795 182.47H109.93C110.201 182.47 110.419 182.689 110.419 182.959C110.419 183.229 110.2 183.449 109.93 183.449ZM105.661 183.449H103.526C103.255 183.449 103.036 183.229 103.036 182.959C103.036 182.689 103.256 182.47 103.526 182.47H105.661C105.932 182.47 106.15 182.689 106.15 182.959C106.15 183.229 105.931 183.449 105.661 183.449ZM101.392 183.449H99.2566C98.9857 183.449 98.7671 183.229 98.7671 182.959C98.7671 182.689 98.9866 182.47 99.2566 182.47H101.392C101.663 182.47 101.881 182.689 101.881 182.959C101.881 183.229 101.662 183.449 101.392 183.449ZM97.1225 183.449H94.9876C94.7167 183.449 94.498 183.229 94.498 182.959C94.498 182.689 94.7175 182.47 94.9876 182.47H97.1225C97.3934 182.47 97.6121 182.689 97.6121 182.959C97.6121 183.229 97.3926 183.449 97.1225 183.449ZM92.8535 183.449H90.7185C90.4476 183.449 90.229 183.229 90.229 182.959C90.229 182.689 90.4485 182.47 90.7185 182.47H92.8535C93.1244 182.47 93.343 182.689 93.343 182.959C93.343 183.229 93.1235 183.449 92.8535 183.449ZM88.5844 183.449H86.4494C86.1785 183.449 85.9599 183.229 85.9599 182.959C85.9599 182.689 86.1794 182.47 86.4494 182.47H88.5844C88.8553 182.47 89.0739 182.689 89.0739 182.959C89.0739 183.229 88.8544 183.449 88.5844 183.449ZM84.3153 183.449H84C83.3345 183.449 82.6803 183.341 82.0549 183.128C81.7988 183.041 81.6621 182.763 81.7492 182.507C81.8363 182.251 82.115 182.114 82.3711 182.201C82.8938 182.379 83.4416 182.469 84 182.469H84.3153C84.5862 182.469 84.8049 182.689 84.8049 182.958C84.8049 183.228 84.5854 183.448 84.3153 183.448V183.449ZM223.033 183.039C222.839 183.039 222.656 182.924 222.579 182.734C222.476 182.483 222.596 182.197 222.847 182.096C223.451 181.849 223.994 181.492 224.464 181.034C224.657 180.845 224.967 180.85 225.156 181.043C225.345 181.236 225.341 181.547 225.148 181.735C224.588 182.281 223.939 182.707 223.218 183.002C223.157 183.026 223.095 183.039 223.033 183.039ZM80.3738 182.098C80.2605 182.098 80.1456 182.059 80.0532 181.979C79.4626 181.468 78.9827 180.857 78.6282 180.164C78.5045 179.924 78.6003 179.629 78.8407 179.505C79.0811 179.382 79.3764 179.477 79.5001 179.718C79.7971 180.298 80.1996 180.81 80.6943 181.239C80.899 181.416 80.9208 181.725 80.744 181.929C80.6473 182.041 80.5105 182.098 80.3738 182.098ZM226.014 180.132C225.948 180.132 225.881 180.119 225.817 180.091C225.569 179.982 225.456 179.693 225.565 179.446C225.826 178.85 225.968 178.216 225.986 177.56C225.993 177.289 226.219 177.078 226.489 177.084C226.76 177.091 226.973 177.316 226.966 177.587C226.944 178.37 226.775 179.127 226.462 179.839C226.381 180.023 226.202 180.133 226.014 180.133V180.132ZM78.4783 178.392C78.2266 178.392 78.0132 178.2 77.9905 177.945C77.9757 177.771 77.9679 177.594 77.9679 177.419V175.77C77.9679 175.499 78.1874 175.28 78.4574 175.28C78.7275 175.28 78.947 175.5 78.947 175.77V177.419C78.947 177.566 78.9531 177.715 78.9661 177.86C78.9897 178.129 78.7902 178.367 78.5202 178.391C78.5062 178.391 78.4914 178.392 78.4775 178.392H78.4783ZM226.479 175.928C226.208 175.928 225.989 175.709 225.989 175.439V173.305C225.989 173.034 226.209 172.815 226.479 172.815C226.749 172.815 226.968 173.035 226.968 173.305V175.439C226.968 175.71 226.749 175.928 226.479 175.928ZM78.4583 174.125C78.1874 174.125 77.9688 173.906 77.9688 173.636V171.501C77.9688 171.231 78.1883 171.012 78.4583 171.012C78.7283 171.012 78.9478 171.232 78.9478 171.501V173.636C78.9478 173.906 78.7283 174.125 78.4583 174.125ZM226.479 171.66C226.208 171.66 225.989 171.44 225.989 171.171V169.036C225.989 168.766 226.209 168.547 226.479 168.547C226.749 168.547 226.968 168.767 226.968 169.036V171.171C226.968 171.441 226.749 171.66 226.479 171.66ZM78.4583 169.857C78.1874 169.857 77.9688 169.637 77.9688 169.367V167.233C77.9688 166.962 78.1883 166.744 78.4583 166.744C78.7283 166.744 78.9478 166.963 78.9478 167.233V169.367C78.9478 169.638 78.7283 169.857 78.4583 169.857ZM226.479 167.392C226.208 167.392 225.989 167.172 225.989 166.902V164.768C225.989 164.497 226.209 164.279 226.479 164.279C226.749 164.279 226.968 164.498 226.968 164.768V166.902C226.968 167.173 226.749 167.392 226.479 167.392ZM78.4583 165.588C78.1874 165.588 77.9688 165.369 77.9688 165.099V162.965C77.9688 162.694 78.1883 162.476 78.4583 162.476C78.7283 162.476 78.9478 162.695 78.9478 162.965V165.099C78.9478 165.37 78.7283 165.588 78.4583 165.588ZM226.479 163.123C226.208 163.123 225.989 162.904 225.989 162.634V160.5C225.989 160.229 226.209 160.01 226.479 160.01C226.749 160.01 226.968 160.23 226.968 160.5V162.634C226.968 162.905 226.749 163.123 226.479 163.123ZM78.4583 161.32C78.1874 161.32 77.9688 161.101 77.9688 160.831V158.697C77.9688 158.426 78.1883 158.207 78.4583 158.207C78.7283 158.207 78.9478 158.427 78.9478 158.697V160.831C78.9478 161.102 78.7283 161.32 78.4583 161.32ZM226.479 158.855C226.208 158.855 225.989 158.636 225.989 158.366V156.232C225.989 155.961 226.209 155.742 226.479 155.742C226.749 155.742 226.968 155.962 226.968 156.232V158.366C226.968 158.636 226.749 158.855 226.479 158.855ZM78.4583 157.052C78.1874 157.052 77.9688 156.832 77.9688 156.562V154.428C77.9688 154.157 78.1883 153.939 78.4583 153.939C78.7283 153.939 78.9478 154.158 78.9478 154.428V156.562C78.9478 156.833 78.7283 157.052 78.4583 157.052ZM226.479 154.587C226.208 154.587 225.989 154.367 225.989 154.097V151.963C225.989 151.692 226.209 151.474 226.479 151.474C226.749 151.474 226.968 151.693 226.968 151.963V154.097C226.968 154.368 226.749 154.587 226.479 154.587ZM78.4583 152.783C78.1874 152.783 77.9688 152.564 77.9688 152.294V150.16C77.9688 149.889 78.1883 149.671 78.4583 149.671C78.7283 149.671 78.9478 149.89 78.9478 150.16V152.294C78.9478 152.565 78.7283 152.783 78.4583 152.783ZM226.479 150.318C226.208 150.318 225.989 150.099 225.989 149.829V147.695C225.989 147.424 226.209 147.206 226.479 147.206C226.749 147.206 226.968 147.425 226.968 147.695V149.829C226.968 150.1 226.749 150.318 226.479 150.318ZM78.4583 148.515C78.1874 148.515 77.9688 148.296 77.9688 148.026V145.892C77.9688 145.621 78.1883 145.402 78.4583 145.402C78.7283 145.402 78.9478 145.622 78.9478 145.892V148.026C78.9478 148.297 78.7283 148.515 78.4583 148.515ZM226.479 146.05C226.208 146.05 225.989 145.831 225.989 145.561V143.427C225.989 143.156 226.209 142.937 226.479 142.937C226.749 142.937 226.968 143.157 226.968 143.427V145.561C226.968 145.832 226.749 146.05 226.479 146.05ZM78.4583 144.247C78.1874 144.247 77.9688 144.027 77.9688 143.758V141.623C77.9688 141.353 78.1883 141.134 78.4583 141.134C78.7283 141.134 78.9478 141.353 78.9478 141.623V143.758C78.9478 144.028 78.7283 144.247 78.4583 144.247ZM226.479 141.782C226.208 141.782 225.989 141.562 225.989 141.293V139.158C225.989 138.888 226.209 138.669 226.479 138.669C226.749 138.669 226.968 138.888 226.968 139.158V141.293C226.968 141.563 226.749 141.782 226.479 141.782ZM78.4583 139.979C78.1874 139.979 77.9688 139.759 77.9688 139.489V137.355C77.9688 137.084 78.1883 136.866 78.4583 136.866C78.7283 136.866 78.9478 137.085 78.9478 137.355V139.489C78.9478 139.76 78.7283 139.979 78.4583 139.979ZM226.479 137.514C226.208 137.514 225.989 137.294 225.989 137.024V134.89C225.989 134.619 226.209 134.401 226.479 134.401C226.749 134.401 226.968 134.62 226.968 134.89V137.024C226.968 137.295 226.749 137.514 226.479 137.514ZM78.4583 135.71C78.1874 135.71 77.9688 135.491 77.9688 135.221V133.087C77.9688 132.816 78.1883 132.597 78.4583 132.597C78.7283 132.597 78.9478 132.817 78.9478 133.087V135.221C78.9478 135.492 78.7283 135.71 78.4583 135.71ZM226.479 133.245C226.208 133.245 225.989 133.026 225.989 132.756V130.622C225.989 130.351 226.209 130.132 226.479 130.132C226.749 130.132 226.968 130.352 226.968 130.622V132.756C226.968 133.027 226.749 133.245 226.479 133.245ZM78.4583 131.442C78.1874 131.442 77.9688 131.223 77.9688 130.953V128.819C77.9688 128.548 78.1883 128.329 78.4583 128.329C78.7283 128.329 78.9478 128.549 78.9478 128.819V130.953C78.9478 131.223 78.7283 131.442 78.4583 131.442ZM226.479 128.977C226.208 128.977 225.989 128.758 225.989 128.488V126.353C225.989 126.083 226.209 125.864 226.479 125.864C226.749 125.864 226.968 126.084 226.968 126.353V128.488C226.968 128.758 226.749 128.977 226.479 128.977ZM78.4583 127.174C78.1874 127.174 77.9688 126.954 77.9688 126.684V124.55C77.9688 124.279 78.1883 124.061 78.4583 124.061C78.7283 124.061 78.9478 124.28 78.9478 124.55V126.684C78.9478 126.955 78.7283 127.174 78.4583 127.174ZM226.479 124.709C226.208 124.709 225.989 124.489 225.989 124.219V122.085C225.989 121.814 226.209 121.596 226.479 121.596C226.749 121.596 226.968 121.815 226.968 122.085V124.219C226.968 124.49 226.749 124.709 226.479 124.709ZM78.4583 122.905C78.1874 122.905 77.9688 122.686 77.9688 122.416V120.282C77.9688 120.011 78.1883 119.793 78.4583 119.793C78.7283 119.793 78.9478 120.012 78.9478 120.282V122.416C78.9478 122.687 78.7283 122.905 78.4583 122.905ZM226.479 120.44C226.208 120.44 225.989 120.221 225.989 119.951V117.817C225.989 117.546 226.209 117.328 226.479 117.328C226.749 117.328 226.968 117.547 226.968 117.817V119.951C226.968 120.222 226.749 120.44 226.479 120.44ZM78.4583 118.637C78.1874 118.637 77.9688 118.418 77.9688 118.148V116.014C77.9688 115.743 78.1883 115.524 78.4583 115.524C78.7283 115.524 78.9478 115.744 78.9478 116.014V118.148C78.9478 118.419 78.7283 118.637 78.4583 118.637ZM226.479 116.172C226.208 116.172 225.989 115.953 225.989 115.683V113.549C225.989 113.278 226.209 113.059 226.479 113.059C226.749 113.059 226.968 113.279 226.968 113.549V115.683C226.968 115.954 226.749 116.172 226.479 116.172ZM78.4583 114.369C78.1874 114.369 77.9688 114.149 77.9688 113.879V111.745C77.9688 111.475 78.1883 111.256 78.4583 111.256C78.7283 111.256 78.9478 111.475 78.9478 111.745V113.879C78.9478 114.15 78.7283 114.369 78.4583 114.369ZM226.479 111.904C226.208 111.904 225.989 111.684 225.989 111.414V109.28C225.989 109.01 226.209 108.791 226.479 108.791C226.749 108.791 226.968 109.01 226.968 109.28V111.414C226.968 111.685 226.749 111.904 226.479 111.904ZM78.4583 110.101C78.1874 110.101 77.9688 109.881 77.9688 109.611V107.477C77.9688 107.206 78.1883 106.988 78.4583 106.988C78.7283 106.988 78.9478 107.207 78.9478 107.477V109.611C78.9478 109.882 78.7283 110.101 78.4583 110.101ZM226.479 107.636C226.208 107.636 225.989 107.416 225.989 107.146V105.012C225.989 104.741 226.209 104.523 226.479 104.523C226.749 104.523 226.968 104.742 226.968 105.012V107.146C226.968 107.417 226.749 107.636 226.479 107.636ZM78.4583 105.832C78.1874 105.832 77.9688 105.613 77.9688 105.343V103.209C77.9688 102.938 78.1883 102.719 78.4583 102.719C78.7283 102.719 78.9478 102.939 78.9478 103.209V105.343C78.9478 105.614 78.7283 105.832 78.4583 105.832ZM226.479 103.367C226.208 103.367 225.989 103.148 225.989 102.878V100.744C225.989 100.473 226.209 100.254 226.479 100.254C226.749 100.254 226.968 100.474 226.968 100.744V102.878C226.968 103.149 226.749 103.367 226.479 103.367ZM78.4583 101.564C78.1874 101.564 77.9688 101.345 77.9688 101.075V98.9405C77.9688 98.6697 78.1883 98.4511 78.4583 98.4511C78.7283 98.4511 78.9478 98.6705 78.9478 98.9405V101.075C78.9478 101.345 78.7283 101.564 78.4583 101.564ZM226.479 99.0989C226.208 99.0989 225.989 98.8795 225.989 98.6096V96.4754C225.989 96.2046 226.209 95.9861 226.479 95.9861C226.749 95.9861 226.968 96.2055 226.968 96.4754V98.6096C226.968 98.8804 226.749 99.0989 226.479 99.0989ZM78.4583 97.2957C78.1874 97.2957 77.9688 97.0762 77.9688 96.8063V94.6722C77.9688 94.4014 78.1883 94.1828 78.4583 94.1828C78.7283 94.1828 78.9478 94.4022 78.9478 94.6722V96.8063C78.9478 97.0771 78.7283 97.2957 78.4583 97.2957ZM226.479 94.8306C226.208 94.8306 225.989 94.6112 225.989 94.3413V92.2071C225.989 91.9363 226.209 91.7178 226.479 91.7178C226.749 91.7178 226.968 91.9372 226.968 92.2071V94.3413C226.968 94.6121 226.749 94.8306 226.479 94.8306ZM78.4583 93.0274C78.1874 93.0274 77.9688 92.8079 77.9688 92.538V90.4039C77.9688 90.1331 78.1883 89.9145 78.4583 89.9145C78.7283 89.9145 78.9478 90.1339 78.9478 90.4039V92.538C78.9478 92.8088 78.7283 93.0274 78.4583 93.0274ZM226.479 90.5623C226.208 90.5623 225.989 90.3429 225.989 90.073V87.9389C225.989 87.6681 226.209 87.4495 226.479 87.4495C226.749 87.4495 226.968 87.6689 226.968 87.9389V90.073C226.968 90.3438 226.749 90.5623 226.479 90.5623ZM78.4583 88.7591C78.1874 88.7591 77.9688 88.5396 77.9688 88.2697V86.1356C77.9688 85.8648 78.1883 85.6462 78.4583 85.6462C78.7283 85.6462 78.9478 85.8657 78.9478 86.1356V88.2697C78.9478 88.5405 78.7283 88.7591 78.4583 88.7591ZM226.479 86.2941C226.208 86.2941 225.989 86.0746 225.989 85.8047V83.6706C225.989 83.3998 226.209 83.1812 226.479 83.1812C226.749 83.1812 226.968 83.4006 226.968 83.6706V85.8047C226.968 86.0755 226.749 86.2941 226.479 86.2941ZM78.4583 84.4908C78.1874 84.4908 77.9688 84.2714 77.9688 84.0014V81.8673C77.9688 81.5965 78.1883 81.3779 78.4583 81.3779C78.7283 81.3779 78.9478 81.5974 78.9478 81.8673V84.0014C78.9478 84.2722 78.7283 84.4908 78.4583 84.4908ZM226.479 82.0258C226.208 82.0258 225.989 81.8063 225.989 81.5364V79.4023C225.989 79.1315 226.209 78.9129 226.479 78.9129C226.749 78.9129 226.968 79.1323 226.968 79.4023V81.5364C226.968 81.8072 226.749 82.0258 226.479 82.0258ZM78.4583 80.2225C78.1874 80.2225 77.9688 80.0031 77.9688 79.7331V77.599C77.9688 77.3282 78.1883 77.1096 78.4583 77.1096C78.7283 77.1096 78.9478 77.3291 78.9478 77.599V79.7331C78.9478 80.0039 78.7283 80.2225 78.4583 80.2225ZM226.479 77.7575C226.208 77.7575 225.989 77.538 225.989 77.2681V75.134C225.989 74.8632 226.209 74.6446 226.479 74.6446C226.749 74.6446 226.968 74.864 226.968 75.134V77.2681C226.968 77.5389 226.749 77.7575 226.479 77.7575ZM78.4583 75.9542C78.1874 75.9542 77.9688 75.7348 77.9688 75.4648V73.3307C77.9688 73.0599 78.1883 72.8414 78.4583 72.8414C78.7283 72.8414 78.9478 73.0608 78.9478 73.3307V75.4648C78.9478 75.7356 78.7283 75.9542 78.4583 75.9542ZM226.479 73.4892C226.208 73.4892 225.989 73.2697 225.989 72.9998V70.8657C225.989 70.5949 226.209 70.3763 226.479 70.3763C226.749 70.3763 226.968 70.5957 226.968 70.8657V72.9998C226.968 73.2706 226.749 73.4892 226.479 73.4892ZM78.4583 71.6859C78.1874 71.6859 77.9688 71.4665 77.9688 71.1966V69.0624C77.9688 68.7916 78.1883 68.5731 78.4583 68.5731C78.7283 68.5731 78.9478 68.7925 78.9478 69.0624V71.1966C78.9478 71.4673 78.7283 71.6859 78.4583 71.6859ZM226.479 69.2209C226.208 69.2209 225.989 69.0014 225.989 68.7315V66.5974C225.989 66.3266 226.209 66.108 226.479 66.108C226.749 66.108 226.968 66.3275 226.968 66.5974V68.7315C226.968 69.0023 226.749 69.2209 226.479 69.2209ZM78.4583 67.4176C78.1874 67.4176 77.9688 67.1982 77.9688 66.9283V64.7941C77.9688 64.5233 78.1883 64.3048 78.4583 64.3048C78.7283 64.3048 78.9478 64.5242 78.9478 64.7941V66.9283C78.9478 67.1991 78.7283 67.4176 78.4583 67.4176ZM226.479 64.9526C226.208 64.9526 225.989 64.7332 225.989 64.4632V62.3291C225.989 62.0583 226.209 61.8397 226.479 61.8397C226.749 61.8397 226.968 62.0592 226.968 62.3291V64.4632C226.968 64.734 226.749 64.9526 226.479 64.9526ZM78.4583 63.1493C78.1874 63.1493 77.9688 62.9299 77.9688 62.66V60.5258C77.9688 60.255 78.1883 60.0365 78.4583 60.0365C78.7283 60.0365 78.9478 60.2559 78.9478 60.5258V62.66C78.9478 62.9308 78.7283 63.1493 78.4583 63.1493ZM226.479 60.6843C226.208 60.6843 225.989 60.4649 225.989 60.1949V58.0608C225.989 57.79 226.209 57.5714 226.479 57.5714C226.749 57.5714 226.968 57.7909 226.968 58.0608V60.1949C226.968 60.4657 226.749 60.6843 226.479 60.6843ZM78.4583 58.881C78.1874 58.881 77.9688 58.6616 77.9688 58.3917V56.4195C77.9688 56.3603 77.9688 56.3019 77.9714 56.2436C77.9792 55.9728 78.2048 55.763 78.4757 55.7682C78.7466 55.776 78.9592 56.0015 78.9513 56.2723C78.9496 56.3211 78.9496 56.3707 78.9496 56.4195V58.3917C78.9496 58.6625 78.7301 58.881 78.46 58.881H78.4583ZM226.456 56.4169C226.205 56.4169 225.991 56.2244 225.968 55.9702C225.911 55.3189 225.73 54.6946 225.433 54.1147C225.309 53.8743 225.404 53.5792 225.644 53.4555C225.886 53.3319 226.18 53.4268 226.304 53.6671C226.66 54.3602 226.876 55.1064 226.944 55.8849C226.967 56.1539 226.768 56.3916 226.499 56.416C226.484 56.4169 226.47 56.4177 226.455 56.4177L226.456 56.4169ZM78.9252 54.678C78.859 54.678 78.7919 54.665 78.7283 54.6362C78.481 54.5274 78.3686 54.2383 78.4775 53.991C78.7911 53.2788 79.2344 52.6414 79.7954 52.0963C79.9896 51.9074 80.2997 51.9117 80.4879 52.1059C80.6769 52.3001 80.6725 52.6101 80.4783 52.7981C80.0088 53.2544 79.6369 53.789 79.3747 54.3855C79.2937 54.5692 79.1142 54.678 78.9261 54.678H78.9252ZM224.556 52.7137C224.443 52.7137 224.329 52.6745 224.237 52.5944C223.741 52.166 223.176 51.8429 222.559 51.634C222.303 51.5469 222.165 51.2691 222.252 51.0131C222.339 50.7572 222.617 50.6196 222.873 50.7067C223.611 50.9566 224.285 51.3423 224.877 51.8534C225.082 52.0302 225.104 52.3393 224.927 52.5439C224.831 52.6562 224.694 52.7137 224.556 52.7137ZM81.9112 51.7759C81.7178 51.7759 81.5349 51.661 81.4574 51.4711C81.3555 51.2204 81.4757 50.9348 81.7265 50.8329C82.446 50.5395 83.2082 50.3906 83.9922 50.3897C84.2657 50.3915 84.4826 50.6083 84.4826 50.8791C84.4826 51.1499 84.2639 51.3693 83.993 51.3693C83.3363 51.3701 82.6978 51.4947 82.0959 51.7402C82.0358 51.7646 81.973 51.7768 81.9112 51.7768V51.7759ZM220.613 51.3684H218.478C218.207 51.3684 217.988 51.149 217.988 50.8791C217.988 50.6091 218.208 50.3897 218.478 50.3897H220.613C220.884 50.3897 221.103 50.6091 221.103 50.8791C221.103 51.149 220.883 51.3684 220.613 51.3684ZM216.344 51.3684H214.209C213.938 51.3684 213.719 51.149 213.719 50.8791C213.719 50.6091 213.939 50.3897 214.209 50.3897H216.344C216.615 50.3897 216.833 50.6091 216.833 50.8791C216.833 51.149 216.614 51.3684 216.344 51.3684ZM212.075 51.3684H209.94C209.669 51.3684 209.45 51.149 209.45 50.8791C209.45 50.6091 209.67 50.3897 209.94 50.3897H212.075C212.346 50.3897 212.564 50.6091 212.564 50.8791C212.564 51.149 212.345 51.3684 212.075 51.3684ZM207.806 51.3684H205.671C205.4 51.3684 205.181 51.149 205.181 50.8791C205.181 50.6091 205.401 50.3897 205.671 50.3897H207.806C208.077 50.3897 208.295 50.6091 208.295 50.8791C208.295 51.149 208.076 51.3684 207.806 51.3684ZM203.537 51.3684H201.402C201.131 51.3684 200.912 51.149 200.912 50.8791C200.912 50.6091 201.132 50.3897 201.402 50.3897H203.537C203.808 50.3897 204.026 50.6091 204.026 50.8791C204.026 51.149 203.807 51.3684 203.537 51.3684ZM199.268 51.3684H197.133C196.862 51.3684 196.643 51.149 196.643 50.8791C196.643 50.6091 196.863 50.3897 197.133 50.3897H199.268C199.539 50.3897 199.757 50.6091 199.757 50.8791C199.757 51.149 199.538 51.3684 199.268 51.3684ZM194.999 51.3684H192.864C192.593 51.3684 192.374 51.149 192.374 50.8791C192.374 50.6091 192.594 50.3897 192.864 50.3897H194.999C195.269 50.3897 195.488 50.6091 195.488 50.8791C195.488 51.149 195.269 51.3684 194.999 51.3684ZM190.729 51.3684H188.594C188.324 51.3684 188.105 51.149 188.105 50.8791C188.105 50.6091 188.324 50.3897 188.594 50.3897H190.729C191 50.3897 191.219 50.6091 191.219 50.8791C191.219 51.149 190.999 51.3684 190.729 51.3684ZM186.46 51.3684H184.325C184.055 51.3684 183.836 51.149 183.836 50.8791C183.836 50.6091 184.055 50.3897 184.325 50.3897H186.46C186.731 50.3897 186.95 50.6091 186.95 50.8791C186.95 51.149 186.73 51.3684 186.46 51.3684ZM182.191 51.3684H180.056C179.785 51.3684 179.567 51.149 179.567 50.8791C179.567 50.6091 179.786 50.3897 180.056 50.3897H182.191C182.462 50.3897 182.681 50.6091 182.681 50.8791C182.681 51.149 182.461 51.3684 182.191 51.3684ZM177.922 51.3684H175.787C175.516 51.3684 175.298 51.149 175.298 50.8791C175.298 50.6091 175.517 50.3897 175.787 50.3897H177.922C178.193 50.3897 178.413 50.6091 178.413 50.8791C178.413 51.149 178.193 51.3684 177.922 51.3684ZM173.653 51.3684H171.518C171.247 51.3684 171.029 51.149 171.029 50.8791C171.029 50.6091 171.248 50.3897 171.518 50.3897H173.653C173.924 50.3897 174.143 50.6091 174.143 50.8791C174.143 51.149 173.923 51.3684 173.653 51.3684ZM169.384 51.3684H167.249C166.978 51.3684 166.76 51.149 166.76 50.8791C166.76 50.6091 166.979 50.3897 167.249 50.3897H169.384C169.655 50.3897 169.874 50.6091 169.874 50.8791C169.874 51.149 169.654 51.3684 169.384 51.3684ZM165.115 51.3684H162.98C162.709 51.3684 162.491 51.149 162.491 50.8791C162.491 50.6091 162.71 50.3897 162.98 50.3897H165.115C165.386 50.3897 165.605 50.6091 165.605 50.8791C165.605 51.149 165.385 51.3684 165.115 51.3684ZM160.846 51.3684H158.711C158.44 51.3684 158.221 51.149 158.221 50.8791C158.221 50.6091 158.441 50.3897 158.711 50.3897H160.846C161.117 50.3897 161.335 50.6091 161.335 50.8791C161.335 51.149 161.116 51.3684 160.846 51.3684ZM156.577 51.3684H154.442C154.171 51.3684 153.952 51.149 153.952 50.8791C153.952 50.6091 154.172 50.3897 154.442 50.3897H156.577C156.848 50.3897 157.066 50.6091 157.066 50.8791C157.066 51.149 156.847 51.3684 156.577 51.3684ZM152.308 51.3684H150.173C149.902 51.3684 149.683 51.149 149.683 50.8791C149.683 50.6091 149.903 50.3897 150.173 50.3897H152.308C152.579 50.3897 152.797 50.6091 152.797 50.8791C152.797 51.149 152.578 51.3684 152.308 51.3684ZM148.039 51.3684H145.904C145.633 51.3684 145.414 51.149 145.414 50.8791C145.414 50.6091 145.634 50.3897 145.904 50.3897H148.039C148.31 50.3897 148.528 50.6091 148.528 50.8791C148.528 51.149 148.309 51.3684 148.039 51.3684ZM143.77 51.3684H141.635C141.364 51.3684 141.145 51.149 141.145 50.8791C141.145 50.6091 141.365 50.3897 141.635 50.3897H143.77C144.041 50.3897 144.259 50.6091 144.259 50.8791C144.259 51.149 144.04 51.3684 143.77 51.3684ZM139.501 51.3684H137.366C137.095 51.3684 136.876 51.149 136.876 50.8791C136.876 50.6091 137.096 50.3897 137.366 50.3897H139.501C139.771 50.3897 139.99 50.6091 139.99 50.8791C139.99 51.149 139.771 51.3684 139.501 51.3684ZM135.232 51.3684H133.097C132.826 51.3684 132.607 51.149 132.607 50.8791C132.607 50.6091 132.827 50.3897 133.097 50.3897H135.232C135.502 50.3897 135.721 50.6091 135.721 50.8791C135.721 51.149 135.502 51.3684 135.232 51.3684ZM130.962 51.3684H128.827C128.557 51.3684 128.338 51.149 128.338 50.8791C128.338 50.6091 128.557 50.3897 128.827 50.3897H130.962C131.233 50.3897 131.452 50.6091 131.452 50.8791C131.452 51.149 131.232 51.3684 130.962 51.3684ZM126.693 51.3684H124.558C124.287 51.3684 124.069 51.149 124.069 50.8791C124.069 50.6091 124.288 50.3897 124.558 50.3897H126.693C126.964 50.3897 127.183 50.6091 127.183 50.8791C127.183 51.149 126.963 51.3684 126.693 51.3684ZM122.424 51.3684H120.289C120.018 51.3684 119.8 51.149 119.8 50.8791C119.8 50.6091 120.019 50.3897 120.289 50.3897H122.424C122.695 50.3897 122.914 50.6091 122.914 50.8791C122.914 51.149 122.694 51.3684 122.424 51.3684ZM118.155 51.3684H116.02C115.749 51.3684 115.531 51.149 115.531 50.8791C115.531 50.6091 115.75 50.3897 116.02 50.3897H118.155C118.426 50.3897 118.645 50.6091 118.645 50.8791C118.645 51.149 118.425 51.3684 118.155 51.3684ZM113.886 51.3684H111.751C111.48 51.3684 111.262 51.149 111.262 50.8791C111.262 50.6091 111.481 50.3897 111.751 50.3897H113.886C114.157 50.3897 114.376 50.6091 114.376 50.8791C114.376 51.149 114.156 51.3684 113.886 51.3684ZM109.617 51.3684H107.482C107.211 51.3684 106.993 51.149 106.993 50.8791C106.993 50.6091 107.212 50.3897 107.482 50.3897H109.617C109.888 50.3897 110.107 50.6091 110.107 50.8791C110.107 51.149 109.887 51.3684 109.617 51.3684ZM105.348 51.3684H103.213C102.942 51.3684 102.723 51.149 102.723 50.8791C102.723 50.6091 102.943 50.3897 103.213 50.3897H105.348C105.619 50.3897 105.838 50.6091 105.838 50.8791C105.838 51.149 105.618 51.3684 105.348 51.3684ZM101.079 51.3684H98.9439C98.673 51.3684 98.4544 51.149 98.4544 50.8791C98.4544 50.6091 98.6739 50.3897 98.9439 50.3897H101.079C101.35 50.3897 101.568 50.6091 101.568 50.8791C101.568 51.149 101.349 51.3684 101.079 51.3684ZM96.8098 51.3684H94.6749C94.404 51.3684 94.1853 51.149 94.1853 50.8791C94.1853 50.6091 94.4048 50.3897 94.6749 50.3897H96.8098C97.0807 50.3897 97.2994 50.6091 97.2994 50.8791C97.2994 51.149 97.0799 51.3684 96.8098 51.3684ZM92.5408 51.3684H90.4058C90.1349 51.3684 89.9154 51.149 89.9154 50.8791C89.9154 50.6091 90.1349 50.3897 90.4058 50.3897H92.5408C92.8117 50.3897 93.0303 50.6091 93.0303 50.8791C93.0303 51.149 92.8108 51.3684 92.5408 51.3684ZM88.2717 51.3684H86.1367C85.8658 51.3684 85.6472 51.149 85.6472 50.8791C85.6472 50.6091 85.8667 50.3897 86.1367 50.3897H88.2717C88.5426 50.3897 88.7612 50.6091 88.7612 50.8791C88.7612 51.149 88.5417 51.3684 88.2717 51.3684Z" fill="#00AAF0"/>
<path d="M150.569 139.804H148.418C148.147 139.804 147.928 139.585 147.928 139.315C147.928 139.045 148.147 138.826 148.418 138.826H150.569C150.84 138.826 151.059 139.045 151.059 139.315C151.059 139.585 150.839 139.804 150.569 139.804ZM146.284 139.804H144.151C143.88 139.804 143.662 139.585 143.662 139.315C143.662 139.045 143.881 138.826 144.151 138.826H146.284C146.555 138.826 146.775 139.045 146.775 139.315C146.775 139.585 146.555 139.804 146.284 139.804ZM142.018 139.804H139.885C139.614 139.804 139.395 139.585 139.395 139.315C139.395 139.045 139.615 138.826 139.885 138.826H142.018C142.289 138.826 142.507 139.045 142.507 139.315C142.507 139.585 142.288 139.804 142.018 139.804ZM137.751 139.804H135.618C135.347 139.804 135.129 139.585 135.129 139.315C135.129 139.045 135.348 138.826 135.618 138.826H137.751C138.022 138.826 138.241 139.045 138.241 139.315C138.241 139.585 138.021 139.804 137.751 139.804ZM133.485 139.804H131.352C131.081 139.804 130.862 139.585 130.862 139.315C130.862 139.045 131.082 138.826 131.352 138.826H133.485C133.756 138.826 133.974 139.045 133.974 139.315C133.974 139.585 133.755 139.804 133.485 139.804ZM129.218 139.804H127.085C126.814 139.804 126.596 139.585 126.596 139.315C126.596 139.045 126.815 138.826 127.085 138.826H129.218C129.489 138.826 129.708 139.045 129.708 139.315C129.708 139.585 129.488 139.804 129.218 139.804ZM124.952 139.804H122.819C122.548 139.804 122.329 139.585 122.329 139.315C122.329 139.045 122.549 138.826 122.819 138.826H124.952C125.223 138.826 125.442 139.045 125.442 139.315C125.442 139.585 125.222 139.804 124.952 139.804ZM120.686 139.804H118.552C118.281 139.804 118.063 139.585 118.063 139.315C118.063 139.045 118.282 138.826 118.552 138.826H120.686C120.956 138.826 121.175 139.045 121.175 139.315C121.175 139.585 120.956 139.804 120.686 139.804ZM116.419 139.804H114.286C114.015 139.804 113.796 139.585 113.796 139.315C113.796 139.045 114.016 138.826 114.286 138.826H116.419C116.69 138.826 116.909 139.045 116.909 139.315C116.909 139.585 116.689 139.804 116.419 139.804ZM112.153 139.804H110.02C109.749 139.804 109.531 139.585 109.531 139.315C109.531 139.045 109.75 138.826 110.02 138.826H112.153C112.424 138.826 112.643 139.045 112.643 139.315C112.643 139.585 112.424 139.804 112.153 139.804ZM107.887 139.804H105.754C105.483 139.804 105.264 139.585 105.264 139.315C105.264 139.045 105.484 138.826 105.754 138.826H107.887C108.158 138.826 108.377 139.045 108.377 139.315C108.377 139.585 108.157 139.804 107.887 139.804ZM103.621 139.804H101.487C101.216 139.804 100.998 139.585 100.998 139.315C100.998 139.045 101.217 138.826 101.487 138.826H103.621C103.891 138.826 104.11 139.045 104.11 139.315C104.11 139.585 103.891 139.804 103.621 139.804ZM99.3541 139.804H97.2209C96.95 139.804 96.7313 139.585 96.7313 139.315C96.7313 139.045 96.9508 138.826 97.2209 138.826H99.3541C99.625 138.826 99.8436 139.045 99.8436 139.315C99.8436 139.585 99.6241 139.804 99.3541 139.804ZM95.0876 139.804H92.9544C92.6835 139.804 92.4649 139.585 92.4649 139.315C92.4649 139.045 92.6844 138.826 92.9544 138.826H95.0876C95.3585 138.826 95.5772 139.045 95.5772 139.315C95.5772 139.585 95.3577 139.804 95.0876 139.804ZM90.8212 139.804H88.6879C88.417 139.804 88.1984 139.585 88.1984 139.315C88.1984 139.045 88.4179 138.826 88.6879 138.826H90.8212C91.0921 138.826 91.3116 139.045 91.3116 139.315C91.3116 139.585 91.0921 139.804 90.8212 139.804ZM86.5547 139.804H84.4215C84.1506 139.804 83.9319 139.585 83.9319 139.315C83.9319 139.045 84.1515 138.826 84.4215 138.826H86.5547C86.8256 138.826 87.0443 139.045 87.0443 139.315C87.0443 139.585 86.8247 139.804 86.5547 139.804ZM82.2883 139.804H80.155C79.8841 139.804 79.6655 139.585 79.6655 139.315C79.6655 139.045 79.885 138.826 80.155 138.826H82.2883C82.5592 138.826 82.7778 139.045 82.7778 139.315C82.7778 139.585 82.5583 139.804 82.2883 139.804ZM78.0218 139.804H75.8886C75.6177 139.804 75.399 139.585 75.399 139.315C75.399 139.045 75.6185 138.826 75.8886 138.826H78.0218C78.2927 138.826 78.5113 139.045 78.5113 139.315C78.5113 139.585 78.2918 139.804 78.0218 139.804ZM73.7553 139.804H71.6221C71.3512 139.804 71.1326 139.585 71.1326 139.315C71.1326 139.045 71.3521 138.826 71.6221 138.826H73.7553C74.0262 138.826 74.2449 139.045 74.2449 139.315C74.2449 139.585 74.0254 139.804 73.7553 139.804ZM69.4889 139.804H67.3556C67.0847 139.804 66.8661 139.585 66.8661 139.315C66.8661 139.045 67.0856 138.826 67.3556 138.826H69.4889C69.7598 138.826 69.9784 139.045 69.9784 139.315C69.9784 139.585 69.7589 139.804 69.4889 139.804ZM65.2224 139.804H63.0892C62.8183 139.804 62.5996 139.585 62.5996 139.315C62.5996 139.045 62.8191 138.826 63.0892 138.826H65.2224C65.4933 138.826 65.7119 139.045 65.7119 139.315C65.7119 139.585 65.4924 139.804 65.2224 139.804ZM60.9559 139.804H59.6223C59.3271 139.804 59.0309 139.779 58.7426 139.728C58.476 139.681 58.2983 139.427 58.3454 139.161C58.3924 138.895 58.6468 138.717 58.9133 138.763C59.1459 138.804 59.3845 138.825 59.6232 138.825H60.9568C61.2277 138.825 61.4464 139.044 61.4464 139.314C61.4464 139.584 61.2269 139.804 60.9568 139.804L60.9559 139.804ZM152.615 139.307C152.437 139.307 152.265 139.21 152.179 139.041C152.056 138.8 152.151 138.504 152.392 138.382C152.956 138.093 153.452 137.67 153.828 137.157C153.987 136.939 154.294 136.892 154.512 137.051C154.731 137.211 154.778 137.517 154.619 137.736C154.153 138.371 153.538 138.896 152.839 139.253C152.768 139.29 152.691 139.307 152.616 139.307H152.615ZM56.8881 138.895C56.7853 138.895 56.6825 138.862 56.5945 138.796C55.9648 138.323 55.4474 137.702 55.0981 136.998C54.9779 136.756 55.0772 136.462 55.3193 136.342C55.5615 136.221 55.8559 136.321 55.9761 136.563C56.2574 137.13 56.6747 137.631 57.1825 138.012C57.3985 138.175 57.443 138.482 57.2801 138.699C57.1834 138.827 57.037 138.895 56.8881 138.895ZM155.039 135.988C155.013 135.988 154.986 135.986 154.96 135.982C154.693 135.938 154.511 135.687 154.555 135.419C154.59 135.204 154.608 134.982 154.608 134.76V133.369C154.608 133.098 154.828 132.88 155.098 132.88C155.368 132.88 155.587 133.099 155.587 133.369V134.76C155.587 135.034 155.565 135.309 155.521 135.577C155.482 135.817 155.274 135.988 155.038 135.988H155.039ZM55.0658 135.211C54.7949 135.211 54.5763 134.992 54.5763 134.722V132.59C54.5763 132.319 54.7958 132.1 55.0658 132.1C55.3359 132.1 55.5554 132.32 55.5554 132.59V134.722C55.5554 134.993 55.3359 135.211 55.0658 135.211ZM155.099 131.727C154.828 131.727 154.609 131.507 154.609 131.237V129.105C154.609 128.834 154.829 128.616 155.099 128.616C155.369 128.616 155.588 128.835 155.588 129.105V131.237C155.588 131.508 155.369 131.727 155.099 131.727ZM55.0658 130.947C54.7949 130.947 54.5763 130.727 54.5763 130.457V128.325C54.5763 128.054 54.7958 127.835 55.0658 127.835C55.3359 127.835 55.5554 128.055 55.5554 128.325V130.457C55.5554 130.728 55.3359 130.947 55.0658 130.947ZM155.099 127.462C154.828 127.462 154.609 127.242 154.609 126.973V124.84C154.609 124.569 154.829 124.351 155.099 124.351C155.369 124.351 155.588 124.57 155.588 124.84V126.973C155.588 127.243 155.369 127.462 155.099 127.462ZM55.0658 126.682C54.7949 126.682 54.5763 126.462 54.5763 126.192V124.06C54.5763 123.789 54.7958 123.571 55.0658 123.571C55.3359 123.571 55.5554 123.79 55.5554 124.06V126.192C55.5554 126.463 55.3359 126.682 55.0658 126.682ZM155.099 123.197C154.828 123.197 154.609 122.978 154.609 122.708V120.575C154.609 120.305 154.829 120.086 155.099 120.086C155.369 120.086 155.588 120.305 155.588 120.575V122.708C155.588 122.979 155.369 123.197 155.099 123.197ZM55.0658 122.417C54.7949 122.417 54.5763 122.198 54.5763 121.928V119.795C54.5763 119.524 54.7958 119.306 55.0658 119.306C55.3359 119.306 55.5554 119.525 55.5554 119.795V121.928C55.5554 122.198 55.3359 122.417 55.0658 122.417ZM155.099 118.932C154.828 118.932 154.609 118.713 154.609 118.443V116.311C154.609 116.04 154.829 115.821 155.099 115.821C155.369 115.821 155.588 116.041 155.588 116.311V118.443C155.588 118.714 155.369 118.932 155.099 118.932ZM55.0658 118.152C54.7949 118.152 54.5763 117.933 54.5763 117.663V115.53C54.5763 115.26 54.7958 115.041 55.0658 115.041C55.3359 115.041 55.5554 115.26 55.5554 115.53V117.663C55.5554 117.934 55.3359 118.152 55.0658 118.152ZM155.099 114.667C154.828 114.667 154.609 114.448 154.609 114.178V112.046C154.609 111.775 154.829 111.556 155.099 111.556C155.369 111.556 155.588 111.776 155.588 112.046V114.178C155.588 114.449 155.369 114.667 155.099 114.667ZM55.0658 113.887C54.7949 113.887 54.5763 113.668 54.5763 113.398V111.266C54.5763 110.995 54.7958 110.776 55.0658 110.776C55.3359 110.776 55.5554 110.996 55.5554 111.266V113.398C55.5554 113.669 55.3359 113.887 55.0658 113.887ZM155.099 110.403C154.828 110.403 154.609 110.183 154.609 109.913V107.781C154.609 107.51 154.829 107.292 155.099 107.292C155.369 107.292 155.588 107.511 155.588 107.781V109.913C155.588 110.184 155.369 110.403 155.099 110.403ZM55.0658 109.623C54.7949 109.623 54.5763 109.403 54.5763 109.133V107.001C54.5763 106.73 54.7958 106.511 55.0658 106.511C55.3359 106.511 55.5554 106.731 55.5554 107.001V109.133C55.5554 109.404 55.3359 109.623 55.0658 109.623ZM155.099 106.138C154.828 106.138 154.609 105.918 154.609 105.649V103.516C154.609 103.245 154.829 103.027 155.099 103.027C155.369 103.027 155.588 103.246 155.588 103.516V105.649C155.588 105.919 155.369 106.138 155.099 106.138ZM55.0658 105.358C54.7949 105.358 54.5763 105.138 54.5763 104.868V102.736C54.5763 102.465 54.7958 102.247 55.0658 102.247C55.3359 102.247 55.5554 102.466 55.5554 102.736V104.868C55.5554 105.139 55.3359 105.358 55.0658 105.358ZM155.099 101.873C154.828 101.873 154.609 101.654 154.609 101.384V99.2513C154.609 98.9805 154.829 98.762 155.099 98.762C155.369 98.762 155.588 98.9814 155.588 99.2513V101.384C155.588 101.655 155.369 101.873 155.099 101.873ZM55.0658 101.093C54.7949 101.093 54.5763 100.873 54.5763 100.604V98.4711C54.5763 98.2003 54.7958 97.9818 55.0658 97.9818C55.3359 97.9818 55.5554 98.2012 55.5554 98.4711V100.604C55.5554 100.874 55.3359 101.093 55.0658 101.093ZM155.099 97.6082C154.828 97.6082 154.609 97.3888 154.609 97.1189V94.9865C154.609 94.7157 154.829 94.4971 155.099 94.4971C155.369 94.4971 155.588 94.7166 155.588 94.9865V97.1189C155.588 97.3897 155.369 97.6082 155.099 97.6082ZM55.0658 96.8281C54.7949 96.8281 54.5763 96.6087 54.5763 96.3387V94.2063C54.5763 93.9355 54.7958 93.717 55.0658 93.717C55.3359 93.717 55.5554 93.9364 55.5554 94.2063V96.3387C55.5554 96.6095 55.3359 96.8281 55.0658 96.8281ZM155.099 93.3434C154.828 93.3434 154.609 93.124 154.609 92.8541V90.7217C154.609 90.4509 154.829 90.2323 155.099 90.2323C155.369 90.2323 155.588 90.4518 155.588 90.7217V92.8541C155.588 93.1249 155.369 93.3434 155.099 93.3434ZM55.0658 92.5633C54.7949 92.5633 54.5763 92.3438 54.5763 92.0739V89.9415C54.5763 89.6707 54.7958 89.4522 55.0658 89.4522C55.3359 89.4522 55.5554 89.6716 55.5554 89.9415V92.0739C55.5554 92.3447 55.3359 92.5633 55.0658 92.5633ZM155.099 89.0786C154.828 89.0786 154.609 88.8592 154.609 88.5893V86.4569C154.609 86.1861 154.829 85.9675 155.099 85.9675C155.369 85.9675 155.588 86.187 155.588 86.4569V88.5893C155.588 88.8601 155.369 89.0786 155.099 89.0786ZM55.0658 88.2985C54.7949 88.2985 54.5763 88.079 54.5763 87.8091V85.6767C54.5763 85.4059 54.7958 85.1874 55.0658 85.1874C55.3359 85.1874 55.5554 85.4068 55.5554 85.6767V87.8091C55.5554 88.0799 55.3359 88.2985 55.0658 88.2985ZM155.099 84.8138C154.828 84.8138 154.609 84.5944 154.609 84.3245V82.1921C154.609 81.9213 154.829 81.7027 155.099 81.7027C155.369 81.7027 155.588 81.9221 155.588 82.1921V84.3245C155.588 84.5953 155.369 84.8138 155.099 84.8138ZM55.0658 84.0336C54.7949 84.0336 54.5763 83.8142 54.5763 83.5443V81.4119C54.5763 81.1411 54.7958 80.9225 55.0658 80.9225C55.3359 80.9225 55.5554 81.142 55.5554 81.4119V83.5443C55.5554 83.8151 55.3359 84.0336 55.0658 84.0336ZM155.099 80.549C154.828 80.549 154.609 80.3296 154.609 80.0597V77.9273C154.609 77.6565 154.829 77.4379 155.099 77.4379C155.369 77.4379 155.588 77.6573 155.588 77.9273V80.0597C155.588 80.3305 155.369 80.549 155.099 80.549ZM55.0658 79.7688C54.7949 79.7688 54.5763 79.5494 54.5763 79.2795V77.1471C54.5763 76.8763 54.7958 76.6577 55.0658 76.6577C55.3359 76.6577 55.5554 76.8772 55.5554 77.1471V79.2795C55.5554 79.5503 55.3359 79.7688 55.0658 79.7688ZM155.099 76.2842C154.828 76.2842 154.609 76.0648 154.609 75.7948V73.6624C154.609 73.3916 154.829 73.1731 155.099 73.1731C155.369 73.1731 155.588 73.3925 155.588 73.6624V75.7948C155.588 76.0656 155.369 76.2842 155.099 76.2842ZM55.0658 75.504C54.7949 75.504 54.5763 75.2846 54.5763 75.0147V72.8823C54.5763 72.6115 54.7958 72.3929 55.0658 72.3929C55.3359 72.3929 55.5554 72.6124 55.5554 72.8823V75.0147C55.5554 75.2855 55.3359 75.504 55.0658 75.504ZM155.099 72.0194C154.828 72.0194 154.609 71.8 154.609 71.53V69.3976C154.609 69.1268 154.829 68.9083 155.099 68.9083C155.369 68.9083 155.588 69.1277 155.588 69.3976V71.53C155.588 71.8008 155.369 72.0194 155.099 72.0194ZM55.0658 71.2392C54.7949 71.2392 54.5763 71.0198 54.5763 70.7499V68.6175C54.5763 68.3467 54.7958 68.1281 55.0658 68.1281C55.3359 68.1281 55.5554 68.3475 55.5554 68.6175V70.7499C55.5554 71.0207 55.3359 71.2392 55.0658 71.2392ZM155.099 67.7546C154.828 67.7546 154.609 67.5352 154.609 67.2652V65.1328C154.609 64.862 154.829 64.6435 155.099 64.6435C155.369 64.6435 155.588 64.8629 155.588 65.1328V67.2652C155.588 67.536 155.369 67.7546 155.099 67.7546ZM55.0658 66.9744C54.7949 66.9744 54.5763 66.755 54.5763 66.4851V64.3527C54.5763 64.0819 54.7958 63.8633 55.0658 63.8633C55.3359 63.8633 55.5554 64.0827 55.5554 64.3527V66.4851C55.5554 66.7559 55.3359 66.9744 55.0658 66.9744ZM155.099 63.4898C154.828 63.4898 154.609 63.2703 154.609 63.0004V60.868C154.609 60.5972 154.829 60.3787 155.099 60.3787C155.369 60.3787 155.588 60.5981 155.588 60.868V63.0004C155.588 63.2712 155.369 63.4898 155.099 63.4898ZM55.0658 62.7096C54.7949 62.7096 54.5763 62.4902 54.5763 62.2203V60.0878C54.5763 59.8171 54.7958 59.5985 55.0658 59.5985C55.3359 59.5985 55.5554 59.8179 55.5554 60.0878V62.2203C55.5554 62.491 55.3359 62.7096 55.0658 62.7096ZM155.099 59.225C154.828 59.225 154.609 59.0055 154.609 58.7356V56.6032C154.609 56.3324 154.829 56.1139 155.099 56.1139C155.369 56.1139 155.588 56.3333 155.588 56.6032V58.7356C155.588 59.0064 155.369 59.225 155.099 59.225ZM55.0658 58.4448C54.7949 58.4448 54.5763 58.2254 54.5763 57.9554V55.823C54.5763 55.5522 54.7958 55.3337 55.0658 55.3337C55.3359 55.3337 55.5554 55.5531 55.5554 55.823V57.9554C55.5554 58.2262 55.3359 58.4448 55.0658 58.4448ZM155.099 54.9601C154.828 54.9601 154.609 54.7407 154.609 54.4708V52.3384C154.609 52.0676 154.829 51.8491 155.099 51.8491C155.369 51.8491 155.588 52.0685 155.588 52.3384V54.4708C155.588 54.7416 155.369 54.9601 155.099 54.9601ZM55.0658 54.18C54.7949 54.18 54.5763 53.9606 54.5763 53.6906V51.5582C54.5763 51.2874 54.7958 51.0689 55.0658 51.0689C55.3359 51.0689 55.5554 51.2883 55.5554 51.5582V53.6906C55.5554 53.9614 55.3359 54.18 55.0658 54.18ZM155.099 50.6953C154.828 50.6953 154.609 50.4759 154.609 50.206V48.0736C154.609 47.8028 154.829 47.5842 155.099 47.5842C155.369 47.5842 155.588 47.8037 155.588 48.0736V50.206C155.588 50.4768 155.369 50.6953 155.099 50.6953ZM55.0658 49.9152C54.7949 49.9152 54.5763 49.6957 54.5763 49.4258V47.2934C54.5763 47.0226 54.7958 46.8041 55.0658 46.8041C55.3359 46.8041 55.5554 47.0235 55.5554 47.2934V49.4258C55.5554 49.6966 55.3359 49.9152 55.0658 49.9152ZM155.099 46.4305C154.828 46.4305 154.609 46.2111 154.609 45.9412V43.8088C154.609 43.538 154.829 43.3194 155.099 43.3194C155.369 43.3194 155.588 43.5389 155.588 43.8088V45.9412C155.588 46.212 155.369 46.4305 155.099 46.4305ZM55.0658 45.6504C54.7949 45.6504 54.5763 45.4309 54.5763 45.161V43.0286C54.5763 42.7578 54.7958 42.5393 55.0658 42.5393C55.3359 42.5393 55.5554 42.7587 55.5554 43.0286V45.161C55.5554 45.4318 55.3359 45.6504 55.0658 45.6504ZM155.099 42.1657C154.828 42.1657 154.609 41.9463 154.609 41.6764V39.544C154.609 39.2732 154.829 39.0546 155.099 39.0546C155.369 39.0546 155.588 39.274 155.588 39.544V41.6764C155.588 41.9472 155.369 42.1657 155.099 42.1657ZM55.0658 41.3856C54.7949 41.3856 54.5763 41.1661 54.5763 40.8962V38.7638C54.5763 38.493 54.7958 38.2745 55.0658 38.2745C55.3359 38.2745 55.5554 38.4939 55.5554 38.7638V40.8962C55.5554 41.167 55.3359 41.3856 55.0658 41.3856ZM155.099 37.9009C154.828 37.9009 154.609 37.6815 154.609 37.4116V35.2792C154.609 35.0084 154.829 34.7898 155.099 34.7898C155.369 34.7898 155.588 35.0092 155.588 35.2792V37.4116C155.588 37.6824 155.369 37.9009 155.099 37.9009ZM55.0658 37.1207C54.7949 37.1207 54.5763 36.9013 54.5763 36.6314V34.499C54.5763 34.2282 54.7958 34.0096 55.0658 34.0096C55.3359 34.0096 55.5554 34.2291 55.5554 34.499V36.6314C55.5554 36.9022 55.3359 37.1207 55.0658 37.1207ZM155.099 33.6361C154.828 33.6361 154.609 33.4167 154.609 33.1468V31.0143C154.609 30.7436 154.829 30.525 155.099 30.525C155.369 30.525 155.588 30.7444 155.588 31.0143V33.1468C155.588 33.4175 155.369 33.6361 155.099 33.6361ZM55.0658 32.8559C54.7949 32.8559 54.5763 32.6365 54.5763 32.3666V30.2342C54.5763 29.9634 54.7958 29.7448 55.0658 29.7448C55.3359 29.7448 55.5554 29.9643 55.5554 30.2342V32.3666C55.5554 32.6374 55.3359 32.8559 55.0658 32.8559ZM155.099 29.3713C154.828 29.3713 154.609 29.1519 154.609 28.8819V26.7495C154.609 26.4787 154.829 26.2602 155.099 26.2602C155.369 26.2602 155.588 26.4796 155.588 26.7495V28.8819C155.588 29.1527 155.369 29.3713 155.099 29.3713ZM55.0658 28.5911C54.7949 28.5911 54.5763 28.3717 54.5763 28.1018V25.9694C54.5763 25.6986 54.7958 25.48 55.0658 25.48C55.3359 25.48 55.5554 25.6994 55.5554 25.9694V28.1018C55.5554 28.3726 55.3359 28.5911 55.0658 28.5911ZM155.099 25.1065C154.828 25.1065 154.609 24.8871 154.609 24.6171V22.4847C154.609 22.2139 154.829 21.9954 155.099 21.9954C155.369 21.9954 155.588 22.2148 155.588 22.4847V24.6171C155.588 24.8879 155.369 25.1065 155.099 25.1065ZM55.0658 24.3263C54.7949 24.3263 54.5763 24.1069 54.5763 23.837V21.7046C54.5763 21.4338 54.7958 21.2152 55.0658 21.2152C55.3359 21.2152 55.5554 21.4346 55.5554 21.7046V23.837C55.5554 24.1078 55.3359 24.3263 55.0658 24.3263ZM155.099 20.8417C154.828 20.8417 154.609 20.6222 154.609 20.3523V18.2199C154.609 17.9491 154.829 17.7306 155.099 17.7306C155.369 17.7306 155.588 17.95 155.588 18.2199V20.3523C155.588 20.6231 155.369 20.8417 155.099 20.8417ZM55.0658 20.0615C54.7949 20.0615 54.5763 19.8421 54.5763 19.5722V17.4397C54.5763 17.169 54.7958 16.9504 55.0658 16.9504C55.3359 16.9504 55.5554 17.1698 55.5554 17.4397V19.5722C55.5554 19.8429 55.3359 20.0615 55.0658 20.0615ZM155.099 16.5769C154.828 16.5769 154.609 16.3574 154.609 16.0875V13.9551C154.609 13.6843 154.829 13.4658 155.099 13.4658C155.369 13.4658 155.588 13.6852 155.588 13.9551V16.0875C155.588 16.3583 155.369 16.5769 155.099 16.5769ZM55.0658 15.7967C54.7949 15.7967 54.5763 15.5773 54.5763 15.3073V13.1749C54.5763 12.9041 54.7958 12.6856 55.0658 12.6856C55.3359 12.6856 55.5554 12.905 55.5554 13.1749V15.3073C55.5554 15.5781 55.3359 15.7967 55.0658 15.7967ZM155.099 12.3121C154.828 12.3121 154.609 12.0926 154.609 11.8227V11.7931C154.609 11.1566 154.466 10.548 154.185 9.98286C154.064 9.7408 154.163 9.4465 154.405 9.32634C154.647 9.20618 154.942 9.3037 155.062 9.54663C155.412 10.2484 155.589 11.0042 155.589 11.794V11.8236C155.589 12.0944 155.369 12.3129 155.099 12.3129L155.099 12.3121ZM55.1277 11.5362C55.1015 11.5362 55.0745 11.5345 55.0475 11.5293C54.7801 11.4849 54.5998 11.2332 54.6442 10.9659C54.7723 10.1901 55.0867 9.44475 55.5536 8.80912C55.7139 8.59144 56.0205 8.54443 56.2383 8.70464C56.456 8.86485 56.5031 9.17135 56.3428 9.38903C55.9665 9.90101 55.7139 10.5009 55.6102 11.1253C55.571 11.3656 55.3629 11.5354 55.1277 11.5354V11.5362ZM153.268 8.63324C153.166 8.63324 153.063 8.60189 152.975 8.53572C152.466 8.15521 151.868 7.89748 151.244 7.78863C150.978 7.74249 150.799 7.48911 150.845 7.22266C150.891 6.95622 151.145 6.77772 151.411 6.82387C152.186 6.95796 152.93 7.27926 153.561 7.75119C153.778 7.91315 153.822 8.22051 153.66 8.43645C153.565 8.56532 153.417 8.63324 153.268 8.63324ZM57.5579 8.22226C57.3794 8.22226 57.2078 8.12473 57.1207 7.95494C56.9978 7.71375 57.0937 7.41858 57.3349 7.29668C58.044 6.9362 58.8096 6.7516 59.611 6.75073H59.6119C59.8819 6.75073 60.1014 6.96928 60.1014 7.23921C60.1014 7.51 59.8828 7.72943 59.6128 7.7303C58.9673 7.73204 58.3506 7.87919 57.7792 8.17001C57.7078 8.20658 57.632 8.22313 57.5571 8.22313L57.5579 8.22226ZM149.199 7.72943H147.066C146.795 7.72943 146.576 7.51 146.576 7.24008C146.576 6.97015 146.796 6.75073 147.066 6.75073H149.199C149.47 6.75073 149.688 6.97015 149.688 7.24008C149.688 7.51 149.469 7.72943 149.199 7.72943ZM144.932 7.72943H142.799C142.528 7.72943 142.31 7.51 142.31 7.24008C142.31 6.97015 142.529 6.75073 142.799 6.75073H144.932C145.203 6.75073 145.422 6.97015 145.422 7.24008C145.422 7.51 145.202 7.72943 144.932 7.72943ZM140.666 7.72943H138.533C138.262 7.72943 138.043 7.51 138.043 7.24008C138.043 6.97015 138.263 6.75073 138.533 6.75073H140.666C140.937 6.75073 141.155 6.97015 141.155 7.24008C141.155 7.51 140.936 7.72943 140.666 7.72943ZM136.399 7.72943H134.266C133.995 7.72943 133.777 7.51 133.777 7.24008C133.777 6.97015 133.996 6.75073 134.266 6.75073H136.399C136.67 6.75073 136.889 6.97015 136.889 7.24008C136.889 7.51 136.67 7.72943 136.399 7.72943ZM132.133 7.72943H130C129.729 7.72943 129.51 7.51 129.51 7.24008C129.51 6.97015 129.73 6.75073 130 6.75073H132.133C132.404 6.75073 132.623 6.97015 132.623 7.24008C132.623 7.51 132.403 7.72943 132.133 7.72943ZM127.867 7.72943H125.733C125.462 7.72943 125.244 7.51 125.244 7.24008C125.244 6.97015 125.463 6.75073 125.733 6.75073H127.867C128.137 6.75073 128.356 6.97015 128.356 7.24008C128.356 7.51 128.137 7.72943 127.867 7.72943ZM123.6 7.72943H121.467C121.196 7.72943 120.977 7.51 120.977 7.24008C120.977 6.97015 121.197 6.75073 121.467 6.75073H123.6C123.871 6.75073 124.09 6.97015 124.09 7.24008C124.09 7.51 123.87 7.72943 123.6 7.72943ZM119.334 7.72943H117.2C116.93 7.72943 116.711 7.51 116.711 7.24008C116.711 6.97015 116.93 6.75073 117.2 6.75073H119.334C119.605 6.75073 119.823 6.97015 119.823 7.24008C119.823 7.51 119.604 7.72943 119.334 7.72943ZM115.067 7.72943H112.934C112.663 7.72943 112.444 7.51 112.444 7.24008C112.444 6.97015 112.664 6.75073 112.934 6.75073H115.067C115.338 6.75073 115.557 6.97015 115.557 7.24008C115.557 7.51 115.337 7.72943 115.067 7.72943ZM110.801 7.72943H108.667C108.397 7.72943 108.178 7.51 108.178 7.24008C108.178 6.97015 108.397 6.75073 108.667 6.75073H110.801C111.072 6.75073 111.29 6.97015 111.29 7.24008C111.29 7.51 111.071 7.72943 110.801 7.72943ZM106.534 7.72943H104.401C104.13 7.72943 103.911 7.51 103.911 7.24008C103.911 6.97015 104.131 6.75073 104.401 6.75073H106.534C106.805 6.75073 107.024 6.97015 107.024 7.24008C107.024 7.51 106.804 7.72943 106.534 7.72943ZM102.268 7.72943H100.135C99.8637 7.72943 99.645 7.51 99.645 7.24008C99.645 6.97015 99.8645 6.75073 100.135 6.75073H102.268C102.539 6.75073 102.757 6.97015 102.757 7.24008C102.757 7.51 102.538 7.72943 102.268 7.72943ZM98.0013 7.72943H95.8681C95.5972 7.72943 95.3786 7.51 95.3786 7.24008C95.3786 6.97015 95.5981 6.75073 95.8681 6.75073H98.0013C98.2722 6.75073 98.4909 6.97015 98.4909 7.24008C98.4909 7.51 98.2714 7.72943 98.0013 7.72943ZM93.7349 7.72943H91.6016C91.3307 7.72943 91.1121 7.51 91.1121 7.24008C91.1121 6.97015 91.3316 6.75073 91.6016 6.75073H93.7349C94.0058 6.75073 94.2244 6.97015 94.2244 7.24008C94.2244 7.51 94.0049 7.72943 93.7349 7.72943ZM89.4684 7.72943H87.3352C87.0643 7.72943 86.8456 7.51 86.8456 7.24008C86.8456 6.97015 87.0652 6.75073 87.3352 6.75073H89.4684C89.7393 6.75073 89.9579 6.97015 89.9579 7.24008C89.9579 7.51 89.7384 7.72943 89.4684 7.72943ZM85.202 7.72943H83.0687C82.7978 7.72943 82.5792 7.51 82.5792 7.24008C82.5792 6.97015 82.7987 6.75073 83.0687 6.75073H85.202C85.4729 6.75073 85.6915 6.97015 85.6915 7.24008C85.6915 7.51 85.472 7.72943 85.202 7.72943ZM80.9355 7.72943H78.8023C78.5314 7.72943 78.3127 7.51 78.3127 7.24008C78.3127 6.97015 78.5322 6.75073 78.8023 6.75073H80.9355C81.2064 6.75073 81.425 6.97015 81.425 7.24008C81.425 7.51 81.2055 7.72943 80.9355 7.72943ZM76.669 7.72943H74.5358C74.2649 7.72943 74.0463 7.51 74.0463 7.24008C74.0463 6.97015 74.2658 6.75073 74.5358 6.75073H76.669C76.9399 6.75073 77.1586 6.97015 77.1586 7.24008C77.1586 7.51 76.9391 7.72943 76.669 7.72943ZM72.4026 7.72943H70.2693C69.9984 7.72943 69.7798 7.51 69.7798 7.24008C69.7798 6.97015 69.9993 6.75073 70.2693 6.75073H72.4026C72.6735 6.75073 72.8921 6.97015 72.8921 7.24008C72.8921 7.51 72.6726 7.72943 72.4026 7.72943ZM68.1361 7.72943H66.0029C65.732 7.72943 65.5133 7.51 65.5133 7.24008C65.5133 6.97015 65.7328 6.75073 66.0029 6.75073H68.1361C68.407 6.75073 68.6256 6.97015 68.6256 7.24008C68.6256 7.51 68.4061 7.72943 68.1361 7.72943ZM63.8696 7.72943H61.7364C61.4655 7.72943 61.2469 7.51 61.2469 7.24008C61.2469 6.97015 61.4664 6.75073 61.7364 6.75073H63.8696C64.1405 6.75073 64.3592 6.97015 64.3592 7.24008C64.3592 7.51 64.1397 7.72943 63.8696 7.72943Z" fill="#00AAF0"/>
<path d="M156.597 165.411C154.356 151.153 159.388 136.107 167.114 124.045C168.085 126.619 169.117 129.343 170.267 131.835C170.695 126.952 171.414 122.014 172.361 117.195C185.591 101.841 207.319 92.1427 226.618 90.0687C222.393 96.7802 218.726 105.484 215.982 114.82C212.569 117.674 209.389 120.714 206.371 123.882C208.945 123.04 211.535 122.259 214.158 121.543C212.277 128.898 211.115 135.494 210.742 142.764C211.196 152.569 210.051 162.312 206.195 171.453C203.164 172.788 200.126 174.127 197.078 175.47L203.577 176.411C195.981 188.797 182.393 197.588 167.758 198.556C163.887 189.147 159.458 179.25 157.312 169.501L163.575 171.554C161.581 169.756 158.645 167.209 156.597 165.412V165.411Z" fill="#90DFFF"/>
<path d="M209.779 103.853C170.025 137.317 193.828 187.942 148.982 212.534C145.527 214.848 150.523 213.53 151.896 212.614C155.835 210.652 159.343 207.883 162.784 204.559C191.027 175.601 175.313 136.113 209.778 103.853H209.779Z" fill="black"/>
<path d="M194.229 107.899C189.858 115.841 187.287 125.507 188.869 134.635C188.029 125.544 190.027 115.901 194.229 107.899Z" fill="black"/>
<path d="M209.854 113.419C206.563 116.367 201.86 116.553 197.915 118.088C201.992 117.317 206.802 116.425 209.854 113.419Z" fill="black"/>
<path d="M175.022 134.913C173.345 143.777 176.864 153.08 181.969 160.833C177.414 152.786 173.504 143.827 175.022 134.913Z" fill="black"/>
<path d="M166.283 159.009C168.406 167.238 168.589 177.146 175.801 182.938C169.116 176.727 168.542 167.098 166.283 159.009Z" fill="black"/>
<path d="M198.903 161.021C193.93 167.453 187.115 172.868 178.737 173.846C187.204 173.624 194.17 167.518 198.903 161.021Z" fill="black"/>
<path d="M202.431 136.713C197.581 141.434 191.154 144.465 185.262 147.729C191.455 145.128 197.698 141.565 202.431 136.713Z" fill="black"/>
<path d="M157.796 160.273C163.762 146.445 178.475 139.515 192.533 137.182C192.512 139.535 192.491 141.881 192.47 144.223C194.793 141.531 197.12 138.833 199.458 136.122C216.525 134.056 237.16 134.086 252.89 134.146C249.134 142.414 244.863 151.113 240.15 158.971C236.448 160.196 232.64 161.283 228.744 162.299C231.427 163.024 234.087 163.742 236.718 164.454C227.487 177.483 219.444 188.872 204.656 194.09C201.354 192.779 197.907 191.532 194.523 190.457C196.482 192.022 198.414 193.6 200.347 195.201C189.019 197.456 174.786 196.554 162.588 197.291C156.012 187.781 152.922 175.776 156.195 164.604L162.082 169.189C160.596 166.263 159.167 163.291 157.795 160.273H157.796Z" fill="#00AAF0"/>
<path d="M237.236 145.141C204.617 160.614 162.325 174.05 155.624 214.173C155.107 218.036 156.682 219.874 157.267 214.886C162.959 175.032 206.739 162.068 237.236 145.141H237.236Z" fill="black"/>
<path d="M222.427 141.614C216.285 146.425 210.604 152.15 207.678 159.547C211.28 152.677 216.435 146.526 222.427 141.614Z" fill="black"/>
<path d="M235.05 154.692C231.35 155.861 226.947 153.5 222.746 152.564C226.902 154.283 231.619 156.037 235.05 154.692Z" fill="black"/>
<path d="M195.14 149.643C188.014 154.191 185.742 163.203 186.568 171.216C186.434 163.312 188.164 154.354 195.14 149.643Z" fill="black"/>
<path d="M171.947 160.025C168.699 167.754 164.763 177.12 171.007 184.541C165.361 176.57 169.006 167.962 171.947 160.025Z" fill="black"/>
<path d="M202.628 182.949C194.309 183.203 185.001 181.919 177.038 178.547C184.749 182.463 194.473 183.416 202.628 182.949Z" fill="black"/>
<path d="M219.69 170.167C211.976 170.686 204.408 167.34 197.097 165.149C204.209 167.916 212.019 170.896 219.69 170.167Z" fill="black"/>
<path d="M176.454 177.535C187.014 172.807 199.02 174.673 209.68 177.994C208.677 179.32 207.639 180.633 206.603 181.942C209.41 181.225 212.198 180.476 214.944 179.633C227.724 184.059 242.655 189.624 255.101 181.972C253.553 190.478 246.491 198.489 238.979 203.216C234.621 203.861 230.452 203.871 226.475 203.567C228.562 204.673 230.757 205.671 233.068 206.555C219.211 212.752 204.556 216.471 189.628 213.789C187.805 211.84 185.918 209.867 184.045 207.974L185.503 212.755C175.664 209.852 167.007 204.134 158.361 198.712C160.566 190.606 165.927 183.269 173.258 179.146L174.409 183.915C175.061 181.786 175.743 179.659 176.453 177.535H176.454Z" fill="#D8F4FF"/>
<path d="M240.695 193.406C227.798 197.134 214.632 195.294 202.025 194.707C183.325 193.589 159.977 193.361 143.471 204.84C140.577 206.791 140.396 208.404 143.879 205.945C173.934 185.414 209.292 202.488 240.695 193.406Z" fill="black"/>
<path d="M229.409 189.236C223.134 190.996 216.336 192.423 210.661 195.703C216.606 192.945 223.226 191.087 229.409 189.236Z" fill="black"/>
<path d="M235.575 199.832C231.791 200.186 228.711 197.816 225.584 196.112C228.316 198.273 231.893 200.329 235.575 199.832Z" fill="black"/>
<path d="M206.047 185.899C199.213 186.016 193.37 189.718 189.359 194.618C193.768 190.077 199.224 186.14 206.047 185.899Z" fill="black"/>
<path d="M185.38 183.028C179.914 185.782 172 188.626 171.386 195.534C172.535 188.832 180.031 185.898 185.38 183.028Z" fill="black"/>
<path d="M194.682 206.971C188.585 204.237 182.658 200.379 178.801 194.802C182.246 200.69 188.591 204.368 194.682 206.971Z" fill="black"/>
<path d="M214.99 205.663C209.118 203.814 204.481 199.313 200.046 195.206C204.077 199.655 209.235 204.004 214.99 205.663Z" fill="black"/>
<path d="M225.306 32.6078C224.509 29.6499 221.809 27.5837 218.74 27.5837C216.199 27.5837 213.888 28.9838 212.71 31.2364L211.619 30.6669C213.01 28.0069 215.738 26.3542 218.74 26.3542C222.364 26.3542 225.553 28.794 226.494 32.2882L225.306 32.6078Z" fill="#00AAF0"/>
<path d="M214.849 30.9682L211.325 34.3805L210.13 29.6238L214.849 30.9682Z" fill="#00AAF0"/>
<path d="M218.74 42.4078C215.131 42.4078 211.946 39.9802 210.995 36.5043L212.181 36.1795C212.987 39.1225 215.685 41.1774 218.74 41.1774C221.281 41.1774 223.592 39.7773 224.771 37.5247L225.861 38.0942C224.47 40.7543 221.741 42.4069 218.74 42.4069V42.4078Z" fill="#00AAF0"/>
<path d="M222.63 37.7929L226.155 34.3806L227.35 39.1373L222.63 37.7929Z" fill="#00AAF0"/>
<path d="M61.6826 12.9477V29.5254L57.4475 33.7588H47.7518C47.1838 33.7588 46.723 33.2982 46.723 32.7305V12.9485C46.723 12.3808 47.1838 11.9202 47.7518 11.9202H60.6539C61.2219 11.9202 61.6826 12.3808 61.6826 12.9485V12.9477Z" fill="#D8F4FF"/>
<path d="M57.4485 34.1594H47.7527C46.9644 34.1594 46.3224 33.5177 46.3224 32.7297V12.9477C46.3224 12.1597 46.9644 11.5179 47.7527 11.5179H60.6548C61.4432 11.5179 62.0851 12.1597 62.0851 12.9477V29.5254C62.0851 29.6316 62.0424 29.7335 61.9675 29.8093L57.7324 34.0427C57.6575 34.1176 57.5547 34.1603 57.4485 34.1603V34.1594ZM47.7527 12.3199C47.4069 12.3199 47.1246 12.6011 47.1246 12.9477V32.7297C47.1246 33.0753 47.406 33.3575 47.7527 33.3575H57.283L61.2829 29.3591V12.9477C61.2829 12.602 61.0015 12.3199 60.6548 12.3199H47.7527Z" fill="#00AAF0"/>
<path d="M61.6827 29.5254L57.4476 33.7589V30.5546C57.4476 29.9869 57.9084 29.5263 58.4764 29.5263H61.6819L61.6827 29.5254Z" fill="white"/>
<path d="M57.4476 34.1594C57.3962 34.1594 57.3439 34.1498 57.2943 34.1289C57.1444 34.0671 57.0469 33.9208 57.0469 33.758V30.5538C57.0469 29.7657 57.6889 29.124 58.4772 29.124H61.6827C61.8447 29.124 61.991 29.2215 62.0537 29.3713C62.1165 29.5211 62.0816 29.6935 61.9666 29.8084L57.7315 34.0419C57.6549 34.1185 57.5521 34.1594 57.4476 34.1594ZM58.4763 29.926C58.1305 29.926 57.8482 30.2072 57.8482 30.5538V32.7898L60.7132 29.926H58.4763Z" fill="#00AAF0"/>
<path d="M58.9919 16.7475H49.4128C49.1915 16.7475 49.0112 16.5681 49.0112 16.3461C49.0112 16.1241 49.1907 15.9447 49.4128 15.9447H58.9919C59.2131 15.9447 59.3934 16.1241 59.3934 16.3461C59.3934 16.5681 59.214 16.7475 58.9919 16.7475Z" fill="#00AAF0"/>
<path d="M58.9919 19.8159H49.4128C49.1915 19.8159 49.0112 19.6366 49.0112 19.4145C49.0112 19.1925 49.1907 19.0131 49.4128 19.0131H58.9919C59.2131 19.0131 59.3934 19.1925 59.3934 19.4145C59.3934 19.6366 59.214 19.8159 58.9919 19.8159Z" fill="#00AAF0"/>
<path d="M58.9919 22.8844H49.4128C49.1915 22.8844 49.0112 22.705 49.0112 22.4829C49.0112 22.2609 49.1907 22.0815 49.4128 22.0815H58.9919C59.2131 22.0815 59.3934 22.2609 59.3934 22.4829C59.3934 22.705 59.214 22.8844 58.9919 22.8844Z" fill="#00AAF0"/>
<path d="M58.9919 25.952H49.4128C49.1915 25.952 49.0112 25.7726 49.0112 25.5505C49.0112 25.3285 49.1907 25.1491 49.4128 25.1491H58.9919C59.2131 25.1491 59.3934 25.3285 59.3934 25.5505C59.3934 25.7726 59.214 25.952 58.9919 25.952Z" fill="#00AAF0"/>
<path d="M52.62 29.0204H49.4136C49.1924 29.0204 49.0121 28.841 49.0121 28.619C49.0121 28.397 49.1915 28.2176 49.4136 28.2176H52.62C52.8413 28.2176 53.0216 28.397 53.0216 28.619C53.0216 28.841 52.8421 29.0204 52.62 29.0204Z" fill="#00AAF0"/>
<path d="M236.945 59.7483C236.579 59.7483 236.224 59.7944 235.885 59.8823C235.813 57.6132 233.95 55.796 231.662 55.796C231.534 55.796 231.407 55.8021 231.282 55.8134C230.276 53.2082 227.747 51.3597 224.785 51.3597C221.14 51.3597 218.15 54.1608 217.849 57.7264C217.84 57.7264 217.833 57.7264 217.824 57.7264C216.569 57.7264 215.525 58.6346 215.317 59.8301C213.379 60.2141 211.918 61.9233 211.918 63.973C211.918 66.3057 213.81 68.1969 216.144 68.1969H236.945C239.278 68.1969 241.17 66.3057 241.17 63.973C241.17 61.6403 239.278 59.7491 236.945 59.7491V59.7483Z" fill="white"/>
<path d="M236.944 68.6262H216.143C213.576 68.6262 211.488 66.5382 211.488 63.9721C211.488 61.8528 212.93 60.0034 214.956 59.4714C215.278 58.3107 216.268 57.4617 217.46 57.3172C217.69 55.621 218.501 54.0607 219.77 52.8887C221.138 51.6244 222.918 50.9287 224.783 50.9287C226.305 50.9287 227.768 51.3876 229.011 52.2557C230.139 53.0437 231.016 54.1147 231.561 55.3659C231.594 55.3659 231.627 55.365 231.66 55.365C234.018 55.365 235.956 57.0856 236.271 59.366C236.493 59.3338 236.717 59.3181 236.943 59.3181C239.51 59.3181 241.598 61.4061 241.598 63.9721C241.598 66.5382 239.51 68.6262 236.943 68.6262H236.944ZM217.824 58.1557C216.793 58.1557 215.917 58.8906 215.74 59.9041C215.71 60.0791 215.575 60.2167 215.4 60.2515C213.631 60.6024 212.348 62.168 212.348 63.973C212.348 66.0654 214.051 67.7676 216.144 67.7676H236.945C239.038 67.7676 240.741 66.0654 240.741 63.973C240.741 61.8807 239.038 60.1784 236.945 60.1784C236.623 60.1784 236.302 60.2184 235.994 60.2985C235.868 60.3308 235.734 60.3046 235.629 60.2263C235.524 60.1479 235.462 60.0269 235.457 59.8963C235.391 57.8379 233.725 56.2253 231.664 56.2253C231.552 56.2253 231.437 56.2305 231.322 56.241C231.13 56.2575 230.951 56.1469 230.883 55.9676C229.917 53.4677 227.468 51.789 224.787 51.789C221.42 51.789 218.561 54.4124 218.279 57.7621C218.26 57.985 218.075 58.1557 217.851 58.1557H217.825H217.824Z" fill="#00AAF0"/>
<path d="M82.358 0.511986C82.358 -0.170662 75.0385 -0.170662 75.0385 0.511986V2.50595H82.358V0.511986Z" fill="#00AAF0"/>
<path d="M82.3579 12.0935H75.0383V14.0875C75.0383 14.7588 82.3579 14.7588 82.3579 14.0875V12.0935Z" fill="#00AAF0"/>
<path d="M82.3578 12.1074C82.3578 12.265 80.7194 12.393 78.6985 12.393C76.6777 12.393 75.0392 12.265 75.0392 12.1074C75.0392 11.9498 76.6777 11.8218 78.6985 11.8218C80.7194 11.8218 82.3578 11.9498 82.3578 12.1074Z" fill="#90DFFF"/>
<path d="M82.3578 2.50597C82.3578 2.66357 80.7194 2.79156 78.6985 2.79156C76.6777 2.79156 75.0392 2.66357 75.0392 2.50597C75.0392 2.34836 76.6777 2.22037 78.6985 2.22037C80.7194 2.22037 82.3578 2.34836 82.3578 2.50597Z" fill="#90DFFF"/>
<path opacity="0.33" d="M81.9398 2.50592C81.9398 2.23077 75.4547 2.23077 75.4547 2.50592C75.4547 3.253 75.7256 3.9757 76.2178 4.53906L77.9721 6.5487C78.3484 6.97884 78.3484 7.62056 77.9721 8.05157L76.2178 10.0612C75.7256 10.6246 75.4547 11.3464 75.4547 12.0943C75.4547 12.3599 81.9398 12.3599 81.9398 12.0943C81.9398 11.3473 81.6689 10.6246 81.1767 10.0612L79.4224 8.05157C79.047 7.62143 79.047 6.97971 79.4224 6.5487L81.1767 4.53906C81.6689 3.9757 81.9398 3.25388 81.9398 2.50592Z" fill="#88D0EF"/>
<path d="M78.0451 9.95936L76.1663 12.0926C76.1663 12.2468 81.2289 12.2468 81.2289 12.0926L79.35 9.95936C79.0042 9.56579 78.3909 9.56579 78.0443 9.95936H78.0451Z" fill="#D8F4FF"/>
<path d="M81.2289 4.04276H76.1663L78.1671 6.31535C78.3761 6.55306 78.5051 6.85171 78.5338 7.16692L78.6566 8.52002C78.6584 8.54092 78.6767 8.55746 78.6976 8.55746C78.7185 8.55746 78.7368 8.54092 78.7385 8.52002L78.8613 7.16692C78.8901 6.85171 79.0181 6.55306 79.228 6.31535L81.2289 4.04276Z" fill="#D8F4FF"/>
<path d="M81.2289 4.04276C81.2289 4.07498 80.0956 4.10197 78.6976 4.10197C77.2995 4.10197 76.1663 4.07585 76.1663 4.04276C76.1663 4.00967 77.2995 3.98355 78.6976 3.98355C80.0956 3.98355 81.2289 4.00967 81.2289 4.04276Z" fill="#D8F4FF"/>
<path d="M89.647 78.5031H83.9854L86.8165 75.1446L89.647 78.5031Z" fill="#00AAF0"/>
<path d="M89.647 83.8074H83.9854L86.8165 80.4495L89.647 83.8074Z" fill="#00AAF0"/>
<path d="M89.647 89.1124H83.9854L86.8165 85.7539L89.647 89.1124Z" fill="#00AAF0"/>
<path d="M62.2036 167.869V163.643L66.0145 163.111C66.1495 162.388 66.3394 161.683 66.5781 161.002L63.5451 158.638L65.6591 154.979L69.227 156.423C69.7017 155.871 70.2174 155.356 70.7697 154.881L69.3237 151.315L72.9848 149.201L75.3497 152.233C76.0309 151.994 76.7356 151.805 77.4594 151.67L77.9916 147.86H82.2189L82.7511 151.67C83.475 151.805 84.1796 151.995 84.8608 152.233L87.2258 149.201L90.8868 151.315L89.4417 154.881C89.994 155.356 90.5097 155.871 90.9844 156.423L94.5522 154.979L96.6663 158.638L93.6333 161.002C93.8728 161.683 94.0618 162.388 94.1969 163.111L98.0078 163.643V167.869L94.1969 168.401C94.0618 169.124 93.872 169.829 93.6333 170.51L96.6663 172.874L94.5522 176.533L90.9844 175.089C90.5097 175.641 89.994 176.156 89.4417 176.631L90.8868 180.197L87.2258 182.311L84.8608 179.279C84.1796 179.518 83.475 179.707 82.7511 179.842L82.2189 183.652H77.9916L77.4594 179.842C76.7356 179.707 76.0309 179.517 75.3497 179.279L72.9848 182.311L69.3237 180.197L70.7688 176.631C70.2165 176.156 69.7009 175.641 69.2261 175.089L65.6583 176.533L63.5442 172.874L66.5772 170.51C66.3377 169.829 66.1487 169.124 66.0137 168.401L62.2028 167.869H62.2036Z" fill="#90DFFF"/>
<path d="M89.0611 174.708C94.0076 169.764 94.0075 161.747 89.0611 156.802C84.1147 151.858 76.095 151.858 71.1485 156.802C66.2021 161.747 66.2021 169.763 71.1485 174.708C76.095 179.653 84.1147 179.653 89.0611 174.708Z" fill="#00AAF0"/>
<path d="M80.1047 176.583C86.0869 176.583 90.9364 171.735 90.9364 165.756C90.9364 159.776 86.0869 154.928 80.1047 154.928C74.1226 154.928 69.2731 159.776 69.2731 165.756C69.2731 171.735 74.1226 176.583 80.1047 176.583Z" fill="#90DFFF"/>
<path d="M85.3077 170.956C88.1811 168.084 88.1811 163.427 85.3077 160.554C82.4343 157.682 77.7756 157.682 74.9021 160.554C72.0287 163.427 72.0287 168.084 74.9021 170.956C77.7756 173.828 82.4343 173.828 85.3077 170.956Z" fill="#90DFFF"/>
<path d="M84.7932 170.442C87.3826 167.853 87.3826 163.657 84.7932 161.069C82.2039 158.48 78.0056 158.48 75.4163 161.069C72.8269 163.657 72.8269 167.853 75.4163 170.442C78.0056 173.03 82.2039 173.03 84.7932 170.442Z" fill="white"/>
<path d="M17.6575 130.732V123.806L23.9039 122.934C24.1251 121.748 24.4361 120.594 24.8281 119.478L19.856 115.603L23.3211 109.604L29.1694 111.973C29.9473 111.068 30.7922 110.222 31.6981 109.445L29.3288 103.599L35.3296 100.135L39.2067 105.105C40.3234 104.712 41.4775 104.403 42.6639 104.181L43.5358 97.9374H50.4651L51.3371 104.181C52.5235 104.403 53.6785 104.713 54.7943 105.105L58.6714 100.135L64.6722 103.599L62.3029 109.445C63.2079 110.222 64.0537 111.067 64.8316 111.973L70.6799 109.604L74.145 115.603L69.1729 119.478C69.5658 120.595 69.8759 121.748 70.0971 122.934L76.3435 123.806V130.732L70.0971 131.604C69.8759 132.79 69.5649 133.944 69.1729 135.06L74.145 138.935L70.6799 144.934L64.8316 142.566C64.0537 143.47 63.2088 144.316 62.3029 145.093L64.6722 150.939L58.6714 154.403L54.7943 149.433C53.6776 149.826 52.5235 150.136 51.3371 150.357L50.4651 156.601H43.5358L42.6639 150.357C41.4775 150.136 40.3225 149.825 39.2067 149.433L35.3296 154.403L29.3288 150.939L31.6981 145.093C30.7931 144.316 29.9473 143.471 29.1694 142.566L23.3211 144.934L19.856 138.935L24.8281 135.06C24.4352 133.944 24.1251 132.79 23.9039 131.604L17.6575 130.732Z" fill="#90DFFF"/>
<path d="M61.6805 141.944C69.7885 133.839 69.7885 120.699 61.6805 112.594C53.5726 104.489 40.4269 104.489 32.319 112.594C24.211 120.699 24.211 133.839 32.319 141.944C40.4269 150.049 53.5725 150.049 61.6805 141.944Z" fill="#00AAF0"/>
<path d="M47 145.017C56.8057 145.017 64.7548 137.071 64.7548 127.269C64.7548 117.467 56.8057 109.521 47 109.521C37.1942 109.521 29.2451 117.467 29.2451 127.269C29.2451 137.071 37.1942 145.017 47 145.017Z" fill="#90DFFF"/>
<path d="M55.5273 135.793C60.2369 131.085 60.2369 123.453 55.5273 118.745C50.8176 114.037 43.1817 114.037 38.4721 118.745C33.7624 123.453 33.7624 131.085 38.4721 135.793C43.1817 140.501 50.8176 140.501 55.5273 135.793Z" fill="#90DFFF"/>
<path d="M47 138.133C53.0023 138.133 57.8682 133.269 57.8682 127.269C57.8682 121.269 53.0023 116.405 47 116.405C40.9976 116.405 36.1317 121.269 36.1317 127.269C36.1317 133.269 40.9976 138.133 47 138.133Z" fill="white"/>
<path d="M51.2766 191.952V189.409L53.5701 189.09C53.6511 188.655 53.7653 188.23 53.9098 187.821L52.085 186.398L53.3567 184.196L55.5039 185.066C55.7896 184.734 56.0997 184.424 56.4324 184.138L55.5622 181.992L57.7652 180.72L59.1885 182.545C59.5987 182.401 60.0221 182.287 60.4576 182.205L60.7773 179.912H63.3208L63.6405 182.205C64.076 182.286 64.5002 182.4 64.9096 182.545L66.3329 180.72L68.5358 181.992L67.6657 184.138C67.9984 184.424 68.3085 184.734 68.5942 185.066L70.7414 184.196L72.0131 186.398L70.1882 187.821C70.332 188.231 70.4461 188.655 70.528 189.09L72.8215 189.409V191.952L70.528 192.271C70.447 192.707 70.3328 193.131 70.1882 193.54L72.0131 194.963L70.7414 197.165L68.5942 196.295C68.3085 196.628 67.9984 196.938 67.6657 197.223L68.5358 199.37L66.3329 200.641L64.9096 198.817C64.4993 198.96 64.076 199.074 63.6405 199.156L63.3208 201.449H60.7764L60.4567 199.156C60.0212 199.075 59.597 198.961 59.1876 198.817L57.7643 200.641L55.5614 199.37L56.4316 197.223C56.0988 196.938 55.7887 196.628 55.503 196.295L53.3559 197.165L52.0841 194.963L53.909 193.54C53.7652 193.13 53.6511 192.707 53.5693 192.271L51.2758 191.952H51.2766Z" fill="#90DFFF"/>
<path d="M67.4389 196.068C70.4154 193.092 70.4154 188.268 67.4389 185.293C64.4624 182.318 59.6365 182.318 56.66 185.293C53.6836 188.268 53.6836 193.092 56.66 196.068C59.6365 199.043 64.4624 199.043 67.4389 196.068Z" fill="#00AAF0"/>
<path d="M66.6583 195.288C69.2038 192.743 69.2038 188.618 66.6583 186.073C64.1128 183.529 59.9857 183.529 57.4402 186.073C54.8947 188.618 54.8947 192.743 57.4402 195.288C59.9857 197.832 64.1128 197.832 66.6583 195.288Z" fill="#90DFFF"/>
<path d="M66.1396 192.374C67.0753 190.116 66.0025 187.526 63.7433 186.591C61.4842 185.656 58.8942 186.728 57.9584 188.986C57.0226 191.245 58.0954 193.834 60.3546 194.769C62.6138 195.704 65.2038 194.632 66.1396 192.374Z" fill="#90DFFF"/>
<path d="M62.9579 194.57C65.1028 194.064 66.4312 191.915 65.925 189.771C65.4187 187.627 63.2696 186.299 61.1247 186.806C58.9798 187.312 57.6515 189.46 58.1577 191.604C58.6639 193.748 60.8131 195.076 62.9579 194.57Z" fill="white"/>
<path d="M188.511 20.5683H107.855C101.034 20.5683 95.5048 26.0954 95.5048 32.9134V213.085C95.5048 219.903 101.034 225.43 107.855 225.43H188.511C195.331 225.43 200.861 219.903 200.861 213.085V32.9134C200.861 26.0954 195.331 20.5683 188.511 20.5683Z" fill="white"/>
<path d="M188.512 26.0042C192.322 26.0042 195.423 29.104 195.423 32.9134V213.086C195.423 216.895 192.322 219.995 188.512 219.995H107.855C104.044 219.995 100.943 216.895 100.943 213.086V32.9134C100.943 29.104 104.044 26.0042 107.855 26.0042H188.512ZM188.512 20.5691H107.855C101.034 20.5691 95.5048 26.0965 95.5048 32.9143V213.086C95.5048 219.904 101.034 225.432 107.855 225.432H188.512C195.332 225.432 200.861 219.904 200.861 213.086V32.9134C200.861 26.0956 195.332 20.5683 188.512 20.5683V20.5691Z" fill="#263238"/>
<path d="M96.882 60.8488C96.882 60.0886 96.2654 59.4722 95.5048 59.4722C94.7443 59.4722 94.1277 60.0886 94.1277 60.8488V80.2495C94.1277 81.0097 94.7443 81.6261 95.5048 81.6261C96.2654 81.6261 96.882 81.0097 96.882 80.2495V60.8488Z" fill="white"/>
<path d="M95.5048 59.4722C94.7444 59.4722 94.1277 60.0887 94.1277 60.8488V80.2495C94.1277 81.0096 94.7444 81.6261 95.5048 81.6261C96.2653 81.6261 96.882 81.0096 96.882 80.2495V60.8488C96.882 60.0887 96.2653 59.4722 95.5048 59.4722Z" fill="#263238"/>
<path d="M96.882 87.1918C96.882 86.4315 96.2654 85.8151 95.5048 85.8151C94.7443 85.8151 94.1277 86.4315 94.1277 87.1918V106.592C94.1277 107.353 94.7443 107.969 95.5048 107.969C96.2654 107.969 96.882 107.353 96.882 106.592V87.1918Z" fill="white"/>
<path d="M95.5048 85.8151C94.7444 85.8151 94.1277 86.4316 94.1277 87.1918V106.592C94.1277 107.353 94.7444 107.969 95.5048 107.969C96.2653 107.969 96.882 107.353 96.882 106.592V87.1918C96.882 86.4316 96.2653 85.8151 95.5048 85.8151Z" fill="#263238"/>
<path d="M200.861 125.64C200.101 125.64 199.484 125.024 199.484 124.264V87.1918C199.484 86.4316 200.101 85.8151 200.861 85.8151C201.622 85.8151 202.239 86.4316 202.239 87.1918V124.264C202.239 125.024 201.622 125.64 200.861 125.64Z" fill="white"/>
<path d="M200.861 85.8151C200.101 85.8151 199.484 86.4316 199.484 87.1918V124.264C199.484 125.024 200.101 125.64 200.861 125.64C201.622 125.64 202.239 125.024 202.239 124.264V87.1918C202.239 86.4316 201.622 85.8151 200.861 85.8151Z" fill="#263238"/>
<path d="M171.46 164.327H124.907C124.466 164.327 124.108 163.97 124.108 163.528C124.108 163.087 124.465 162.73 124.907 162.73H171.46C171.9 162.73 172.258 163.087 172.258 163.528C172.258 163.97 171.901 164.327 171.46 164.327Z" fill="#29ABE2"/>
<path d="M158.659 164.327H124.907C124.466 164.327 124.108 163.97 124.108 163.528C124.108 163.087 124.465 162.73 124.907 162.73H158.659C159.1 162.73 159.458 163.087 159.458 163.528C159.458 163.97 159.101 164.327 158.659 164.327Z" fill="#00AAF0"/>
<path d="M170.233 104.33C170.123 103.523 169.912 102.747 169.615 102.017C169.276 101.183 168.824 100.407 168.278 99.7075C167.785 99.0763 167.216 98.5068 166.584 98.0157C165.885 97.4698 165.109 97.0188 164.274 96.6792C163.543 96.3823 162.767 96.1715 161.96 96.0609C161.523 96.0009 161.078 95.9695 160.625 95.9695C160.172 95.9695 159.727 96 159.291 96.0609C158.483 96.1715 157.708 96.3823 156.977 96.6792C156.142 97.0179 155.366 97.4698 154.666 98.0157C154.034 98.5077 153.465 99.0763 152.973 99.7084C152.427 100.408 151.976 101.183 151.636 102.018C151.339 102.749 151.128 103.524 151.018 104.331C150.958 104.767 150.926 105.212 150.926 105.665C150.926 106.118 150.957 106.563 151.018 106.999C151.128 107.806 151.339 108.582 151.636 109.313C151.975 110.147 152.427 110.922 152.973 111.622C153.465 112.254 154.034 112.822 154.666 113.314C155.365 113.86 156.142 114.311 156.976 114.651C157.707 114.948 158.483 115.159 159.29 115.269C159.726 115.329 160.172 115.361 160.625 115.361C161.078 115.361 161.523 115.33 161.959 115.269C162.766 115.159 163.543 114.948 164.273 114.651C165.108 114.312 165.884 113.86 166.583 113.314C167.215 112.822 167.785 112.253 168.277 111.622C168.823 110.922 169.274 110.146 169.614 109.313C169.911 108.581 170.122 107.806 170.232 106.999C170.292 106.563 170.324 106.118 170.324 105.665C170.324 105.212 170.293 104.767 170.232 104.331L170.233 104.33ZM160.625 114.03C156.011 114.03 152.256 110.277 152.256 105.664C152.256 101.051 156.011 97.2983 160.625 97.2983C165.24 97.2983 168.995 101.051 168.995 105.664C168.995 110.277 165.24 114.03 160.625 114.03ZM160.625 97.7014C156.233 97.7014 152.66 101.273 152.66 105.664C152.66 110.055 156.233 113.628 160.625 113.628C165.018 113.628 168.592 110.055 168.592 105.664C168.592 101.273 165.018 97.7014 160.625 97.7014ZM165.489 110.526C164.191 111.825 162.463 112.54 160.625 112.54C158.787 112.54 157.061 111.825 155.761 110.526C154.463 109.228 153.747 107.501 153.747 105.664C153.747 103.827 154.463 102.101 155.761 100.802C157.061 99.5038 158.787 98.7881 160.625 98.7881C162.463 98.7881 164.19 99.5038 165.489 100.802C166.788 102.101 167.504 103.827 167.504 105.664C167.504 107.501 166.788 109.227 165.489 110.526Z" fill="#00AAF0"/>
<path d="M162.058 97.1233H159.191L159.538 93.3939H161.711L162.058 97.1233Z" fill="#00AAF0"/>
<path d="M157.594 97.5508L155.111 98.984L153.547 95.5803L155.428 94.4954L157.594 97.5508Z" fill="#00AAF0"/>
<path d="M153.942 100.153L152.508 102.634L149.452 100.469L150.538 98.5887L153.942 100.153Z" fill="#00AAF0"/>
<path d="M152.08 104.231V107.097L148.35 106.75V104.578L152.08 104.231Z" fill="#00AAF0"/>
<path d="M152.508 108.693L153.942 111.176L150.538 112.739L149.452 110.859L152.508 108.693Z" fill="#00AAF0"/>
<path d="M155.111 112.344L157.594 113.778L155.428 116.833L153.547 115.747L155.111 112.344Z" fill="#00AAF0"/>
<path d="M159.191 114.205H162.058L161.711 117.934H159.538L159.191 114.205Z" fill="#00AAF0"/>
<path d="M163.655 113.778L166.138 112.344L167.703 115.747L165.821 116.833L163.655 113.778Z" fill="#00AAF0"/>
<path d="M167.307 111.176L168.741 108.693L171.798 110.859L170.712 112.739L167.307 111.176Z" fill="#00AAF0"/>
<path d="M169.169 107.097V104.231L172.9 104.578V106.75L169.169 107.097Z" fill="#00AAF0"/>
<path d="M168.741 102.634L167.307 100.153L170.712 98.5887L171.798 100.469L168.741 102.634Z" fill="#00AAF0"/>
<path d="M166.138 98.984L163.655 97.5508L165.821 94.4954L167.703 95.5803L166.138 98.984Z" fill="#00AAF0"/>
<path d="M151.433 119.05C152.499 119.05 153.501 119.464 154.255 120.217C155.008 120.971 155.423 121.972 155.423 123.038C155.423 124.104 155.008 125.105 154.255 125.858C153.501 126.611 152.499 127.026 151.433 127.026C150.367 127.026 149.365 126.611 148.612 125.858C147.858 125.105 147.444 124.104 147.444 123.038C147.444 121.972 147.858 120.971 148.612 120.217C149.365 119.464 150.367 119.05 151.433 119.05ZM151.433 117.415C148.326 117.415 145.808 119.932 145.808 123.038C145.808 126.144 148.327 128.661 151.433 128.661C154.54 128.661 157.059 126.143 157.059 123.038C157.059 119.933 154.54 117.415 151.433 117.415Z" fill="#00AAF0"/>
<path d="M152.514 118.749H150.351L150.614 115.935H152.252L152.514 118.749Z" fill="#00AAF0"/>
<path d="M149.164 119.241L147.635 120.77L145.83 118.594L146.989 117.436L149.164 119.241Z" fill="#00AAF0"/>
<path d="M147.142 121.956V124.118L144.329 123.856V122.218L147.142 121.956Z" fill="#00AAF0"/>
<path d="M147.635 125.305L149.164 126.834L146.989 128.638L145.83 127.48L147.635 125.305Z" fill="#00AAF0"/>
<path d="M150.351 127.326H152.514L152.252 130.139H150.614L150.351 127.326Z" fill="#00AAF0"/>
<path d="M153.701 126.834L155.231 125.305L157.036 127.48L155.877 128.638L153.701 126.834Z" fill="#00AAF0"/>
<path d="M155.723 124.118V121.956L158.538 122.218V123.856L155.723 124.118Z" fill="#00AAF0"/>
<path d="M155.231 120.77L153.701 119.241L155.877 117.436L157.036 118.594L155.231 120.77Z" fill="#00AAF0"/>
<path d="M138.651 78.5446C141.418 78.5446 144.019 79.6217 145.976 81.5773C147.932 83.533 149.01 86.1329 149.01 88.8992C149.01 91.6655 147.932 94.2655 145.976 96.2212C144.019 98.1768 141.418 99.2539 138.651 99.2539C135.884 99.2539 133.283 98.1768 131.326 96.2212C129.37 94.2655 128.292 91.6655 128.292 88.8992C128.292 86.1329 129.37 83.533 131.326 81.5773C133.283 79.6217 135.884 78.5446 138.651 78.5446ZM138.651 76.481C131.791 76.481 126.228 82.0405 126.228 88.8992C126.228 95.7579 131.79 101.318 138.651 101.318C145.512 101.318 151.074 95.7579 151.074 88.8992C151.074 82.0405 145.512 76.481 138.651 76.481Z" fill="#00AAF0"/>
<path d="M140.447 77.3125H136.854L137.29 73.7208H140.012L140.447 77.3125Z" fill="#00AAF0"/>
<path d="M134.412 77.9664L131.3 79.7627L129.881 76.434L132.238 75.0739L134.412 77.9664Z" fill="#00AAF0"/>
<path d="M129.512 81.5503L127.715 84.6606L124.821 82.4881L126.182 80.131L129.512 81.5503Z" fill="#00AAF0"/>
<path d="M127.061 87.1021V90.6947L123.467 90.2593V87.5374L127.061 87.1021Z" fill="#00AAF0"/>
<path d="M127.715 93.1362L129.512 96.2464L126.182 97.6657L124.821 95.3087L127.715 93.1362Z" fill="#00AAF0"/>
<path d="M131.3 98.034L134.412 99.8303L132.238 102.724L129.881 101.363L131.3 98.034Z" fill="#00AAF0"/>
<path d="M136.854 100.484H140.447L140.012 104.077H137.29L136.854 100.484Z" fill="#00AAF0"/>
<path d="M142.89 99.8303L146.002 98.034L147.422 101.363L145.064 102.724L142.89 99.8303Z" fill="#00AAF0"/>
<path d="M147.79 96.2464L149.586 93.1362L152.481 95.3087L151.119 97.6657L147.79 96.2464Z" fill="#00AAF0"/>
<path d="M150.242 90.6947V87.1021L153.835 87.5374V90.2593L150.242 90.6947Z" fill="#00AAF0"/>
<path d="M149.586 84.6606L147.79 81.5503L151.119 80.131L152.481 82.4881L149.586 84.6606Z" fill="#00AAF0"/>
<path d="M146.002 79.7627L142.89 77.9664L145.064 75.0739L147.422 76.434L146.002 79.7627Z" fill="#00AAF0"/>
<path d="M138.651 95.3417C135.097 95.3417 132.205 92.4509 132.205 88.8984C132.205 85.3458 135.097 82.455 138.651 82.455C142.205 82.455 145.097 85.3458 145.097 88.8984C145.097 92.4509 142.205 95.3417 138.651 95.3417ZM138.651 85.708C136.892 85.708 135.46 87.1395 135.46 88.8984C135.46 90.6572 136.892 92.0887 138.651 92.0887C140.411 92.0887 141.843 90.6572 141.843 88.8984C141.843 87.1395 140.411 85.708 138.651 85.708Z" fill="#00AAF0"/>
<path d="M139.167 77.3125H138.135V85.0907H139.167V77.3125Z" fill="#00AAF0"/>
<path d="M128.872 82.6594L128.356 83.553L135.095 87.4421L135.611 86.5485L128.872 82.6594Z" fill="#00AAF0"/>
<path d="M135.094 90.3569L128.356 94.246L128.872 95.1396L135.611 91.2505L135.094 90.3569Z" fill="#00AAF0"/>
<path d="M139.167 92.7061H138.135V100.484H139.167V92.7061Z" fill="#00AAF0"/>
<path d="M142.208 90.3555L141.692 91.249L148.43 95.1381L148.946 94.2446L142.208 90.3555Z" fill="#00AAF0"/>
<path d="M148.43 82.6599L141.691 86.549L142.207 87.4426L148.946 83.5535L148.43 82.6599Z" fill="#00AAF0"/>
</svg>
