<svg width="307" height="220" viewBox="0 0 307 220" fill="none" xmlns="http://www.w3.org/2000/svg">
<path fill-rule="evenodd" clip-rule="evenodd" d="M153.5 205.582C189.205 205.582 222.063 206.116 248.139 207.01C311.952 170.535 289.855 99.4388 266.944 59.2227C235.055 3.25406 159.705 -16.8646 128.538 27.7932C86.2356 88.4057 45.4246 67.2544 23.3886 113.289C1.35265 159.321 34.8173 203.453 58.8612 207.01C84.9372 206.116 117.795 205.582 153.5 205.582ZM97.5887 50.3726C81.2565 62.8037 54.2384 72.4358 45.2676 59.2196C38.5644 49.346 46.8226 30.8217 62.9918 16.7752C79.1489 2.73773 100.798 -5.756 112.598 4.5796C126.603 16.8446 110.165 40.801 97.5887 50.3726Z" fill="#F1F5FB"/>
<path opacity="0.5" fill-rule="evenodd" clip-rule="evenodd" d="M153.5 205.582C238.277 205.582 307 208.592 307 212.303C307 216.014 238.277 219.027 153.5 219.027C68.7228 219.027 0 216.017 0 212.303C0 208.589 68.7228 205.582 153.5 205.582Z" fill="#DCE6F3"/>
<path fill-rule="evenodd" clip-rule="evenodd" d="M203.001 20.006C241.339 28.545 265.733 63.8032 268.125 80.8238C269.106 87.8078 267.288 71.4635 247.731 56.5776C230.255 43.2769 216.646 40.8131 195.851 39.2067C181.155 38.0714 165.768 36.2658 166.864 27.5003C167.728 20.5797 178.25 14.4925 203.001 20.006ZM102.755 5.74511C109.356 6.14066 113.371 11.5606 113.649 17.8109C113.767 20.471 111.678 13.5172 104.361 12.551C99.8232 11.9501 99.1408 13.2877 97.5163 11.4156C95.8888 9.54359 97.4348 5.42505 102.755 5.74511Z" fill="white"/>
<path fill-rule="evenodd" clip-rule="evenodd" d="M142.355 44.5783C141.806 52.1179 140.694 53.1596 133.505 53.7393C140.694 54.3191 141.806 55.3608 142.355 62.9004C142.905 55.3608 144.016 54.3191 151.205 53.7393C144.016 53.1596 142.905 52.1179 142.355 44.5783ZM171.577 64.4644C171.285 68.4894 170.69 69.0449 166.852 69.356C170.69 69.667 171.285 70.2225 171.577 74.2475C171.87 70.2225 172.465 69.667 176.303 69.356C172.465 69.0449 171.87 68.4894 171.577 64.4644ZM158.781 33.4818C158.485 37.5581 157.884 38.1227 153.995 38.4367C157.881 38.7508 158.482 39.3124 158.781 43.3917C159.077 39.3154 159.678 38.7508 163.567 38.4367C159.681 38.1227 159.077 37.5611 158.781 33.4818Z" fill="white"/>
<path fill-rule="evenodd" clip-rule="evenodd" d="M131.757 168.204C132.201 174.312 133.104 175.155 138.928 175.626C133.104 176.097 132.204 176.939 131.757 183.047C131.313 176.939 130.41 176.097 124.586 175.626C130.41 175.155 131.31 174.312 131.757 168.204ZM108.081 184.313C108.32 187.574 108.8 188.024 111.91 188.274C108.8 188.525 108.32 188.975 108.081 192.236C107.843 188.975 107.363 188.525 104.253 188.274C107.363 188.024 107.843 187.574 108.081 184.313ZM118.45 159.212C118.692 162.515 119.178 162.971 122.327 163.225C119.178 163.481 118.692 163.934 118.45 167.238C118.209 163.934 117.722 163.478 114.573 163.225C117.722 162.971 118.209 162.515 118.45 159.212Z" fill="white"/>
<path fill-rule="evenodd" clip-rule="evenodd" d="M224.798 153.143C224.457 157.82 223.769 158.466 219.309 158.825C223.769 159.185 224.457 159.831 224.798 164.508C225.14 159.831 225.828 159.185 230.288 158.825C225.828 158.466 225.14 157.82 224.798 153.143ZM242.924 165.477C242.743 167.974 242.375 168.319 239.992 168.512C242.372 168.705 242.743 169.049 242.924 171.546C243.105 169.049 243.474 168.705 245.856 168.512C243.477 168.319 243.105 167.974 242.924 165.477ZM234.986 146.258C234.802 148.789 234.43 149.136 232.018 149.329C234.43 149.525 234.802 149.873 234.986 152.403C235.17 149.873 235.545 149.525 237.954 149.329C235.545 149.136 235.17 148.786 234.986 146.258Z" fill="white"/>
<path fill-rule="evenodd" clip-rule="evenodd" d="M60.6427 101.758L57.0103 103.871C55.7844 104.584 55.3678 106.166 56.0773 107.392L56.8805 108.772C57.8256 110.399 57.4149 111.136 57.119 111.396C56.3098 112.12 55.561 112.906 54.8092 113.688C54.5887 113.917 53.8852 114.702 52.0403 113.627L50.7721 112.893C49.5462 112.181 47.961 112.601 47.2515 113.826L45.1378 117.459C44.4253 118.685 44.845 120.27 46.0709 120.983L47.3269 121.71C49.0571 122.719 49.0148 123.235 48.7944 123.969C48.4925 124.977 48.1694 125.986 47.949 127.031C47.7527 127.961 47.8403 128.625 45.4851 128.625H44.0418C42.6226 128.625 41.4662 129.781 41.4662 131.2V135.404C41.4662 136.823 42.6226 137.979 44.0418 137.979H45.4851C47.8403 137.979 47.7527 138.643 47.949 139.573C48.1694 140.615 48.4925 141.627 48.7944 142.635C49.0118 143.369 49.0571 143.885 47.3269 144.894L46.0709 145.621C44.845 146.334 44.4253 147.919 45.1378 149.142L47.2515 152.774C47.9641 154 49.5493 154.417 50.7721 153.707L52.0403 152.971C53.8852 151.896 54.5887 152.681 54.8092 152.913C55.561 153.695 56.3098 154.48 57.119 155.205C57.4119 155.468 57.8256 156.205 56.8805 157.832L56.0773 159.212C55.3647 160.438 55.7844 162.02 57.0103 162.733L60.6427 164.846C61.8686 165.559 63.4539 165.139 64.1665 163.913L64.9666 162.536C65.9268 160.885 66.8719 160.951 67.2705 161.078C68.4299 161.446 69.4988 161.685 70.6945 161.996C71.1293 162.111 71.8781 162.428 71.8781 164.396V165.87C71.8781 167.289 73.0346 168.445 74.4537 168.445H78.6568C80.076 168.445 81.2324 167.289 81.2324 165.87V164.396C81.2324 162.428 81.9812 162.111 82.416 161.996C83.6117 161.685 84.6806 161.446 85.8401 161.078C86.2387 160.951 87.1837 160.885 88.1439 162.536L88.9441 163.913C89.6567 165.139 91.2419 165.556 92.4648 164.846L96.0972 162.733C97.3231 162.02 97.7428 160.438 97.0302 159.212L96.227 157.832C95.2819 156.205 95.6926 155.468 95.9885 155.205C96.7977 154.483 97.5465 153.695 98.2984 152.913C98.5188 152.684 99.2223 151.896 101.067 152.971L102.332 153.707C103.558 154.42 105.14 154 105.856 152.774L107.967 149.142C108.679 147.916 108.26 146.331 107.034 145.621L105.778 144.894C104.044 143.885 104.09 143.372 104.31 142.635C104.612 141.627 104.935 140.618 105.156 139.573C105.352 138.643 105.264 137.979 107.619 137.979H109.063C110.482 137.979 111.638 136.823 111.638 135.404V131.2C111.638 129.781 110.482 128.625 109.063 128.625H107.619C105.264 128.625 105.352 127.961 105.156 127.031C104.935 125.986 104.612 124.977 104.31 123.969C104.09 123.235 104.044 122.719 105.778 121.71L107.034 120.983C108.26 120.27 108.679 118.685 107.967 117.459L105.856 113.826C105.143 112.601 103.558 112.181 102.332 112.893L101.067 113.627C99.2193 114.702 98.5188 113.917 98.2984 113.688C97.5465 112.906 96.7977 112.12 95.9885 111.396C95.6956 111.133 95.2819 110.396 96.227 108.772L97.0302 107.392C97.7428 106.166 97.3231 104.584 96.0972 103.871L92.4648 101.758C91.2419 101.045 89.6567 101.465 88.9441 102.691L88.1439 104.065C87.1837 105.716 86.2387 105.65 85.8401 105.523C84.6806 105.155 83.6117 104.916 82.416 104.605C81.9782 104.49 81.2324 104.173 81.2324 102.208V100.734C81.2324 99.315 80.076 98.1585 78.6568 98.1585H74.4537C73.0346 98.1585 71.8781 99.315 71.8781 100.734V102.208C71.8781 104.173 71.1293 104.493 70.6945 104.605C69.4988 104.916 68.4299 105.155 67.2705 105.523C66.8719 105.65 65.9268 105.716 64.9666 104.065L64.1665 102.691C63.4539 101.465 61.8686 101.045 60.6427 101.758ZM76.5553 127.749C79.62 127.749 82.105 130.234 82.105 133.299C82.105 136.364 79.62 138.849 76.5553 138.849C73.4905 138.849 71.0055 136.364 71.0055 133.299C71.0055 130.234 73.4905 127.749 76.5553 127.749ZM59.1602 133.299C59.1602 132.644 59.6916 132.112 60.3468 132.112C61.0021 132.112 61.5335 132.644 61.5335 133.299C61.5335 137.448 63.2153 141.201 65.9328 143.921C68.6503 146.639 72.4065 148.321 76.5553 148.321C77.2105 148.321 77.7419 148.852 77.7419 149.507C77.7419 150.163 77.2105 150.694 76.5553 150.694C71.7513 150.694 67.4033 148.746 64.254 145.6C61.1077 142.454 59.1572 138.103 59.1572 133.302L59.1602 133.299ZM93.7239 130.497C93.8265 131.143 93.3857 131.747 92.7426 131.85C92.0964 131.952 91.4895 131.511 91.3868 130.865C90.8765 127.719 89.3849 124.899 87.2381 122.728C85.0882 120.557 82.2771 119.038 79.1369 118.495C78.4907 118.386 78.0559 117.773 78.1677 117.127C78.2764 116.481 78.8893 116.049 79.5355 116.158C83.1739 116.786 86.4289 118.546 88.9169 121.058C91.4049 123.573 93.1321 126.843 93.7239 130.494V130.497ZM76.5583 112.685C87.9416 112.685 97.1691 121.913 97.1691 133.299C97.1691 144.685 87.9416 153.913 76.5583 153.913C65.1749 153.913 55.9445 144.685 55.9445 133.299C55.9445 121.913 65.1719 112.685 76.5583 112.685Z" fill="white"/>
<path fill-rule="evenodd" clip-rule="evenodd" d="M190.328 69.5281L185.038 72.6049C183.254 73.6436 182.644 75.9504 183.679 77.7319L184.848 79.7399C186.225 82.1101 185.624 83.182 185.198 83.5625C184.021 84.6163 182.931 85.7606 181.835 86.899C181.511 87.2341 180.491 88.3785 177.801 86.8144L175.956 85.7425C174.171 84.7038 171.864 85.3138 170.826 87.0983L167.749 92.3883C166.71 94.1728 167.323 96.4797 169.105 97.5184L170.931 98.5782C173.453 100.046 173.389 100.798 173.069 101.866C172.631 103.334 172.16 104.804 171.837 106.323C171.553 107.676 171.68 108.642 168.25 108.642H166.145C164.08 108.642 162.395 110.327 162.395 112.395V118.516C162.395 120.581 164.08 122.269 166.145 122.269H168.25C171.68 122.269 171.553 123.235 171.837 124.588C172.157 126.107 172.628 127.577 173.069 129.045C173.389 130.113 173.453 130.865 170.931 132.333L169.105 133.393C167.32 134.431 166.71 136.738 167.749 138.523L170.826 143.813C171.864 145.597 174.171 146.207 175.956 145.168L177.801 144.096C180.491 142.532 181.511 143.677 181.835 144.012C182.931 145.15 184.021 146.295 185.198 147.348C185.627 147.732 186.225 148.804 184.848 151.171L183.679 153.179C182.644 154.964 183.254 157.27 185.038 158.309L190.328 161.386C192.113 162.425 194.42 161.815 195.458 160.03L196.624 158.028C198.022 155.625 199.399 155.718 199.981 155.903C201.669 156.44 203.227 156.787 204.967 157.24C205.601 157.406 206.691 157.868 206.691 160.734V162.881C206.691 164.949 208.376 166.634 210.441 166.634H216.561C218.63 166.634 220.311 164.949 220.311 162.881V160.734C220.311 157.868 221.401 157.406 222.036 157.24C223.778 156.787 225.336 156.44 227.021 155.903C227.603 155.718 228.977 155.622 230.378 158.028L231.544 160.03C232.583 161.815 234.889 162.425 236.674 161.386L241.964 158.309C243.748 157.273 244.358 154.964 243.32 153.179L242.151 151.171C240.774 148.801 241.375 147.729 241.801 147.348C242.979 146.295 244.072 145.15 245.165 144.012C245.488 143.677 246.508 142.532 249.199 144.096L251.043 145.168C252.828 146.207 255.135 145.597 256.174 143.813L259.25 138.523C260.286 136.738 259.676 134.431 257.892 133.393L256.065 132.333C253.544 130.865 253.607 130.113 253.927 129.045C254.365 127.577 254.836 126.107 255.159 124.588C255.446 123.235 255.316 122.269 258.746 122.269H260.848C262.913 122.269 264.598 120.584 264.598 118.516V112.395C264.598 110.327 262.913 108.642 260.848 108.642H258.746C255.316 108.642 255.446 107.676 255.159 106.323C254.839 104.804 254.368 103.334 253.927 101.866C253.607 100.798 253.544 100.046 256.065 98.5782L257.892 97.5184C259.676 96.4797 260.286 94.1728 259.25 92.3883L256.174 87.0983C255.135 85.3138 252.828 84.7038 251.043 85.7425L249.199 86.8144C246.508 88.3785 245.488 87.2341 245.165 86.899C244.069 85.7606 242.979 84.6163 241.801 83.5625C241.372 83.179 240.774 82.1071 242.151 79.7399L243.32 77.7319C244.358 75.9474 243.745 73.6406 241.964 72.6049L236.674 69.5281C234.889 68.4924 232.583 69.1023 231.544 70.8868L230.378 72.8887C228.98 75.2922 227.603 75.1986 227.021 75.0144C225.333 74.4769 223.775 74.1297 222.036 73.6768C221.398 73.5107 220.311 73.0487 220.311 70.1833V68.0364C220.311 65.9711 218.627 64.2863 216.561 64.2863H210.441C208.373 64.2863 206.691 65.9711 206.691 68.0364V70.1833C206.691 73.0487 205.601 73.5107 204.967 73.6768C203.224 74.1297 201.666 74.4769 199.981 75.0144C199.399 75.1986 198.022 75.2952 196.624 72.8887L195.458 70.8868C194.42 69.1023 192.113 68.4924 190.328 69.5281ZM213.5 107.377C217.962 107.377 221.583 110.994 221.583 115.457C221.583 119.92 217.965 123.54 213.5 123.54C209.034 123.54 205.42 119.923 205.42 115.457C205.42 110.991 209.037 107.377 213.5 107.377ZM188.166 115.46C188.166 114.506 188.939 113.73 189.896 113.73C190.854 113.73 191.627 114.503 191.627 115.46C191.627 121.502 194.075 126.97 198.034 130.926C201.992 134.884 207.461 137.333 213.503 137.333C214.457 137.333 215.233 138.109 215.233 139.063C215.233 140.017 214.46 140.793 213.503 140.793C206.51 140.793 200.175 137.958 195.591 133.374C191.008 128.791 188.172 122.456 188.172 115.463L188.166 115.46ZM238.498 111.381C238.646 112.32 238.005 113.204 237.066 113.352C236.127 113.5 235.243 112.86 235.095 111.921C234.352 107.338 232.181 103.231 229.053 100.07C225.922 96.9085 221.83 94.6952 217.256 93.9041C216.317 93.7441 215.683 92.8503 215.843 91.9113C216.003 90.9722 216.896 90.3381 217.836 90.4982C223.135 91.4131 227.872 93.9766 231.496 97.6362C235.119 101.296 237.634 106.057 238.498 111.378V111.381ZM213.5 85.4436C230.076 85.4436 243.516 98.8832 243.516 115.46C243.516 132.037 230.076 145.476 213.5 145.476C196.923 145.476 183.483 132.037 183.483 115.46C183.483 98.8832 196.923 85.4436 213.5 85.4436Z" fill="white"/>
<path d="M250.014 125.524C250.014 124.775 248.839 124.168 247.39 124.168C246.179 124.168 245.165 124.591 244.86 125.168C244.814 125.155 244.766 125.143 244.721 125.131C243.534 124.799 242.311 124.37 241.309 123.643C241.309 123.643 241.309 123.643 241.306 123.643C241.412 123.531 241.52 123.416 241.623 123.302C242.36 122.486 243.021 121.617 243.649 120.72C244.144 121.082 244.784 121.155 245.379 121.233C246.058 121.324 246.744 121.375 247.432 121.384C247.961 121.39 248.492 121.372 249.018 121.333C249.024 121.354 249.027 121.372 249.033 121.393C249.265 122.106 250.57 122.32 251.949 121.87C253.329 121.423 254.259 120.481 254.027 119.769C253.794 119.056 252.49 118.842 251.11 119.292C250.029 119.642 249.226 120.297 249.039 120.907C248.55 120.946 248.057 120.967 247.565 120.961C246.943 120.955 246.324 120.919 245.705 120.847C245.101 120.777 244.398 120.735 243.887 120.37C244.654 119.255 245.376 118.105 246.125 116.976C246.14 116.982 246.155 116.991 246.176 116.994C247.345 117.254 248.528 117.214 249.685 116.903C249.878 116.852 250.068 116.792 250.259 116.728C250.739 117.16 251.82 117.235 252.949 116.87C254.329 116.423 255.259 115.481 255.026 114.769C254.794 114.056 253.489 113.842 252.109 114.288C250.763 114.726 249.842 115.635 250.02 116.342C248.848 116.71 247.641 116.873 246.376 116.604C246.783 115.997 247.203 115.397 247.641 114.811C248.338 113.884 249.096 112.993 249.935 112.196C250.521 112.51 251.629 112.187 252.602 111.375C253.713 110.445 254.223 109.225 253.743 108.648C253.263 108.074 251.971 108.364 250.859 109.294C249.818 110.167 249.304 111.293 249.64 111.903C248.314 113.168 247.197 114.645 246.158 116.17C245.989 115.614 245.959 115.025 245.908 114.451C245.85 113.787 245.796 113.123 245.775 112.459C245.76 112.021 245.763 111.583 245.781 111.145C246.324 110.816 246.771 109.898 246.871 108.778C246.998 107.335 246.496 106.109 245.751 106.045C245.005 105.979 244.295 107.096 244.168 108.542C244.041 109.986 244.543 111.212 245.289 111.275C245.31 111.275 245.331 111.275 245.352 111.275C245.337 111.692 245.337 112.108 245.352 112.525C245.376 113.192 245.427 113.86 245.485 114.524C245.545 115.212 245.59 115.904 245.838 116.556C245.844 116.574 245.853 116.589 245.862 116.604C245.627 116.955 245.394 117.311 245.165 117.664C244.645 118.464 244.126 119.268 243.586 120.056C242.755 118.534 242.188 116.891 241.898 115.194C242.444 114.844 242.791 113.805 242.71 112.607C242.61 111.16 241.925 110.028 241.179 110.079C240.433 110.131 239.905 111.344 240.004 112.791C240.101 114.207 240.759 115.318 241.49 115.315C241.792 117.057 242.381 118.748 243.241 120.306C243.269 120.355 243.305 120.385 243.347 120.403C242.991 120.913 242.625 121.414 242.239 121.904C241.816 122.441 241.369 122.951 240.898 123.443C240.892 123.428 240.883 123.41 240.868 123.395C240.095 122.414 239.467 121.33 239.008 120.17C238.887 119.865 238.773 119.548 238.667 119.225C239.096 118.754 239.256 117.737 239.017 116.629C238.712 115.212 237.873 114.189 237.142 114.346C236.408 114.503 236.061 115.78 236.366 117.196C236.671 118.612 237.51 119.636 238.241 119.479C238.262 119.476 238.28 119.47 238.301 119.464C238.386 119.723 238.48 119.977 238.576 120.228C239.053 121.466 239.724 122.625 240.545 123.667C240.566 123.694 240.593 123.715 240.617 123.727C239.92 124.431 239.177 125.086 238.389 125.696C238.241 125.811 238.087 125.925 237.936 126.037C237.93 126.022 237.921 126.007 237.909 125.992C237.474 125.427 237.088 124.826 236.759 124.195C237.115 123.685 237.233 122.74 237.012 121.722C236.707 120.306 235.868 119.283 235.137 119.44C234.403 119.597 234.056 120.874 234.361 122.29C234.666 123.706 235.505 124.73 236.236 124.573C236.309 124.558 236.375 124.53 236.438 124.494C236.768 125.113 237.148 125.705 237.58 126.264C237.586 126.273 237.592 126.276 237.598 126.285C236.2 127.299 234.72 128.199 233.22 129.057C232.984 129.192 233.159 129.579 233.395 129.443C234.962 128.546 236.514 127.598 237.972 126.529C238.449 126.91 238.954 127.272 239.488 127.577C239.479 127.607 239.47 127.637 239.467 127.668C239.37 128.41 240.457 129.165 241.895 129.353C243.332 129.54 244.576 129.09 244.673 128.347C244.769 127.604 243.682 126.849 242.245 126.662C241.134 126.517 240.143 126.753 239.703 127.209C239.219 126.934 238.76 126.611 238.326 126.267C239.271 125.554 240.168 124.784 241.001 123.939C241.013 123.957 241.031 123.975 241.052 123.99C242.13 124.772 243.456 125.24 244.733 125.575C244.739 125.575 244.748 125.578 244.754 125.581C244.811 126.303 245.962 126.883 247.375 126.883C248.824 126.883 249.999 126.276 249.999 125.527L250.014 125.524Z" fill="#FFBC47"/>
<path d="M228.389 136.527C227.631 137.659 227.292 139.154 227.292 139.154C227.292 139.154 225.967 142.738 225.762 146.165C225.698 147.379 225.583 149.233 226.287 151.404C226.368 151.63 226.45 151.853 226.532 152.08C226.619 152.303 226.713 152.518 226.827 152.723C226.906 152.883 226.984 153.043 227.069 153.194C227.108 153.279 227.151 153.357 227.199 153.436C228.657 156.054 230.783 157.524 231.616 158.058C232.429 158.557 235.388 160.275 239.274 160.018C241.677 159.858 244.923 158.94 245.026 157.418C245.029 157.125 244.932 156.848 245.101 156.509C245.409 155.824 246.3 155.761 247.474 155.564C249.648 155.205 250.735 155.042 251.252 154.453C251.499 154.188 251.798 153.412 252.396 151.881C252.813 150.818 252.795 150.742 252.967 150.585C253.849 149.83 255.168 151.138 257.088 150.933C258.559 150.763 260.09 149.743 260.54 148.345C260.79 147.518 260.476 147.197 260.763 145.588C260.968 144.45 261.086 143.864 261.424 143.39C262.738 141.545 266.141 143.327 267.089 141.711C267.557 140.911 267.225 139.631 266.914 138.405C266.576 137.158 266.234 136.91 266.156 136.391C265.67 133.426 275.362 131.095 275.015 129.739C274.743 128.706 268.321 127.568 264.075 128.516C263.42 128.676 262.149 129.017 260.869 128.356C259.389 127.604 259.383 126.282 258.302 125.989C257.753 125.856 257.369 126.085 253.954 128.395C252.867 129.138 252.118 129.657 251.569 129.331C251.028 129.017 251.098 128.127 250.322 127.698C250.204 127.619 249.923 127.493 249.419 127.52C247.746 127.571 245.944 129.132 245.077 129.914C243.338 131.472 242.586 132.414 242.124 132.152C241.674 131.871 242.082 130.808 241.375 130.122C240.862 129.648 240.071 129.654 239.57 129.766C238.863 129.932 238.486 130.467 237.522 132.164C236.532 133.903 236.441 134.205 235.88 135.105C234.941 136.672 234.08 138.094 233.349 137.885C232.688 137.695 232.803 136.409 231.689 135.693C231.643 135.66 230.786 135.129 229.883 135.337C229.285 135.473 228.769 135.956 228.392 136.527H228.389Z" fill="#00AAF0"/>
<path d="M231.019 140.57C230.089 141.334 230.445 142.705 230.505 143.74C230.563 144.725 230.535 145.715 230.43 146.696C230.224 148.565 229.714 150.392 228.941 152.107C228.947 152.104 228.953 152.101 228.962 152.095C230.886 151.056 232.906 150.175 234.877 149.272C236.907 148.342 238.933 147.367 240.814 146.153C242.384 145.138 243.755 143.918 245.089 142.641C245.409 140.588 244.902 138.553 245.041 136.5C245.165 134.703 246.062 132.746 247.976 132.318C248.145 132.278 248.184 132.547 248.015 132.586C245.989 133.039 245.304 135.271 245.292 137.097C245.279 138.852 245.603 140.591 245.397 142.342C245.397 142.342 245.403 142.339 245.403 142.336C245.56 142.185 245.717 142.034 245.874 141.88C247.149 140.633 248.459 139.404 250.017 138.523C251.092 137.907 252.218 137.387 253.353 136.91C253.764 135.008 254.745 133.16 256.204 131.853C256.334 131.735 256.503 131.949 256.373 132.064C255.014 133.281 254.081 135.002 253.668 136.774C253.728 136.747 253.785 136.729 253.843 136.702C256.575 135.567 259.377 134.57 262.213 133.731C262.46 133.658 262.711 133.583 262.964 133.516C263.127 133.471 263.233 133.719 263.07 133.764C260.377 134.513 257.726 135.446 255.126 136.472C253.746 137.019 252.378 137.599 251.05 138.269C250.745 138.426 250.449 138.586 250.165 138.761C250.862 139.51 251.94 139.495 252.888 139.54C253.722 139.582 254.543 139.736 255.331 140.017C256.889 140.57 258.266 141.578 259.266 142.892C259.371 143.031 259.16 143.2 259.054 143.061C257.994 141.666 256.503 140.639 254.824 140.135C253.957 139.875 253.097 139.833 252.2 139.779C251.364 139.727 250.518 139.555 249.932 138.909C249.932 138.909 249.932 138.903 249.932 138.9C249.027 139.453 248.193 140.084 247.39 140.808C245.76 142.288 244.289 143.936 242.538 145.277C240.832 146.582 238.939 147.623 237.009 148.562C236.846 148.644 236.677 148.719 236.511 148.798C238.519 149.96 240.642 151.165 243.024 151.216C243.573 151.228 244.126 151.171 244.66 151.038C245.18 150.911 245.687 150.724 246.225 150.688C247.227 150.625 248.078 151.171 248.87 151.715C249.015 151.814 248.854 152.032 248.71 151.932C248.257 151.621 247.795 151.304 247.275 151.114C246.744 150.917 246.212 150.924 245.663 151.047C245.122 151.171 244.603 151.352 244.054 151.428C243.558 151.494 243.054 151.5 242.556 151.461C240.273 151.274 238.247 150.111 236.306 148.988C236.272 148.97 236.26 148.943 236.254 148.916C236.254 148.916 236.254 148.916 236.251 148.916C233.754 150.096 231.182 151.162 228.766 152.5C228.76 152.503 228.751 152.509 228.745 152.512C228.727 152.527 228.709 152.542 228.685 152.545C228.685 152.545 228.678 152.548 228.675 152.551C228.177 152.829 227.682 153.116 227.208 153.424C227.16 153.345 227.117 153.267 227.078 153.182C227.567 152.871 228.063 152.581 228.567 152.3C228.567 152.3 228.567 152.3 228.57 152.3C229.473 150.386 230.031 148.324 230.209 146.216C230.3 145.141 230.282 144.066 230.182 142.991C230.095 142.055 230.058 141.002 230.859 140.346C230.994 140.235 231.16 140.449 231.028 140.558L231.019 140.57Z" fill="white"/>
<path d="M226.628 88.8012H80.7282C76.2201 88.8012 72.5666 92.7326 72.5666 97.5879V196.795C72.5666 201.647 76.2201 205.597 80.7282 205.597H226.628C231.136 205.597 234.79 201.647 234.79 196.795V97.5879C234.79 92.7356 231.136 88.8012 226.628 88.8012ZM232.534 196.085C232.534 200.364 228.98 203.818 224.587 203.818H82.7512C78.376 203.818 74.8221 200.364 74.8221 196.085V108.823C74.8221 104.545 78.376 101.075 82.7512 101.075H224.587C228.98 101.075 232.534 104.548 232.534 108.823V196.085Z" fill="#00AAF0"/>
<path d="M232.534 108.823V196.085C232.534 200.364 228.98 203.818 224.587 203.818H82.7512C78.376 203.818 74.8221 200.364 74.8221 196.085V108.823C74.8221 104.545 78.376 101.075 82.7512 101.075H224.587C228.98 101.075 232.534 104.548 232.534 108.823Z" fill="white"/>
<path d="M102.372 95.1089C102.372 94.2997 101.762 93.6414 101.01 93.6414C100.258 93.6414 99.6481 94.2966 99.6481 95.1089C99.6481 95.9211 100.258 96.5763 101.01 96.5763C101.762 96.5763 102.372 95.9211 102.372 95.1089Z" fill="white"/>
<path d="M95.4752 95.1089C95.4752 94.2997 94.8653 93.6414 94.1134 93.6414C93.3616 93.6414 92.7516 94.2966 92.7516 95.1089C92.7516 95.9211 93.3616 96.5763 94.1134 96.5763C94.8653 96.5763 95.4752 95.9211 95.4752 95.1089Z" fill="white"/>
<path d="M88.5787 95.1089C88.5787 94.2997 87.9688 93.6414 87.2169 93.6414C86.4651 93.6414 85.8552 94.2966 85.8552 95.1089C85.8552 95.9211 86.4651 96.5763 87.2169 96.5763C87.9688 96.5763 88.5787 95.9211 88.5787 95.1089Z" fill="white"/>
<path d="M189.924 96.5763H221.208C222.017 96.5763 222.676 95.9211 222.676 95.1089C222.676 94.2997 222.02 93.6414 221.208 93.6414H189.924C189.114 93.6414 188.456 94.2966 188.456 95.1089C188.456 95.9181 189.111 96.5763 189.924 96.5763Z" fill="white"/>
<path d="M101.578 114.285H89.2733V125.412H101.578V114.285Z" fill="#B6DBFF"/>
<path d="M145.746 117.175H108.848V118.075H145.746V117.175Z" fill="#B6DBFF"/>
<path d="M131.144 121.617H108.848V122.516H131.144V121.617Z" fill="#B6DBFF"/>
<path d="M98.238 116.097C97.0242 117.794 95.8074 119.491 94.5935 121.188C93.7481 120.394 92.9026 119.6 92.0572 118.806C91.5469 119.455 91.0396 120.101 90.5294 120.75C91.9636 121.698 93.3978 122.646 94.8321 123.594C96.6619 121.626 98.4947 119.66 100.324 117.691C99.63 117.16 98.9355 116.625 98.241 116.094L98.238 116.097Z" fill="white"/>
<path d="M101.578 135.998H89.2733V147.125H101.578V135.998Z" fill="#B6DBFF"/>
<path d="M145.746 138.888H108.848V139.788H145.746V138.888Z" fill="#B6DBFF"/>
<path d="M131.144 143.33H108.848V144.229H131.144V143.33Z" fill="#B6DBFF"/>
<path d="M98.238 137.81C97.0242 139.507 95.8074 141.204 94.5935 142.901C93.7481 142.107 92.9026 141.313 92.0572 140.518C91.5469 141.168 91.0396 141.814 90.5294 142.463C91.9636 143.411 93.3978 144.359 94.8321 145.307C96.6619 143.339 98.4947 141.373 100.324 139.404C99.63 138.873 98.9355 138.338 98.241 137.807L98.238 137.81Z" fill="white"/>
<path d="M101.578 157.711H89.2733V168.838H101.578V157.711Z" fill="#B6DBFF"/>
<path d="M145.746 160.604H108.848V161.504H145.746V160.604Z" fill="#B6DBFF"/>
<path d="M131.144 165.042H108.848V165.942H131.144V165.042Z" fill="#B6DBFF"/>
<path d="M98.238 159.523C97.0242 161.22 95.8074 162.917 94.5935 164.614C93.7481 163.82 92.9026 163.025 92.0572 162.231C91.5469 162.881 91.0396 163.527 90.5294 164.176C91.9636 165.124 93.3978 166.072 94.8321 167.02C96.6619 165.052 98.4947 163.086 100.324 161.117C99.63 160.586 98.9355 160.051 98.241 159.52L98.238 159.523Z" fill="white"/>
<path d="M101.578 179.424H89.2733V190.551H101.578V179.424Z" fill="#B6DBFF"/>
<path d="M145.746 182.317H108.848V183.217H145.746V182.317Z" fill="#B6DBFF"/>
<path d="M131.144 186.758H108.848V187.658H131.144V186.758Z" fill="#B6DBFF"/>
<path d="M98.238 181.236C97.0242 182.933 95.8074 184.63 94.5935 186.327C93.7481 185.532 92.9026 184.738 92.0572 183.944C91.5469 184.593 91.0396 185.24 90.5294 185.889C91.9636 186.837 93.3978 187.785 94.8321 188.733C96.6619 186.764 98.4947 184.799 100.324 182.83C99.63 182.299 98.9355 181.764 98.241 181.233L98.238 181.236Z" fill="white"/>
<path d="M174.917 114.285H162.613V125.412H174.917V114.285Z" fill="#B6DBFF"/>
<path d="M219.086 117.175H182.188V118.075H219.086V117.175Z" fill="#B6DBFF"/>
<path d="M204.484 121.617H182.188V122.516H204.484V121.617Z" fill="#B6DBFF"/>
<path d="M171.577 116.097C170.364 117.794 169.147 119.491 167.933 121.188C167.088 120.394 166.242 119.6 165.397 118.806C164.886 119.455 164.379 120.101 163.869 120.75C165.303 121.698 166.737 122.646 168.171 123.594C170.001 121.626 171.834 119.66 173.664 117.691C172.969 117.16 172.275 116.625 171.58 116.094L171.577 116.097Z" fill="white"/>
<path d="M174.917 135.998H162.613V147.125H174.917V135.998Z" fill="#B6DBFF"/>
<path d="M219.086 138.888H182.188V139.788H219.086V138.888Z" fill="#B6DBFF"/>
<path d="M204.484 143.33H182.188V144.229H204.484V143.33Z" fill="#B6DBFF"/>
<path d="M171.577 137.81C170.364 139.507 169.147 141.204 167.933 142.901C167.088 142.107 166.242 141.313 165.397 140.518C164.886 141.168 164.379 141.814 163.869 142.463C165.303 143.411 166.737 144.359 168.171 145.307C170.001 143.339 171.834 141.373 173.664 139.404C172.969 138.873 172.275 138.338 171.58 137.807L171.577 137.81Z" fill="white"/>
<path d="M174.917 157.711H162.613V168.838H174.917V157.711Z" fill="#B6DBFF"/>
<path d="M219.086 160.604H182.188V161.504H219.086V160.604Z" fill="#B6DBFF"/>
<path d="M204.484 165.042H182.188V165.942H204.484V165.042Z" fill="#B6DBFF"/>
<path d="M174.917 179.424H162.613V190.551H174.917V179.424Z" fill="#B6DBFF"/>
<path d="M219.086 182.317H182.188V183.217H219.086V182.317Z" fill="#B6DBFF"/>
<path d="M204.484 186.758H182.188V187.658H204.484V186.758Z" fill="#B6DBFF"/>
<path d="M40.0953 98.5812C40.0229 98.5873 39.9534 98.536 39.9353 98.4635C39.887 98.2491 39.8538 98.0045 39.8326 97.7328C39.7934 97.2164 39.8024 96.6367 39.8628 96.0026C39.8719 95.9181 39.9443 95.8577 40.0289 95.8668C40.1134 95.8758 40.1738 95.9483 40.1648 96.0328C40.1074 96.6488 40.0953 97.2134 40.1346 97.7116C40.1557 97.9683 40.1859 98.1978 40.2312 98.4001C40.2493 98.4816 40.198 98.5631 40.1164 98.5812C40.1104 98.5812 40.1014 98.5812 40.0953 98.5843V98.5812ZM40.4516 93.7863C40.4365 93.7863 40.4184 93.7864 40.4033 93.7833C40.3218 93.7622 40.2735 93.6807 40.2946 93.5991C40.4939 92.8231 40.7475 92.0411 41.0525 91.2802C41.0827 91.2017 41.1702 91.1655 41.2487 91.1957C41.3272 91.2259 41.3635 91.3134 41.3333 91.3919C41.0344 92.1407 40.7807 92.9077 40.5875 93.6716C40.5724 93.735 40.515 93.7803 40.4516 93.7863ZM66.4219 88.9552C66.4219 88.9552 66.4159 88.9552 66.4129 88.9552C66.0838 88.9613 65.7516 88.9401 65.4165 88.8888C64.9152 88.8133 64.4472 88.617 64.0275 88.3121C63.9611 88.2638 63.946 88.1671 63.9943 88.1007C64.0426 88.0343 64.1392 88.0192 64.2057 88.0675C64.5861 88.3453 65.0088 88.5204 65.4617 88.5899C65.7788 88.6382 66.0958 88.6593 66.4068 88.6533C66.4914 88.6533 66.5608 88.7167 66.5608 88.8012C66.5608 88.8828 66.5004 88.9492 66.4219 88.9552ZM68.7469 88.3634C68.6895 88.3664 68.6292 88.3393 68.602 88.2819C68.5627 88.2094 68.5929 88.1158 68.6654 88.0766C69.3568 87.7142 69.9668 87.1858 70.4257 86.5517C70.474 86.4853 70.5707 86.4702 70.6371 86.5185C70.7035 86.5668 70.7186 86.6635 70.6703 86.7299C70.1812 87.4032 69.535 87.9618 68.8043 88.3453C68.7862 88.3544 68.765 88.3604 68.7469 88.3634ZM42.2482 89.3025C42.221 89.3025 42.1908 89.2994 42.1636 89.2843C42.0912 89.2421 42.064 89.1515 42.1063 89.079C42.5018 88.3694 42.9457 87.681 43.4258 87.0288C43.4741 86.9624 43.5707 86.9473 43.6371 86.9956C43.7036 87.0439 43.7187 87.1405 43.6704 87.207C43.1963 87.8471 42.7615 88.5265 42.372 89.224C42.3448 89.2692 42.2995 89.2964 42.2512 89.3025H42.2482ZM62.7382 86.4038C62.6718 86.4098 62.6084 86.3706 62.5842 86.3072C62.3789 85.7637 62.2521 85.1628 62.2038 84.5257C62.1887 84.3143 62.1796 84.0969 62.1826 83.8795C62.1826 83.795 62.2551 83.7285 62.3336 83.7285C62.4181 83.7285 62.4846 83.798 62.4846 83.8795C62.4846 84.0879 62.4906 84.2992 62.5057 84.5015C62.554 85.1115 62.6748 85.6821 62.868 86.1985C62.8982 86.277 62.859 86.3645 62.7805 86.3917C62.7654 86.3977 62.7533 86.4008 62.7382 86.4008V86.4038ZM71.4735 84.577C71.4735 84.577 71.4524 84.577 71.4403 84.577C71.3587 84.5649 71.3014 84.4895 71.3104 84.4049C71.3557 84.0939 71.3648 83.7769 71.3406 83.4719C71.3044 83.0039 71.1897 82.551 70.9994 82.1252C70.9662 82.0497 70.9994 81.9591 71.0749 81.9259C71.1504 81.8927 71.241 81.9259 71.2742 82.0014C71.4795 82.4604 71.6033 82.9465 71.6426 83.4477C71.6667 83.7769 71.6577 84.115 71.6094 84.4472C71.6003 84.5196 71.5399 84.571 71.4705 84.577H71.4735ZM45.1137 85.4194C45.0714 85.4225 45.0291 85.4074 44.9989 85.3772C44.9385 85.3198 44.9355 85.2232 44.9929 85.1628C45.5515 84.58 46.1554 84.0245 46.7864 83.5142C46.8528 83.4628 46.9465 83.4719 46.9978 83.5353C47.0491 83.6017 47.0401 83.6953 46.9766 83.7467C46.3546 84.2509 45.7598 84.7974 45.2103 85.3681C45.1831 85.3953 45.1499 85.4104 45.1137 85.4134V85.4194ZM62.702 81.6451C62.6839 81.6451 62.6657 81.6451 62.6476 81.6391C62.5661 81.6149 62.5208 81.5304 62.545 81.4519C62.7654 80.688 63.0885 79.9271 63.4991 79.1964C63.5414 79.1239 63.632 79.0967 63.7044 79.139C63.7769 79.1813 63.8041 79.2718 63.7618 79.3443C63.3632 80.0569 63.0492 80.7936 62.8348 81.5364C62.8167 81.5998 62.7624 81.6391 62.702 81.6451ZM48.8638 82.3819C48.8095 82.3849 48.7551 82.3607 48.7249 82.3124C48.6796 82.243 48.7008 82.1494 48.7732 82.1041C49.4496 81.6814 50.1682 81.2888 50.908 80.9355C50.9835 80.8993 51.074 80.9325 51.1103 81.008C51.1465 81.0835 51.1133 81.1741 51.0378 81.2103C50.3071 81.5576 49.6006 81.944 48.9333 82.3607C48.9121 82.3728 48.888 82.3819 48.8638 82.3819ZM69.6346 80.3619C69.5984 80.3619 69.5622 80.3558 69.532 80.3317C68.9522 79.8969 68.2457 79.5375 67.4274 79.2658C67.3489 79.2386 67.3036 79.1541 67.3308 79.0756C67.358 78.9971 67.4425 78.9518 67.521 78.9789C68.3695 79.2598 69.1062 79.6342 69.7131 80.0901C69.7796 80.1414 69.7947 80.235 69.7433 80.3015C69.7162 80.3377 69.6769 80.3588 69.6346 80.3619ZM53.2179 80.2984C53.1514 80.3045 53.088 80.2652 53.0639 80.1988C53.0367 80.1203 53.0759 80.0327 53.1575 80.0056C53.9033 79.7429 54.6883 79.5073 55.4855 79.305C55.567 79.2839 55.6485 79.3352 55.6697 79.4137C55.6908 79.4953 55.6395 79.5768 55.561 79.5979C54.7729 79.7972 53.9969 80.0297 53.2601 80.2894C53.2481 80.2954 53.233 80.2954 53.2209 80.2984H53.2179ZM65.1266 78.7646C65.1266 78.7646 65.1055 78.7646 65.0964 78.7646C64.3566 78.674 63.5504 78.6347 62.702 78.6408C62.6174 78.6408 62.551 78.5743 62.548 78.4898C62.548 78.4053 62.6114 78.3418 62.6989 78.3358C63.5595 78.3267 64.3808 78.369 65.1326 78.4626C65.2142 78.4717 65.2745 78.5472 65.2655 78.6317C65.2564 78.7042 65.196 78.7585 65.1266 78.7646ZM57.901 79.1118C57.8225 79.1178 57.7531 79.0635 57.741 78.988C57.7259 78.9065 57.7833 78.828 57.8648 78.8129C58.6952 78.671 59.5044 78.5592 60.2713 78.4807C60.3619 78.4807 60.4283 78.5321 60.4374 78.6166C60.4464 78.7012 60.386 78.7736 60.3015 78.7827C59.5406 78.8612 58.7374 78.9699 57.9161 79.1118C57.9101 79.1118 57.9071 79.1118 57.901 79.1118ZM65.033 77.4451C64.9937 77.4451 64.9545 77.436 64.9243 77.4088C64.8609 77.3545 64.8548 77.2579 64.9062 77.1944C65.4195 76.5936 66.0053 76.0169 66.6454 75.4824C66.7088 75.4281 66.8054 75.4371 66.8598 75.5005C66.9141 75.5639 66.9051 75.6606 66.8416 75.7149C66.2136 76.2403 65.6399 76.8049 65.1387 77.3907C65.1115 77.4239 65.0753 77.439 65.036 77.442L65.033 77.4451ZM135.921 71.0076L135.761 71.0197C135.676 71.0257 135.604 70.9653 135.598 70.8808C135.592 70.7962 135.655 70.7238 135.737 70.7177L135.897 70.7056C136.657 70.6483 137.415 70.5818 138.146 70.5094C138.234 70.5033 138.303 70.5637 138.312 70.6453C138.321 70.7298 138.261 70.8023 138.176 70.8113C137.443 70.8838 136.682 70.9502 135.921 71.0076ZM133.345 71.1767C133.345 71.1767 133.345 71.1767 133.342 71.1767C132.551 71.222 131.736 71.2582 130.92 71.2914C130.836 71.2944 130.767 71.228 130.763 71.1465C130.76 71.0619 130.827 70.9925 130.908 70.9895C131.721 70.9593 132.536 70.92 133.324 70.8747C133.409 70.8687 133.478 70.9351 133.484 71.0166C133.49 71.0982 133.427 71.1706 133.345 71.1767ZM140.58 70.5486C140.498 70.5547 140.429 70.4973 140.417 70.4158C140.408 70.3342 140.465 70.2588 140.55 70.2467C141.356 70.1501 142.162 70.0414 142.944 69.9266C143.025 69.9145 143.104 69.9719 143.116 70.0534C143.128 70.135 143.071 70.2135 142.989 70.2255C142.204 70.3403 141.395 70.449 140.586 70.5486H140.58ZM128.508 71.3639C128.508 71.3639 128.502 71.3639 128.499 71.3639C127.693 71.382 126.883 71.3941 126.077 71.4001C125.993 71.4001 125.926 71.3337 125.926 71.2491C125.926 71.1646 125.996 71.0982 126.077 71.0982C126.883 71.0921 127.69 71.0801 128.496 71.0619C128.58 71.0619 128.65 71.1253 128.65 71.2099C128.65 71.2914 128.589 71.3578 128.511 71.3639H128.508ZM145.372 69.8421C145.296 69.8481 145.224 69.7938 145.212 69.7183C145.196 69.6368 145.251 69.5583 145.335 69.5432C146.136 69.4012 146.936 69.2503 147.709 69.0872C147.793 69.0721 147.872 69.1235 147.887 69.205C147.905 69.2865 147.851 69.368 147.769 69.3831C146.993 69.5432 146.19 69.6971 145.387 69.8391C145.381 69.8391 145.378 69.8391 145.372 69.8391V69.8421ZM123.668 71.4031C123.668 71.4031 123.659 71.4031 123.656 71.4031C122.846 71.4001 122.04 71.3911 121.234 71.376C121.15 71.376 121.083 71.3065 121.086 71.222C121.086 71.1374 121.159 71.071 121.24 71.074C122.043 71.0861 122.849 71.0952 123.659 71.1012C123.743 71.1012 123.81 71.1706 123.81 71.2522C123.81 71.3307 123.749 71.3971 123.671 71.4031H123.668ZM118.831 71.3246C118.831 71.3246 118.822 71.3246 118.816 71.3246C118.006 71.3035 117.2 71.2793 116.397 71.2522C116.312 71.2522 116.249 71.1797 116.252 71.0951C116.252 71.0106 116.327 70.9472 116.409 70.9502C117.212 70.9774 118.018 71.0015 118.825 71.0227C118.909 71.0227 118.976 71.0952 118.973 71.1767C118.973 71.2552 118.909 71.3186 118.834 71.3246H118.831ZM150.112 68.8547C150.04 68.8608 149.97 68.8124 149.952 68.74C149.934 68.6585 149.982 68.5769 150.064 68.5588C150.849 68.3686 151.637 68.1633 152.401 67.9489C152.482 67.9247 152.564 67.973 152.588 68.0546C152.612 68.1361 152.564 68.2176 152.482 68.2418C151.715 68.4562 150.924 68.6615 150.136 68.8547C150.127 68.8547 150.121 68.8577 150.112 68.8577V68.8547ZM113.999 71.1586C113.999 71.1586 113.987 71.1586 113.981 71.1586C113.172 71.1253 112.366 71.0891 111.563 71.0529C111.478 71.0499 111.415 70.9774 111.418 70.8959C111.421 70.8143 111.493 70.7479 111.575 70.7509C112.378 70.7872 113.184 70.8234 113.993 70.8566C114.078 70.8596 114.141 70.9291 114.138 71.0136C114.135 71.0921 114.075 71.1525 113.999 71.1586ZM68.7197 74.338C68.6654 74.3411 68.611 74.3169 68.5808 74.2656C68.5356 74.1931 68.5597 74.1025 68.6292 74.0572C69.2965 73.6436 70.0181 73.2541 70.773 72.9008C70.8485 72.8646 70.939 72.9008 70.9753 72.9732C71.0115 73.0487 70.9753 73.1393 70.9028 73.1756C70.16 73.5258 69.4474 73.9093 68.7922 74.3169C68.7711 74.329 68.7469 74.338 68.7228 74.338H68.7197ZM154.774 67.5473C154.705 67.5533 154.641 67.5111 154.62 67.4416C154.593 67.3631 154.638 67.2755 154.717 67.2514C155.487 67.0038 156.254 66.7381 157 66.4663C157.078 66.4361 157.166 66.4784 157.193 66.5569C157.223 66.6354 157.181 66.723 157.102 66.7502C156.353 67.0249 155.58 67.2906 154.807 67.5413C154.795 67.5443 154.783 67.5473 154.771 67.5473H154.774ZM109.165 70.9381C109.165 70.9381 109.153 70.9381 109.147 70.9381C108.335 70.8989 107.529 70.8566 106.729 70.8143C106.644 70.8113 106.581 70.7389 106.587 70.6543C106.59 70.5698 106.662 70.5094 106.747 70.5124C107.547 70.5547 108.353 70.5939 109.165 70.6362C109.25 70.6392 109.313 70.7117 109.31 70.7962C109.307 70.8717 109.247 70.9351 109.171 70.9381H109.165ZM104.331 70.6905C104.331 70.6905 104.319 70.6905 104.313 70.6905C103.501 70.6483 102.695 70.606 101.894 70.5667C101.81 70.5637 101.747 70.4913 101.75 70.4067C101.753 70.3222 101.828 70.2618 101.91 70.2618C102.71 70.301 103.516 70.3433 104.328 70.3856C104.413 70.3886 104.476 70.4611 104.47 70.5456C104.467 70.6211 104.407 70.6815 104.331 70.6875V70.6905ZM159.318 65.8715C159.255 65.8775 159.195 65.8413 159.167 65.7779C159.134 65.6994 159.171 65.6118 159.249 65.5786C159.995 65.2676 160.735 64.9355 161.453 64.5943C161.529 64.558 161.619 64.5912 161.656 64.6667C161.692 64.7422 161.659 64.8328 161.583 64.869C160.861 65.2102 160.116 65.5454 159.367 65.8594C159.352 65.8655 159.337 65.8685 159.318 65.8715ZM99.497 70.449C99.497 70.449 99.485 70.449 99.4789 70.449C98.6637 70.4128 97.8575 70.3765 97.0603 70.3463C96.9758 70.3433 96.9124 70.2739 96.9154 70.1893C96.9184 70.1048 96.9879 70.0414 97.0724 70.0444C97.8695 70.0746 98.6757 70.1108 99.491 70.1501C99.5755 70.1531 99.6389 70.2255 99.6359 70.3071C99.6329 70.3856 99.5725 70.446 99.497 70.452V70.449ZM73.0919 72.2727C73.0255 72.2788 72.9621 72.2395 72.9379 72.1731C72.9107 72.0946 72.95 72.007 73.0315 71.9799C73.7713 71.7172 74.5533 71.4786 75.3565 71.2703C75.438 71.2491 75.5196 71.2975 75.5407 71.379C75.5618 71.4605 75.5135 71.542 75.432 71.5632C74.6379 71.7715 73.8619 72.007 73.1312 72.2667C73.1191 72.2697 73.104 72.2727 73.0919 72.2758V72.2727ZM94.6599 70.2588C94.6599 70.2588 94.6478 70.2588 94.6448 70.2588C93.8265 70.2346 93.0203 70.2135 92.2262 70.1984C92.1416 70.1984 92.0752 70.1289 92.0782 70.0444C92.0782 69.9598 92.1477 69.8934 92.2322 69.8964C93.0294 69.9115 93.8356 69.9327 94.6538 69.9568C94.7384 69.9568 94.8018 70.0293 94.8018 70.1138C94.8018 70.1923 94.7384 70.2527 94.6629 70.2588H94.6599ZM89.8197 70.1742C89.8197 70.1742 89.8106 70.1742 89.8076 70.1742C88.9773 70.1742 88.162 70.1772 87.389 70.1923C87.3045 70.1923 87.235 70.1289 87.235 70.0444C87.235 69.9598 87.3015 69.8934 87.383 69.8904C88.159 69.8753 88.9742 69.8693 89.8076 69.8723C89.8922 69.8723 89.9586 69.9417 89.9586 70.0232C89.9586 70.1018 89.8982 70.1682 89.8197 70.1742ZM77.766 71.0408C77.6905 71.0468 77.6211 70.9955 77.606 70.917C77.5909 70.8355 77.6452 70.757 77.7268 70.7419L77.8506 70.7177C78.5722 70.5849 79.3361 70.4671 80.1272 70.3675C80.2088 70.3554 80.2842 70.4158 80.2963 70.4973C80.3054 70.5788 80.248 70.6573 80.1665 70.6664C79.3814 70.766 78.6205 70.8838 77.9049 71.0136L77.7841 71.0348C77.7841 71.0348 77.7721 71.0348 77.769 71.0348L77.766 71.0408ZM84.9795 70.2708C84.9795 70.2708 84.9765 70.2708 84.9735 70.2708C84.2246 70.3041 83.4939 70.3493 82.8055 70.4037L82.5639 70.4218C82.4794 70.4279 82.4069 70.3675 82.4009 70.2829C82.3948 70.1984 82.4552 70.1259 82.5398 70.1199L82.7813 70.1018C83.4758 70.0474 84.2065 70.0051 84.9584 69.9689C85.0429 69.9659 85.1124 70.0293 85.1154 70.1138C85.1184 70.1954 85.058 70.2648 84.9765 70.2708H84.9795ZM163.691 63.7941C163.633 63.7971 163.576 63.77 163.546 63.7156C163.506 63.6431 163.534 63.5495 163.606 63.5103C163.881 63.3623 164.153 63.2114 164.424 63.0604C164.497 63.0181 164.59 63.0453 164.63 63.1178C164.672 63.1902 164.645 63.2838 164.572 63.3231C164.298 63.4771 164.023 63.628 163.748 63.776C163.73 63.7851 163.709 63.7911 163.688 63.7941H163.691Z" fill="#00AAF0"/>
<path d="M163.196 64.3044L169.699 60.7052L165.717 58.6127L163.196 64.3044Z" fill="#0B7C96"/>
<path d="M169.875 62.0549L176.427 54.3644L166.028 60.3368L169.875 62.0549Z" fill="#00AAF0"/>
<path d="M176.43 54.3493L160.022 56.3149L163.736 58.187L176.43 54.3493Z" fill="#00AAF0"/>
<path d="M176.427 54.3644L166.025 60.3791L163.196 64.3044L163.706 58.1387L176.427 54.3644Z" fill="#00617F"/>
<path d="M120.772 55.8529C120.872 56.013 120.902 56.2062 120.857 56.3964C120.796 56.6471 120.609 56.8403 120.362 56.9128L117.967 57.6103C117.719 57.6827 117.46 57.6193 117.273 57.4412C117.085 57.263 117.01 57.0064 117.073 56.7558L117.665 54.3311C117.726 54.0805 117.913 53.8873 118.16 53.8148C118.408 53.7423 118.668 53.8058 118.855 53.9839L120.657 55.708C120.703 55.7503 120.742 55.7986 120.772 55.8499V55.8529ZM117.638 57.0034C117.638 57.0034 117.656 57.0275 117.662 57.0336C117.68 57.0517 117.735 57.0909 117.81 57.0698L120.204 56.3723C120.28 56.3512 120.304 56.2877 120.31 56.2636C120.316 56.2394 120.325 56.173 120.268 56.1187L118.465 54.3945C118.408 54.3402 118.345 54.3523 118.317 54.3583C118.293 54.3644 118.233 54.3915 118.212 54.467L117.62 56.8916C117.608 56.94 117.62 56.9792 117.638 57.0064V57.0034Z" fill="#FF7DBE"/>
<path d="M36.2728 125.409L37.1545 124.527C37.3537 124.328 37.3537 124.002 37.1545 123.803C36.9552 123.603 36.6291 123.603 36.4298 123.803L35.5481 124.684L34.6664 123.803C34.4671 123.603 34.141 123.603 33.9418 123.803C33.7425 124.002 33.7425 124.328 33.9418 124.527L34.8234 125.409L33.9448 126.288C33.7455 126.487 33.7455 126.813 33.9448 127.012C34.0444 127.112 34.1773 127.163 34.3071 127.163C34.4369 127.163 34.5698 127.112 34.6695 127.012L35.5481 126.134L36.4268 127.012C36.5264 127.112 36.6593 127.163 36.7891 127.163C36.9189 127.163 37.0518 127.112 37.1514 127.012C37.3507 126.813 37.3507 126.487 37.1514 126.288L36.2728 125.409Z" fill="#FFBC47"/>
<path d="M275.743 197.514L276.624 196.632C276.824 196.433 276.824 196.107 276.624 195.907C276.425 195.708 276.099 195.708 275.9 195.907L275.018 196.789L274.136 195.907C273.937 195.708 273.611 195.708 273.412 195.907C273.212 196.107 273.212 196.433 273.412 196.632L274.293 197.514L273.415 198.392C273.215 198.592 273.215 198.918 273.415 199.117C273.514 199.217 273.647 199.268 273.777 199.268C273.907 199.268 274.04 199.217 274.139 199.117L275.018 198.238L275.897 199.117C275.996 199.217 276.129 199.268 276.259 199.268C276.389 199.268 276.522 199.217 276.621 199.117C276.821 198.918 276.821 198.592 276.621 198.392L275.743 197.514Z" fill="#FFBC47"/>
<path d="M228.675 74.4528C227.564 74.4528 226.661 73.5499 226.661 72.4388C226.661 71.3276 227.564 70.4248 228.675 70.4248C229.787 70.4248 230.689 71.3276 230.689 72.4388C230.689 73.5499 229.787 74.4528 228.675 74.4528ZM228.675 71.0559C227.911 71.0559 227.292 71.6749 227.292 72.4388C227.292 73.2027 227.911 73.8217 228.675 73.8217C229.439 73.8217 230.058 73.2027 230.058 72.4388C230.058 71.6749 229.439 71.0559 228.675 71.0559Z" fill="#00AAF0"/>
<path d="M20.4811 192.562C19.37 192.562 18.4672 191.659 18.4672 190.548C18.4672 189.437 19.37 188.534 20.4811 188.534C21.5923 188.534 22.4951 189.437 22.4951 190.548C22.4951 191.659 21.5923 192.562 20.4811 192.562ZM20.4811 189.165C19.7172 189.165 19.0982 189.784 19.0982 190.548C19.0982 191.312 19.7172 191.931 20.4811 191.931C21.2451 191.931 21.864 191.312 21.864 190.548C21.864 189.784 21.2451 189.165 20.4811 189.165Z" fill="#00AAF0"/>
<path fill-rule="evenodd" clip-rule="evenodd" d="M202.747 56.1005L192.756 66.0919C192.56 66.2882 192.246 66.2882 192.049 66.0919L184.911 58.9539C184.715 58.7577 184.715 58.4436 184.911 58.2474L188.973 54.1862C189.066 54.0926 189.193 54.0413 189.326 54.0413H190.645C190.778 54.0413 190.905 53.9869 190.999 53.8963L195.769 49.1256C195.966 48.9293 196.28 48.9293 196.476 49.1256L202.747 55.397C202.944 55.5933 202.944 55.9073 202.747 56.1036V56.1005Z" fill="#A4D0FC"/>
<path fill-rule="evenodd" clip-rule="evenodd" d="M189.812 44.9769L198.798 53.9628L190.313 62.4444L179.987 52.1179L187.131 44.9769H189.812Z" fill="#BBDBFA"/>
<path fill-rule="evenodd" clip-rule="evenodd" d="M188.471 46.3175L187.131 44.9769H189.812L188.471 46.3175Z" fill="#A4D0FC"/>
<path fill-rule="evenodd" clip-rule="evenodd" d="M190.805 44.9225L199.791 53.9054L191.31 62.3901L180.983 52.0636L188.124 44.9225H190.805Z" fill="white"/>
<path fill-rule="evenodd" clip-rule="evenodd" d="M203.122 55.7261L193.13 65.7175C192.934 65.9138 192.62 65.9138 192.424 65.7175L186.3 59.594C186.104 59.3978 186.104 59.0838 186.3 58.8875L190.362 54.8263C190.455 54.7327 190.582 54.6814 190.715 54.6814H192.034C192.167 54.6814 192.294 54.627 192.388 54.5334L197.158 49.7627C197.355 49.5664 197.669 49.5664 197.865 49.7627L203.122 55.0196C203.318 55.2158 203.318 55.5299 203.122 55.7261Z" fill="#D2E5F7"/>
<path fill-rule="evenodd" clip-rule="evenodd" d="M189.465 46.2632L188.124 44.9225H190.805L189.465 46.2632Z" fill="#D2E5F7"/>
<path d="M188.356 45.869L181.934 52.2913L182.282 52.6393L188.704 46.217L188.356 45.869Z" fill="#A4D0FC"/>
<path d="M190.988 45.8681L183.272 53.5843L183.492 53.8042L191.208 46.088L190.988 45.8681Z" fill="#A4D0FC"/>
<path d="M191.613 46.488L183.897 54.2042L184.117 54.4241L191.833 46.7079L191.613 46.488Z" fill="#A4D0FC"/>
<path d="M190.86 48.4903L184.519 54.8315L184.739 55.0514L191.08 48.7102L190.86 48.4903Z" fill="#A4D0FC"/>
<path d="M191.482 49.1101L185.141 55.4513L185.361 55.6712L191.702 49.3301L191.482 49.1101Z" fill="#A4D0FC"/>
<path d="M190.054 51.7874L185.766 56.0746L185.986 56.2945L190.274 52.0073L190.054 51.7874Z" fill="#A4D0FC"/>
<path d="M190.674 52.4124L186.386 56.6996L186.606 56.9195L190.894 52.6323L190.674 52.4124Z" fill="#A4D0FC"/>
</svg>
