<svg width="343" height="275" viewBox="0 0 343 275" fill="none" xmlns="http://www.w3.org/2000/svg">
<path d="M86.8504 102.801C86.7818 102.801 86.7118 102.79 86.6432 102.768C85.6478 102.453 84.5639 101.895 83.4224 101.11C83.1103 100.896 83.0314 100.469 83.2461 100.156C83.4609 99.8439 83.8882 99.765 84.2004 99.979C85.2163 100.677 86.2042 101.189 87.0582 101.46C87.4198 101.575 87.6194 101.96 87.5048 102.321C87.4122 102.613 87.1419 102.8 86.8511 102.8L86.8504 102.801ZM90.0801 102.385C89.888 102.385 89.6973 102.305 89.5615 102.149C89.3131 101.863 89.344 101.429 89.6307 101.181C90.2221 100.668 90.7695 99.7643 91.2127 98.5665C91.3444 98.2112 91.7388 98.0301 92.0942 98.1618C92.4495 98.2935 92.6306 98.688 92.4989 99.0433C91.9679 100.477 91.3053 101.544 90.5287 102.217C90.3991 102.33 90.2392 102.385 90.0794 102.385L90.0801 102.385ZM81.1621 99.0515C80.9906 99.0515 80.8191 98.9877 80.686 98.8594C79.8374 98.0424 79.0444 97.1589 78.3275 96.2341C78.0957 95.9343 78.1498 95.5035 78.4496 95.2717C78.7494 95.0398 79.1802 95.094 79.4121 95.3938C80.0885 96.2664 80.8376 97.0999 81.6382 97.8716C81.9112 98.1343 81.9194 98.5686 81.656 98.8416C81.5215 98.9816 81.3418 99.0515 81.1621 99.0515ZM92.7068 96.1724C92.669 96.1724 92.6313 96.1696 92.5929 96.1628C92.219 96.1004 91.9666 95.7471 92.029 95.3732C92.206 94.3154 92.3171 93.1965 92.3603 92.0482C92.3747 91.6695 92.6937 91.3752 93.0717 91.3882C93.4504 91.4026 93.746 91.7209 93.7316 92.0996C93.6864 93.3063 93.5691 94.4835 93.3832 95.5989C93.3269 95.9343 93.0367 96.1717 92.7075 96.1717L92.7068 96.1724ZM76.9912 93.6314C76.747 93.6314 76.5103 93.5004 76.3868 93.2706C75.7852 92.1538 75.3304 91.039 75.0333 89.9572C74.9332 89.5916 75.1479 89.2143 75.5135 89.1141C75.8792 89.014 76.2565 89.2287 76.3566 89.5943C76.6255 90.5767 77.0426 91.594 77.5949 92.6196C77.7746 92.953 77.6498 93.3694 77.3164 93.5491C77.2128 93.6047 77.1016 93.6314 76.9919 93.6314H76.9912ZM92.9709 89.3309C92.6176 89.3309 92.3178 89.0599 92.2876 88.7012C92.1923 87.5432 92.0249 86.4353 91.791 85.4077C91.7066 85.0386 91.9378 84.6702 92.3075 84.5865C92.6766 84.5022 93.045 84.7333 93.1287 85.1031C93.3777 86.1938 93.5547 87.3669 93.6555 88.5893C93.6864 88.9666 93.4058 89.298 93.0278 89.3295C93.0086 89.3309 92.9894 89.3316 92.9709 89.3316V89.3309ZM75.3283 87.0699C75.3112 87.0699 75.2933 87.0699 75.2762 87.0678C74.8982 87.039 74.6149 86.7097 74.6437 86.3324C74.7219 85.2979 74.9778 84.3135 75.4058 83.4059C75.5026 83.2001 75.6116 82.993 75.7283 82.7899C75.9176 82.4613 76.3367 82.3488 76.6653 82.5381C76.9939 82.7275 77.1064 83.1466 76.9171 83.4752C76.819 83.6453 76.7278 83.8189 76.6468 83.9911C76.2908 84.7464 76.0774 85.5689 76.0116 86.436C75.9841 86.7961 75.6837 87.0705 75.3283 87.0705V87.0699ZM91.378 82.6925C91.12 82.6925 90.8724 82.5464 90.7565 82.2967C90.2509 81.2155 89.6451 80.3532 88.9557 79.7324C88.6738 79.4793 88.6511 79.045 88.9043 78.7638C89.1574 78.4818 89.5916 78.4592 89.8729 78.7123C90.7002 79.4566 91.415 80.4664 91.9988 81.7149C92.1593 82.0579 92.0112 82.4668 91.6682 82.6266C91.5742 82.6705 91.4754 82.6911 91.378 82.6911V82.6925ZM78.5429 81.2258C78.3474 81.2258 78.1533 81.1428 78.0174 80.9809C77.7739 80.6907 77.8116 80.2579 78.1018 80.0143C79.0087 79.2529 80.0686 78.5923 81.1676 78.1038C81.514 77.9502 81.9194 78.1059 82.0731 78.4523C82.2267 78.7988 82.071 79.2042 81.7246 79.3578C80.7415 79.7941 79.7942 80.3848 78.984 81.0653C78.8557 81.173 78.6986 81.2258 78.5429 81.2258ZM88.0941 79.0231C87.996 79.0231 87.8972 79.0018 87.8026 78.9579C87.1392 78.6458 86.3647 78.488 85.5003 78.488C85.2746 78.488 85.0407 78.499 84.8054 78.5209C84.4281 78.5559 84.094 78.2788 84.059 77.9015C84.0241 77.5242 84.3012 77.1901 84.6785 77.1551C84.9556 77.129 85.2328 77.116 85.501 77.116C86.5684 77.116 87.5398 77.3184 88.387 77.7162C88.73 77.8775 88.8768 78.2863 88.7156 78.6286C88.599 78.877 88.352 79.0231 88.0941 79.0231Z" fill="#B3DEE8"/>
<path d="M59.9599 121.233C59.9551 121.233 59.951 121.233 59.9462 121.233C58.756 121.21 57.5816 121.129 56.4565 120.992C56.0806 120.947 55.8124 120.605 55.8583 120.229C55.9043 119.853 56.2459 119.585 56.6218 119.631C57.7016 119.762 58.8287 119.839 59.9729 119.862C60.3516 119.87 60.6528 120.182 60.6452 120.561C60.6377 120.936 60.3324 121.233 59.9599 121.233ZM63.3885 121.143C63.0318 121.143 62.7307 120.867 62.7053 120.505C62.6785 120.127 62.9632 119.8 63.3412 119.773C64.4573 119.694 65.5844 119.566 66.6909 119.391C67.0655 119.332 67.4167 119.587 67.4757 119.961C67.5347 120.336 67.2795 120.687 66.905 120.746C65.7594 120.927 64.5932 121.06 63.4379 121.141C63.4215 121.143 63.405 121.143 63.3892 121.143H63.3885ZM53.1671 120.386C53.113 120.386 53.0574 120.379 53.0018 120.366C51.8137 120.073 50.6838 119.703 49.6445 119.269C49.2947 119.122 49.13 118.72 49.2762 118.371C49.4223 118.021 49.8243 117.857 50.1734 118.003C51.1482 118.41 52.2109 118.758 53.3304 119.034C53.6981 119.125 53.9224 119.496 53.8319 119.865C53.7544 120.178 53.4745 120.386 53.1665 120.386H53.1671ZM70.1587 120.071C69.8513 120.071 69.5722 119.863 69.4939 119.553C69.4013 119.185 69.6243 118.812 69.992 118.72C71.1136 118.438 72.194 118.107 73.2038 117.738C73.5599 117.608 73.9536 117.791 74.084 118.147C74.2143 118.503 74.0311 118.897 73.6751 119.027C72.6207 119.413 71.4943 119.758 70.3268 120.051C70.2705 120.066 70.2142 120.072 70.1587 120.072V120.071ZM46.8902 117.705C46.7578 117.705 46.6234 117.667 46.5054 117.587C45.4805 116.89 44.5709 116.094 43.8026 115.218C43.5529 114.934 43.581 114.5 43.8657 114.25C44.1504 114.001 44.5839 114.029 44.8336 114.314C45.5251 115.102 46.3469 115.821 47.2758 116.452C47.5893 116.665 47.6709 117.091 47.4583 117.405C47.3259 117.6 47.1098 117.705 46.8902 117.705ZM76.5748 117.681C76.3299 117.681 76.0933 117.549 75.9691 117.319C75.7901 116.985 75.9163 116.569 76.2504 116.39C77.3191 115.818 78.2267 115.203 78.9498 114.559C79.2331 114.307 79.6666 114.333 79.9184 114.615C80.1702 114.899 80.1448 115.332 79.8622 115.584C79.0595 116.299 78.0621 116.977 76.8986 117.6C76.7957 117.654 76.6846 117.681 76.5755 117.681H76.5748ZM81.3727 113C81.3014 113 81.2294 112.989 81.158 112.965C80.7979 112.846 80.6023 112.459 80.721 112.099C80.85 111.707 80.9152 111.288 80.9152 110.853C80.9152 110.322 80.8184 109.75 80.627 109.154C80.5111 108.793 80.71 108.407 81.0709 108.291C81.4317 108.175 81.8179 108.374 81.9339 108.735C82.1685 109.467 82.2872 110.179 82.2872 110.853C82.2872 111.434 82.1987 111.998 82.0237 112.528C81.9284 112.817 81.6602 112.999 81.372 112.999L81.3727 113ZM42.4326 112.6C42.1795 112.6 41.9353 112.459 41.8166 112.216C41.3035 111.17 40.898 110.038 40.612 108.85C40.5235 108.482 40.7499 108.111 41.1182 108.023C41.4866 107.934 41.8571 108.161 41.9456 108.529C42.2083 109.619 42.5787 110.655 43.048 111.611C43.2147 111.952 43.0747 112.363 42.7345 112.529C42.637 112.577 42.5341 112.6 42.4326 112.6ZM79.7112 106.595C79.4938 106.595 79.2804 106.493 79.1473 106.3C78.5732 105.473 77.8611 104.611 77.0303 103.739C76.769 103.465 76.7799 103.03 77.0544 102.769C77.3288 102.508 77.763 102.519 78.0244 102.793C78.9038 103.716 79.6611 104.633 80.2751 105.518C80.4912 105.83 80.4137 106.257 80.1029 106.473C79.9836 106.556 79.8471 106.596 79.7126 106.596L79.7112 106.595ZM40.8157 105.983C40.448 105.983 40.1434 105.691 40.1304 105.321C40.1229 105.112 40.1194 104.9 40.1194 104.692C40.1194 103.7 40.2031 102.715 40.3684 101.763C40.4329 101.389 40.7883 101.139 41.1615 101.204C41.5346 101.269 41.785 101.624 41.7199 101.997C41.5683 102.872 41.4907 103.779 41.4907 104.692C41.4907 104.884 41.4942 105.079 41.501 105.272C41.5147 105.651 41.2184 105.968 40.8397 105.982C40.8315 105.982 40.8233 105.982 40.815 105.982L40.8157 105.983ZM75.03 101.596C74.8722 101.596 74.713 101.542 74.5841 101.431C73.7458 100.712 72.8533 100.011 71.9306 99.3437C71.6233 99.1214 71.5547 98.6927 71.7763 98.386C71.9978 98.0794 72.4273 98.0101 72.7339 98.2317C73.6868 98.9204 74.6094 99.6462 75.4759 100.388C75.7633 100.635 75.7969 101.068 75.5506 101.356C75.4148 101.514 75.2227 101.595 75.0293 101.595L75.03 101.596ZM42.0121 99.2847C41.9209 99.2847 41.8289 99.2662 41.7398 99.2278C41.392 99.0775 41.2321 98.6735 41.383 98.3257C41.8776 97.1842 42.5094 96.1463 43.2606 95.2401C43.5028 94.9485 43.935 94.908 44.2265 95.1502C44.5181 95.3923 44.5585 95.8245 44.3164 96.1161C43.6475 96.9221 43.0843 97.8489 42.6418 98.8711C42.53 99.1297 42.2769 99.2847 42.0121 99.2847ZM69.4672 97.5827C69.3478 97.5827 69.2271 97.5519 69.1166 97.486C69.0014 97.4174 68.8868 97.3502 68.7743 97.285C67.8345 96.7417 66.8275 96.2135 65.7806 95.7155C65.4383 95.5529 65.2929 95.1433 65.4561 94.801C65.6187 94.4587 66.0283 94.3133 66.3706 94.4765C67.451 94.9903 68.491 95.5357 69.4617 96.0976C69.5797 96.1662 69.6991 96.2361 69.8198 96.3075C70.145 96.5016 70.252 96.9228 70.0578 97.248C69.9296 97.4634 69.7018 97.5827 69.4679 97.5827H69.4672ZM62.9214 94.4265C62.8397 94.4265 62.7567 94.4121 62.6758 94.3805C61.5905 93.9641 60.5156 93.606 59.4804 93.3158C59.1154 93.2136 58.9028 92.8349 59.005 92.47C59.1072 92.105 59.4859 91.8924 59.8508 91.9946C60.9265 92.2964 62.0426 92.6682 63.167 93.0997C63.5209 93.2356 63.6972 93.6321 63.5614 93.9861C63.4565 94.2591 63.1965 94.4265 62.9207 94.4265H62.9214ZM46.3579 94.115C46.1288 94.115 45.9051 94.0005 45.7748 93.7919C45.5745 93.4702 45.6726 93.0476 45.9943 92.8473C46.9993 92.2217 48.1223 91.7469 49.3331 91.4362C49.7001 91.3422 50.074 91.5631 50.168 91.9301C50.2619 92.2971 50.041 92.671 49.674 92.765C48.5998 93.0401 47.6057 93.4599 46.7201 94.0114C46.6076 94.0814 46.4821 94.115 46.3579 94.115ZM56.3173 92.6065C56.283 92.6065 56.2473 92.6038 56.2123 92.5983C55.1504 92.435 54.1241 92.3527 53.1617 92.3527C53.0773 92.3527 52.9929 92.3527 52.9092 92.3547C52.9058 92.3547 52.9023 92.3547 52.8989 92.3547C52.525 92.3547 52.2191 92.0543 52.2129 91.679C52.2074 91.3004 52.51 90.9882 52.8886 90.9827C52.9799 90.9814 53.0704 90.9807 53.1617 90.9807C54.1941 90.9807 55.2903 91.0685 56.4208 91.2427C56.7954 91.3004 57.052 91.6502 56.995 92.0248C56.9429 92.3637 56.6507 92.6065 56.3179 92.6065H56.3173Z" fill="#B3DEE8"/>
<path d="M68.7276 234.07C68.3496 234.07 68.0423 233.764 68.0416 233.385C68.0409 233.007 68.3475 232.699 68.7262 232.698C69.8396 232.696 70.9873 232.679 72.1377 232.647C72.5129 232.636 72.8319 232.935 72.8422 233.313C72.8525 233.692 72.5541 234.008 72.1754 234.018C71.0127 234.05 69.8533 234.068 68.7283 234.07H68.7269H68.7276ZM65.299 234.028C65.2928 234.028 65.2866 234.028 65.2804 234.028C64.117 233.997 62.957 233.948 61.8347 233.882C61.4567 233.86 61.1679 233.536 61.1898 233.157C61.2118 232.779 61.5376 232.491 61.9149 232.512C63.0235 232.577 64.1684 232.625 65.3175 232.656C65.6962 232.667 65.9953 232.981 65.985 233.36C65.9747 233.733 65.6701 234.028 65.2997 234.028L65.299 234.028ZM75.5835 233.882C75.2206 233.882 74.9181 233.598 74.8988 233.232C74.8789 232.853 75.1705 232.531 75.5485 232.511C76.6639 232.454 77.8109 232.382 78.9565 232.298C79.3345 232.27 79.6631 232.554 79.6912 232.932C79.7187 233.31 79.4354 233.639 79.0574 233.667C77.9015 233.752 76.7449 233.824 75.6191 233.882C75.6068 233.882 75.5951 233.883 75.5835 233.883V233.882ZM58.4589 233.623C58.4376 233.623 58.4156 233.623 58.3937 233.621C57.2316 233.512 56.0771 233.38 54.963 233.23C54.5878 233.18 54.3237 232.835 54.3744 232.459C54.4245 232.084 54.7702 231.821 55.1455 231.871C56.2417 232.018 57.3784 232.147 58.522 232.255C58.8993 232.291 59.1764 232.625 59.1407 233.002C59.1071 233.357 58.8087 233.623 58.4589 233.623ZM82.425 233.382C82.0751 233.382 81.776 233.115 81.7431 232.76C81.7081 232.382 81.9852 232.048 82.3625 232.013C83.4752 231.908 84.6188 231.791 85.7617 231.664C86.1383 231.621 86.4778 231.893 86.5197 232.269C86.5615 232.645 86.2906 232.985 85.9146 233.027C84.7635 233.156 83.611 233.274 82.4901 233.379C82.4682 233.381 82.4469 233.381 82.4256 233.381L82.425 233.382ZM87.5727 232.829C87.2647 232.829 86.9848 232.621 86.9073 232.308C86.816 231.941 87.0404 231.569 87.4081 231.477C88.5132 231.203 89.6231 230.928 90.7386 230.654C91.1063 230.563 91.4781 230.788 91.5686 231.156C91.6592 231.524 91.4342 231.895 91.0665 231.986C89.9524 232.26 88.8432 232.534 87.7387 232.809C87.6831 232.822 87.6276 232.829 87.5727 232.829ZM51.6716 232.707C51.6311 232.707 51.5906 232.704 51.5495 232.696C50.3963 232.489 49.2562 232.254 48.1606 232C47.7916 231.914 47.5617 231.546 47.6475 231.176C47.7332 230.807 48.1023 230.578 48.4707 230.663C49.5436 230.913 50.6611 231.142 51.7916 231.346C52.1648 231.413 52.4125 231.77 52.3452 232.142C52.2855 232.474 51.9967 232.707 51.6709 232.707H51.6716ZM94.2331 231.192C93.9237 231.192 93.6431 230.982 93.567 230.668C93.4778 230.3 93.7035 229.929 94.0719 229.84C95.2065 229.564 96.3288 229.293 97.4079 229.035C97.7763 228.946 98.1467 229.174 98.2345 229.542C98.323 229.911 98.0952 230.281 97.7269 230.369C96.6492 230.627 95.5282 230.897 94.3957 231.172C94.3415 231.185 94.2866 231.192 94.2331 231.192ZM45.0043 231.15C44.9405 231.15 44.8754 231.141 44.8109 231.122C43.6824 230.79 42.5738 230.425 41.516 230.038C41.16 229.908 40.9775 229.514 41.1079 229.158C41.2382 228.802 41.632 228.62 41.988 228.75C43.0177 229.127 44.0974 229.482 45.1978 229.805C45.5614 229.912 45.7692 230.293 45.6629 230.657C45.5751 230.956 45.3014 231.149 45.005 231.149L45.0043 231.15ZM100.904 229.597C100.592 229.597 100.311 229.384 100.236 229.068C100.15 228.699 100.378 228.33 100.747 228.243C101.871 227.979 102.996 227.718 104.091 227.466C104.46 227.381 104.828 227.611 104.913 227.98C104.998 228.35 104.768 228.718 104.399 228.803C103.306 229.054 102.184 229.315 101.062 229.579C101.009 229.591 100.956 229.597 100.904 229.597H100.904ZM38.582 228.786C38.4873 228.786 38.3906 228.766 38.2987 228.724C37.223 228.236 36.1776 227.707 35.1911 227.154C34.8605 226.969 34.7432 226.55 34.9291 226.219C35.115 225.889 35.5327 225.772 35.8634 225.957C36.8156 226.492 37.8253 227.002 38.866 227.475C39.2111 227.631 39.364 228.038 39.207 228.383C39.0924 228.636 38.8427 228.786 38.582 228.786ZM107.587 228.061C107.273 228.061 106.991 227.845 106.919 227.526C106.836 227.156 107.068 226.789 107.438 226.706C108.563 226.453 109.691 226.204 110.79 225.964C111.16 225.883 111.526 226.117 111.606 226.488C111.687 226.858 111.452 227.223 111.082 227.304C109.986 227.543 108.861 227.792 107.738 228.045C107.687 228.057 107.637 228.062 107.587 228.062L107.587 228.061ZM114.288 226.598C113.971 226.598 113.686 226.377 113.617 226.054C113.538 225.684 113.776 225.319 114.146 225.241C115.275 225.001 116.406 224.765 117.508 224.539C117.879 224.463 118.242 224.702 118.318 225.073C118.394 225.444 118.155 225.807 117.784 225.883C116.686 226.109 115.557 226.344 114.432 226.583C114.384 226.593 114.336 226.598 114.289 226.598H114.288ZM32.6248 225.426C32.4896 225.426 32.3524 225.387 32.2331 225.303C31.2631 224.627 30.3349 223.903 29.4754 223.152C29.19 222.903 29.1612 222.469 29.4102 222.184C29.6592 221.898 30.0928 221.869 30.3781 222.119C31.2006 222.837 32.0883 223.53 33.0179 224.178C33.3286 224.395 33.4048 224.822 33.188 225.133C33.0549 225.324 32.8416 225.426 32.6248 225.426ZM121.006 225.219C120.685 225.219 120.398 224.992 120.333 224.666C120.26 224.294 120.501 223.933 120.873 223.86C121.995 223.637 123.129 223.416 124.244 223.204C124.615 223.132 124.975 223.377 125.046 223.749C125.117 224.121 124.873 224.48 124.501 224.552C123.389 224.764 122.259 224.984 121.139 225.206C121.094 225.214 121.049 225.219 121.005 225.219H121.006ZM127.742 223.933C127.418 223.933 127.129 223.701 127.068 223.37C127 222.998 127.247 222.641 127.619 222.572C128.741 222.366 129.878 222.162 131 221.966C131.373 221.9 131.728 222.149 131.794 222.523C131.859 222.896 131.61 223.251 131.237 223.317C130.119 223.513 128.985 223.717 127.867 223.922C127.825 223.93 127.783 223.934 127.743 223.934L127.742 223.933ZM134.497 222.747C134.168 222.747 133.878 222.51 133.821 222.174C133.759 221.8 134.011 221.447 134.385 221.384C135.508 221.195 136.649 221.009 137.774 220.829C138.148 220.769 138.5 221.024 138.56 221.398C138.619 221.772 138.365 222.124 137.99 222.184C136.869 222.363 135.732 222.549 134.611 222.737C134.573 222.743 134.534 222.746 134.496 222.746L134.497 222.747ZM141.27 221.666C140.937 221.666 140.644 221.422 140.593 221.083C140.536 220.708 140.794 220.358 141.169 220.302C142.297 220.131 143.44 219.962 144.566 219.801C144.941 219.747 145.289 220.007 145.343 220.382C145.396 220.758 145.136 221.105 144.761 221.159C143.638 221.32 142.499 221.488 141.374 221.658C141.339 221.664 141.304 221.666 141.27 221.666ZM27.4866 220.919C27.2987 220.919 27.1114 220.843 26.9763 220.692C26.1874 219.815 25.4554 218.887 24.8003 217.933C24.5855 217.621 24.6644 217.194 24.9773 216.979C25.2901 216.764 25.7168 216.844 25.9315 217.156C26.553 218.061 27.2486 218.942 27.9977 219.775C28.2508 220.057 28.2275 220.491 27.9463 220.744C27.8152 220.862 27.6513 220.919 27.488 220.919H27.4866ZM148.059 220.692C147.721 220.692 147.427 220.442 147.38 220.098C147.329 219.722 147.593 219.377 147.968 219.326C149.097 219.173 150.242 219.023 151.374 218.879C151.749 218.831 152.093 219.097 152.141 219.473C152.189 219.849 151.923 220.193 151.547 220.24C150.419 220.384 149.277 220.533 148.153 220.686C148.122 220.69 148.09 220.692 148.06 220.692H148.059ZM154.863 219.827C154.52 219.827 154.224 219.57 154.183 219.222C154.138 218.846 154.406 218.504 154.783 218.459C155.915 218.325 157.064 218.193 158.195 218.067C158.572 218.025 158.911 218.297 158.952 218.673C158.994 219.05 158.723 219.389 158.346 219.431C157.218 219.556 156.073 219.687 154.945 219.822C154.917 219.825 154.89 219.827 154.863 219.827ZM161.68 219.071C161.333 219.071 161.034 218.808 160.998 218.455C160.959 218.078 161.233 217.741 161.61 217.702C162.742 217.585 163.892 217.472 165.028 217.365C165.406 217.329 165.74 217.605 165.776 217.983C165.812 218.36 165.535 218.695 165.158 218.73C164.025 218.838 162.878 218.951 161.751 219.067C161.727 219.07 161.703 219.071 161.679 219.071H161.68ZM168.508 218.423C168.156 218.423 167.856 218.153 167.825 217.797C167.792 217.419 168.071 217.087 168.449 217.054C169.583 216.955 170.734 216.86 171.872 216.77C172.25 216.739 172.58 217.022 172.61 217.4C172.64 217.777 172.358 218.108 171.98 218.138C170.846 218.228 169.698 218.323 168.568 218.421C168.548 218.423 168.528 218.424 168.508 218.424V218.423ZM175.345 217.882C174.988 217.882 174.687 217.606 174.662 217.245C174.635 216.867 174.919 216.539 175.297 216.511C176.429 216.43 177.581 216.352 178.724 216.279C179.101 216.253 179.428 216.542 179.452 216.92C179.476 217.298 179.189 217.624 178.811 217.649C177.673 217.721 176.523 217.799 175.395 217.88C175.379 217.881 175.362 217.882 175.346 217.882H175.345ZM182.19 217.445C181.828 217.445 181.527 217.163 181.505 216.797C181.484 216.419 181.774 216.095 182.152 216.074C183.288 216.01 184.441 215.949 185.582 215.893C185.959 215.877 186.282 216.166 186.3 216.545C186.319 216.923 186.027 217.245 185.649 217.264C184.512 217.319 183.362 217.38 182.229 217.443C182.216 217.444 182.203 217.445 182.19 217.445ZM189.04 217.109C188.675 217.109 188.371 216.821 188.356 216.452C188.34 216.074 188.634 215.754 189.012 215.738C190.145 215.691 191.3 215.647 192.444 215.607C192.82 215.595 193.14 215.89 193.153 216.269C193.166 216.648 192.87 216.965 192.491 216.978C191.35 217.018 190.199 217.062 189.069 217.109C189.06 217.109 189.05 217.109 189.04 217.109ZM226.76 216.891H226.757C225.772 216.886 224.752 216.871 223.727 216.846L223.314 216.836C222.935 216.827 222.635 216.513 222.644 216.134C222.653 215.755 222.969 215.454 223.346 215.464L223.76 215.474C224.776 215.499 225.787 215.514 226.763 215.519C227.141 215.521 227.447 215.829 227.445 216.208C227.443 216.586 227.137 216.891 226.759 216.891H226.76ZM195.895 216.872C195.525 216.872 195.22 216.577 195.21 216.205C195.199 215.827 195.498 215.511 195.876 215.501C197.008 215.469 198.162 215.442 199.309 215.418C199.314 215.418 199.319 215.418 199.323 215.418C199.696 215.418 200.001 215.715 200.009 216.089C200.017 216.468 199.716 216.781 199.337 216.79C198.193 216.814 197.041 216.841 195.913 216.873C195.907 216.873 195.9 216.873 195.894 216.873L195.895 216.872ZM230.187 216.865C229.814 216.865 229.509 216.567 229.501 216.193C229.493 215.814 229.794 215.501 230.172 215.493C231.327 215.47 232.473 215.43 233.576 215.376C233.954 215.357 234.277 215.649 234.295 216.028C234.314 216.406 234.022 216.728 233.643 216.747C232.527 216.801 231.369 216.841 230.2 216.865C230.195 216.865 230.19 216.865 230.185 216.865H230.187ZM219.901 216.765C219.897 216.765 219.893 216.765 219.889 216.765C218.745 216.745 217.592 216.728 216.464 216.715C216.085 216.711 215.781 216.4 215.786 216.021C215.79 215.645 216.097 215.343 216.472 215.343C216.475 215.343 216.478 215.343 216.48 215.343C217.612 215.356 218.767 215.373 219.914 215.393C220.292 215.4 220.594 215.712 220.587 216.091C220.581 216.465 220.275 216.764 219.902 216.764L219.901 216.765ZM202.753 216.729C202.378 216.729 202.072 216.429 202.067 216.053C202.061 215.674 202.365 215.363 202.743 215.357C203.881 215.342 205.036 215.329 206.177 215.32H206.183C206.559 215.32 206.866 215.624 206.869 216.001C206.872 216.38 206.567 216.69 206.188 216.692C205.051 216.701 203.898 216.713 202.763 216.729C202.76 216.729 202.756 216.729 202.753 216.729H202.753ZM213.042 216.686H213.039C212.072 216.681 211.094 216.678 210.131 216.678H209.613C209.235 216.678 208.927 216.371 208.927 215.993C208.927 215.614 209.234 215.307 209.613 215.306H210.131C211.097 215.306 212.078 215.309 213.047 215.313C213.426 215.316 213.732 215.624 213.729 216.003C213.727 216.38 213.421 216.685 213.043 216.685L213.042 216.686ZM237.029 216.525C236.675 216.525 236.375 216.253 236.346 215.895C236.315 215.518 236.595 215.187 236.973 215.155C238.122 215.061 239.26 214.946 240.356 214.815C240.733 214.769 241.073 215.039 241.119 215.415C241.164 215.791 240.895 216.133 240.519 216.178C239.406 216.311 238.251 216.428 237.086 216.523C237.066 216.524 237.048 216.525 237.029 216.525ZM243.828 215.706C243.497 215.706 243.206 215.466 243.151 215.13C243.091 214.756 243.345 214.403 243.719 214.343C244.847 214.16 245.969 213.951 247.054 213.723C247.424 213.645 247.789 213.882 247.866 214.253C247.944 214.624 247.707 214.988 247.336 215.065C246.23 215.298 245.087 215.51 243.938 215.697C243.901 215.703 243.864 215.706 243.827 215.706H243.828ZM23.621 215.283C23.37 215.283 23.1278 215.144 23.0078 214.905C22.4788 213.852 22.022 212.757 21.6502 211.651C21.5294 211.291 21.7229 210.902 22.0817 210.782C22.4404 210.662 22.8294 210.855 22.9501 211.214C23.3014 212.259 23.7329 213.293 24.2329 214.289C24.4031 214.627 24.2666 215.04 23.9277 215.209C23.8289 215.259 23.7239 215.283 23.6203 215.283H23.621ZM250.528 214.293C250.224 214.293 249.945 214.09 249.865 213.782C249.768 213.415 249.987 213.04 250.354 212.944C251.444 212.658 252.539 212.34 253.608 211.999C253.969 211.885 254.355 212.084 254.47 212.445C254.585 212.805 254.385 213.192 254.024 213.306C252.933 213.654 251.815 213.978 250.702 214.271C250.644 214.286 250.585 214.293 250.527 214.293H250.528ZM257.052 212.216C256.775 212.216 256.513 212.046 256.41 211.771C256.277 211.416 256.457 211.02 256.812 210.887C257.848 210.498 258.906 210.072 259.958 209.619C260.305 209.469 260.71 209.63 260.859 209.978C261.009 210.326 260.848 210.73 260.5 210.879C259.429 211.341 258.35 211.776 257.294 212.172C257.214 212.202 257.133 212.215 257.053 212.215L257.052 212.216ZM263.346 209.515C263.09 209.515 262.845 209.371 262.727 209.126C262.563 208.784 262.707 208.375 263.049 208.211C264.034 207.737 265.029 207.239 266.091 206.686C266.427 206.511 266.842 206.641 267.017 206.977C267.192 207.313 267.061 207.728 266.725 207.903C265.65 208.463 264.642 208.969 263.643 209.448C263.547 209.494 263.446 209.516 263.346 209.516L263.346 209.515ZM21.4485 208.793C21.1219 208.793 20.8324 208.558 20.7734 208.226C20.5162 206.765 20.4778 205.701 20.4778 205.197C20.4778 205.043 20.4819 204.956 20.4819 204.947L20.4833 204.923C20.4915 204.821 20.5004 204.719 20.51 204.617C20.5457 204.24 20.8798 203.963 21.2578 203.999C21.6351 204.035 21.9115 204.37 21.8759 204.747C21.8669 204.838 21.8594 204.929 21.8518 205.02C21.8512 205.042 21.8491 205.102 21.8491 205.197C21.8491 205.567 21.8759 206.579 22.1242 207.988C22.19 208.361 21.9403 208.716 21.5678 208.782C21.5274 208.789 21.4876 208.792 21.4478 208.792L21.4485 208.793ZM269.426 206.358C269.184 206.358 268.95 206.23 268.824 206.004C268.641 205.672 268.762 205.255 269.094 205.072C269.998 204.573 270.973 204.026 272.072 203.399C272.402 203.211 272.821 203.326 273.008 203.655C273.196 203.984 273.081 204.403 272.752 204.591C271.646 205.221 270.667 205.772 269.756 206.273C269.652 206.331 269.538 206.359 269.426 206.359V206.358ZM275.383 202.972C275.146 202.972 274.916 202.849 274.788 202.629C274.598 202.301 274.711 201.882 275.039 201.692L276.136 201.057C276.751 200.701 277.374 200.34 278.005 199.976C278.333 199.786 278.753 199.899 278.942 200.227C279.131 200.555 279.019 200.975 278.691 201.164C278.06 201.528 277.438 201.888 276.824 202.244L275.725 202.88C275.617 202.943 275.499 202.973 275.382 202.973L275.383 202.972ZM21.7633 201.991C21.7098 201.991 21.6556 201.984 21.6021 201.971C21.2338 201.882 21.0074 201.512 21.0966 201.143C21.3634 200.04 21.7126 198.911 22.1345 197.79C22.2682 197.435 22.6634 197.256 23.018 197.39C23.3727 197.523 23.5517 197.919 23.418 198.273C23.0153 199.342 22.6826 200.416 22.4295 201.465C22.3533 201.779 22.0727 201.99 21.7633 201.99V201.991ZM281.32 199.548C281.082 199.548 280.85 199.424 280.724 199.202C280.536 198.873 280.651 198.454 280.98 198.266C282.038 197.663 283.017 197.113 283.972 196.581C284.303 196.396 284.721 196.516 284.905 196.847C285.089 197.178 284.97 197.596 284.639 197.78C283.688 198.309 282.713 198.858 281.659 199.459C281.552 199.52 281.436 199.548 281.32 199.548ZM287.311 196.219C287.067 196.219 286.831 196.089 286.707 195.859C286.527 195.526 286.651 195.109 286.985 194.93C288.005 194.379 289.026 193.838 290.021 193.32C290.357 193.145 290.771 193.275 290.946 193.611C291.121 193.947 290.991 194.362 290.655 194.537C289.666 195.051 288.65 195.59 287.636 196.137C287.533 196.193 287.421 196.219 287.311 196.219ZM24.1534 195.579C24.0505 195.579 23.9455 195.555 23.8474 195.506C23.5085 195.336 23.3713 194.924 23.5408 194.585C24.0422 193.582 24.613 192.556 25.2366 191.538C25.4341 191.215 25.8567 191.113 26.1798 191.311C26.5029 191.509 26.6044 191.931 26.4069 192.254C25.8039 193.239 25.2523 194.23 24.768 195.199C24.648 195.439 24.4058 195.578 24.1541 195.578L24.1534 195.579ZM293.384 193.036C293.139 193.036 292.903 192.905 292.779 192.675C292.6 192.341 292.724 191.925 293.058 191.746C294.051 191.212 295.042 190.645 296.002 190.06C296.326 189.864 296.748 189.966 296.945 190.29C297.142 190.613 297.039 191.035 296.716 191.232C295.734 191.83 294.722 192.409 293.707 192.954C293.604 193.01 293.493 193.036 293.383 193.036L293.384 193.036ZM27.7178 189.725C27.5799 189.725 27.4407 189.683 27.3193 189.597C27.0112 189.377 26.9399 188.948 27.1601 188.64C27.8098 187.731 28.5177 186.802 29.2627 185.879C29.5007 185.584 29.9329 185.539 30.2272 185.777C30.5215 186.015 30.5682 186.447 30.3294 186.742C29.6009 187.644 28.9101 188.551 28.2755 189.438C28.1418 189.626 27.9305 189.726 27.7165 189.726L27.7178 189.725ZM299.241 189.472C299.023 189.472 298.808 189.368 298.675 189.173C298.461 188.861 298.54 188.434 298.853 188.22C299.784 187.583 300.708 186.912 301.599 186.228C301.9 185.997 302.33 186.053 302.561 186.354C302.791 186.654 302.735 187.085 302.435 187.316C301.524 188.015 300.58 188.7 299.628 189.352C299.51 189.433 299.375 189.472 299.241 189.472ZM304.679 185.295C304.486 185.295 304.294 185.214 304.158 185.056C303.911 184.769 303.943 184.336 304.231 184.089C305.087 183.351 305.931 182.584 306.739 181.806C307.012 181.544 307.446 181.552 307.709 181.824C307.971 182.097 307.963 182.532 307.691 182.794C306.866 183.589 306.003 184.375 305.126 185.129C304.996 185.24 304.837 185.295 304.679 185.295ZM32.0204 184.384C31.8578 184.384 31.6946 184.326 31.5635 184.21C31.2809 183.957 31.2569 183.524 31.5093 183.241C32.2537 182.408 33.0474 181.557 33.8692 180.711C34.1333 180.439 34.5675 180.433 34.8392 180.697C35.1108 180.961 35.117 181.396 34.8529 181.667C34.0441 182.499 33.2635 183.336 32.5322 184.155C32.3963 184.307 32.2091 184.384 32.0204 184.384V184.384ZM309.615 180.536C309.448 180.536 309.282 180.476 309.149 180.354C308.871 180.096 308.854 179.662 309.111 179.384C309.88 178.552 310.628 177.692 311.335 176.828C311.575 176.535 312.007 176.491 312.3 176.731C312.593 176.972 312.636 177.404 312.397 177.697C311.672 178.582 310.906 179.463 310.119 180.315C309.983 180.461 309.799 180.535 309.614 180.535L309.615 180.536ZM36.797 179.457C36.6166 179.457 36.4362 179.386 36.3017 179.246C36.0397 178.972 36.0486 178.538 36.3223 178.276C37.127 177.504 37.9783 176.714 38.8516 175.925C39.1329 175.672 39.5664 175.694 39.8202 175.975C40.0741 176.257 40.0514 176.69 39.7702 176.944C38.9072 177.723 38.0661 178.504 37.2711 179.266C37.138 179.393 36.9672 179.456 36.7964 179.456L36.797 179.457ZM313.953 175.227C313.815 175.227 313.675 175.185 313.554 175.098C313.246 174.877 313.176 174.448 313.397 174.14C314.06 173.218 314.693 172.271 315.278 171.328C315.478 171.006 315.901 170.907 316.223 171.107C316.544 171.307 316.643 171.73 316.444 172.052C315.842 173.021 315.192 173.993 314.511 174.94C314.377 175.127 314.167 175.226 313.953 175.226V175.227ZM41.8899 174.857C41.6964 174.857 41.5044 174.775 41.3685 174.617C41.1223 174.328 41.1559 173.896 41.4433 173.649C42.2878 172.926 43.1768 172.183 44.0858 171.438C44.3787 171.198 44.8109 171.241 45.051 171.534C45.2911 171.827 45.2479 172.259 44.9549 172.5C44.0535 173.237 43.1727 173.974 42.3351 174.691C42.2055 174.802 42.047 174.856 41.8892 174.856L41.8899 174.857ZM47.1968 170.506C46.9937 170.506 46.7934 170.417 46.6576 170.245C46.423 169.947 46.4738 169.516 46.7715 169.281C47.6434 168.594 48.5324 167.903 49.4901 167.171C49.7906 166.94 50.2214 166.998 50.4519 167.298C50.6824 167.599 50.6247 168.03 50.3236 168.26C49.3714 168.989 48.4872 169.675 47.6207 170.359C47.4952 170.458 47.345 170.506 47.1961 170.506H47.1968ZM317.565 169.4C317.457 169.4 317.348 169.375 317.247 169.321C316.911 169.145 316.782 168.731 316.959 168.395C317.489 167.386 317.977 166.361 318.411 165.349C318.56 165 318.963 164.839 319.312 164.988C319.66 165.137 319.821 165.541 319.672 165.889C319.224 166.935 318.72 167.992 318.173 169.034C318.05 169.268 317.812 169.401 317.565 169.401V169.4ZM52.7047 166.419C52.4804 166.419 52.2608 166.309 52.1291 166.107C51.9227 165.789 52.0125 165.364 52.3301 165.157C53.3214 164.512 54.3319 163.916 55.3348 163.383C55.6696 163.206 56.0846 163.333 56.2623 163.668C56.44 164.003 56.3124 164.418 55.9776 164.595C55.011 165.109 54.0355 165.684 53.0786 166.307C52.9633 166.382 52.833 166.418 52.7047 166.418V166.419ZM102.679 165.17C102.679 165.17 102.673 165.17 102.67 165.17C101.556 165.155 100.387 165.096 99.1949 164.994C98.8176 164.962 98.5377 164.629 98.57 164.252C98.6022 163.874 98.9342 163.594 99.3122 163.627C100.471 163.726 101.607 163.784 102.687 163.798C103.066 163.802 103.369 164.113 103.364 164.493C103.36 164.868 103.054 165.17 102.678 165.17H102.679ZM106.107 165.067C105.751 165.067 105.451 164.793 105.424 164.432C105.396 164.054 105.679 163.726 106.057 163.697C107.185 163.614 108.308 163.476 109.395 163.289C109.768 163.224 110.124 163.474 110.187 163.848C110.252 164.221 110.001 164.576 109.628 164.64C108.498 164.835 107.331 164.978 106.159 165.065C106.142 165.067 106.125 165.067 106.108 165.067H106.107ZM95.8486 164.601C95.8164 164.601 95.7834 164.599 95.7505 164.594C94.6893 164.442 93.5738 164.259 92.3397 164.034C91.9672 163.966 91.7203 163.608 91.7882 163.236C91.8561 162.863 92.2135 162.616 92.586 162.684C93.8023 162.906 94.9012 163.087 95.9446 163.236C96.3199 163.289 96.5806 163.637 96.5264 164.012C96.4777 164.355 96.1841 164.601 95.8479 164.601H95.8486ZM112.856 163.898C112.555 163.898 112.28 163.7 112.195 163.396C112.094 163.031 112.307 162.653 112.672 162.551C113.739 162.254 114.812 161.897 115.861 161.49C116.214 161.353 116.611 161.528 116.748 161.881C116.885 162.234 116.711 162.631 116.357 162.769C115.267 163.192 114.151 163.564 113.04 163.872C112.979 163.89 112.917 163.898 112.856 163.898V163.898ZM89.097 163.389C89.0517 163.389 89.0058 163.385 88.9591 163.376C88.2813 163.238 87.6049 163.098 86.9286 162.957C86.4847 162.865 86.0415 162.773 85.5977 162.682C85.2266 162.606 84.9878 162.243 85.064 161.872C85.1401 161.501 85.503 161.262 85.8742 161.338C86.318 161.43 86.7625 161.521 87.2064 161.613C87.8814 161.753 88.5564 161.893 89.2321 162.03C89.6033 162.106 89.8434 162.468 89.7672 162.839C89.7007 163.164 89.4153 163.389 89.0956 163.389L89.097 163.389ZM58.76 163.219C58.4897 163.219 58.2332 163.059 58.1248 162.793C57.9814 162.442 58.1495 162.041 58.5 161.898C59.5846 161.454 60.6966 161.067 61.8059 160.746C62.1701 160.641 62.5502 160.851 62.6551 161.215C62.7601 161.579 62.5508 161.959 62.1866 162.064C61.1247 162.371 60.0586 162.743 59.0193 163.168C58.9343 163.203 58.8464 163.219 58.76 163.219ZM320.256 163.097C320.185 163.097 320.113 163.086 320.042 163.063C319.681 162.945 319.485 162.557 319.603 162.197C319.959 161.111 320.258 160.021 320.492 158.957C320.574 158.587 320.94 158.354 321.309 158.434C321.679 158.516 321.914 158.882 321.832 159.251C321.589 160.36 321.277 161.495 320.907 162.625C320.812 162.913 320.544 163.097 320.255 163.097H320.256ZM82.3721 162.029C82.3303 162.029 82.2878 162.025 82.2445 162.017C81.0159 161.786 79.9183 161.598 78.8879 161.443C78.5134 161.386 78.2554 161.036 78.3124 160.662C78.3693 160.287 78.7185 160.029 79.093 160.086C80.1399 160.244 81.2533 160.435 82.4984 160.669C82.8709 160.739 83.1158 161.098 83.0458 161.47C82.984 161.799 82.6959 162.029 82.3721 162.029ZM119.243 161.426C118.991 161.426 118.749 161.287 118.629 161.046C118.459 160.707 118.597 160.295 118.936 160.126C119.081 160.053 119.227 159.98 119.372 159.905C120.229 159.464 121.07 158.987 121.873 158.489C122.195 158.289 122.618 158.387 122.818 158.71C123.018 159.031 122.919 159.455 122.597 159.654C121.763 160.172 120.89 160.667 120.001 161.125C119.85 161.202 119.699 161.279 119.549 161.354C119.45 161.403 119.345 161.426 119.243 161.426H119.243ZM65.3346 161.32C65.0074 161.32 64.7179 161.085 64.6596 160.752C64.5944 160.379 64.8441 160.023 65.2173 159.958C66.3458 159.76 67.5141 159.618 68.6899 159.535C69.0672 159.509 69.3958 159.793 69.4225 160.171C69.4493 160.549 69.1646 160.877 68.7866 160.904C67.6574 160.984 66.5358 161.12 65.454 161.309C65.4142 161.316 65.3744 161.32 65.3353 161.32H65.3346ZM75.5883 161.027C75.5663 161.027 75.5444 161.026 75.5224 161.023C74.3432 160.912 73.2408 160.846 72.1514 160.824C71.7727 160.817 71.4716 160.503 71.4798 160.125C71.4874 159.746 71.8002 159.447 72.1795 159.453C73.3032 159.476 74.4392 159.543 75.6521 159.658C76.0294 159.694 76.3058 160.029 76.2702 160.406C76.2366 160.761 75.9375 161.028 75.5883 161.028V161.027ZM125.048 157.814C124.842 157.814 124.638 157.722 124.503 157.545C124.272 157.245 124.329 156.814 124.63 156.584C125.512 155.907 126.369 155.179 127.179 154.419C127.455 154.16 127.89 154.174 128.149 154.45C128.408 154.727 128.395 155.161 128.118 155.419C127.276 156.21 126.382 156.968 125.465 157.672C125.34 157.768 125.194 157.814 125.048 157.814V157.814ZM321.708 156.407C321.685 156.407 321.662 156.406 321.639 156.404C321.261 156.366 320.987 156.03 321.024 155.653C321.107 154.819 321.15 153.991 321.15 153.188C321.15 152.898 321.144 152.607 321.133 152.322C321.119 151.944 321.414 151.625 321.792 151.61C322.17 151.596 322.489 151.891 322.504 152.269C322.516 152.571 322.522 152.881 322.522 153.188C322.522 154.036 322.477 154.911 322.389 155.789C322.353 156.143 322.056 156.407 321.707 156.407H321.708ZM130.019 153.15C129.858 153.15 129.698 153.094 129.568 152.98C129.282 152.73 129.253 152.297 129.502 152.012C130.227 151.183 130.929 150.3 131.587 149.387C131.809 149.08 132.237 149.011 132.545 149.232C132.852 149.454 132.921 149.883 132.7 150.19C132.017 151.137 131.288 152.054 130.535 152.916C130.4 153.071 130.21 153.15 130.019 153.15V153.15ZM321.416 149.58C321.097 149.58 320.811 149.356 320.744 149.031C320.518 147.931 320.196 146.871 319.784 145.881C319.639 145.531 319.805 145.129 320.155 144.984C320.505 144.839 320.906 145.005 321.051 145.354C321.496 146.425 321.844 147.57 322.088 148.756C322.164 149.127 321.925 149.49 321.554 149.565C321.507 149.575 321.461 149.58 321.415 149.58H321.416ZM134.021 147.616C133.901 147.616 133.78 147.584 133.67 147.518C133.345 147.324 133.238 146.903 133.432 146.578C133.995 145.636 134.537 144.642 135.044 143.62C135.213 143.281 135.624 143.143 135.963 143.311C136.303 143.48 136.441 143.891 136.273 144.23C135.75 145.283 135.191 146.31 134.61 147.281C134.482 147.496 134.254 147.616 134.021 147.616ZM318.786 143.305C318.569 143.305 318.355 143.202 318.222 143.01C317.601 142.118 316.897 141.317 316.072 140.561C315.793 140.306 315.774 139.872 316.029 139.592C316.285 139.312 316.719 139.293 316.999 139.549C317.887 140.362 318.677 141.262 319.348 142.226C319.565 142.536 319.488 142.964 319.177 143.181C319.058 143.264 318.921 143.303 318.786 143.303V143.305ZM137.072 141.492C136.985 141.492 136.896 141.475 136.81 141.44C136.46 141.295 136.294 140.894 136.439 140.544C136.857 139.532 137.26 138.466 137.636 137.378C137.759 137.02 138.149 136.83 138.508 136.953C138.866 137.077 139.056 137.468 138.933 137.826C138.548 138.94 138.136 140.031 137.706 141.068C137.597 141.332 137.341 141.492 137.072 141.492ZM313.803 138.687C313.679 138.687 313.553 138.653 313.44 138.582C312.561 138.033 311.598 137.518 310.496 137.008C310.152 136.849 310.003 136.441 310.162 136.097C310.321 135.753 310.728 135.604 311.073 135.763C312.227 136.297 313.24 136.839 314.167 137.418C314.488 137.619 314.587 138.042 314.386 138.363C314.256 138.572 314.032 138.686 313.804 138.686L313.803 138.687ZM307.618 135.757C307.538 135.757 307.456 135.742 307.376 135.712C306.469 135.37 305.45 135.007 304.166 134.571C303.807 134.449 303.615 134.059 303.737 133.701C303.86 133.342 304.249 133.15 304.608 133.272C305.907 133.713 306.94 134.081 307.862 134.429C308.216 134.562 308.395 134.958 308.261 135.313C308.157 135.587 307.896 135.757 307.619 135.757H307.618ZM139.318 135.019C139.255 135.019 139.191 135.01 139.127 134.991C138.763 134.886 138.553 134.505 138.658 134.142C138.963 133.087 139.255 131.982 139.528 130.855C139.617 130.487 139.987 130.26 140.356 130.35C140.724 130.439 140.95 130.809 140.861 131.178C140.584 132.324 140.286 133.449 139.977 134.523C139.89 134.823 139.616 135.019 139.318 135.019H139.318ZM301.133 133.52C301.061 133.52 300.988 133.508 300.916 133.484C299.956 133.163 298.817 132.779 297.66 132.371C297.302 132.245 297.115 131.853 297.24 131.496C297.367 131.139 297.758 130.951 298.116 131.077C299.264 131.483 300.396 131.864 301.351 132.183C301.71 132.303 301.904 132.692 301.784 133.05C301.688 133.338 301.421 133.519 301.134 133.519L301.133 133.52ZM294.671 131.221C294.588 131.221 294.503 131.206 294.422 131.173C293.292 130.732 292.247 130.297 291.227 129.843C290.88 129.69 290.725 129.284 290.879 128.938C291.033 128.591 291.438 128.436 291.785 128.59C292.785 129.035 293.812 129.463 294.921 129.895C295.274 130.033 295.449 130.431 295.311 130.784C295.205 131.055 294.946 131.221 294.671 131.221H294.671ZM288.412 128.425C288.307 128.425 288.2 128.4 288.099 128.349C287.059 127.813 286.038 127.248 285.064 126.666C284.739 126.472 284.632 126.05 284.827 125.725C285.021 125.4 285.442 125.294 285.767 125.488C286.716 126.055 287.712 126.607 288.726 127.128C289.063 127.302 289.196 127.715 289.023 128.052C288.901 128.289 288.661 128.425 288.412 128.425ZM140.937 128.354C140.892 128.354 140.846 128.349 140.8 128.34C140.429 128.265 140.189 127.903 140.264 127.532C140.483 126.456 140.692 125.327 140.888 124.179C140.952 123.806 141.306 123.554 141.68 123.618C142.053 123.682 142.305 124.036 142.241 124.41C142.042 125.572 141.83 126.714 141.609 127.805C141.543 128.13 141.257 128.355 140.937 128.355V128.354ZM282.534 124.908C282.399 124.908 282.263 124.868 282.144 124.786C281.195 124.128 280.258 123.429 279.36 122.709C279.064 122.472 279.017 122.04 279.254 121.744C279.491 121.449 279.923 121.401 280.219 121.639C281.093 122.339 282.003 123.019 282.926 123.658C283.237 123.874 283.315 124.302 283.098 124.613C282.965 124.805 282.751 124.908 282.534 124.908ZM142.097 121.589C142.064 121.589 142.031 121.587 141.998 121.583C141.623 121.528 141.363 121.181 141.417 120.806C141.573 119.724 141.724 118.584 141.868 117.417C141.914 117.041 142.256 116.774 142.632 116.82C143.008 116.866 143.275 117.208 143.229 117.584C143.085 118.76 142.932 119.909 142.775 121.001C142.726 121.342 142.433 121.589 142.097 121.589ZM277.193 120.626C277.027 120.626 276.86 120.565 276.728 120.444C275.887 119.669 275.056 118.848 274.257 118.006C273.997 117.731 274.008 117.296 274.283 117.036C274.558 116.775 274.993 116.787 275.253 117.062C276.031 117.882 276.84 118.681 277.658 119.435C277.937 119.692 277.954 120.126 277.698 120.405C277.562 120.551 277.378 120.626 277.193 120.626H277.193ZM272.483 115.654C272.284 115.654 272.087 115.568 271.952 115.402C271.193 114.474 270.495 113.528 269.876 112.592C269.667 112.276 269.754 111.851 270.07 111.642C270.386 111.433 270.812 111.52 271.021 111.836C271.614 112.734 272.285 113.641 273.014 114.535C273.254 114.828 273.21 115.26 272.917 115.5C272.789 115.604 272.636 115.655 272.483 115.655V115.654ZM142.937 114.775C142.913 114.775 142.888 114.774 142.864 114.771C142.488 114.731 142.215 114.394 142.254 114.017C142.369 112.93 142.479 111.815 142.592 110.609C142.627 110.231 142.961 109.954 143.338 109.989C143.716 110.024 143.993 110.358 143.958 110.735C143.845 111.948 143.734 113.069 143.619 114.161C143.582 114.513 143.284 114.775 142.938 114.775H142.937ZM268.729 109.94C268.478 109.94 268.237 109.802 268.116 109.562C267.602 108.545 267.146 107.496 266.719 106.354C266.586 105.999 266.766 105.604 267.121 105.471C267.475 105.338 267.871 105.518 268.004 105.873C268.413 106.967 268.85 107.972 269.341 108.944C269.512 109.282 269.376 109.694 269.038 109.865C268.938 109.915 268.833 109.939 268.729 109.939V109.94ZM143.576 107.938C143.557 107.938 143.538 107.937 143.518 107.935C143.141 107.904 142.86 107.572 142.892 107.194C142.977 106.169 143.068 105.049 143.169 103.768C143.198 103.39 143.529 103.11 143.906 103.138C144.284 103.168 144.566 103.498 144.537 103.875C144.436 105.158 144.345 106.281 144.259 107.309C144.229 107.667 143.929 107.938 143.576 107.938ZM266.29 103.547C265.994 103.547 265.72 103.353 265.632 103.054C265.388 102.226 265.162 101.411 264.924 100.546C264.85 100.281 264.776 100.014 264.701 99.7451C264.6 99.3801 264.813 99.0021 265.178 98.8999C265.543 98.7984 265.921 99.0118 266.023 99.3767C266.098 99.6463 266.172 99.9138 266.246 100.18C266.484 101.038 266.708 101.849 266.949 102.666C267.056 103.03 266.848 103.411 266.484 103.518C266.42 103.537 266.355 103.546 266.29 103.546V103.547ZM144.118 101.085C144.1 101.085 144.083 101.085 144.065 101.083C143.687 101.054 143.404 100.724 143.433 100.346C143.521 99.2038 143.608 98.0644 143.697 96.9277C143.727 96.5497 144.057 96.2678 144.435 96.2973C144.813 96.3268 145.094 96.6574 145.065 97.0347C144.976 98.1707 144.889 99.3095 144.801 100.451C144.773 100.811 144.473 101.085 144.118 101.085H144.118ZM264.396 96.9599C264.104 96.9599 263.835 96.7733 263.742 96.4804C263.383 95.3437 263.017 94.2996 262.625 93.2878C262.488 92.9345 262.663 92.5373 263.017 92.4001C263.37 92.2629 263.767 92.4385 263.904 92.7918C264.307 93.8311 264.682 94.9019 265.05 96.0668C265.165 96.4283 264.965 96.8131 264.603 96.9277C264.535 96.9496 264.465 96.9599 264.396 96.9599ZM144.66 94.2447C144.64 94.2447 144.621 94.2441 144.601 94.242C144.224 94.2104 143.943 93.8784 143.975 93.5011C144.079 92.267 144.178 91.1454 144.278 90.0739C144.313 89.6966 144.648 89.4201 145.025 89.4544C145.403 89.4894 145.68 89.8242 145.645 90.2015C145.545 91.2689 145.446 92.3857 145.343 93.6157C145.313 93.9738 145.013 94.2441 144.66 94.2441L144.66 94.2447ZM261.911 90.5774C261.654 90.5774 261.409 90.4326 261.291 90.185C260.819 89.1869 260.296 88.1764 259.739 87.181C259.554 86.8503 259.672 86.4326 260.002 86.2474C260.333 86.0621 260.751 86.1801 260.936 86.5108C261.509 87.5329 262.045 88.5715 262.532 89.5985C262.693 89.9408 262.547 90.3496 262.205 90.5122C262.11 90.5568 262.01 90.5781 261.912 90.5781L261.911 90.5774ZM145.303 87.4074C145.278 87.4074 145.254 87.406 145.229 87.4033C144.852 87.3628 144.579 87.0246 144.62 86.648C144.747 85.4598 144.88 84.308 145.017 83.2248C145.064 82.8489 145.407 82.5827 145.783 82.6301C146.159 82.6774 146.425 83.0204 146.378 83.3963C146.243 84.4713 146.11 85.6149 145.984 86.7948C145.946 87.1467 145.648 87.4081 145.302 87.4081L145.303 87.4074ZM258.568 84.5941C258.343 84.5941 258.123 84.483 257.991 84.2799C257.391 83.349 256.746 82.4078 256.074 81.4831C255.851 81.1764 255.918 80.7477 256.225 80.5247C256.532 80.3018 256.961 80.3697 257.183 80.6763C257.871 81.6217 258.531 82.5841 259.145 83.537C259.35 83.8553 259.258 84.2799 258.94 84.485C258.824 84.5591 258.696 84.5948 258.568 84.5948V84.5941ZM146.166 80.5954C146.132 80.5954 146.098 80.5927 146.064 80.5879C145.689 80.5316 145.431 80.1824 145.487 79.8079C145.662 78.6334 145.851 77.4864 146.047 76.4005C146.115 76.028 146.471 75.7804 146.844 75.8469C147.218 75.9141 147.465 76.2709 147.398 76.644C147.205 77.7169 147.018 78.8502 146.844 80.0116C146.794 80.3519 146.501 80.5961 146.167 80.5961L146.166 80.5954ZM254.54 79.045C254.339 79.045 254.142 78.9579 254.006 78.7905C253.306 77.9262 252.567 77.0543 251.806 76.2002C251.554 75.9176 251.579 75.4833 251.862 75.2316C252.145 74.9798 252.579 75.0052 252.831 75.2878C253.605 76.1577 254.36 77.046 255.073 77.9269C255.311 78.2211 255.265 78.6533 254.97 78.8914C254.844 78.9943 254.691 79.0444 254.54 79.0444V79.045ZM249.981 73.9193C249.802 73.9193 249.624 73.85 249.489 73.7114C248.711 72.9101 247.896 72.1062 247.068 71.3207C246.793 71.06 246.781 70.6258 247.042 70.3507C247.302 70.0756 247.737 70.0639 248.012 70.3246C248.853 71.1231 249.681 71.9408 250.473 72.7551C250.737 73.0268 250.731 73.461 250.459 73.7251C250.326 73.8548 250.153 73.9193 249.981 73.9193ZM147.392 73.8417C147.343 73.8417 147.294 73.8362 147.244 73.826C146.874 73.745 146.64 73.3794 146.721 73.0089C146.975 71.8496 147.248 70.717 147.535 69.6434C147.632 69.2771 148.009 69.0596 148.374 69.157C148.741 69.2544 148.958 69.6304 148.861 69.9967C148.58 71.0504 148.311 72.1624 148.062 73.3019C147.992 73.6229 147.708 73.8417 147.393 73.8417H147.392ZM245.005 69.1961C244.844 69.1961 244.682 69.1399 244.553 69.0253C243.711 68.2865 242.836 67.5456 241.953 66.8246C241.659 66.5852 241.615 66.153 241.855 65.8594C242.095 65.5658 242.527 65.5219 242.821 65.762C243.717 66.494 244.605 67.2452 245.458 67.995C245.743 68.2447 245.771 68.6782 245.521 68.9629C245.386 69.1172 245.196 69.1961 245.006 69.1961H245.005ZM149.169 67.2177C149.099 67.2177 149.027 67.2067 148.956 67.1834C148.596 67.0661 148.399 66.6785 148.517 66.3184C148.886 65.1885 149.285 64.0896 149.702 63.053C149.843 62.7018 150.243 62.5316 150.594 62.673C150.945 62.8143 151.116 63.2142 150.974 63.5654C150.569 64.5739 150.18 65.6433 149.821 66.7444C149.726 67.0339 149.458 67.2177 149.169 67.2177ZM239.69 64.8558C239.546 64.8558 239.4 64.8099 239.275 64.7159C238.38 64.0347 237.455 63.3555 236.528 62.6977C236.219 62.4781 236.147 62.0501 236.365 61.7414C236.585 61.432 237.013 61.36 237.322 61.5788C238.262 62.2456 239.198 62.9336 240.105 63.6238C240.407 63.8529 240.466 64.2837 240.237 64.5848C240.101 64.7625 239.897 64.8558 239.69 64.8558H239.69ZM234.1 60.8873C233.97 60.8873 233.838 60.8503 233.722 60.7727C232.783 60.1505 231.819 59.5325 230.853 58.9349C230.531 58.7353 230.432 58.3127 230.631 57.9903C230.831 57.6679 231.253 57.5684 231.576 57.7681C232.553 58.3731 233.529 58.9987 234.48 59.6285C234.795 59.8377 234.882 60.2637 234.672 60.5793C234.541 60.7782 234.323 60.8866 234.1 60.8866V60.8873ZM151.738 60.8702C151.635 60.8702 151.531 60.8468 151.433 60.7981C151.094 60.6294 150.956 60.2171 151.125 59.8782C151.655 58.8163 152.225 57.7914 152.822 56.833C153.023 56.5113 153.445 56.4132 153.767 56.6128C154.089 56.8132 154.187 57.2357 153.987 57.5575C153.414 58.4794 152.863 59.4659 152.353 60.4894C152.233 60.7302 151.99 60.8695 151.738 60.8695V60.8702ZM228.271 57.2776C228.154 57.2776 228.036 57.2481 227.928 57.1856C226.949 56.6197 225.946 56.0606 224.948 55.5235C224.615 55.3437 224.49 54.928 224.669 54.5946C224.849 54.2612 225.265 54.1357 225.598 54.3154C226.608 54.8594 227.623 55.4254 228.614 55.9975C228.942 56.1868 229.054 56.6067 228.865 56.9346C228.738 57.1548 228.507 57.2776 228.27 57.2776H228.271ZM155.36 55.0803C155.212 55.0803 155.063 55.0323 154.937 54.9342C154.639 54.7003 154.587 54.2695 154.821 53.9711C155.546 53.0456 156.324 52.1641 157.134 51.3519C157.402 51.0837 157.836 51.083 158.104 51.3505C158.373 51.6181 158.373 52.0523 158.106 52.3205C157.335 53.0943 156.593 53.934 155.9 54.8169C155.765 54.9898 155.564 55.0796 155.36 55.0796V55.0803ZM222.224 54.0232C222.121 54.0232 222.016 53.9999 221.918 53.9505C220.902 53.4428 219.866 52.9441 218.839 52.4687C218.495 52.3096 218.345 51.9021 218.504 51.5584C218.663 51.2147 219.071 51.0645 219.415 51.2236C220.455 51.7045 221.503 52.2094 222.532 52.7232C222.87 52.8927 223.008 53.3049 222.838 53.6438C222.718 53.8839 222.476 54.0232 222.224 54.0232H222.224ZM215.99 51.1386C215.9 51.1386 215.809 51.1207 215.721 51.0837C214.675 50.6385 213.613 50.2049 212.563 49.7954C212.21 49.6575 212.036 49.2603 212.173 48.907C212.31 48.5544 212.708 48.3795 213.061 48.5167C214.124 48.931 215.2 49.3694 216.259 49.8208C216.607 49.9696 216.77 50.3723 216.621 50.7208C216.51 50.9815 216.256 51.1379 215.99 51.1379V51.1386ZM160.173 50.2632C159.968 50.2632 159.766 50.1727 159.631 49.9984C159.398 49.6993 159.452 49.2685 159.751 49.036C160.662 48.3266 161.633 47.664 162.635 47.0671C162.961 46.8737 163.382 46.98 163.576 47.3059C163.769 47.6317 163.663 48.0522 163.337 48.2464C162.383 48.8144 161.46 49.4441 160.594 50.1185C160.468 50.2159 160.32 50.2632 160.173 50.2632ZM209.596 48.6477C209.52 48.6477 209.443 48.6353 209.368 48.6086C208.294 48.2292 207.206 47.865 206.135 47.5268C205.774 47.4129 205.574 47.0274 205.688 46.6658C205.803 46.3043 206.188 46.104 206.549 46.2186C207.634 46.5616 208.736 46.9306 209.825 47.3148C210.182 47.441 210.369 47.8327 210.243 48.1901C210.144 48.4721 209.879 48.6477 209.596 48.6477ZM166.022 46.7742C165.759 46.7742 165.508 46.6226 165.395 46.3674C165.24 46.0217 165.396 45.6156 165.742 45.4619C166.784 44.9982 167.884 44.5777 169.013 44.2127C169.373 44.0961 169.76 44.2937 169.877 44.6545C169.994 45.0146 169.796 45.4015 169.435 45.5182C168.352 45.8687 167.297 46.2714 166.3 46.7152C166.21 46.7557 166.115 46.7749 166.022 46.7749V46.7742ZM203.053 46.5815C202.992 46.5815 202.93 46.5732 202.869 46.5561C201.769 46.2501 200.66 45.9634 199.571 45.7041C199.203 45.6163 198.975 45.2458 199.063 44.8774C199.151 44.5091 199.521 44.2813 199.889 44.3691C200.995 44.6325 202.12 44.9234 203.236 45.2335C203.601 45.335 203.815 45.713 203.714 46.0779C203.63 46.3812 203.354 46.5801 203.053 46.5801L203.053 46.5815ZM196.378 44.992C196.335 44.992 196.29 44.9879 196.245 44.979C195.122 44.7574 193.995 44.5598 192.895 44.3911C192.52 44.3334 192.263 43.9836 192.321 43.609C192.378 43.2345 192.728 42.9779 193.103 43.0348C194.222 43.2063 195.369 43.4073 196.511 43.6323C196.883 43.7057 197.124 44.0666 197.051 44.4384C196.987 44.7656 196.7 44.992 196.379 44.992H196.378ZM172.533 44.6524C172.219 44.6524 171.936 44.435 171.864 44.1153C171.782 43.7455 172.014 43.3792 172.384 43.2962C173.489 43.0499 174.643 42.8428 175.814 42.6809C176.189 42.6287 176.536 42.8908 176.588 43.266C176.64 43.6413 176.378 43.9877 176.002 44.0398C174.868 44.1969 173.751 44.3972 172.683 44.6353C172.633 44.6463 172.583 44.6517 172.532 44.6517L172.533 44.6524ZM189.597 43.9568C189.573 43.9568 189.548 43.9555 189.523 43.9527C188.384 43.832 187.245 43.74 186.139 43.679C185.761 43.6584 185.47 43.3346 185.491 42.9566C185.512 42.5787 185.835 42.2878 186.213 42.3091C187.342 42.3708 188.505 42.4648 189.667 42.5883C190.044 42.628 190.317 42.9662 190.277 43.3429C190.24 43.6948 189.942 43.9568 189.596 43.9568H189.597ZM179.32 43.7016C178.962 43.7016 178.66 43.4231 178.636 43.0602C178.611 42.6822 178.897 42.3557 179.275 42.331C180.403 42.2569 181.57 42.2185 182.746 42.2158H182.748C183.126 42.2158 183.433 42.5217 183.434 42.9004C183.434 43.2791 183.128 43.5871 182.749 43.5878C181.602 43.5898 180.464 43.6275 179.365 43.6996C179.35 43.7003 179.335 43.7009 179.319 43.7009L179.32 43.7016Z" fill="#B3DEE8"/>
<path d="M280.446 192.718C280.446 192.718 274.123 201.102 267.798 212.606C262.096 222.979 257.76 236.957 256.802 248.628C254.116 248.501 251.166 248.381 247.977 248.268C229.089 247.598 201.82 247.178 171.5 247.178C137.03 247.178 106.505 247.721 87.753 248.557C87.1075 248.586 86.4757 248.615 85.8583 248.644C62.4472 219.627 15.3046 169.074 58.6886 148.277C58.6886 148.277 61.8668 147.309 66.6318 145.23C81.7128 138.647 112.704 120.936 109.256 87.5404C109.256 87.5404 108.082 81.3088 108.082 72.6377C108.082 52.3623 114.501 18.7538 157.354 20.2877C183.305 21.2179 207.204 34.4234 221.653 55.5604C235.826 76.292 258.487 101.8 276.942 87.2372C281.202 83.8744 286.835 82.6286 292.094 84.107C305.378 87.8381 320.468 107.154 280.446 192.718Z" fill="#EBFBFF"/>
<path opacity="0.1" d="M314.907 249.825C314.907 251.197 250.701 252.31 171.5 252.31C126.812 252.31 86.8976 251.956 60.5971 251.401C54.539 251.272 49.2047 251.134 44.6997 250.987C41.7328 250.89 39.126 250.789 36.9095 250.684C31.2075 250.417 28.093 250.128 28.093 249.825C28.093 249.441 33.1475 249.076 42.1691 248.751C45.8639 248.617 50.2227 248.491 55.1729 248.373C81.2196 247.748 123.619 247.341 171.499 247.341C213.616 247.341 251.492 247.656 277.728 248.157C300.829 248.598 314.906 249.184 314.906 249.826L314.907 249.825Z" fill="#052028"/>
<path d="M246.45 102.345L246.71 127.131C246.719 128.07 245.966 128.839 245.028 128.849L223.111 129.078C222.171 129.087 221.402 128.334 221.393 127.396L221.086 98.0479C221.077 97.1088 221.83 96.3397 222.768 96.3301L240.009 96.1497L240.125 96.2602L246.451 102.345H246.45Z" fill="white"/>
<path d="M246.45 102.345L241.572 102.396C240.808 102.404 240.182 101.791 240.174 101.027L240.124 96.2602L246.45 102.345Z" fill="#EAF2F4"/>
<path d="M243.318 119.358L224.75 119.552C224.584 119.554 224.451 119.69 224.453 119.855L224.456 120.167C224.458 120.332 224.594 120.465 224.759 120.463L243.327 120.269C243.493 120.267 243.626 120.131 243.624 119.966L243.621 119.654C243.619 119.489 243.483 119.356 243.318 119.358Z" fill="#8AD6ED"/>
<path d="M243.178 122.412L224.611 122.606C224.445 122.608 224.309 122.474 224.307 122.309L224.304 121.999C224.302 121.833 224.436 121.697 224.601 121.695L243.168 121.501C243.334 121.499 243.47 121.633 243.472 121.798L243.475 122.108C243.478 122.274 243.344 122.41 243.178 122.412Z" fill="#8AD6ED"/>
<path d="M227.926 109.697L225.932 109.717L225.982 114.562L227.977 114.542L227.926 109.697Z" fill="#8AD6ED"/>
<path d="M230.775 110.954L228.781 110.975L228.818 114.533L230.813 114.512L230.775 110.954Z" fill="#8AD6ED"/>
<path d="M233.637 108.706L231.642 108.727L231.703 114.503L233.697 114.482L233.637 108.706Z" fill="#8AD6ED"/>
<path d="M236.35 107.568L234.356 107.589L234.428 114.474L236.423 114.453L236.35 107.568Z" fill="#8AD6ED"/>
<path d="M239.069 108.65L237.074 108.671L237.135 114.446L239.13 114.425L239.069 108.65Z" fill="#8AD6ED"/>
<path d="M241.766 105.923L239.771 105.944L239.86 114.417L241.855 114.396L241.766 105.923Z" fill="#8AD6ED"/>
<path d="M266.04 170.33L248.216 184.053C247.541 184.573 246.572 184.447 246.052 183.772L233.917 168.01C233.397 167.335 233.523 166.366 234.198 165.847L255.304 149.597C255.979 149.077 256.948 149.204 257.467 149.879L267.014 162.278L266.997 162.422L266.041 170.33L266.04 170.33Z" fill="white"/>
<path d="M266.04 170.33L263.339 166.821C262.916 166.272 263.019 165.483 263.569 165.06L266.997 162.421L266.041 170.329L266.04 170.33Z" fill="#EAF2F4"/>
<path d="M262.754 168.844L252.646 155.714C252.507 155.533 252.54 155.274 252.721 155.135C252.903 154.996 253.162 155.029 253.301 155.21L263.409 168.34C263.549 168.521 263.515 168.78 263.334 168.919C263.153 169.059 262.893 169.025 262.754 168.844Z" fill="#8AD6ED"/>
<path d="M261.124 170.13L251.015 157.001C250.876 156.82 250.91 156.56 251.091 156.421C251.272 156.282 251.531 156.315 251.671 156.496L261.779 169.626C261.918 169.807 261.884 170.066 261.703 170.205C261.522 170.345 261.263 170.311 261.124 170.13Z" fill="#8AD6ED"/>
<path d="M259.494 171.416L249.385 158.287C249.246 158.106 249.28 157.846 249.461 157.707C249.642 157.568 249.901 157.602 250.041 157.783L260.149 170.912C260.288 171.093 260.254 171.352 260.073 171.492C259.892 171.631 259.633 171.597 259.494 171.416Z" fill="#8AD6ED"/>
<path d="M257.863 172.703L247.755 159.573C247.616 159.392 247.649 159.133 247.83 158.994C248.011 158.854 248.271 158.888 248.41 159.069L258.518 172.198C258.658 172.379 258.624 172.639 258.443 172.778C258.262 172.917 258.002 172.884 257.863 172.703Z" fill="#8AD6ED"/>
<path d="M256.143 173.884L246.034 160.755C245.895 160.573 245.929 160.314 246.11 160.175C246.291 160.036 246.55 160.069 246.69 160.25L256.798 173.38C256.937 173.561 256.903 173.82 256.722 173.959C256.541 174.099 256.282 174.065 256.143 173.884Z" fill="#8AD6ED"/>
<path d="M254.513 175.17L244.404 162.041C244.265 161.86 244.299 161.6 244.48 161.461C244.661 161.322 244.92 161.355 245.06 161.536L255.168 174.666C255.307 174.847 255.273 175.106 255.092 175.246C254.911 175.385 254.652 175.351 254.513 175.17Z" fill="#8AD6ED"/>
<path d="M252.883 176.457L242.775 163.328C242.635 163.147 242.669 162.887 242.85 162.748C243.031 162.609 243.29 162.642 243.43 162.823L253.538 175.953C253.677 176.134 253.644 176.393 253.462 176.533C253.281 176.672 253.022 176.638 252.883 176.457Z" fill="#8AD6ED"/>
<path d="M251.252 177.743L241.144 164.614C241.005 164.433 241.038 164.173 241.219 164.034C241.4 163.895 241.66 163.929 241.799 164.11L251.907 177.239C252.047 177.42 252.013 177.679 251.832 177.819C251.651 177.958 251.391 177.924 251.252 177.743Z" fill="#8AD6ED"/>
<path d="M249.622 178.805L239.513 165.676C239.374 165.495 239.408 165.235 239.589 165.096C239.77 164.957 240.029 164.991 240.168 165.172L250.277 178.301C250.416 178.482 250.382 178.741 250.201 178.881C250.02 179.02 249.761 178.986 249.622 178.805Z" fill="#8AD6ED"/>
<path d="M180.943 99.6688L164.72 124.844C164.106 125.798 162.834 126.098 161.879 125.515L139.593 111.9C138.639 111.316 138.363 110.07 138.977 109.116L158.187 79.3076C158.801 78.3541 160.073 78.0536 161.028 78.6367L178.56 89.3479L178.602 89.5325L180.943 99.6695V99.6688Z" fill="white"/>
<path d="M180.943 99.6689L175.984 96.6381C175.206 96.1634 174.982 95.1488 175.482 94.373L178.602 89.5319L180.943 99.6689Z" fill="#EAF2F4"/>
<path d="M168.724 111.055L150.004 99.6181C149.792 99.4884 149.73 99.2106 149.867 98.9979L149.968 98.8415C150.105 98.6288 150.389 98.5623 150.601 98.692L169.321 110.129C169.533 110.259 169.595 110.536 169.458 110.749L169.357 110.905C169.22 111.118 168.937 111.185 168.724 111.055Z" fill="#8AD6ED"/>
<path d="M167.254 113.396L148.534 101.959C148.321 101.829 148.26 101.551 148.397 101.339L148.498 101.182C148.635 100.969 148.918 100.903 149.131 101.033L167.851 112.47C168.063 112.599 168.125 112.877 167.988 113.09L167.887 113.246C167.75 113.459 167.466 113.525 167.254 113.396Z" fill="#8AD6ED"/>
<path d="M165.784 115.737L147.065 104.3C146.852 104.17 146.79 103.893 146.927 103.68L147.028 103.523C147.166 103.311 147.449 103.244 147.661 103.374L166.381 114.811C166.594 114.941 166.655 115.218 166.518 115.431L166.417 115.587C166.28 115.8 165.997 115.867 165.784 115.737Z" fill="#8AD6ED"/>
<path d="M164.213 117.803L145.494 106.366C145.281 106.237 145.219 105.959 145.357 105.746L145.458 105.59C145.595 105.377 145.878 105.31 146.091 105.44L164.81 116.877C165.023 117.007 165.085 117.285 164.947 117.497L164.847 117.654C164.709 117.866 164.426 117.933 164.213 117.803Z" fill="#8AD6ED"/>
<path d="M169.966 100.807C169.686 100.807 169.441 100.746 169.227 100.625C168.735 100.346 168.596 99.8554 168.462 99.3807C168.338 98.9403 168.221 98.5239 167.818 98.3222C167.269 98.0464 166.611 98.3675 165.915 98.7077C165.166 99.0741 164.391 99.4521 163.673 99.096C163.168 98.8463 163.014 98.3805 162.878 97.9703C162.742 97.5635 162.616 97.1786 162.178 96.9756C161.745 96.7746 161.357 96.9118 160.908 97.0703C160.422 97.2424 159.87 97.438 159.171 97.2232C158.578 97.0408 158.263 96.682 157.984 96.365C157.714 96.0577 157.501 95.8149 157.092 95.7593C156.512 95.6804 155.847 96.0289 155.116 96.7952C155.052 96.8617 154.946 96.8645 154.88 96.8007C154.813 96.7369 154.81 96.6312 154.874 96.5647C155.684 95.7168 156.445 95.3347 157.137 95.4287C157.67 95.5007 157.957 95.8279 158.235 96.1448C158.497 96.4419 158.767 96.7492 159.269 96.9036C159.863 97.086 160.337 96.918 160.797 96.7554C161.272 96.5873 161.762 96.4138 162.319 96.6724C162.888 96.9365 163.051 97.4297 163.195 97.8646C163.328 98.2639 163.442 98.6083 163.822 98.7962C164.393 99.0796 165.062 98.753 165.769 98.4073C166.508 98.0464 167.271 97.6733 167.969 98.0231C168.503 98.2913 168.652 98.8216 168.785 99.2895C168.906 99.7182 169.02 100.122 169.393 100.334C169.824 100.579 170.483 100.493 171.351 100.081C171.434 100.041 171.534 100.077 171.573 100.16C171.612 100.243 171.577 100.343 171.494 100.382C170.899 100.666 170.393 100.806 169.967 100.806L169.966 100.807Z" fill="#00AAF0"/>
<path d="M171.809 101.785L173.348 99.0364L170.199 99.0776L171.809 101.785Z" fill="#B3DEE8"/>
<path d="M155.471 173.786V165.46C155.471 163.662 154.218 162.205 152.673 162.205H123.445C121.9 162.205 120.647 163.662 120.647 165.46V249.1H212.733V183.165C212.733 179.863 210.433 177.186 207.595 177.186H158.393C156.779 177.186 155.471 175.663 155.471 173.785V173.786Z" fill="#00AAF0"/>
<path d="M172.319 200.621L173.101 242.838C173.131 244.437 171.858 245.758 170.259 245.788L132.928 246.479C131.329 246.509 130.009 245.236 129.979 243.637L129.054 193.65C129.024 192.051 130.297 190.731 131.896 190.701L161.263 190.157L161.461 190.344L172.321 200.621H172.319Z" fill="white"/>
<path opacity="0.1" d="M172.319 200.621L164.01 200.775C162.708 200.799 161.633 199.763 161.609 198.462L161.459 190.344L172.319 200.621Z" fill="black"/>
<path d="M167.176 231.204L135.683 231.788C135.364 231.794 135.1 231.54 135.095 231.221L135.087 230.824C135.081 230.505 135.335 230.241 135.654 230.236L167.147 229.653C167.466 229.647 167.73 229.9 167.735 230.219L167.743 230.617C167.749 230.936 167.495 231.199 167.176 231.204Z" fill="#8AD6ED"/>
<path d="M166.957 234.85L135.463 235.433C135.144 235.439 134.881 235.185 134.875 234.866L134.868 234.469C134.861 234.15 135.115 233.887 135.434 233.881L166.928 233.298C167.247 233.292 167.51 233.546 167.516 233.865L167.523 234.262C167.529 234.581 167.276 234.844 166.957 234.85Z" fill="#8AD6ED"/>
<path d="M140.862 213.407L137.464 213.47L137.616 221.722L141.014 221.659L140.862 213.407Z" fill="#8AD6ED"/>
<path d="M145.731 215.511L142.333 215.573L142.445 221.632L145.843 221.57L145.731 215.511Z" fill="#8AD6ED"/>
<path d="M150.575 211.641L147.177 211.704L147.359 221.542L150.757 221.479L150.575 211.641Z" fill="#8AD6ED"/>
<path d="M155.181 209.667L151.784 209.73L152.001 221.456L155.398 221.393L155.181 209.667Z" fill="#8AD6ED"/>
<path d="M159.827 211.47L156.43 211.533L156.612 221.371L160.009 221.308L159.827 211.47Z" fill="#8AD6ED"/>
<path d="M164.384 206.789L160.986 206.852L161.254 221.285L164.651 221.222L164.384 206.789Z" fill="#8AD6ED"/>
<path d="M183.327 155.421L184.502 202.488C184.547 204.271 183.138 205.753 181.355 205.797L139.736 206.837C137.953 206.881 136.471 205.472 136.428 203.689L135.035 147.961C134.99 146.178 136.399 144.696 138.182 144.652L170.922 143.834L171.144 144.041L183.327 155.422V155.421Z" fill="white"/>
<path d="M183.327 155.421L174.064 155.653C172.612 155.689 171.406 154.542 171.371 153.09L171.144 144.04L183.327 155.421Z" fill="#EAF2F4"/>
<path d="M141.754 158.285L176.998 157.405C177.317 157.397 177.582 157.649 177.59 157.968L177.604 158.544C177.612 158.863 177.36 159.128 177.041 159.136L141.797 160.016C141.478 160.023 141.213 159.771 141.205 159.453L141.191 158.876C141.183 158.558 141.435 158.293 141.754 158.285Z" fill="#8AD6ED"/>
<path d="M177.205 163.475L141.961 164.356C141.642 164.364 141.378 164.112 141.369 163.793L141.355 163.217C141.347 162.898 141.599 162.633 141.918 162.625L177.162 161.744C177.481 161.736 177.745 161.988 177.754 162.307L177.768 162.883C177.776 163.202 177.524 163.467 177.205 163.475Z" fill="#8AD6ED"/>
<path d="M142.075 166.971L177.319 166.091C177.638 166.083 177.903 166.335 177.911 166.654L177.925 167.23C177.933 167.549 177.681 167.814 177.362 167.822L142.118 168.702C141.799 168.71 141.534 168.458 141.526 168.139L141.512 167.563C141.504 167.244 141.756 166.979 142.075 166.971Z" fill="#8AD6ED"/>
<path d="M142.236 171.314L177.479 170.434C177.798 170.426 178.063 170.679 178.071 170.997L178.086 171.573C178.094 171.892 177.842 172.157 177.523 172.165L142.279 173.045C141.96 173.053 141.695 172.801 141.687 172.482L141.672 171.906C141.665 171.587 141.917 171.322 142.236 171.314Z" fill="#8AD6ED"/>
<path d="M177.398 176.527L142.154 177.408C141.835 177.416 141.57 177.163 141.562 176.845L141.547 176.269C141.539 175.95 141.791 175.685 142.11 175.677L177.354 174.796C177.673 174.788 177.937 175.04 177.946 175.359L177.96 175.935C177.968 176.254 177.716 176.519 177.398 176.527Z" fill="#8AD6ED"/>
<path d="M177.558 180.87L142.314 181.751C141.995 181.759 141.73 181.507 141.722 181.188L141.708 180.612C141.699 180.293 141.952 180.028 142.27 180.02L177.514 179.139C177.833 179.131 178.098 179.383 178.106 179.702L178.121 180.278C178.129 180.597 177.876 180.862 177.558 180.87Z" fill="#8AD6ED"/>
<path d="M142.427 184.367L177.671 183.487C177.99 183.479 178.255 183.731 178.263 184.05L178.278 184.626C178.286 184.945 178.033 185.21 177.715 185.218L142.471 186.098C142.152 186.106 141.887 185.854 141.879 185.535L141.864 184.959C141.856 184.64 142.109 184.375 142.427 184.367Z" fill="#8AD6ED"/>
<path d="M142.588 188.71L177.832 187.83C178.151 187.822 178.416 188.074 178.424 188.393L178.438 188.969C178.446 189.288 178.194 189.553 177.875 189.561L142.631 190.441C142.312 190.449 142.047 190.197 142.039 189.878L142.025 189.302C142.017 188.983 142.269 188.718 142.588 188.71Z" fill="#8AD6ED"/>
<path d="M177.66 193.623L142.416 194.504C142.097 194.512 141.832 194.26 141.824 193.942L141.809 193.365C141.801 193.046 142.053 192.782 142.372 192.773L177.616 191.893C177.935 191.884 178.199 192.137 178.208 192.455L178.222 193.031C178.23 193.35 177.978 193.615 177.66 193.623Z" fill="#8AD6ED"/>
<path d="M209.755 195.803L222.289 218.319C222.545 218.778 222.632 219.283 222.577 219.766C222.521 220.198 222.354 220.613 222.084 220.959C221.893 221.205 221.65 221.417 221.361 221.577L189.076 239.55C188.787 239.711 188.479 239.806 188.17 239.839C187.733 239.886 187.292 239.81 186.896 239.629C186.456 239.422 186.073 239.081 185.818 238.623L173.284 216.106C173.089 215.757 172.991 215.377 172.982 215.003C172.971 214.58 173.074 214.162 173.276 213.794C173.485 213.408 173.801 213.078 174.212 212.849L206.497 194.876C206.907 194.648 207.354 194.552 207.793 194.578C208.212 194.601 208.621 194.734 208.975 194.967C209.288 195.171 209.56 195.454 209.755 195.804V195.803Z" fill="#8AD6ED"/>
<path d="M208.975 194.965L200.985 217.084L200.552 218.283L200.374 218.775C200.182 219.309 199.803 219.733 199.334 219.993C198.865 220.255 198.306 220.353 197.751 220.235L197.239 220.127L195.992 219.863L172.982 215.002C172.971 214.579 173.074 214.16 173.276 213.792L196.525 218.705L197.772 218.969L198.008 219.02C198.513 219.125 199.031 218.837 199.207 218.353L199.288 218.126L199.721 216.927L207.793 194.578C208.212 194.6 208.622 194.733 208.975 194.966V194.965Z" fill="#8AD6ED"/>
<path d="M197.772 218.97L197.24 220.128L188.171 239.839C187.734 239.886 187.293 239.81 186.897 239.629L195.993 219.864L196.525 218.706L197.772 218.971V218.97Z" fill="#8AD6ED"/>
<path d="M222.577 219.766C222.521 220.198 222.354 220.613 222.084 220.959L200.552 218.284L199.287 218.126L199.72 216.927L200.985 217.085L222.577 219.766Z" fill="#8AD6ED"/>
<path d="M199.04 191.493L194.259 240.216C194.078 242.061 192.435 243.411 190.59 243.23L147.506 239.003C145.66 238.822 144.31 237.179 144.492 235.333L150.152 177.642C150.333 175.797 151.976 174.447 153.821 174.628L187.714 177.953L187.916 178.195L199.04 191.492V191.493Z" fill="white"/>
<path d="M199.039 191.493L189.451 190.552C187.948 190.405 186.85 189.067 186.997 187.565L187.916 178.195L199.039 191.493Z" fill="#EAF2F4"/>
<path d="M186.625 199.945C185.899 207.35 179.307 212.765 171.901 212.038L171.869 212.035C164.48 211.293 159.082 204.709 159.807 197.314C160.065 194.688 161.06 192.313 162.567 190.373C165.311 186.841 169.751 184.752 174.531 185.221C181.936 185.948 187.351 192.54 186.624 199.946L186.625 199.945Z" fill="#00AAF0"/>
<path d="M186.625 199.945C185.898 207.35 179.307 212.765 171.901 212.038L174.531 185.221C181.937 185.948 187.351 192.54 186.625 199.946V199.945Z" fill="#8AD6ED"/>
<path d="M173.188 198.595L171.869 212.035C164.48 211.293 159.082 204.709 159.807 197.314C160.065 194.688 161.06 192.313 162.567 190.373L173.187 198.595H173.188Z" fill="#8AD6ED"/>
<path d="M177.494 218.468L158.166 216.573C158.091 216.565 158.024 216.62 158.017 216.696L157.962 217.249C157.955 217.324 158.01 217.391 158.085 217.399L177.413 219.294C177.489 219.301 177.556 219.246 177.563 219.171L177.618 218.618C177.625 218.542 177.57 218.475 177.494 218.468Z" fill="#8AD6ED"/>
<path d="M187.869 222.342L157.873 219.399C157.8 219.392 157.746 219.326 157.753 219.253L157.806 218.715C157.813 218.642 157.879 218.588 157.952 218.595L187.948 221.538C188.021 221.545 188.074 221.611 188.068 221.684L188.015 222.222C188.008 222.295 187.942 222.348 187.869 222.342Z" fill="#8AD6ED"/>
<path d="M169.776 221.951L157.777 220.775C157.69 220.766 157.611 220.83 157.603 220.918L157.54 221.561C157.531 221.649 157.595 221.727 157.683 221.736L169.682 222.912C169.77 222.921 169.848 222.857 169.857 222.769L169.92 222.126C169.928 222.038 169.864 221.96 169.776 221.951Z" fill="#8AD6ED"/>
<path d="M184.89 225.469L157.549 222.788C157.478 222.781 157.415 222.833 157.408 222.904L157.357 223.422C157.35 223.493 157.402 223.556 157.473 223.563L184.814 226.244C184.885 226.251 184.948 226.199 184.955 226.128L185.006 225.61C185.013 225.539 184.961 225.476 184.89 225.469Z" fill="#8AD6ED"/>
<path d="M171.648 226.376L157.346 224.974C157.268 224.966 157.2 225.023 157.192 225.1L157.136 225.668C157.129 225.745 157.185 225.814 157.263 225.821L171.564 227.224C171.642 227.231 171.711 227.175 171.718 227.097L171.774 226.53C171.781 226.453 171.725 226.384 171.648 226.376Z" fill="#8AD6ED"/>
<path d="M189.906 230.201L157.138 226.988C157.067 226.981 157.004 227.033 156.997 227.104L156.946 227.622C156.939 227.693 156.991 227.756 157.062 227.763L189.83 230.976C189.901 230.983 189.964 230.931 189.971 230.86L190.022 230.342C190.029 230.271 189.977 230.208 189.906 230.201Z" fill="#8AD6ED"/>
<path d="M152.468 217.946C152.995 217.946 153.421 217.52 153.421 216.994C153.421 216.467 152.995 216.041 152.468 216.041C151.942 216.041 151.516 216.467 151.516 216.994C151.516 217.52 151.942 217.946 152.468 217.946Z" fill="#00AAF0"/>
<path opacity="0.2" d="M120.617 249.1H212.702L225.634 191.893C226.287 189.003 224.414 186.176 221.846 186.176H137.86C136.08 186.176 134.525 187.572 134.072 189.574L120.617 249.1Z" fill="#00AAF0"/>
<path d="M152.387 222.088C152.88 221.905 153.132 221.356 152.949 220.863C152.766 220.369 152.217 220.118 151.724 220.301C151.231 220.484 150.979 221.032 151.162 221.526C151.345 222.019 151.893 222.271 152.387 222.088Z" fill="#8AD6ED"/>
<path d="M151.974 226.288C152.468 226.105 152.719 225.556 152.536 225.063C152.353 224.57 151.805 224.318 151.312 224.501C150.818 224.684 150.566 225.232 150.749 225.726C150.933 226.219 151.481 226.471 151.974 226.288Z" fill="#8AD6ED"/>
<path d="M282.803 242.024L283.889 245.093L285.306 249.1H287.45L287.248 245.093L287.093 242.024H282.803Z" fill="#8AD6ED"/>
<path d="M258.494 249.1H260.639L261.754 245.945L263.141 242.024H258.851L258.653 245.945L258.494 249.1Z" fill="#8AD6ED"/>
<path opacity="0.1" d="M287.093 242.024H282.803L283.889 245.093H287.248L287.093 242.024Z" fill="black"/>
<path opacity="0.1" d="M258.851 241.172L258.654 245.093H261.754L263.141 241.172H258.851Z" fill="black"/>
<path d="M249.253 249.1H251.398L252.665 245.519L253.901 242.024H249.611L249.434 245.519L249.253 249.1Z" fill="#8AD6ED"/>
<path d="M272.967 242.024L274.053 245.093L275.469 249.1H277.614L277.412 245.093L277.257 242.024H272.967Z" fill="#8AD6ED"/>
<path opacity="0.1" d="M277.257 242.024H272.967L274.053 245.093H277.412L277.257 242.024Z" fill="black"/>
<path opacity="0.1" d="M249.434 245.093H252.665L253.901 241.597H249.611L249.434 245.093Z" fill="black"/>
<path d="M280.413 200.977H246.456V243.681H280.413V200.977Z" fill="white"/>
<path d="M280.412 243.68H288.679V200.977H280.412V243.68Z" fill="#8AD6ED"/>
<path d="M280.413 202.761H245.838C245.346 202.761 244.947 202.362 244.947 201.869C244.947 201.377 245.346 200.977 245.838 200.977H280.413V202.761Z" fill="#8AD6ED"/>
<path d="M280.413 202.761H289.331C289.823 202.761 290.223 202.362 290.223 201.869C290.223 201.377 289.823 200.977 289.331 200.977H280.413V202.761Z" fill="#8AD6ED"/>
<path opacity="0.15" d="M275.919 225.571H250.949V239.908H275.919V225.571Z" fill="black"/>
<path d="M275.576 239.565V225.913H251.291V239.565H275.576Z" fill="#8AD6ED"/>
<path d="M275.919 206.534H250.949V220.871H275.919V206.534Z" fill="#CAD8DB"/>
<path d="M252.801 203.378L254.585 213.257H272.009V204.819L259.661 204.956L259.387 203.378H252.801Z" fill="#00AAF0"/>
<path d="M251.635 204.407L253.419 214.286H270.843V205.848L258.495 205.985L258.221 204.407H251.635Z" fill="white"/>
<path d="M266.081 229.241H260.788C260.393 229.241 260.073 229.561 260.073 229.955V230.858C260.073 231.253 260.393 231.573 260.788 231.573H266.081C266.476 231.573 266.796 231.253 266.796 230.858V229.955C266.796 229.561 266.476 229.241 266.081 229.241Z" fill="#E3E9F7"/>
<path d="M262.302 222.311H275.919V210.238H262.302V222.311Z" fill="#8AD6ED"/>
<path d="M263.434 207.975H238.464V222.312H263.434V207.975Z" fill="#8AD6ED"/>
<path d="M253.596 211.267H248.303C247.908 211.267 247.588 211.587 247.588 211.982V212.885C247.588 213.28 247.908 213.6 248.303 213.6H253.596C253.991 213.6 254.311 213.28 254.311 212.885V211.982C254.311 211.587 253.991 211.267 253.596 211.267Z" fill="#E3E9F7"/>
<path d="M79.4944 175.036L80.8472 174.551L83.6468 173.546L84.2635 173.325C82.7248 164.961 81.2307 163.261 80.5481 162.946C80.3018 162.833 80.1612 162.9 80.1612 162.9L79.7654 170.116L79.4951 175.036H79.4944Z" fill="white"/>
<path opacity="0.15" d="M77.6347 170.685L80.2957 177.826L80.8472 174.717L80.7293 170.232L80.5475 163.35C80.3012 163.239 80.1606 163.304 80.1606 163.304L79.7647 170.374L77.6347 170.686V170.685Z" fill="black"/>
<path d="M105.007 179.953L92.193 207.931C91.7073 208.99 90.4546 209.456 89.3948 208.971L64.6555 197.639C63.5957 197.154 63.1299 195.901 63.6156 194.841L78.7885 161.715C79.2742 160.655 80.5268 160.189 81.5867 160.675L101.048 169.589L101.119 169.774L105.007 179.953H105.007Z" fill="white"/>
<path d="M105.007 179.954L99.5016 177.432C98.6386 177.037 98.2599 176.017 98.6551 175.154L101.119 169.775L105.007 179.954V179.954Z" fill="#EAF2F4"/>
<path d="M100.083 180.251L79.4751 170.813C79.1911 170.682 79.0663 170.347 79.1966 170.063C79.3269 169.779 79.6624 169.654 79.9464 169.784L100.554 179.223C100.838 179.353 100.963 179.689 100.832 179.973C100.702 180.257 100.367 180.382 100.083 180.251Z" fill="#8AD6ED"/>
<path d="M98.9301 182.848L78.3227 173.409C78.0387 173.279 77.9138 172.943 78.0441 172.659C78.1745 172.375 78.5099 172.25 78.7939 172.381L99.4014 181.819C99.6854 181.95 99.8102 182.285 99.6799 182.569C99.5496 182.853 99.2141 182.978 98.9301 182.848Z" fill="#8AD6ED"/>
<path d="M97.7783 185.445L77.1709 176.006C76.8869 175.876 76.762 175.54 76.8924 175.256C77.0227 174.972 77.3582 174.848 77.6422 174.978L98.2496 184.417C98.5336 184.547 98.6585 184.882 98.5281 185.166C98.3978 185.45 98.0623 185.575 97.7783 185.445Z" fill="#8AD6ED"/>
<path d="M96.6265 188.041L76.019 178.603C75.735 178.472 75.6102 178.137 75.7405 177.853C75.8708 177.569 76.2063 177.444 76.4903 177.574L97.0977 187.013C97.3817 187.143 97.5066 187.479 97.3763 187.763C97.2459 188.047 96.9105 188.172 96.6265 188.041Z" fill="#8AD6ED"/>
<path d="M95.2978 190.568L74.6903 181.129C74.4063 180.999 74.2815 180.663 74.4118 180.379C74.5421 180.095 74.8776 179.971 75.1616 180.101L95.769 189.54C96.053 189.67 96.1779 190.005 96.0475 190.289C95.9172 190.573 95.5818 190.698 95.2978 190.568Z" fill="#8AD6ED"/>
<path d="M94.1459 193.164L73.5384 183.726C73.2544 183.595 73.1296 183.26 73.2599 182.976C73.3903 182.692 73.7257 182.567 74.0097 182.697L94.6172 192.136C94.9012 192.267 95.026 192.602 94.8957 192.886C94.7653 193.17 94.4299 193.295 94.1459 193.164Z" fill="#8AD6ED"/>
<path d="M92.9941 195.761L72.3867 186.322C72.1027 186.192 71.9778 185.857 72.1081 185.573C72.2385 185.289 72.5739 185.164 72.8579 185.294L93.4654 194.733C93.7494 194.863 93.8742 195.199 93.7439 195.483C93.6136 195.767 93.2781 195.891 92.9941 195.761Z" fill="#8AD6ED"/>
<path d="M91.8417 198.358L71.2342 188.92C70.9502 188.789 70.8254 188.454 70.9557 188.17C71.086 187.886 71.4215 187.761 71.7055 187.891L92.3129 197.33C92.5969 197.46 92.7218 197.796 92.5914 198.08C92.4611 198.364 92.1257 198.489 91.8417 198.358Z" fill="#8AD6ED"/>
<path d="M90.5464 200.683L69.939 191.244C69.655 191.114 69.5301 190.779 69.6605 190.495C69.7908 190.211 70.1262 190.086 70.4102 190.216L91.0177 199.655C91.3017 199.785 91.4265 200.121 91.2962 200.405C91.1659 200.689 90.8304 200.813 90.5464 200.683Z" fill="#8AD6ED"/>
<path d="M95.1001 174.157L91.6605 187.664C91.5905 187.939 91.4376 188.17 91.2359 188.34C91.0534 188.489 90.8339 188.59 90.5986 188.625C90.4326 188.651 90.2583 188.644 90.0848 188.6L70.7176 183.668C70.5447 183.624 70.3877 183.547 70.2546 183.445C70.0652 183.301 69.9205 183.107 69.8313 182.889C69.7353 182.644 69.7119 182.368 69.7819 182.093L73.2215 168.585C73.275 168.375 73.3779 168.189 73.5131 168.04C73.666 167.87 73.8616 167.743 74.0776 167.673C74.3033 167.599 74.5503 167.587 74.7966 167.65L94.1637 172.582C94.41 172.644 94.6213 172.773 94.7839 172.946C94.9403 173.111 95.0521 173.315 95.1049 173.538C95.1523 173.734 95.1536 173.947 95.1001 174.157Z" fill="#00AAF0"/>
<path d="M95.1056 173.538L83.7468 179.263L83.1308 179.573L82.8776 179.7C82.6039 179.839 82.298 179.865 82.0167 179.793C81.7354 179.722 81.4789 179.552 81.3046 179.3L81.1434 179.067L80.751 178.5L73.5137 168.04C73.6667 167.87 73.8622 167.743 74.0783 167.673L81.3904 178.243L81.7828 178.81L81.8569 178.918C82.016 179.147 82.3261 179.226 82.5758 179.101L82.6924 179.042L83.3084 178.731L94.7852 172.947C94.9416 173.111 95.0534 173.316 95.1063 173.539L95.1056 173.538Z" fill="white"/>
<path d="M81.7827 178.81L81.1433 179.067L70.2552 183.445C70.0658 183.3 69.9211 183.107 69.8319 182.889L80.751 178.5L81.3903 178.243L81.7827 178.81Z" fill="white"/>
<path d="M91.2367 188.339C91.0542 188.488 90.8347 188.589 90.5994 188.625L83.1309 179.573L82.6926 179.041L83.3086 178.73L83.7469 179.262L91.2367 188.338V188.339Z" fill="white"/>
<path opacity="0.15" d="M71.8124 163.976C72.2 163.885 72.2638 163.422 72.2679 163.387C72.2013 163.66 72.0058 163.85 71.8124 163.976Z" fill="black"/>
</svg>
