<svg width="295" height="259" viewBox="0 0 295 259" fill="none" xmlns="http://www.w3.org/2000/svg">
<path d="M282.542 54.8708C270.102 35.99 246.456 24.7777 223.604 26.9358C200.752 29.0939 179.719 44.4637 171.168 65.3383C166.786 75.9919 165.417 87.9437 158.888 97.4745C152.194 107.246 141.037 113.074 130.093 117.944C119.149 122.813 107.635 127.299 99.0193 135.472C90.4032 143.644 85.3256 156.79 90.4032 167.438C95.5959 178.262 108.709 182.589 118.179 190.148C127.65 197.707 133.67 208.826 143.337 216.133C152.271 222.887 163.79 225.855 175.085 225.833C186.379 225.811 197.488 222.963 208.037 219.025C240.754 206.816 271.576 184.095 284.629 152.293C308.79 93.3993 282.542 54.8708 282.542 54.8708Z" fill="#D8F4FF"/>
<path d="M282.542 54.8708C270.102 35.99 246.456 24.7777 223.604 26.9358C200.752 29.0939 179.719 44.4637 171.168 65.3383C166.786 75.9919 165.417 87.9437 158.888 97.4745C152.194 107.246 141.037 113.074 130.093 117.944C119.149 122.813 107.635 127.299 99.0193 135.472C90.4032 143.644 85.3256 156.79 90.4032 167.438C95.5959 178.262 108.709 182.589 118.179 190.148C127.65 197.707 133.67 208.826 143.337 216.133C152.271 222.887 163.79 225.855 175.085 225.833C186.379 225.811 197.488 222.963 208.037 219.025C240.754 206.816 271.576 184.095 284.629 152.293C308.79 93.3993 282.542 54.8708 282.542 54.8708Z" fill="#D8F4FF"/>
<path d="M238.585 203.053C238.585 203.053 246.527 203.009 255.335 190.739C263.031 180.009 248.423 146.788 240.234 139.147C232.045 131.506 216.106 173.239 217.957 183.81C220.592 198.873 231.946 202.669 238.585 203.053Z" fill="#00AAF0"/>
<path d="M251.473 182.414L239.248 194.568L240.48 225.538H236.432C236.383 225.324 236.536 203.989 236.668 179.105L227.296 170.117C228.008 170.117 226.748 168.901 226.606 168.78L236.712 175.78C236.794 160.23 236.871 147.708 236.871 147.708L237.785 146.564L238.295 163.193L246.938 156.971C246.812 157.091 245.536 158.307 246.248 158.307L238.382 166.129L239.116 190.087L252.459 180.485C252.279 180.672 250.449 182.414 251.473 182.414Z" stroke="white" stroke-width="0.547746" stroke-miterlimit="10"/>
<path d="M274.923 213.137C274.923 213.137 284.585 212.441 289.405 203.277C294.609 193.368 281.917 169.865 275.432 168.123C268.311 166.2 257.071 184.982 259.372 199.574C260.95 209.532 270.458 212.885 274.923 213.137Z" fill="#00AAF0"/>
<path d="M282.175 195.171L275.437 200.522C275.229 187.957 275.054 177.922 275.054 177.922L274.227 176.98L273.92 189.814V190.093L268.202 185.607C268.202 185.607 269.116 186.538 268.645 186.544L273.849 192.202L273.498 206.958L264.86 200.161C264.86 200.161 266.153 201.481 265.49 201.486L273.416 210.108L273.372 211.811L273.323 213.646L273.055 225.286L275.848 225.253C275.782 221.512 275.722 217.584 275.662 213.662C275.607 210.321 275.541 206.974 275.498 203.759C275.498 203.518 275.498 203.294 275.498 203.058L281.687 196.282C281.117 196.288 282.175 195.171 282.175 195.171Z" stroke="white" stroke-width="0.547746" stroke-miterlimit="10"/>
<path d="M262.889 220.34C261.99 219.616 260.374 219.633 258.956 219.693C259.06 218.789 259.438 217.897 259.547 216.987C259.634 216.518 259.587 216.034 259.412 215.591C259.237 215.147 258.94 214.762 258.556 214.479C257 213.383 254.262 213.81 252.114 214.435C252.41 212.31 250.148 210.239 247.119 209.91C244.09 209.582 240.721 211.061 239.834 213.137C238.607 211.964 236.159 211.493 234.116 212.041C232.072 212.589 230.621 214.117 230.725 215.591C229.158 215.486 227.411 215.415 226.113 216.089C224.207 217.086 224.338 219.102 222.87 220.405C222.396 220.315 221.906 220.354 221.453 220.52C220.999 220.686 220.6 220.972 220.296 221.347C219.797 221.999 219.71 222.744 219.409 223.445C218.795 224.847 216.757 225.023 214.813 225.636L263.475 226.042C264.532 225.702 265.436 224.979 265.392 224.196C265.348 223.412 264.039 222.777 263.026 223.166C263.376 223.182 263.935 221.172 262.889 220.34Z" fill="#00AAF0"/>
<path d="M284.766 222.47C284.218 222.032 283.221 222.038 282.355 222.076C282.416 221.528 282.646 220.98 282.717 220.433C282.771 220.145 282.742 219.848 282.635 219.575C282.527 219.303 282.345 219.067 282.109 218.893C281.156 218.225 279.474 218.483 278.16 218.866C278.34 217.562 276.955 216.292 275.098 216.094C273.241 215.897 271.176 216.796 270.634 218.066C269.883 217.349 268.377 217.064 267.128 217.404C265.879 217.743 264.986 218.674 265.052 219.595C264.088 219.529 263.02 219.48 262.226 219.896C261.054 220.509 261.13 221.742 260.237 222.541C259.946 222.486 259.645 222.511 259.366 222.613C259.087 222.715 258.841 222.891 258.654 223.122C258.419 223.525 258.235 223.955 258.107 224.404C257.734 225.264 256.463 225.368 255.291 225.746L285.116 225.992C285.762 225.784 286.316 225.34 286.294 224.864C286.272 224.387 285.461 223.993 284.842 224.234C285.061 224.218 285.406 222.985 284.766 222.47Z" fill="#00AAF0"/>
<path d="M164.3 127.847C162.955 126.925 161.384 126.388 159.756 126.295C158.129 126.201 156.507 126.555 155.065 127.317C153.624 128.079 152.419 129.221 151.58 130.618C150.741 132.016 150.3 133.617 150.305 135.247V135.302C150.033 134.953 149.69 134.666 149.299 134.459C148.908 134.253 148.478 134.131 148.036 134.103C147.595 134.074 147.153 134.14 146.738 134.294C146.324 134.449 145.947 134.69 145.633 135.001C145.445 133.21 144.578 131.56 143.211 130.39C141.843 129.22 140.079 128.618 138.281 128.71C136.484 128.801 134.789 129.578 133.547 130.881C132.305 132.183 131.61 133.913 131.605 135.713C131.311 135.506 130.97 135.376 130.613 135.337C130.257 135.298 129.896 135.35 129.564 135.489C129.233 135.627 128.943 135.848 128.72 136.129C128.497 136.411 128.349 136.744 128.291 137.098H178.065C178.064 135.897 177.72 134.721 177.072 133.71C176.424 132.699 175.499 131.895 174.408 131.392C173.317 130.89 172.105 130.712 170.915 130.877C169.725 131.043 168.608 131.546 167.696 132.328C167.394 131.465 166.964 130.652 166.42 129.918" stroke="#263238" stroke-width="0.547746" stroke-linecap="round" stroke-linejoin="round"/>
<path d="M249.836 62.3366C251.473 61.7648 253.222 61.5931 254.939 61.8359C256.656 62.0787 258.289 62.7289 259.703 63.7322C261.117 64.7354 262.271 66.0626 263.067 67.6027C263.863 69.1429 264.279 70.8512 264.28 72.585V72.6507C264.61 72.2282 265.026 71.8804 265.501 71.6299C265.975 71.3795 266.497 71.2321 267.032 71.1975C267.568 71.1628 268.104 71.2417 268.607 71.4289C269.109 71.6161 269.567 71.9074 269.949 72.2837C270.194 70.1243 271.252 68.1393 272.909 66.7333C274.566 65.3273 276.697 64.606 278.868 64.7163C281.038 64.8266 283.085 65.7603 284.591 67.3272C286.097 68.894 286.949 70.9761 286.973 73.1491C287.404 72.8394 287.921 72.6744 288.452 72.6781C289.062 72.6765 289.653 72.8923 290.119 73.2867C290.584 73.6811 290.895 74.2285 290.993 74.8307H230.593C230.589 73.3694 231.005 71.9376 231.792 70.7061C232.579 69.4746 233.703 68.4954 235.031 67.8852C236.359 67.2749 237.834 67.0594 239.281 67.2644C240.728 67.4693 242.085 68.0861 243.192 69.041C243.739 67.4621 244.642 66.0302 245.832 64.8563" stroke="#263238" stroke-width="0.547746" stroke-linecap="round" stroke-linejoin="round"/>
<path d="M64.4675 49.7275H124.867C124.872 48.2662 124.456 46.8344 123.669 45.6029C122.882 44.3714 121.758 43.3922 120.43 42.782C119.102 42.1717 117.627 41.9562 116.18 42.1612C114.733 42.3661 113.375 42.9828 112.269 43.9378C111.43 41.5137 109.759 39.4653 107.553 38.1561C105.347 36.8469 102.748 36.3617 100.219 36.7865C97.6887 37.2113 95.3911 38.5187 93.7336 40.4767C92.0762 42.4346 91.166 44.9165 91.1646 47.4818V47.5475C90.8341 47.125 90.4181 46.7772 89.9437 46.5267C89.4694 46.2763 88.9475 46.1289 88.4122 46.0943C87.877 46.0596 87.3404 46.1385 86.8378 46.3257C86.3351 46.5129 85.8777 46.8042 85.4954 47.1805C85.2509 45.0211 84.1922 43.0361 82.5351 41.6301C80.878 40.2241 78.7472 39.5028 76.5768 39.6131C74.4064 39.7234 72.3597 40.6571 70.8537 42.224C69.3477 43.7908 68.4958 45.8728 68.4715 48.0459C68.0409 47.7362 67.523 47.5712 66.9926 47.5749C66.3851 47.5772 65.7981 47.7947 65.3359 48.1888C64.8736 48.5829 64.5659 49.1281 64.4675 49.7275Z" fill="#D8F4FF" stroke="#263238" stroke-width="0.547746" stroke-miterlimit="10"/>
<path d="M290.993 225.992H271.362H269.078H64.4675" stroke="#263238" stroke-width="0.547746" stroke-linecap="round" stroke-linejoin="round"/>
<path d="M194.946 98.34H208.788" stroke="#263238" stroke-width="0.547746" stroke-linecap="round" stroke-linejoin="round"/>
<path d="M179.067 98.34H193.122" stroke="#263238" stroke-width="0.547746" stroke-linecap="round" stroke-linejoin="round"/>
<path d="M171.579 98.34H175.901" stroke="#263238" stroke-width="0.547746" stroke-linecap="round" stroke-linejoin="round"/>
<path d="M182.945 105.855H208.733" stroke="#263238" stroke-width="0.547746" stroke-linecap="round" stroke-linejoin="round"/>
<path d="M175.901 105.855H179.067" stroke="#263238" stroke-width="0.547746" stroke-linecap="round" stroke-linejoin="round"/>
<path d="M194.486 113.376H208.678" stroke="#263238" stroke-width="0.547746" stroke-linecap="round" stroke-linejoin="round"/>
<path d="M180.223 113.376H192.388" stroke="#263238" stroke-width="0.547746" stroke-linecap="round" stroke-linejoin="round"/>
<path d="M192.542 120.891H208.623" stroke="#263238" stroke-width="0.547746" stroke-linecap="round" stroke-linejoin="round"/>
<path d="M184.544 120.891H190.258" stroke="#263238" stroke-width="0.547746" stroke-linecap="round" stroke-linejoin="round"/>
<path d="M239.834 121.165H199.531L201.552 98.0551H241.855L239.834 121.165Z" fill="white" stroke="#263238" stroke-width="0.547746" stroke-linecap="round" stroke-linejoin="round"/>
<path d="M241.855 98.0606H201.552" stroke="#263238" stroke-width="0.547746" stroke-linecap="round" stroke-linejoin="round"/>
<path d="M239.834 121.165H199.531L213.307 108.084L220.307 114.049L228.501 107.969L239.834 121.165Z" fill="white" stroke="#263238" stroke-width="0.547746" stroke-linecap="round" stroke-linejoin="round"/>
<path d="M241.855 98.0551L228.501 107.969L220.307 114.049L213.307 108.084L201.552 98.0551H241.855Z" fill="white" stroke="#263238" stroke-width="0.547746" stroke-linecap="round" stroke-linejoin="round"/>
<path d="M167.723 98.34H157.606" stroke="#263238" stroke-width="0.547746" stroke-linecap="round" stroke-linejoin="round"/>
<path d="M207.442 73.2964C200.458 78.9822 187.565 82.4553 187.565 82.4553L194.062 75.4949C190.893 74.4746 188.158 72.4197 186.297 69.6598C184.435 66.8998 183.554 63.5947 183.796 60.2744C184.037 56.954 185.386 53.8109 187.627 51.3489C189.868 48.887 192.87 47.2489 196.153 46.6973C199.437 46.1457 202.81 46.7126 205.732 48.307C208.655 49.9014 210.957 52.4311 212.27 55.4903C213.583 58.5494 213.831 61.961 212.973 65.1777C212.116 68.3945 210.203 71.2302 207.542 73.23" fill="white"/>
<path d="M207.442 73.2964C200.458 78.9822 187.565 82.4553 187.565 82.4553L194.062 75.4949C190.893 74.4746 188.158 72.4197 186.297 69.6598C184.435 66.8998 183.554 63.5947 183.796 60.2744C184.037 56.954 185.386 53.8109 187.627 51.3489C189.868 48.887 192.87 47.2489 196.153 46.6973C199.437 46.1457 202.81 46.7126 205.732 48.307C208.655 49.9014 210.957 52.4311 212.27 55.4903C213.583 58.5494 213.831 61.961 212.973 65.1777C212.116 68.3945 210.203 71.2302 207.542 73.23" stroke="#263238" stroke-width="0.473821" stroke-linecap="round" stroke-linejoin="round"/>
<path d="M207.797 54.95C210.213 54.95 212.171 52.992 212.171 50.5766C212.171 48.1613 210.213 46.2033 207.797 46.2033C205.382 46.2033 203.424 48.1613 203.424 50.5766C203.424 52.992 205.382 54.95 207.797 54.95Z" fill="#00AAF0" stroke="#263238" stroke-width="0.473821" stroke-linecap="round" stroke-linejoin="round"/>
<path d="M205.263 49.6006L207.798 52.453L213.564 45.63L213.36 45.4167L207.798 50.2023L206.324 48.5961L205.263 49.6006Z" fill="white" stroke="#263238" stroke-width="0.473821" stroke-linecap="round" stroke-linejoin="round"/>
<path d="M190.929 57.7551H207.262" stroke="#263238" stroke-width="0.473821" stroke-linecap="round" stroke-linejoin="round"/>
<path d="M190.56 61.972H206.893" stroke="#263238" stroke-width="0.473821" stroke-linecap="round" stroke-linejoin="round"/>
<path d="M190.195 66.1891H206.523" stroke="#263238" stroke-width="0.473821" stroke-linecap="round" stroke-linejoin="round"/>
<path d="M246.007 10.8813V19.5248L269.653 1.29578L246.007 10.8813Z" fill="#00AAF0" stroke="#263238" stroke-width="0.547746" stroke-linecap="round" stroke-linejoin="round"/>
<path d="M246.007 10.8813L270.196 1L237.167 4.42341L246.007 10.8813Z" fill="#00AAF0" stroke="#263238" stroke-width="0.547746" stroke-linecap="round" stroke-linejoin="round"/>
<path d="M248.85 12.6725L260.237 21.0968L270.195 1L248.85 12.6725Z" fill="#00AAF0" stroke="#263238" stroke-width="0.547746" stroke-linecap="round" stroke-linejoin="round"/>
<path d="M248.85 12.6725L246.007 19.5248L252.065 15.0497L248.85 12.6725Z" fill="#00AAF0" stroke="#263238" stroke-width="0.547746" stroke-linecap="round" stroke-linejoin="round"/>
<path d="M155.393 85.1119C155.454 84.9366 155.519 84.7668 155.58 84.597" stroke="#263238" stroke-width="0.547746" stroke-linecap="round" stroke-linejoin="round"/>
<path d="M156.297 82.5266C161.391 67.3157 160.476 58.1738 168.747 43.4394C170.391 40.4597 178.711 26.3607 190.531 21.3324C196.677 18.7196 200.588 22.6196 199.005 25.3802C195.472 31.5259 182.496 24.1587 195.472 16.8847C207.479 10.1583 233.036 23.3097 245.016 19.5358" stroke="#263238" stroke-width="0.547746" stroke-linecap="round" stroke-linejoin="round" stroke-dasharray="1.09 2.19"/>
<path d="M246.04 19.1578C246.21 19.0866 246.374 19.0099 246.538 18.9277" stroke="#263238" stroke-width="0.547746" stroke-linecap="round" stroke-linejoin="round"/>
<g clip-path="url(#clip0_1558_210)">
<path d="M204.762 210.84H-0.000183105V210.942H204.762V210.84Z" fill="#EBEBEB"/>
<path d="M97.057 192.575H17.9821C17.3626 192.574 16.7689 192.327 16.3312 191.889C15.8936 191.451 15.6478 190.856 15.6478 190.237V79.0798C15.6532 78.4639 15.9013 77.875 16.3384 77.441C16.7755 77.007 17.3661 76.763 17.9821 76.7619H97.057C97.6772 76.7619 98.272 77.0083 98.7105 77.4468C99.149 77.8853 99.3954 78.4801 99.3954 79.1003V190.237C99.3954 190.857 99.149 191.452 98.7105 191.89C98.272 192.329 97.6772 192.575 97.057 192.575ZM17.9821 76.8438C17.3897 76.8449 16.8221 77.081 16.4036 77.5002C15.9852 77.9194 15.7501 78.4875 15.7501 79.0798V190.237C15.7501 190.829 15.9852 191.397 16.4036 191.817C16.8221 192.236 17.3897 192.472 17.9821 192.473H97.057C97.6497 192.472 98.2178 192.236 98.6369 191.817C99.056 191.398 99.2919 190.83 99.293 190.237V79.0798C99.2919 78.4871 99.056 77.919 98.6369 77.4999C98.2178 77.0808 97.6497 76.8449 97.057 76.8438H17.9821Z" fill="#EBEBEB"/>
<path d="M185.641 192.575H106.562C105.942 192.574 105.348 192.327 104.91 191.889C104.472 191.451 104.225 190.857 104.224 190.237V79.0798C104.23 78.4635 104.479 77.8746 104.917 77.4407C105.355 77.0069 105.946 76.763 106.562 76.7619H185.641C186.256 76.764 186.846 77.0086 187.282 77.4424C187.718 77.8763 187.966 78.4646 187.971 79.0798V190.237C187.971 190.856 187.726 191.449 187.289 191.887C186.853 192.326 186.26 192.573 185.641 192.575ZM106.562 76.8438C105.969 76.8449 105.401 77.0808 104.982 77.4999C104.563 77.919 104.327 78.4871 104.326 79.0798V190.237C104.327 190.83 104.563 191.398 104.982 191.817C105.401 192.236 105.969 192.472 106.562 192.473H185.641C186.234 192.472 186.802 192.236 187.221 191.817C187.64 191.398 187.876 190.83 187.877 190.237V79.0798C187.876 78.4871 187.64 77.919 187.221 77.4999C186.802 77.0808 186.234 76.8449 185.641 76.8438H106.562Z" fill="#EBEBEB"/>
<path d="M184.245 217.429H173.597V217.532H184.245V217.429Z" fill="#EBEBEB"/>
<path d="M145.803 218.543H127.362V218.646H145.803V218.543Z" fill="#EBEBEB"/>
<path d="M173.188 213.629H148.293V213.731H173.188V213.629Z" fill="#EBEBEB"/>
<path d="M29.3586 214.317H21.4835V214.419H29.3586V214.317Z" fill="#EBEBEB"/>
<path d="M55.65 214.317H33.0075V214.419H55.65V214.317Z" fill="#EBEBEB"/>
<path d="M99.9809 216.045H69.4837V216.147H99.9809V216.045Z" fill="#EBEBEB"/>
<path d="M114.032 89.2114H31.738V148.289H114.032V89.2114Z" fill="#FAFAFA"/>
<path d="M53.803 148.289L67.9152 89.2074H83.6246L69.5124 148.289H53.803Z" fill="white"/>
<path d="M84.4844 148.289L98.5966 89.2074H104.326L90.2136 148.289H84.4844Z" fill="white"/>
<path d="M48.3811 148.289L62.4974 89.2074H64.6474L50.5352 148.289H48.3811Z" fill="white"/>
<path d="M117.943 87.1761H27.8147C27.7663 87.1761 27.7184 87.1856 27.6737 87.2041C27.6289 87.2227 27.5883 87.2498 27.5541 87.284C27.5199 87.3183 27.4927 87.3589 27.4742 87.4036C27.4557 87.4483 27.4461 87.4963 27.4461 87.5447C27.4461 87.5929 27.4557 87.6406 27.4743 87.6851C27.4928 87.7296 27.5201 87.7699 27.5543 87.8038C27.5886 87.8377 27.6293 87.8645 27.674 87.8826C27.7187 87.9006 27.7665 87.9097 27.8147 87.9091H117.943C118.04 87.9091 118.133 87.8709 118.202 87.8026C118.271 87.7344 118.31 87.6417 118.311 87.5447C118.31 87.4472 118.271 87.3541 118.202 87.2852C118.133 87.2163 118.04 87.1772 117.943 87.1761Z" fill="#E0E0E0"/>
<path d="M71.4946 148.416H75.0042L75.0042 89.0845H71.4946V148.416Z" fill="#F0F0F0"/>
<path d="M75.0042 148.416H75.3973L75.3973 89.0845H75.0042L75.0042 148.416Z" fill="#E0E0E0"/>
<path d="M31.1688 118.263V119.238H114.601V118.263H31.1688Z" fill="#F0F0F0"/>
<path d="M114.601 147.88V88.6381H31.1688V147.88V148.838H114.601V147.88ZM32.1434 147.88V89.6169H113.639V147.88H32.1434Z" fill="#F0F0F0"/>
<path d="M114.601 148.854H115.088L115.088 88.6381H114.601L114.601 148.854Z" fill="#E0E0E0"/>
<path opacity="0.5" d="M100.083 86.2833V184.405H120.654L116.882 86.2833H100.083Z" fill="#EBEBEB"/>
<path opacity="0.5" d="M85.8075 86.2833V184.405H106.378L102.606 86.2833H85.8075Z" fill="#EBEBEB"/>
<path opacity="0.5" d="M38.2576 86.2833V184.405H25.6033L27.9253 86.2833H38.2576Z" fill="#EBEBEB"/>
<path opacity="0.5" d="M47.0419 86.2833V184.405H34.3876L36.7055 86.2833H47.0419Z" fill="#EBEBEB"/>
<path d="M77.064 210.836H86.1432L86.1432 148.482H77.064V210.836Z" fill="#E6E6E6"/>
<path d="M80.2625 210.84H77.0641V198.988H83.6124L80.2625 210.84Z" fill="#F0F0F0"/>
<path d="M173.093 210.836H182.172V148.482H173.093V210.836Z" fill="#E6E6E6"/>
<path d="M77.0639 207.605H175.882V148.486H77.0639L77.0639 207.605Z" fill="#F0F0F0"/>
<path d="M172.684 210.84H175.882V198.988H169.334L172.684 210.84Z" fill="#F0F0F0"/>
<path d="M143.304 153.38V202.285H172.598V153.38H143.304Z" fill="#E6E6E6"/>
<path d="M155.054 155.1H160.849C163.299 155.123 165.669 154.231 167.495 152.598H148.399C150.227 154.233 152.601 155.125 155.054 155.1Z" fill="#F0F0F0"/>
<path d="M111.828 153.38V202.285H141.122V153.38H111.828Z" fill="#E6E6E6"/>
<path d="M123.266 155.1H129.061C131.514 155.125 133.888 154.233 135.716 152.598H116.624C118.449 154.23 120.818 155.122 123.266 155.1Z" fill="#F0F0F0"/>
<path d="M80.3523 153.38V202.285H109.646V153.38H80.3523Z" fill="#E6E6E6"/>
<path d="M91.8028 155.1H97.5976C100.05 155.125 102.424 154.233 104.252 152.598H85.1481C86.9764 154.233 89.3501 155.125 91.8028 155.1Z" fill="#F0F0F0"/>
<path d="M178.552 137.171H148.456C148.456 137.171 148.731 144.927 157.359 147.487V148.486H169.645V147.487C178.286 144.927 178.552 137.171 178.552 137.171Z" fill="#E6E6E6"/>
<path d="M170.399 87.9993H131.031V130.156H170.399V87.9993Z" fill="#F0F0F0"/>
<path d="M170.403 130.152H171.705V87.9951H170.403V130.152Z" fill="#E0E0E0"/>
<path d="M163.744 91.6112H137.69V126.535H163.744V91.6112Z" fill="white"/>
<path d="M102.381 229.334C146.234 229.334 181.784 227.259 181.784 224.698C181.784 222.138 146.234 220.062 102.381 220.062C58.5282 220.062 22.9784 222.138 22.9784 224.698C22.9784 227.259 58.5282 229.334 102.381 229.334Z" fill="#F5F5F5"/>
<path d="M139.238 178.127H58.4636V185.63H139.238V178.127Z" fill="#263238"/>
<path opacity="0.2" d="M139.238 178.127H116.309V185.63H139.238V178.127Z" fill="black"/>
<path d="M63.3001 185.63H58.4636V226.144H63.3001V185.63Z" fill="#263238"/>
<path opacity="0.2" d="M63.296 187.731L58.4636 186.682V185.63H63.296V187.731Z" fill="black"/>
<path d="M139.242 185.63H134.406V226.144H139.242V185.63Z" fill="#263238"/>
<path opacity="0.2" d="M139.242 185.63H134.406V226.144H139.242V185.63Z" fill="black"/>
<path d="M121.145 185.63H116.309V226.144H121.145V185.63Z" fill="#263238"/>
<path opacity="0.2" d="M121.145 187.731L116.309 186.682V185.63H121.145V187.731Z" fill="black"/>
<path d="M78.4362 185.63H73.5997V226.144H78.4362V185.63Z" fill="#263238"/>
<path opacity="0.2" d="M78.4362 185.63H73.5997V226.144H78.4362V185.63Z" fill="black"/>
<path d="M131.031 140.451H70.4751L65.0981 163.999H125.654L131.031 140.451Z" fill="#263238"/>
<path d="M131.031 140.451H132.416L127.038 163.999H125.654L131.031 140.451Z" fill="black"/>
<path d="M139.73 149.87H52.4479C49.7338 149.87 47.5336 152.07 47.5336 154.784V173.213C47.5336 175.927 49.7338 178.127 52.4479 178.127H139.73C142.444 178.127 144.644 175.927 144.644 173.213V154.784C144.644 152.07 142.444 149.87 139.73 149.87Z" fill="#00AAF0"/>
<path opacity="0.2" d="M139.734 149.87H128.574C125.86 149.87 123.66 152.07 123.66 154.784V173.213C123.66 175.927 125.86 178.127 128.574 178.127H139.734C142.448 178.127 144.648 175.927 144.648 173.213V154.784C144.648 152.07 142.448 149.87 139.734 149.87Z" fill="black"/>
<path opacity="0.2" d="M120.072 157.172H51.1207C50.9035 157.172 50.6952 157.086 50.5416 156.932C50.388 156.778 50.3017 156.57 50.3017 156.353C50.3017 156.136 50.388 155.927 50.5416 155.774C50.6952 155.62 50.9035 155.534 51.1207 155.534H120.072C120.29 155.534 120.498 155.62 120.651 155.774C120.805 155.927 120.891 156.136 120.891 156.353C120.891 156.57 120.805 156.778 120.651 156.932C120.498 157.086 120.29 157.172 120.072 157.172Z" fill="black"/>
<path d="M116.059 164.748H120.203C120.383 164.747 120.556 164.675 120.683 164.548C120.81 164.421 120.882 164.248 120.883 164.068C120.883 163.888 120.812 163.714 120.684 163.586C120.557 163.458 120.384 163.385 120.203 163.384H116.059C115.878 163.385 115.706 163.458 115.578 163.586C115.451 163.714 115.379 163.888 115.379 164.068C115.38 164.248 115.452 164.421 115.58 164.548C115.707 164.675 115.879 164.747 116.059 164.748Z" fill="white"/>
<path d="M116.059 167.652H120.203C120.384 167.651 120.557 167.578 120.684 167.45C120.812 167.322 120.883 167.148 120.883 166.968C120.882 166.788 120.81 166.615 120.683 166.488C120.556 166.361 120.383 166.289 120.203 166.288H116.059C115.879 166.289 115.707 166.361 115.58 166.488C115.452 166.615 115.38 166.788 115.379 166.968C115.379 167.148 115.451 167.322 115.578 167.45C115.706 167.578 115.878 167.651 116.059 167.652Z" fill="white"/>
<path d="M116.059 170.543H120.203C120.384 170.542 120.557 170.469 120.684 170.341C120.812 170.213 120.883 170.04 120.883 169.859C120.883 169.678 120.812 169.505 120.684 169.377C120.557 169.249 120.384 169.176 120.203 169.175H116.059C115.878 169.176 115.706 169.249 115.578 169.377C115.451 169.505 115.379 169.678 115.379 169.859C115.379 170.04 115.451 170.213 115.578 170.341C115.706 170.469 115.878 170.542 116.059 170.543Z" fill="white"/>
<path d="M67.2072 156.353C68.0057 149.444 63.0505 143.846 56.15 143.846H106.599C113.508 143.846 118.475 149.444 117.656 156.353H67.2072Z" fill="#00AAF0"/>
<g opacity="0.3">
<path d="M67.2072 156.353C68.0057 149.444 63.0505 143.846 56.15 143.846H106.599C113.508 143.846 118.475 149.444 117.656 156.353H67.2072Z" fill="white"/>
</g>
<path d="M56.1418 143.846H106.599C99.6947 143.846 93.4495 149.444 92.6509 156.353L86.9176 206.04C86.1231 212.949 79.8778 218.547 72.9692 218.547H47.5377C40.6291 218.547 35.6616 212.949 36.4806 206.04L42.2139 156.353C43.0002 149.444 49.2332 143.846 56.1418 143.846Z" fill="#00AAF0"/>
<path opacity="0.7" d="M56.1418 143.846H106.599C99.6947 143.846 93.4495 149.444 92.6509 156.353L86.9176 206.04C86.1231 212.949 79.8778 218.547 72.9692 218.547H47.5377C40.6291 218.547 35.6616 212.949 36.4806 206.04L42.2139 156.353C43.0002 149.444 49.2332 143.846 56.1418 143.846Z" fill="white"/>
<path d="M61.9158 206.04C61.1173 212.949 66.0725 218.547 72.973 218.547H22.5237C15.6151 218.547 10.6475 212.949 11.4666 206.04H61.9158Z" fill="#00AAF0"/>
<path opacity="0.5" d="M61.9158 206.04C61.1173 212.949 66.0725 218.547 72.973 218.547H22.5237C15.6151 218.547 10.6475 212.949 11.4666 206.04H61.9158Z" fill="white"/>
<path d="M86.7209 174.511H43.9421L44.499 169.662H87.2779L86.7209 174.511Z" fill="#00AAF0"/>
<path opacity="0.8" d="M86.7206 174.511H43.9418L43.4872 178.467H86.266L86.7206 174.511Z" fill="white"/>
<path d="M83.7641 200.18H70.7454L71.0115 197.842H84.0344L83.7641 200.18Z" fill="#00AAF0"/>
<path opacity="0.8" d="M83.764 200.18H70.7452L70.5241 202.093H83.5429L83.764 200.18Z" fill="white"/>
<path opacity="0.5" d="M85.8076 182.427H43.0287L43.4874 178.467H86.2663L85.8076 182.427Z" fill="white"/>
<path opacity="0.8" d="M85.8076 182.427H43.0287L42.5741 186.387H85.353L85.8076 182.427Z" fill="white"/>
<path opacity="0.5" d="M84.8984 190.343H42.1154L42.5741 186.387H85.3529L84.8984 190.343Z" fill="white"/>
<path opacity="0.8" d="M84.8986 190.343H42.1156L41.6611 194.303H84.4399L84.8986 190.343Z" fill="white"/>
</g>
<defs>
<clipPath id="clip0_1558_210">
<rect width="204.762" height="204.762" fill="white" transform="translate(-6.10352e-05 54.2381)"/>
</clipPath>
</defs>
</svg>
